<?xml version="1.0" standalone="no"?>
<!DOCTYPE svg PUBLIC "-//W3C//DTD SVG 20010904//EN"
 "http://www.w3.org/TR/2001/REC-SVG-20010904/DTD/svg10.dtd">
<svg version="1.0" xmlns="http://www.w3.org/2000/svg"
 width="200.000000pt" height="200.000000pt" viewBox="0 0 200.000000 200.000000"
 preserveAspectRatio="xMidYMid meet">
<metadata>
Created by potrace 1.15, written by Peter Selinger 2001-2017
</metadata>
<g transform="translate(0.000000,200.000000) scale(0.100000,-0.100000)"
fill="#e40527" stroke="none">
<path d="M795 1936 c-354 -82 -622 -337 -717 -684 -18 -63 -21 -105 -21 -237
-1 -146 2 -168 27 -250 91 -299 298 -524 574 -625 634 -231 1291 250 1259 920
-3 65 -14 149 -26 192 -52 200 -178 389 -345 515 -73 55 -236 134 -326 158
-89 23 -343 30 -425 11z m260 -456 c3 -5 19 -10 36 -10 43 0 38 -34 -17 -102
-43 -55 -48 -58 -89 -58 -41 0 -47 4 -89 56 -56 68 -61 104 -16 104 17 0 30 5
30 10 0 6 30 10 69 10 39 0 73 -4 76 -10z m18 -212 c12 -6 37 -22 55 -36 l33
-25 -47 -48 c-44 -45 -49 -47 -68 -33 -34 23 -93 18 -123 -12 -21 -21 -25 -32
-20 -64 4 -32 2 -39 -14 -43 -25 -7 -25 -27 0 -27 11 0 22 -4 25 -8 3 -5 -37
-50 -88 -101 l-93 -92 -28 41 c-25 36 -28 50 -28 113 0 57 5 85 26 130 29 64
99 143 165 187 39 26 54 30 114 30 38 0 79 -5 91 -12z m188 -194 c27 -54 31
-74 31 -139 0 -65 -3 -81 -26 -113 -33 -48 -33 -69 1 -104 14 -15 24 -31 20
-34 -8 -8 -577 -11 -577 -4 0 3 37 42 83 87 72 71 88 82 127 88 25 3 65 2 89
-4 52 -11 94 1 89 26 -3 14 -16 17 -85 17 -96 1 -104 -17 66 158 132 135 127
135 182 22z"/>
</g>
</svg>
