<svg xmlns="http://www.w3.org/2000/svg" xmlns:xlink="http://www.w3.org/1999/xlink" viewBox="0 0 27.68 26.17"><defs><style>.cls-1{fill:none;}.cls-2{clip-path:url(#clip-path);}.cls-3{fill:#e7323c;}.cls-4{fill:#fff;}.cls-5{fill:#e85959;}</style><clipPath id="clip-path" transform="translate(0 0)"><rect class="cls-1" width="27.68" height="26.17"/></clipPath></defs><title>Datový zdroj 11</title><g id="Vrstva_2" data-name="Vrstva 2"><g id="Vrstva_1-2" data-name="Vrstva 1"><g class="cls-2"><path class="cls-3" d="M27.68,13.09c0,7.22-6.19,13.08-13.84,13.08S0,20.31,0,13.09,6.2,0,13.84,0,27.68,5.86,27.68,13.09" transform="translate(0 0)"/><path class="cls-4" d="M18.52,10.47c-.09-.11-.29-.31-.38-.42-.71-.79-1.3-1.69-2-2.48a3.94,3.94,0,0,0-1.17-1l0,0a6.65,6.65,0,0,1,2.29-2.69l.07,0c.18-.07.1-.36-.08-.29-.75.29-1-.66-1.64-.58a1.82,1.82,0,0,0-.76.32,1.56,1.56,0,0,1-1.65-.09c-.6-.28-1,.17-1.34.57s-.85,0-1.21,0a.78.78,0,0,0-.51.12,0,0,0,0,0-.06,0,1.17,1.17,0,0,0,0,.11h0s0,.09,0,.13a0,0,0,0,0,.06,0c0,.41.4.71.63,1.06a5,5,0,0,0,1.21,1.35,18.45,18.45,0,0,0-1.31,1.64C10,8.89,9.47,9.61,9,10.36a10.11,10.11,0,0,0-2,4.78,4.66,4.66,0,0,0,0,1.05Zm-11.9,8a5.3,5.3,0,0,0,1.8,3,3,3,0,0,0,1.16.46c.49.1,1,.26,1.46.37a5.56,5.56,0,0,0,1.48.17,6.65,6.65,0,0,0,2.63-.23,10.13,10.13,0,0,0,2.67-.95,4.06,4.06,0,0,0,2.32-3.76,8,8,0,0,0-1.83-4.81Z" transform="translate(0 0)"/><path class="cls-5" d="M14.33,18.08c0-.92,0-1.83,0-2.75a1.74,1.74,0,0,1,.77,1.36,1.81,1.81,0,0,1-.76,1.39m-.78.43a1.8,1.8,0,0,1-.4.1c0-.28-.09-.56-.1-.81,0-.81,0-1.64-.1-2.45,0-.27-.07-.54-.1-.81.28.13.57.26.84.4a16.4,16.4,0,0,0,0,3.5l-.18.07m-1.91-5.46c-.66-.6-.21-1.54.35-2.12,0,.83.09,1.68.19,2.51a3.11,3.11,0,0,1-.54-.39m1.87-3c0,1.35.19,2.71.2,4.07l-1-.41c-.11-1.05-.21-2.11-.33-3.16a3.71,3.71,0,0,1,1.09-.5m.81,4.35c0-1.45-.05-2.89-.17-4.33.21.13.31.41.51.68a.08.08,0,0,0,.13,0,.93.93,0,0,0-.52-1.26l-.17-.06c0-.39-.08-.78-.13-1.17a.2.2,0,0,0-.4,0c0,.38-.05.76-.06,1.14a4.16,4.16,0,0,0-1.16.38h0l-.15-1s-.05,0-.05,0A8.92,8.92,0,0,0,12,10c-1.1.71-2,2.38-1,3.47a4.17,4.17,0,0,0,1.28.83c.05.38.09.76.13,1.13a26.23,26.23,0,0,1,0,2.66v.51l-.18,0c-.42-.11-.73-.46-1.16-.56a.23.23,0,0,0-.27.28c.14.82.9,1.13,1.71,1.16a1,1,0,0,0,.26.42.21.21,0,0,0,.35-.09,1.42,1.42,0,0,0,.05-.36,4.78,4.78,0,0,0,.72-.16c.07.19.15.39.24.58s.17,0,.17-.05,0-.46,0-.7h0a2.64,2.64,0,0,0,1.33-3.35,2.73,2.73,0,0,0-1.34-1.3" transform="translate(0 0)"/></g></g></g></svg>
