<svg xmlns="http://www.w3.org/2000/svg" width="11" height="92"><path fill-rule="evenodd" fill="#FFF" d="M10.198 86.233l-.503-.502c-.067-.066-.144-.1-.23-.1-.088 0-.165.034-.232.1l-3.947 3.95-3.948-3.95c-.067-.066-.144-.1-.23-.1-.088 0-.165.034-.232.1l-.502.503c-.067.067-.1.144-.1.23 0 .088.033.165.1.232l4.68 4.68c.068.068.145.102.232.102.087 0 .164-.034.23-.1l4.682-4.682c.066-.067.1-.144.1-.23 0-.088-.034-.165-.1-.232z"/><path fill-rule="evenodd" opacity=".102" fill="#FFF" d="M4.97 0c.982 0 1.78.74 1.78 1.656 0 .915-.798 1.656-1.78 1.656-.985 0-1.783-.74-1.783-1.656C3.187.74 3.985 0 4.97 0z"/><path fill-rule="evenodd" opacity=".2" fill="#FFF" d="M4.97 11.03c.982 0 1.78.736 1.78 1.642 0 .906-.798 1.64-1.78 1.64-.985 0-1.783-.734-1.783-1.64 0-.906.798-1.64 1.782-1.64z"/><path fill-rule="evenodd" opacity=".302" fill="#FFF" d="M4.97 22c.982 0 1.78.74 1.78 1.656 0 .915-.798 1.656-1.78 1.656-.985 0-1.783-.74-1.783-1.656 0-.915.798-1.656 1.782-1.656z"/><path fill-rule="evenodd" opacity=".4" fill="#FFF" d="M4.97 33c.982 0 1.78.734 1.78 1.64 0 .907-.798 1.64-1.78 1.64-.985 0-1.783-.733-1.783-1.64 0-.906.798-1.64 1.782-1.64z"/><path fill-rule="evenodd" opacity=".6" fill="#FFF" d="M4.97 44c.982 0 1.78.734 1.78 1.64 0 .907-.798 1.64-1.78 1.64-.985 0-1.783-.733-1.783-1.64 0-.906.798-1.64 1.782-1.64zM4.97 54.968c.982 0 1.78.742 1.78 1.657s-.798 1.656-1.78 1.656c-.985 0-1.783-.74-1.783-1.655s.798-1.657 1.782-1.657z"/><path fill-rule="evenodd" opacity=".702" fill="#FFF" d="M4.97 65.937c.982 0 1.78.742 1.78 1.657 0 .914-.798 1.656-1.78 1.656-.985 0-1.783-.742-1.783-1.656 0-.915.798-1.657 1.782-1.657z"/><path fill-rule="evenodd" opacity=".8" fill="#FFF" d="M4.97 76.937c.982 0 1.78.742 1.78 1.656 0 .915-.798 1.657-1.78 1.657-.985 0-1.783-.742-1.783-1.657 0-.914.798-1.656 1.782-1.656z"/></svg>