<svg xmlns="http://www.w3.org/2000/svg" viewBox="0 0 118.39 129.35"><defs><style>.cls-1{fill:#fff;}.cls-2{fill:#00788a;}.cls-2,.cls-3,.cls-4{fill-rule:evenodd;}.cls-3{fill:#e40026;}.cls-4{fill:#fec700;}</style></defs><title>Datový zdroj 3</title><g id="Vrstva_2" data-name="Vrstva 2"><g id="Vrstva_1-2" data-name="Vrstva 1"><path class="cls-1" d="M12.49,58.79a40.13,40.13,0,0,0-1.31,16.38c.11,1.1.26,2.18.42,3.27.33,1.85.73,3.69,1.16,5.53,1.58,4.19,3.52,14.37,18.46,28.78A63.2,63.2,0,0,1,35,118a19.53,19.53,0,0,0,5.7,4.87A20.44,20.44,0,0,0,53.36,126c11.56-.25,13.42-15.8,17.82-24.33a60.66,60.66,0,0,1,3-6.9c1.44-3.05,2.87-6.31,1.66-10a17.12,17.12,0,0,1-1-7,12.19,12.19,0,0,1,.47-2.33c.43-1.42,1.83-3.27,1.67-4.69.86-5.74-2-16.82-6.5-21.81-4.26-5.81-12.46-9.8-19.23-11.78A33.88,33.88,0,0,0,39.86,36a33.08,33.08,0,0,0-4.51.64c-.26.07-.52.1-.78.18a31.54,31.54,0,0,0-7.57,3,28.23,28.23,0,0,0-6.43,4.92,33.66,33.66,0,0,0-8.08,14.07"/><path class="cls-2" d="M58.24,1.36A93,93,0,0,1,70.8,4.8c15,5.24,29,15.64,47.59,12.24C97,33.55,76.45,51.08,60.24,41.25A42.58,42.58,0,0,0,44,36.34a24.58,24.58,0,0,0-10.52,1.51v0C43.75,33.7,50.71,23.46,52.26,19.57c1.13-2.82,4.32-12.9,6-18.21"/><path class="cls-3" d="M27.53,107.85s-3.22.74-4.8-1.31c-24.43-31.87-32.4-74.67-7.68-96,1.46,7.14,4.13,20.31,4.83,25.07.88,6-2.42,16.09-3.05,17.94-.35.58-.7,1.19-1,1.81C11.39,63.26,6.37,83,27.53,107.85"/><path class="cls-4" d="M15.05,10.5c10-8.67,24.38-12.86,43.19-9.14-1.66,5.31-4.85,15.39-6,18.21-1.55,3.89-8.51,14.13-18.73,18.26v0c-6,2.28-11.64,7.19-16.69,15.66.63-1.85,3.93-11.92,3.05-17.94-.7-4.76-3.37-17.93-4.83-25.07"/><path class="cls-3" d="M50,63.09c-4,2.66-10.21,6.72-13.68,9.72a25.55,25.55,0,0,1-2.43,2.13c-.15.09-.29.08-.3-.14a12.78,12.78,0,0,1,4.74-9.12c4.12-3,11.73-2.59,11.67-2.59m-1.43,46.44c5.14,1.54,9.42.59,13.87-3.21C62.81,107.85,56.85,120.42,48.61,109.53Zm-5.55-22.8s-.9,1.32-1.87,3c-2,3.85,2.53,9.23,11.37,12.58a16.86,16.86,0,0,0,7.63,1.1,9.25,9.25,0,0,0,5.36-1.83c-5.51,7.65-22.2,2.25-27.37-4.19-.43,2.47-.55,5.17.25,6.13-2.87-3.27-4.41-7.86-3.06-11.13S43.06,86.73,43.06,86.73Zm7.41-13.82s-8.1-.75-11.59,1.89-1.27,4.79-.57,5.27,5.59,2.63,4.63-3.68c1.55-1.33,5.37-2.73,6.89-3.26ZM12.7,65.44c-.11,1-.18,2-.22,3-1.23,16.4,9.76,32.94,19.7,44.64,11.3,13.3,19.27,14.36,25.12,9.36,6.13-5.26,10.18-15.72,12.43-21.83a89,89,0,0,0,4-12.65,11.41,11.41,0,0,0,0-5.25c-.85-2.74-3.14-6.85-6.19-7.1a3.85,3.85,0,0,1,.37,1.79C67.8,79.32,66.48,80.9,65,81s-2.74-1.41-2.68-3.29a4.48,4.48,0,0,1,.25-1.29.49.49,0,0,0,0-.11l0-.07a3.59,3.59,0,0,1,.17-.34c2.12-4.12,7.14-3.39,9.32-1.87a10.53,10.53,0,0,1,2.11,2.15c.12-.35.26-.71.39-1.08s.37-1,.53-1.45a9.52,9.52,0,0,0,.56-3.06s0,0,0,0a4.86,4.86,0,0,0-.17-1l-.09-.14v-.14c-.46-1.22-1.51-2-3.26-2.37-2.79-.65-9.45,3.16-13.24,5.29,2.52-2.21,8.36-8.28,10.65-9.24a6.89,6.89,0,0,1,5.18-.12c-1.53-6.58-5.56-11.64-10.62-16.93,11,5,15,20.57,15,22.86a10.58,10.58,0,0,1-.42,5.49c-.2.58-.37,1.05-.54,1.5-.79,2.14-1.53,5-.94,7.32a13.27,13.27,0,0,1,.06,6.39,91.06,91.06,0,0,1-4,13c-2.32,6.32-7,17.38-13.52,23-6.86,5.88-16.28,6.83-30.42-9.62-2.28-3-4.72-6.32-7.09-9.94A114.78,114.78,0,0,1,4.48,70.27Z"/><path class="cls-3" d="M53,80c-5.27,2-7.16,5.71-5.34,10.68,1.89,5.47,8.56,9.23,12.43,7.72,5.35-2,7.87-8.44,5.76-13.69S59.07,77.62,53,80"/></g></g></svg>