<?xml version="1.0" encoding="UTF-8" standalone="no"?>
<svg
   xmlns:dc="http://purl.org/dc/elements/1.1/"
   xmlns:cc="http://creativecommons.org/ns#"
   xmlns:rdf="http://www.w3.org/1999/02/22-rdf-syntax-ns#"
   xmlns:svg="http://www.w3.org/2000/svg"
   xmlns="http://www.w3.org/2000/svg"
   viewBox="0 0 195.39125 282.88587"
   height="282.88586"
   width="195.39125"
   xml:space="preserve"
   version="1.1"
   id="svg2"><metadata
     id="metadata8"><rdf:RDF><cc:Work
         rdf:about=""><dc:format>image/svg+xml</dc:format><dc:type
           rdf:resource="http://purl.org/dc/dcmitype/StillImage" /><dc:title></dc:title></cc:Work></rdf:RDF></metadata><defs
     id="defs6"><clipPath
       id="clipPath16"
       clipPathUnits="userSpaceOnUse"><path
         id="path18"
         d="m 63.573,28.346 156.317,0 0,226.772 -156.317,0 0,-226.772 z" /></clipPath><clipPath
       id="clipPath48"
       clipPathUnits="userSpaceOnUse"><path
         id="path50"
         d="m 63.573,28.346 156.317,0 0,226.772 -156.317,0 0,-226.772 z" /></clipPath><clipPath
       id="clipPath84"
       clipPathUnits="userSpaceOnUse"><path
         id="path86"
         d="m 63.573,28.346 156.317,0 0,226.772 -156.317,0 0,-226.772 z" /></clipPath><clipPath
       id="clipPath112"
       clipPathUnits="userSpaceOnUse"><path
         id="path114"
         d="m 63.573,28.346 156.317,0 0,226.772 -156.317,0 0,-226.772 z" /></clipPath></defs><g
     transform="matrix(1.25,0,0,-1.25,-79.46625,318.31837)"
     id="g10"><g
       id="g4542"><g
         id="g4466"><g
           id="g4391"><g
             id="g4317"><g
               id="g12"><g
                 clip-path="url(#clipPath16)"
                 id="g14"><g
                   transform="translate(190.9115,121.8495)"
                   id="g20"><path
                     id="path22"
                     style="fill:#ffffff;fill-opacity:1;fill-rule:nonzero;stroke:none"
                     d="m 0,0 c -0.928,-9.725 -4.269,-19.079 -9.089,-27.747 -0.926,-1.717 -1.919,-3.396 -2.929,-5.06 -1.804,-2.804 -3.72,-5.551 -5.699,-8.261 -5.459,-5.786 -15.604,-21.143 -49.975,-34.508 -3.595,-1.622 -6.385,-4.045 -9.843,-6.046 -3.74,-2.208 -8.161,-3.436 -12.68,-4.077 -7.919,-1.424 -16.237,0.135 -22.819,3.61 -18.775,8.341 -11.155,35.083 -12.522,52.074 0.197,4.493 0.174,8.8 -0.17,13.356 -0.275,5.988 -0.382,12.303 4.159,17.587 2.969,3.653 5.17,6.799 6.33,10.759 0.402,1.274 0.666,2.642 0.838,4.136 0.267,2.624 -0.773,6.611 0.464,8.829 1.121,2.047 2.353,4.092 3.588,6.095 0.307,-0.373 0.701,-0.353 1.14,0.486 1.612,3.037 3.299,6.029 5.2,8.892 4.117,6.247 9.084,11.841 15.669,15.8 10.98,6.602 27.135,7.526 39.593,6.116 6.824,-0.77 13.356,-2.969 19.513,-5.962 2.408,-1.186 4.696,-2.618 6.937,-4.138 0.379,-0.287 0.79,-0.529 1.165,-0.836 3.88,-2.928 7.403,-6.272 10.369,-10.056 C -7.769,37.287 -5.414,33.061 -3.61,28.59 0,19.678 1.013,9.711 0,0" /></g><g
                   transform="translate(184.9734,89.2447)"
                   id="g24"><path
                     id="path26"
                     style="fill:#1d1d1b;fill-opacity:1;fill-rule:nonzero;stroke:none"
                     d="m 0,0 c -0.434,-0.04 -19.221,-23.169 -18.371,-22.809 3.179,1.282 11.727,-2.091 14.424,-3.908 0.244,-0.177 0.459,0.01 0.581,0.255 3.446,6.894 10.539,13.663 15.791,19.249 C 13.508,-6.05 2.47,0.28 0,0" /></g><g
                   transform="translate(160.8789,64.8884)"
                   id="g28"><path
                     id="path30"
                     style="fill:#1d1d1b;fill-opacity:1;fill-rule:nonzero;stroke:none"
                     d="m 0,0 c -0.686,-0.07 -13.089,-10.377 -14.132,-11.432 -0.801,-0.841 -2.125,-3.413 -1.045,-3.845 3.016,-1.183 8.668,-2.966 11.951,-4.264 0.18,0.008 0.265,0.107 0.374,0.252 2.57,3.72 13.379,10.798 18.775,12.225 C 16.48,-6.911 1.777,0.132 0,0" /></g><g
                   transform="translate(74.584,87.5804)"
                   id="g32"><path
                     id="path34"
                     style="fill:#1d1d1b;fill-opacity:1;fill-rule:nonzero;stroke:none"
                     d="M 0,0 C -2.168,1.31 -0.402,-4.084 -0.277,-4.284 0.816,-6.023 2.24,-7.34 3.83,-8.643 c 3.835,-3.121 8.553,-4.96 13.341,-5.913 10.588,-2.123 26.726,0.157 35.202,7.291 0.564,0.486 0.629,3.952 -0.277,3.702 -4.86,-1.379 -9.304,-3.989 -14.262,-5.324 -5.297,-1.412 -10.835,-1.904 -16.302,-1.719 -4.98,0.172 -9.551,1.307 -13.967,3.612 -2.458,1.275 -7.705,4.467 -7.543,6.917 0,0.017 0,0.06 -0.022,0.077" /></g><g
                   transform="translate(215.2154,134.9796)"
                   id="g36"><path
                     id="path38"
                     style="fill:#e40427;fill-opacity:1;fill-rule:nonzero;stroke:none"
                     d="m 0,0 -12.328,-5.755 -0.933,0.257 -0.08,0.025 -7.345,1.994 -0.886,0.234 c -0.057,1.441 -0.159,2.895 -0.319,4.358 l -0.182,0.046 0.177,0.062 0.836,0.347 5.77,2.317 1.957,-0.483 L -8.72,2.219 -1.587,0.402 0,0 Z" /></g></g></g><g
               transform="translate(215.2154,134.9796)"
               id="g40"><path
                 id="path42"
                 style="fill:#e40427;fill-opacity:1;fill-rule:nonzero;stroke:none"
                 d="m 0,0 -0.407,-1.356 -13.538,-44.269 -7.567,4.885 8.922,33.985 0.262,1 L 0,0 Z" /></g><g
               id="g44"><g
                 clip-path="url(#clipPath48)"
                 id="g46"><g
                   transform="translate(202.8875,129.2298)"
                   id="g52"><path
                     id="path54"
                     style="fill:#e40427;fill-opacity:1;fill-rule:nonzero;stroke:none"
                     d="m 0,0 -9.184,-34.985 -0.135,0.037 -7.033,2.433 -0.741,0.244 c 3.278,6.557 5.733,13.421 6.928,20.659 0.721,4.401 1.111,9.182 0.916,14.117 L -8.358,2.273 -0.94,0.249 0,0 Z" /></g></g></g><g
               transform="translate(219.886,151.5688)"
               id="g56"><path
                 id="path58"
                 style="fill:#004b75;fill-opacity:1;fill-rule:nonzero;stroke:none"
                 d="m 0,0 -16.829,-18.054 -7.505,31.311 -0.112,0.482 18.346,27.596 0.012,0 0.464,-3.142 L 0,0 Z" /></g><g
               transform="translate(213.7982,192.9036)"
               id="g60"><path
                 id="path62"
                 style="fill:#004b75;fill-opacity:1;fill-rule:nonzero;stroke:none"
                 d="m 0,0 -18.353,-27.592 -0.494,0.107 -0.01,0 -15.464,3.182 -1.106,0.233 0,0.011 -0.227,0.032 0.075,0.119 0.372,0.511 0.763,1.061 5.302,7.422 12.463,17.383 10.065,-1.495 4.196,-0.617 0.011,0 L -0.012,0 0,0 Z" /></g><g
               transform="translate(189.946,253.6572)"
               id="g64"><path
                 id="path66"
                 style="fill:#fec600;fill-opacity:1;fill-rule:nonzero;stroke:none"
                 d="m 0,0 -24.152,-53.579 -1.023,0.148 -18.67,2.766 L -19.488,0.702 -2.742,0.096 0,0 Z" /></g><g
               transform="translate(189.946,253.6572)"
               id="g68"><path
                 id="path70"
                 style="fill:none;stroke:#f39300;stroke-width:0.59100002;stroke-linecap:round;stroke-linejoin:round;stroke-miterlimit:10;stroke-dasharray:none;stroke-opacity:1"
                 d="m 0,0 -24.152,-53.579 -1.023,0.148 -18.67,2.766 L -19.488,0.702 -2.742,0.096 0,0 Z" /></g><g
               transform="translate(215.3401,209.3446)"
               id="g72"><path
                 id="path74"
                 style="fill:#fec600;fill-opacity:1;fill-rule:nonzero;stroke:none"
                 d="m 0,0 -8.131,-15.464 -13.765,-26.174 -8.788,10.282 -18.186,21.309 -0.676,0.78 24.152,53.58 1.539,-2.676 L 0,0 Z" /></g><g
               transform="translate(215.3401,209.3446)"
               id="g76"><path
                 id="path78"
                 style="fill:none;stroke:#f39300;stroke-width:0.59100002;stroke-linecap:round;stroke-linejoin:round;stroke-miterlimit:10;stroke-dasharray:none;stroke-opacity:1"
                 d="m 0,0 -8.131,-15.464 -13.765,-26.174 -8.788,10.282 -18.186,21.309 -0.676,0.78 24.152,53.58 1.539,-2.676 L 0,0 Z" /></g><g
               id="g80"><g
                 clip-path="url(#clipPath84)"
                 id="g82"><g
                   transform="translate(215.2154,134.9796)"
                   id="g88"><path
                     id="path90"
                     style="fill:#ffffff;fill-opacity:1;fill-rule:nonzero;stroke:none"
                     d="m 0,0 -0.407,-1.356 -11.469,-5.347 c -0.16,-0.062 -0.292,-0.097 -0.447,-0.097 -0.095,0 -0.177,0.017 -0.267,0.045 -0.289,0.067 -0.539,0.272 -0.681,0.554 -0.12,0.239 -0.127,0.494 -0.07,0.728 0.08,0.292 0.285,0.539 0.574,0.666 L -1.587,0.402 0,0 Z" /></g><g
                   transform="translate(201.942,129.4791)"
                   id="g92"><path
                     id="path94"
                     style="fill:#ffffff;fill-opacity:1;fill-rule:nonzero;stroke:none"
                     d="m 0,0 -8.373,-35.212 c -0.013,-0.068 0.037,-0.14 0.102,-0.152 0.07,-0.025 0.135,0.02 0.162,0.084 L 1.896,-0.499 C 2.053,0.018 1.741,0.559 1.223,0.716 0.706,0.861 0.16,0.559 0.005,0.042 0.005,0.03 0.005,0.01 0,0" /></g><g
                   transform="translate(203.0648,133.51)"
                   id="g96"><path
                     id="path98"
                     style="fill:#004b75;fill-opacity:1;fill-rule:nonzero;stroke:none"
                     d="m 0,0 -8.835,2.34 -0.906,0.242 -0.182,0.038 0.17,0.071 c -1.183,11.203 -5.414,22.877 -14.94,32.632 l 1.105,-0.227 15.464,-3.184 0.504,-0.108 0.125,-0.497 L -1.175,4.864 0,0 Z" /></g><g
                   transform="translate(214.2624,189.7614)"
                   id="g100"><path
                     id="path102"
                     style="fill:#ffffff;fill-opacity:1;fill-rule:nonzero;stroke:none"
                     d="m 0,0 -18.391,-24.742 c -0.077,-0.108 -0.182,-0.172 -0.312,-0.198 -0.115,-0.03 -0.257,-0.009 -0.371,0.068 -0.192,0.108 -0.277,0.321 -0.237,0.533 0.014,0.06 0.032,0.129 0.059,0.182 l 16.38,27.656 2.396,-0.358 0.012,0 L 0,0 Z" /></g></g></g><g
               transform="translate(146.1111,202.9911)"
               id="g104"><path
                 id="path106"
                 style="fill:#f39200;fill-opacity:1;fill-rule:nonzero;stroke:none"
                 d="M 0,0 19.683,-2.913 47.33,-35.281 29.835,-31.739 0,0 Z" /></g><g
               id="g108"><g
                 clip-path="url(#clipPath112)"
                 id="g110"><g
                   transform="translate(191.4853,250.9815)"
                   id="g116"><path
                     id="path118"
                     style="fill:#ffffff;fill-opacity:1;fill-rule:nonzero;stroke:none"
                     d="m 0,0 -24.731,-51.338 c -0.064,-0.138 -0.159,-0.259 -0.284,-0.346 -0.279,-0.25 -0.689,-0.326 -1.063,-0.162 -0.444,0.19 -0.696,0.649 -0.636,1.095 0.01,0.097 0.04,0.182 0.075,0.268 L -4.281,2.772 -1.539,2.676 0,0 Z" /></g><g
                   transform="translate(110.163,152.3135)"
                   id="g120"><path
                     id="path122"
                     style="fill:#d0d0d0;fill-opacity:1;fill-rule:nonzero;stroke:none"
                     d="m 0,0 c -0.287,1.339 -0.699,2.635 -1.208,3.849 -1.896,6.01 -8.168,9.133 -13.428,9.133 -2.902,-0.286 -5.564,-1.296 -7.942,-2.86 -0.242,-0.156 -0.464,-0.309 -0.683,-0.461 -1.899,-2.863 -3.586,-5.855 -5.195,-8.894 -0.441,-0.834 -0.836,-0.857 -1.142,-0.484 -1.233,-2.003 -2.468,-4.048 -3.588,-6.095 -1.238,-2.223 -0.197,-6.205 -0.464,-8.825 -0.178,-1.494 -0.437,-2.862 -0.839,-4.14 0.048,-0.239 0.088,-0.483 0.137,-0.705 1.363,-6.798 6.45,-11.593 13.027,-12.364 2.243,-0.245 4.314,-0.115 6.232,0.374 C -3.079,-28.46 2.642,-12.107 0,0" /></g><g
                   transform="translate(151.5002,141.6624)"
                   id="g124"><path
                     id="path126"
                     style="fill:#d0d0d0;fill-opacity:1;fill-rule:nonzero;stroke:none"
                     d="m 0,0 c -11.255,9.725 -34.107,3.825 -36.542,-12.375 -1.664,-9.449 6.507,-26.293 19.768,-25.542 15.018,0.849 26.562,15.756 21.896,30.1 C 4.052,-4.551 2.263,-1.957 0,0" /></g><g
                   transform="translate(120.637,131.4753)"
                   id="g128"><path
                     id="path130"
                     style="fill:#1d1d1b;fill-opacity:1;fill-rule:nonzero;stroke:none"
                     d="m 0,0 c 5.938,-2.328 11.055,-4.099 15.838,-8.54 2.665,-2.461 4.831,-5.402 6.445,-8.636 0.793,-1.601 0.549,-3.747 1.549,-5.177 0.19,-0.264 0.444,-0.352 0.609,0.013 2.071,4.768 -2.093,11.087 -4.89,14.625 C 15.609,-2.7 6.577,4.47 -0.04,0.429 -0.127,0.384 -0.095,0.037 0,0" /></g><g
                   transform="translate(78.0395,148.1319)"
                   id="g132"><path
                     id="path134"
                     style="fill:#1d1d1b;fill-opacity:1;fill-rule:nonzero;stroke:none"
                     d="m 0,0 c 2.268,2.799 5.509,6.742 9.551,5.021 2.877,-1.241 4.763,-4.764 6.35,-7.281 1.886,-2.99 8.006,-15.2 12.944,-12.433 0.644,0.358 0.382,2.273 -0.065,2.686 -2.829,2.628 -5.813,3.813 -8.244,7.159 -2.26,3.089 -4.106,6.452 -6.424,9.501 C 8.992,11.376 3.698,8.815 -0.636,2.644 -1.045,2.047 -0.724,-0.891 0,0" /></g><g
                   transform="translate(75.3224,77.6278)"
                   id="g136"><path
                     id="path138"
                     style="fill:#1d1d1b;fill-opacity:1;fill-rule:nonzero;stroke:none"
                     d="m 0,0 c 1.32,-6.854 10.202,-18.59 18.321,-14.978 0.362,0.16 0.252,1.44 -0.043,1.637 -3.547,2.371 -7.697,3.298 -11.115,6.001 C 4.274,-5.055 2.867,-1.549 0.2,0.843 -0.025,1.043 -0.01,0.065 0,0" /></g><g
                   transform="translate(80.8463,137.0953)"
                   id="g140"><path
                     id="path142"
                     style="fill:#1d1d1b;fill-opacity:1;fill-rule:nonzero;stroke:none"
                     d="m 0,0 c 0.042,-0.097 0.105,-0.201 0.147,-0.298 0.118,-0.271 0.352,-0.862 0.726,-0.814 3.182,0.336 6.487,-0.006 9.514,-1.004 1.499,-0.499 2.966,-1.329 4.019,-2.526 0.981,-1.158 0.659,-3.191 1.068,-4.646 0.125,-0.429 0.454,-1.35 1.003,-1.362 0.1,0.005 0.2,0.005 0.3,-0.002 0.291,0.007 0.326,0.683 0.326,0.833 0.023,4.181 -1.504,8.181 -5.099,10.509 C 8.578,2.908 3.755,2.882 0.065,1.484 -0.299,1.354 -0.12,0.624 -0.07,0.397 -0.06,0.309 -0.047,0.117 0,0" /></g><g
                   transform="translate(95.9787,128.3266)"
                   id="g144"><path
                     id="path146"
                     style="fill:#1d1d1b;fill-opacity:1;fill-rule:nonzero;stroke:none"
                     d="m 0,0 c -1.205,-3.438 -3.805,-5.651 -5.843,-4.95 -2.019,0.701 -2.707,4.059 -1.515,7.497 1.195,3.422 3.793,5.641 5.839,4.939 C 0.502,6.784 1.193,3.426 0,0" /></g><g
                   transform="translate(138.9155,110.6319)"
                   id="g148"><path
                     id="path150"
                     style="fill:#1d1d1b;fill-opacity:1;fill-rule:nonzero;stroke:none"
                     d="m 0,0 c -0.659,-1.866 -2.992,-2.752 -5.255,-1.974 -2.228,0.779 -3.54,2.925 -2.879,4.788 0.646,1.872 2.984,2.752 5.24,1.976 C -0.649,4.009 0.649,1.866 0,0" /></g><g
                   transform="translate(117.6131,88.4736)"
                   id="g152"><path
                     id="path154"
                     style="fill:#1d1d1b;fill-opacity:1;fill-rule:nonzero;stroke:none"
                     d="m 0,0 c 3.139,-0.978 6.332,-2.63 8.059,-5.531 2.525,-4.252 0.07,-8.087 -1.901,-11.857 -0.16,-0.292 -0.898,-2.909 0.239,-2.123 8.356,5.726 7.37,25.741 -5.801,20.933 C 0.339,1.328 -0.427,0.14 0,0" /></g><g
                   transform="translate(116.1959,98.8779)"
                   id="g156"><path
                     id="path158"
                     style="fill:#e40427;fill-opacity:1;fill-rule:nonzero;stroke:none"
                     d="m 0,0 c -2.844,-10.165 -11.173,-16.24 -20.739,-13.723 -10.504,2.568 -17.574,13.376 -14.743,23.701 2.835,10.319 14.337,16.122 24.471,13.106 C -1.058,20.132 3.303,11.769 0,0" /></g><g
                   transform="translate(125.6219,120.0332)"
                   id="g160"><path
                     id="path162"
                     style="fill:#1d1d1b;fill-opacity:1;fill-rule:nonzero;stroke:none"
                     d="m 0,0 c 1.098,-0.996 2.575,-1.377 3.89,-2.046 1.402,-0.719 2.697,-1.711 3.922,-2.685 2.665,-2.12 4.416,-4.728 6.3,-7.485 0.948,-1.377 1.078,3.017 0.851,3.633 -1.041,2.842 -3.396,5.192 -5.632,7.151 -2,1.759 -6.696,5.409 -9.381,3.433 C -0.471,1.686 -0.349,0.319 0,0" /></g><g
                   transform="translate(124.3146,113.5512)"
                   id="g164"><path
                     id="path166"
                     style="fill:#1d1d1b;fill-opacity:1;fill-rule:nonzero;stroke:none"
                     d="m 0,0 c 1.285,-2.874 4.092,-4.409 6.946,-5.434 2.078,-0.751 6.906,-2.321 8.797,-0.751 0.365,0.299 0.372,1.729 -0.047,1.998 C 14.8,-3.62 14.037,-3.827 12.992,-3.82 11.457,-3.812 9.93,-3.588 8.436,-3.286 5.12,-2.637 2.834,-1.033 0.07,0.656 -0.105,0.768 -0.037,0.075 0,0" /></g><g
                   transform="translate(193.1994,152.7315)"
                   id="g168"><path
                     id="path170"
                     style="fill:#1d1d1b;fill-opacity:1;fill-rule:nonzero;stroke:none"
                     d="m 0,0 c -3.957,9.986 -11.025,18.75 -19.783,24.802 -6.736,4.798 -14.486,8.227 -22.56,9.969 -2.752,0.728 -5.524,1.297 -8.316,1.694 -12.876,1.805 -28.68,-0.023 -40.189,-6.294 -10.147,-5.521 -16.684,-16.177 -21.899,-26.057 -0.195,-0.373 -2.909,-5.92 -4.159,-8.059 -0.44,-0.702 -0.662,-1.293 -0.619,-2.13 0.067,-1.038 0.087,-2.092 0.115,-3.103 0.022,-2.156 -0.09,-4.293 -0.507,-6.426 0,0 0.02,-0.021 0,-0.049 -0.087,-0.547 -0.219,-1.092 -0.369,-1.649 -1.677,-6.135 -7.625,-9.446 -9.536,-15.95 -1.517,-4.561 -1.958,-8.937 -1.761,-13.473 0.706,-8.536 0.354,-16.355 0.244,-24.342 0.524,-16.439 -2.752,-38.206 13.955,-47.143 13.376,-9.898 33.695,-7.592 43.238,4.715 32.862,10.183 54.389,32.478 65.744,52.351 2.602,4.533 4.863,9.291 6.647,14.261 1.756,4.956 2.991,10.193 3.585,15.454 C 4.975,-20.932 3.982,-10.039 0,0 m -1.916,-30.81 c -0.926,-9.73 -4.269,-19.087 -9.064,-27.757 -0.949,-1.716 -1.919,-3.39 -2.952,-5.06 -1.779,-2.792 -3.715,-5.551 -5.694,-8.251 -5.439,-5.793 -15.606,-21.152 -49.982,-34.508 -3.591,-1.632 -6.363,-4.047 -9.818,-6.053 -3.763,-2.203 -8.186,-3.433 -12.7,-4.079 -7.921,-1.427 -16.222,0.134 -22.819,3.617 -18.755,8.339 -11.16,35.078 -12.505,52.069 0.202,4.493 0.179,8.8 -0.167,13.363 -0.275,5.981 -0.382,12.298 4.131,17.578 2.777,3.415 4.863,6.364 6.098,9.993 0.529,1.501 0.878,3.102 1.078,4.908 0.284,2.615 -0.773,6.6 0.464,8.829 1.143,2.042 2.35,4.092 3.585,6.091 0.327,-0.374 0.721,-0.348 1.143,0.485 1.694,3.17 3.476,6.317 5.499,9.289 4.05,6.094 8.937,11.531 15.387,15.406 10.986,6.602 27.116,7.524 39.573,6.116 6.819,-0.767 13.376,-2.971 19.519,-5.963 2.425,-1.188 4.685,-2.617 6.931,-4.136 0.397,-0.29 0.816,-0.531 1.188,-0.836 3.874,-2.929 7.395,-6.275 10.369,-10.059 2.969,-3.764 5.322,-7.989 7.128,-12.456 3.608,-8.914 4.646,-18.885 3.608,-28.586" /></g></g></g></g></g></g></g></g></svg>