<svg xmlns="http://www.w3.org/2000/svg" xmlns:xlink="http://www.w3.org/1999/xlink" viewBox="0 0 156.31 226.31"><defs><style>.cls-1,.cls-8{fill:none;}.cls-2{clip-path:url(#clip-path);}.cls-3{fill:#fff;}.cls-4{fill:#1d1d1b;}.cls-5{fill:#e40428;}.cls-6{fill:#004b74;}.cls-7{fill:#fec700;}.cls-8{stroke:#f39300;stroke-linecap:round;stroke-linejoin:round;stroke-width:0.59px;}.cls-9{fill:#f39200;}.cls-10{fill:#d0d0d0;}</style><clipPath id="clip-path" transform="translate(0 -0.46)"><rect class="cls-1" width="156.32" height="226.77"/></clipPath></defs><title>bigclown-icon</title><g id="Vrstva_2" data-name="Vrstva 2"><g id="Vrstva_1-2" data-name="Vrstva 1"><g class="cls-2"><path class="cls-3" d="M127.34,133.27A71.3,71.3,0,0,1,118.25,161c-.93,1.72-1.92,3.4-2.93,5.06-1.8,2.8-3.72,5.55-5.7,8.26-5.46,5.79-15.6,21.14-50,34.51-3.6,1.62-6.38,4-9.84,6A34.5,34.5,0,0,1,37.13,219a36.18,36.18,0,0,1-22.82-3.61C-4.47,207,3.15,180.27,1.78,163.28a110.17,110.17,0,0,0-.17-13.36c-.27-6-.38-12.3,4.16-17.59,3-3.65,5.17-6.8,6.33-10.76a22.13,22.13,0,0,0,.84-4.14c.27-2.62-.77-6.61.46-8.83,1.12-2,2.35-4.09,3.59-6.1.31.37.7.35,1.14-.49,1.61-3,3.3-6,5.2-8.89C27.45,86.9,32.42,81.3,39,77.34c11-6.6,27.14-7.53,39.59-6.12a60.23,60.23,0,0,1,19.51,6A58.57,58.57,0,0,1,105,81.33c.38.29.79.53,1.17.84a55.86,55.86,0,0,1,10.37,10.06,50,50,0,0,1,7.15,12.46,59.94,59.94,0,0,1,3.61,28.59" transform="translate(0 -0.46)"/><path class="cls-4" d="M121.4,165.87c-.43,0-19.22,23.17-18.37,22.81,3.18-1.28,11.73,2.09,14.42,3.91.24.18.46,0,.58-.25,3.45-6.89,10.54-13.66,15.79-19.25,1.08-1.16-10-7.49-12.43-7.21" transform="translate(0 -0.46)"/><path class="cls-4" d="M97.31,190.23c-.69.07-13.09,10.38-14.13,11.43-.8.84-2.13,3.41-1,3.84,3,1.18,8.67,3,12,4.26.18,0,.26-.11.37-.25,2.57-3.72,13.38-10.8,18.78-12.23.56-.15-14.15-7.2-15.92-7.06" transform="translate(0 -0.46)"/><path class="cls-4" d="M11,167.54c-2.17-1.31-.4,4.08-.28,4.28a18.21,18.21,0,0,0,4.11,4.36,30.41,30.41,0,0,0,13.34,5.91c10.59,2.12,26.73-.16,35.2-7.29.56-.49.63-4-.28-3.7-4.86,1.38-9.3,4-14.26,5.32a56.08,56.08,0,0,1-16.3,1.72,31.85,31.85,0,0,1-14-3.61c-2.46-1.27-7.7-4.47-7.54-6.92,0,0,0-.06,0-.08" transform="translate(0 -0.46)"/><path class="cls-5" d="M151.64,120.14l-12.33,5.75-.93-.26-.08,0-7.35-2-.89-.23c-.06-1.44-.16-2.9-.32-4.36l-.18,0,.18-.06.84-.35,5.77-2.32,2,.48,4.61,1.18,7.13,1.82Z" transform="translate(0 -0.46)"/></g><polygon class="cls-5" points="151.64 119.68 151.24 121.03 137.7 165.3 130.13 160.41 139.05 126.43 139.32 125.43 151.64 119.68"/><g class="cls-2"><path class="cls-5" d="M139.32,125.89l-9.18,35-.13,0-7-2.43-.74-.24a72.62,72.62,0,0,0,6.93-20.66,70.47,70.47,0,0,0,.92-14.12l.89.23,7.42,2Z" transform="translate(0 -0.46)"/></g><polygon class="cls-6" points="156.31 103.09 139.49 121.14 131.98 89.83 131.87 89.35 150.21 61.75 150.23 61.75 150.69 64.89 156.31 103.09"/><polygon class="cls-6" points="150.23 61.75 131.87 89.34 131.38 89.24 131.37 89.24 115.91 86.05 114.8 85.82 114.8 85.81 114.57 85.78 114.65 85.66 115.02 85.15 115.78 84.09 121.08 76.67 133.55 59.28 143.61 60.78 147.81 61.4 147.82 61.4 150.21 61.75 150.23 61.75"/><polygon class="cls-7" points="126.37 1 102.22 54.58 101.2 54.43 82.53 51.66 106.89 0.3 123.63 0.9 126.37 1"/><polygon class="cls-8" points="126.37 1 102.22 54.58 101.2 54.43 82.53 51.66 106.89 0.3 123.63 0.9 126.37 1"/><polygon class="cls-7" points="151.77 45.31 143.64 60.77 129.87 86.95 121.08 76.67 102.9 55.36 102.22 54.58 126.37 1 127.91 3.67 151.77 45.31"/><polygon class="cls-8" points="151.77 45.31 143.64 60.77 129.87 86.95 121.08 76.67 102.9 55.36 102.22 54.58 126.37 1 127.91 3.67 151.77 45.31"/><g class="cls-2"><path class="cls-3" d="M151.64,120.14l-.41,1.36-11.47,5.35a1.17,1.17,0,0,1-.45.1.88.88,0,0,1-.27,0,1,1,0,0,1-.75-1.28,1,1,0,0,1,.57-.67l11.18-5.21Z" transform="translate(0 -0.46)"/><path class="cls-3" d="M138.37,125.64,130,160.85a.14.14,0,0,0,.1.15.13.13,0,0,0,.16-.08l10-34.78a1,1,0,0,0-.67-1.22,1,1,0,0,0-1.22.67.11.11,0,0,1,0,0" transform="translate(0 -0.46)"/><path class="cls-6" d="M139.49,121.61l-8.83-2.34-.91-.24-.18,0,.17-.07A53.87,53.87,0,0,0,114.8,86.28l1.11.23,15.46,3.18.5.11.12.5,6.32,26.44Z" transform="translate(0 -0.46)"/><path class="cls-3" d="M150.69,65.36,132.3,90.1a.49.49,0,0,1-.31.2.47.47,0,0,1-.37-.07.49.49,0,0,1-.24-.53.89.89,0,0,1,.06-.18l16.38-27.66,2.4.36h0Z" transform="translate(0 -0.46)"/></g><polygon class="cls-9" points="82.54 51.66 102.22 54.58 129.87 86.94 112.38 83.4 82.54 51.66"/><g class="cls-2"><path class="cls-3" d="M127.91,4.14,103.18,55.47a.86.86,0,0,1-.28.35,1,1,0,0,1-1.06.16,1.05,1.05,0,0,1-.64-1.1,1,1,0,0,1,.07-.27L123.63,1.36l2.74.1Z" transform="translate(0 -0.46)"/><path class="cls-10" d="M46.59,102.8A21.81,21.81,0,0,0,45.38,99c-1.9-6-8.17-9.13-13.43-9.13A17.47,17.47,0,0,0,24,92.68l-.68.46C21.43,96,19.74,99,18.14,102c-.44.83-.84.86-1.14.48-1.23,2-2.47,4-3.59,6.1-1.24,2.22-.2,6.21-.46,8.82a22.66,22.66,0,0,1-.84,4.14c0,.24.09.48.14.7a15,15,0,0,0,13,12.36,17.41,17.41,0,0,0,6.23-.37c12-3,17.73-19.37,15.09-31.47" transform="translate(0 -0.46)"/><path class="cls-10" d="M87.93,113.46c-11.25-9.73-34.11-3.82-36.54,12.38-1.66,9.45,6.51,26.29,19.77,25.54,15-.85,26.56-15.76,21.9-30.1a17.28,17.28,0,0,0-5.12-7.82" transform="translate(0 -0.46)"/><path class="cls-4" d="M57.07,123.64c5.94,2.33,11.06,4.1,15.84,8.54a29.91,29.91,0,0,1,6.44,8.64c.79,1.6.55,3.75,1.55,5.18.19.26.44.35.61,0,2.07-4.77-2.09-11.09-4.89-14.63-3.94-5-13-12.18-19.59-8.14-.09,0-.05.39,0,.43" transform="translate(0 -0.46)"/><path class="cls-4" d="M14.47,107c2.27-2.8,5.51-6.74,9.55-5,2.88,1.24,4.76,4.76,6.35,7.28,1.89,3,8,15.2,12.94,12.43.64-.36.38-2.27-.06-2.69-2.83-2.63-5.81-3.81-8.24-7.16-2.26-3.09-4.11-6.45-6.42-9.5-5.12-6.72-10.41-4.16-14.75,2-.41.6-.09,3.53.64,2.64" transform="translate(0 -0.46)"/><path class="cls-4" d="M11.75,177.49c1.32,6.85,10.2,18.59,18.32,15,.36-.16.25-1.44,0-1.64-3.55-2.37-7.7-3.3-11.12-6-2.89-2.29-4.3-5.79-7-8.18-.22-.2-.21.78-.2.84" transform="translate(0 -0.46)"/><path class="cls-4" d="M17.27,118c0,.1.11.2.15.3.12.27.35.86.73.81a23,23,0,0,1,9.51,1,9.22,9.22,0,0,1,4,2.53c1,1.16.66,3.19,1.07,4.65.12.43.45,1.35,1,1.36h.3c.29,0,.33-.68.33-.83,0-4.18-1.5-8.18-5.1-10.51-3.43-2.22-8.25-2.19-11.94-.79-.36.13-.18.86-.13,1.09a1.71,1.71,0,0,0,.07.4" transform="translate(0 -0.46)"/><path class="cls-4" d="M32.41,126.79c-1.21,3.44-3.81,5.65-5.84,5s-2.71-4.06-1.51-7.5,3.79-5.64,5.84-4.94,2.71,4.06,1.52,7.49" transform="translate(0 -0.46)"/><path class="cls-4" d="M75.34,144.49c-.66,1.87-3,2.75-5.25,2s-3.54-2.92-2.88-4.79,3-2.75,5.24-2,3.54,2.92,2.89,4.79" transform="translate(0 -0.46)"/><path class="cls-4" d="M54,166.64c3.14,1,6.33,2.63,8.06,5.53,2.53,4.25.07,8.09-1.9,11.86-.16.29-.9,2.91.24,2.12,8.36-5.73,7.37-25.74-5.8-20.93-.26.09-1,1.28-.6,1.42" transform="translate(0 -0.46)"/><path class="cls-5" d="M52.62,156.24C49.78,166.4,41.45,172.48,31.89,170c-10.5-2.57-17.57-13.38-14.74-23.7s14.34-16.12,24.47-13.11c10,3,14.31,11.32,11,23.08" transform="translate(0 -0.46)"/><path class="cls-4" d="M62.05,135.08c1.1,1,2.58,1.38,3.89,2a24.35,24.35,0,0,1,3.92,2.68c2.66,2.12,4.42,4.73,6.3,7.49.95,1.38,1.08-3,.85-3.63-1-2.84-3.4-5.19-5.63-7.15-2-1.76-6.7-5.41-9.38-3.43-.42.31-.3,1.68,0,2" transform="translate(0 -0.46)"/><path class="cls-4" d="M60.74,141.57C62,144.44,64.83,146,67.69,147c2.08.75,6.91,2.32,8.8.75a1.85,1.85,0,0,0,0-2c-.9-.57-1.66-.36-2.7-.37a23.69,23.69,0,0,1-4.56-.53c-3.32-.65-5.6-2.25-8.37-3.94-.17-.11-.11.58-.07.66" transform="translate(0 -0.46)"/><path class="cls-4" d="M127.71,133.2A71.66,71.66,0,0,1,118.65,161c-.95,1.72-1.92,3.39-3,5.06-1.78,2.79-3.72,5.55-5.69,8.25-5.44,5.79-15.61,21.15-50,34.51-3.59,1.63-6.36,4-9.82,6.05a35,35,0,0,1-12.7,4.08,36.12,36.12,0,0,1-22.82-3.62c-18.75-8.34-11.16-35.08-12.5-52.07A108.71,108.71,0,0,0,2,149.86c-.27-6-.38-12.3,4.13-17.58,2.78-3.42,4.86-6.36,6.1-10a21.77,21.77,0,0,0,1.08-4.91c.28-2.61-.77-6.6.46-8.83,1.14-2,2.35-4.09,3.59-6.09.33.37.72.35,1.14-.49A101.26,101.26,0,0,1,24,92.68c4-6.09,8.94-11.53,15.39-15.41,11-6.6,27.12-7.52,39.57-6.12a60.16,60.16,0,0,1,19.52,6,57.84,57.84,0,0,1,6.93,4.14c.4.29.82.53,1.19.84A56.32,56.32,0,0,1,117,92.15a50.79,50.79,0,0,1,7.13,12.46,59.66,59.66,0,0,1,3.61,28.59m1.92-30.81a55.22,55.22,0,0,0-19.78-24.8,61.41,61.41,0,0,0-22.56-10A72.18,72.18,0,0,0,79,65.92c-12.88-1.81-28.68,0-40.19,6.29C28.63,77.74,22.1,88.39,16.88,98.27c-.19.37-2.91,5.92-4.16,8.06a3.38,3.38,0,0,0-.62,2.13c.07,1,.09,2.09.11,3.1a31.61,31.61,0,0,1-.51,6.43,0,0,0,0,1,0,0,16.18,16.18,0,0,1-.37,1.65c-1.68,6.14-7.62,9.45-9.54,16A36.59,36.59,0,0,0,0,149.11c.71,8.54.35,16.35.24,24.34.52,16.44-2.75,38.21,14,47.14,13.38,9.9,33.7,7.59,43.24-4.72a115.19,115.19,0,0,0,65.74-52.35,89.27,89.27,0,0,0,6.65-14.26,70,70,0,0,0,3.59-15.45,65.91,65.91,0,0,0-3.83-31.43" transform="translate(0 -0.46)"/></g></g></g></svg>