<?xml version="1.0" encoding="UTF-8" standalone="no"?>
<svg
   xmlns:dc="http://purl.org/dc/elements/1.1/"
   xmlns:cc="http://creativecommons.org/ns#"
   xmlns:rdf="http://www.w3.org/1999/02/22-rdf-syntax-ns#"
   xmlns:svg="http://www.w3.org/2000/svg"
   xmlns="http://www.w3.org/2000/svg"
   viewBox="0 0 92.673229 19.800407"
   height="19.800407"
   width="92.673233"
   xml:space="preserve"
   version="1.1"
   id="svg2"><metadata
     id="metadata8"><rdf:RDF><cc:Work
         rdf:about=""><dc:format>image/svg+xml</dc:format><dc:type
           rdf:resource="http://purl.org/dc/dcmitype/StillImage" /><dc:title></dc:title></cc:Work></rdf:RDF></metadata><defs
     id="defs6" /><g
     transform="matrix(1.25,0,0,-1.25,-486.49829,380.18607)"
     id="g10"><g
       transform="matrix(1.1676692,0,0,1.1676692,226.75868,-81.817149)"
       id="g5700"><g
         id="g222"
         transform="translate(196.1235,318.5537)"><path
           d="M 0,0 -0.004,8.928 1.663,8.901 1.635,7.166 C 1.982,7.843 2.787,8.289 3.795,8.274 5.476,8.247 6.452,7.159 6.425,5.417 L 6.484,-0.103 4.803,-0.076 4.741,5.208 C 4.756,6.169 4.206,6.777 3.267,6.792 2.315,6.807 1.619,6.149 1.603,5.188 L 1.667,-0.025 0,0 Z"
           style="fill:#e30d18;fill-opacity:1;fill-rule:nonzero;stroke:none"
           id="path224" /></g><g
         id="g226"
         transform="translate(148.165,327.6777)"><path
           d="M 0,0 1.389,-0.021 1.362,-4.745 1.217,-9.515 -0.524,-9.453 -0.335,-4.688 0,0 Z"
           style="fill:#e30d18;fill-opacity:1;fill-rule:nonzero;stroke:none"
           id="path228" /></g><g
         id="g230"
         transform="translate(170.8657,327.9995)"><path
           d="M 0,0 1.96,0.056 1.56,-5.071 2,-10.004 0.118,-9.919 0.092,-5.071 0,0 Z"
           style="fill:#e30d18;fill-opacity:1;fill-rule:nonzero;stroke:none"
           id="path232" /></g><g
         id="g234"
         transform="translate(147.9761,329.6123)"><path
           d="M 0,0 C 0.073,0.914 1.254,1.167 1.825,0.708 2.385,-0.044 1.766,-1.048 0.887,-1.019 0.453,-0.857 -0.123,-0.545 0,0"
           style="fill:#e30d18;fill-opacity:1;fill-rule:nonzero;stroke:none"
           id="path236" /></g><g
         id="g238"
         transform="translate(156.4482,322.5747)"><path
           d="M 0,0 C 1.104,1.175 0.291,3.126 -1.151,3.479 -2.302,3.705 -3.259,2.943 -3.633,1.926 -3.858,0.775 -3.225,-0.473 -1.932,-0.691 -1.214,-0.796 -0.52,-0.476 0,0 M 0.213,3.945 C 0.232,4.263 0.061,4.823 0.203,4.831 0.615,5.137 1.19,5.024 1.758,5.053 1.741,2.632 2.434,0.248 2.14,-2.332 1.734,-5.486 -2.392,-5.556 -4.596,-4.247 c 0.263,0.441 0.524,0.882 0.786,1.323 1.187,-0.936 2.615,-1.003 3.857,-0.228 0.688,0.464 0.495,1.45 0.599,2.168 -0.792,-1.182 -2.49,-1.41 -3.797,-0.909 -1.748,0.763 -2.568,2.857 -1.947,4.598 0.367,1.158 1.317,2.062 2.588,2.27 0.987,0.193 2.279,-0.024 2.723,-1.03"
           style="fill:#e30d18;fill-opacity:1;fill-rule:nonzero;stroke:none"
           id="path240" /></g><g
         id="g242"
         transform="translate(169.269,326.2495)"><path
           d="m 0,0 -1.19,-1.019 c -0.7,0.795 -1.597,1.186 -2.675,1.186 -0.981,0 -1.807,-0.334 -2.465,-0.99 -0.658,-0.654 -0.98,-1.477 -0.98,-2.466 0,-0.989 0.322,-1.811 0.98,-2.467 0.658,-0.655 1.484,-0.975 2.465,-0.975 1.106,0 2.016,0.403 2.702,1.212 l 1.177,-1.017 c -0.952,-1.114 -2.352,-1.769 -3.879,-1.769 -1.443,0 -2.675,0.473 -3.683,1.421 -0.995,0.964 -1.499,2.159 -1.499,3.595 0,1.435 0.504,2.633 1.499,3.595 1.008,0.962 2.24,1.435 3.683,1.435 C -2.311,1.741 -1.022,1.156 0,0"
           style="fill:#e30d18;fill-opacity:1;fill-rule:nonzero;stroke:none"
           id="path244" /></g><g
         id="g246"
         transform="translate(179.1899,319.9023)"><path
           d="m 0,0 c 0.42,0.433 0.631,0.947 0.631,1.575 0,0.626 -0.211,1.141 -0.631,1.56 -0.419,0.432 -0.938,0.641 -1.554,0.641 -0.631,0 -1.149,-0.209 -1.569,-0.641 -0.406,-0.419 -0.615,-0.934 -0.615,-1.56 0,-0.628 0.209,-1.142 0.615,-1.575 0.42,-0.418 0.938,-0.628 1.569,-0.628 0.616,0 1.135,0.21 1.554,0.628 m -5.405,1.575 c 0,1.044 0.378,1.936 1.12,2.647 0.743,0.71 1.653,1.073 2.731,1.073 1.078,0 1.989,-0.363 2.731,-1.073 0.742,-0.711 1.12,-1.603 1.12,-2.647 0,-1.046 -0.378,-1.937 -1.12,-2.648 -0.742,-0.711 -1.653,-1.074 -2.731,-1.074 -1.078,0 -1.988,0.363 -2.731,1.074 -0.742,0.711 -1.12,1.602 -1.12,2.648"
           style="fill:#e30d18;fill-opacity:1;fill-rule:nonzero;stroke:none"
           id="path248" /></g><g
         id="g250"
         transform="translate(184.7451,318.5459)"><path
           d="M 0,0 -3.093,7.911 -1.542,8.407 0.622,2.315 2.485,8.371 3.839,8.71 6.346,2.46 8.316,9.05 9.969,9.235 7.042,-0.215 5.723,0.005 3.203,6.105 1.271,-0.218 0,0 Z"
           style="fill:#e30d18;fill-opacity:1;fill-rule:nonzero;stroke:none"
           id="path252" /></g><g
         id="g254"
         transform="translate(140.8647,319.7734)"><path
           d="m 0,0 1.96,0 c 0.883,0 1.527,0.598 1.527,1.392 0,0.781 -0.644,1.366 -1.541,1.366 L 0,2.758 0,0 Z m 0,4.22 1.541,0 c 0.742,0 1.26,0.489 1.26,1.199 0,0.656 -0.518,1.143 -1.246,1.143 L 0,6.562 0,4.22 Z m -1.75,-5.795 0,9.711 3.528,0 c 0.771,0 1.415,-0.237 1.933,-0.71 C 4.244,6.966 4.509,6.367 4.509,5.656 4.509,4.723 4.047,3.999 3.263,3.706 4.509,3.482 5.224,2.535 5.224,1.295 5.224,0.473 4.943,-0.224 4.37,-0.768 3.809,-1.311 3.108,-1.575 2.255,-1.575 l -4.005,0 z"
           style="fill:#e30d18;fill-opacity:1;fill-rule:nonzero;stroke:none"
           id="path256" /></g></g></g></svg>