<svg xmlns="http://www.w3.org/2000/svg" xmlns:xlink="http://www.w3.org/1999/xlink" viewBox="0 0 23.01 23.01"><defs><style>.cls-1{fill:none;}.cls-2{clip-path:url(#clip-path);}.cls-3{fill:#0f7b8d;}.cls-4{fill:#fff;}</style><clipPath id="clip-path"><rect class="cls-1" width="23.01" height="23.01"/></clipPath></defs><title>Datový zdroj 9</title><g id="Vrstva_2" data-name="Vrstva 2"><g id="Vrstva_1-2" data-name="Vrstva 1"><g class="cls-2"><path class="cls-3" d="M23,11.51A11.51,11.51,0,1,1,11.51,0,11.5,11.5,0,0,1,23,11.51"/><path class="cls-4" d="M17.18,18.07h-.05v0l.05,0M5.54,6.42v0l0,0h0M18.92,18.11h0l0,0s0,0,0,0h0a9.09,9.09,0,0,1-1.85-1s-.06,0-.05,0a.53.53,0,0,0,.06.19c0,.07,0,.14,0,.21l-.62-.06c-1.22-.06-2.49-.06-3.71,0-.6,0-1.2.11-1.8.15A16.34,16.34,0,0,1,9,17.53c-.62,0-1.24,0-1.86,0-.41,0-.84.53-1.23.66,0,0,.6,0,.6-.07,0-.88,0-1.75,0-2.62a.07.07,0,0,0,.11,0c1-1,1.51-1.85,2.54-2.78a2.31,2.31,0,0,0,1.17,1c.57.14.88-.76,1.1-1.11s.46-.95.7-1.41a3.78,3.78,0,0,1,1-1.47c.33-.2,1.1,1.85,1.73,1.82s.78-.84.92-1.22.23-.7.33-1.05a.81.81,0,0,0,.22,0,.18.18,0,0,0,.34,0,1.67,1.67,0,0,0,0-.5,5.65,5.65,0,0,0,.1-1.15l.06-.13s0-.1-.09-.08v0s-.07,0-.09,0,0,0,0,0a.15.15,0,0,0-.13,0A6.39,6.39,0,0,0,15.63,9a.17.17,0,0,0,.11.2l.09,0-.06.22c-.1.34-.56,2.18-1.13,1.73S13.9,9.44,13.2,9.45c-.31,0-.5.3-.66.53a10.63,10.63,0,0,0-.83,1.52c-.21.41-.4.83-.63,1.24s-.53,1-1.08.49a3.34,3.34,0,0,1-.67-.78.13.13,0,0,0-.2,0c-1.06,1-1.58,1.91-2.58,3a0,0,0,0,0,0,0c0-1.29,0-2.59,0-3.88,0-1.06-.06-2.13-.16-3.18,0-.53-.09-1.11-.17-1.68l.33,0a.11.11,0,0,0,.13-.16c-.19-.37-.4-.74-.57-1.13a3,3,0,0,1-.27-.61c0-.17-.41-.84-.41-.9s-.07,0-.07,0-.13.64-.13.82c0,.46-.23,1.25-.28,1.89a.13.13,0,0,0,.17.13l.19,0c0,.55.11,1.1.14,1.64.05,1.06.13,2.12.16,3.18.07,2.18,0,4.36.07,6.55a.16.16,0,0,0,.19.15c-.07.11,0,.3.17.24a4.92,4.92,0,0,1,1.58-.07c.62,0,1.25,0,1.88,0,1.23.06,2.41-.11,3.64-.15s2.37-.06,3.53,0a2.19,2.19,0,0,1,.36,0c0,.06,0,.11,0,.17l0,0,0,.09a.19.19,0,0,0,.19.18,6,6,0,0,0,1.77-.35.19.19,0,0,0,.05-.35"/></g></g></g></svg>
