<svg xmlns="http://www.w3.org/2000/svg" width="1169.07" height="719.605"><defs><filter id="a"><feFlood flood-color="#E61F1F" flood-opacity="1" result="floodOut"/><feComposite operator="atop" in="floodOut" in2="SourceGraphic" result="compOut"/><feBlend in="compOut" in2="SourceGraphic"/></filter></defs><path stroke="#DEE4EA" stroke-width="3.07" fill="none" d="M1048.035 1.535c5.8 0 10.5 4.7 10.5 10.5 0 5.798-4.7 10.5-10.5 10.5s-10.5-4.702-10.5-10.5c0-5.8 4.7-10.5 10.5-10.5zM961.035 279.535c4.694 0 8.5 3.806 8.5 8.5s-3.806 8.5-8.5 8.5-8.5-3.806-8.5-8.5 3.806-8.5 8.5-8.5zM181.535 316.535c3.314 0 6 2.686 6 6s-2.686 6-6 6-6-2.686-6-6 2.686-6 6-6zM7.535 69.535c3.314 0 6 2.686 6 6s-2.686 6-6 6-6-2.686-6-6 2.686-6 6-6zM1122.535 275.535c3.314 0 6 2.686 6 6 0 3.313-2.686 6-6 6s-6-2.687-6-6c0-3.314 2.686-6 6-6zM833.535 704.535c3.314 0 6 2.686 6 6s-2.686 6-6 6-6-2.686-6-6 2.686-6 6-6z"/><g filter="url(#a)" stroke="#629FD1" stroke-width="3.07" fill="none"><path d="M125.035 160.535c6.904 0 12.5 5.596 12.5 12.5 0 6.903-5.596 12.5-12.5 12.5s-12.5-5.597-12.5-12.5c0-6.904 5.596-12.5 12.5-12.5zM961.035 383.535c6.903 0 12.5 5.596 12.5 12.5 0 6.903-5.597 12.5-12.5 12.5-6.904 0-12.5-5.597-12.5-12.5 0-6.904 5.596-12.5 12.5-12.5zM64.035 659.535c5.8 0 10.5 4.7 10.5 10.5s-4.7 10.5-10.5 10.5-10.5-4.7-10.5-10.5 4.7-10.5 10.5-10.5zM1096.035 598.535c2.485 0 4.5 2.014 4.5 4.5 0 2.485-2.015 4.5-4.5 4.5s-4.5-2.015-4.5-4.5c0-2.486 2.015-4.5 4.5-4.5zM8.035 354.534c2.485 0 4.5 2.016 4.5 4.5 0 2.486-2.015 4.5-4.5 4.5s-4.5-2.014-4.5-4.5c0-2.484 2.015-4.5 4.5-4.5zM996.535 117.535c4.418 0 8 3.582 8 8 0 4.42-3.582 8-8 8s-8-3.58-8-8c0-4.418 3.582-8 8-8zM153.535 479.535c3.314 0 6 2.686 6 6 0 3.313-2.686 6-6 6s-6-2.687-6-6c0-3.314 2.686-6 6-6z"/></g><path stroke="#9BD154" stroke-width="2" fill="none" d="M138.395 357.128l25.494-5.107c1.082-.217 2.136.485 2.353 1.57.217 1.082-.485 2.136-1.57 2.353l-25.492 5.106c-1.082.216-2.136-.485-2.353-1.57-.217-1.082.485-2.136 1.568-2.352zM864.564 248.56l14.955 12.41c.634.525.722 1.468.195 2.104-.528.635-1.47.722-2.105.195l-14.955-12.41c-.636-.527-.723-1.47-.196-2.105.526-.635 1.468-.723 2.104-.196zM887.302 560.458l10.47 1.554c.444.066.75.48.686.925-.066.444-.48.75-.925.686l-10.47-1.554c-.445-.067-.752-.48-.686-.926.066-.444.48-.75.925-.686zM244.875 628.018l8.125 6.785c.345.288.39.8.103 1.147-.29.345-.802.39-1.147.102l-8.124-6.784c-.346-.288-.392-.802-.103-1.147.287-.345.8-.39 1.145-.102zM1165.9 173.127l-7.9 7.043c-.336.3-.85.27-1.15-.066-.3-.335-.27-.85.067-1.15l7.9-7.043c.336-.298.85-.268 1.15.067.3.336.27.85-.066 1.15z"/></svg>