<svg xmlns="http://www.w3.org/2000/svg" viewBox="0 0 23 22"><defs><style>.cls-1{fill:#e41419;}</style></defs><title>kosik-red</title><g id="Vrstva_2" data-name="Vrstva 2"><g id="Cart_1" data-name="Cart 1"><g id="_Skupina_" data-name="&lt;Skupina&gt;"><g id="_Skupina_2" data-name="&lt;Skupina&gt;"><circle id="_Cesta_" data-name="&lt;Cesta&gt;" class="cls-1" cx="18.5" cy="19.5" r="2.5"/><circle id="_Cesta_2" data-name="&lt;Cesta&gt;" class="cls-1" cx="8.5" cy="19.5" r="2.5"/></g><g id="_Skupina_3" data-name="&lt;Skupina&gt;"><path id="_Cesta_3" data-name="&lt;Cesta&gt;" class="cls-1" d="M20.5 16H9a3.51 3.51 0 0 1-3.43-2.81L3.09 1H.5a.5.5 0 0 1 0-1h3a.5.5 0 0 1 .5.4L6.51 13A2.51 2.51 0 0 0 9 15h11.5a.5.5 0 0 1 0 1z"/></g><path id="_Cesta_4" data-name="&lt;Cesta&gt;" class="cls-1" d="M22.88 3.17A.5.5 0 0 0 22.5 3h-18a.5.5 0 0 0 0 1h.09l1.32 7a.49.49 0 0 0-.41.48.5.5 0 0 0 .5.52h13.73a2.5 2.5 0 0 0 2.48-2.19L23 3.56a.5.5 0 0 0-.12-.39z"/></g></g></g></svg>