<svg xmlns="http://www.w3.org/2000/svg" viewBox="0 0 30 30">
  <defs>
    <style>.cls-1{fill:#e41419;}</style>
  </defs>
<g>
	<g>
		<path class="cls-1" d="M10.1,29c-0.3,0-0.6-0.1-0.9-0.2c-1.1-0.5-2.2-1.1-3.2-1.9C5.4,26.5,5,25.8,5,25.1c0-0.7,0.3-1.4,0.8-1.8
			c0.5-0.4,0.6-1.2,0.2-1.8c-0.4-0.6-0.8-1.3-1.1-1.9c-0.3-0.7-1-1-1.7-0.8c-0.7,0.3-1.4,0.2-2-0.2c-0.6-0.4-1-1-1.1-1.7
			C0,16.3,0,15.6,0,15s0-1.3,0.1-1.9c0.1-0.7,0.5-1.3,1.1-1.7c0.6-0.4,1.3-0.4,2-0.2c0.7,0.2,1.4-0.1,1.7-0.7C5.2,9.8,5.6,9.1,6,8.5
			c0.4-0.6,0.3-1.4-0.2-1.8C5.3,6.3,5,5.6,5,4.9c0-0.7,0.4-1.4,0.9-1.8c1-0.8,2.1-1.4,3.2-1.9c0.7-0.3,1.4-0.2,2.1,0.1
			c0.6,0.3,1,0.9,1.2,1.6c0.1,0.7,0.8,1.2,1.5,1.1c0.7-0.1,1.5-0.1,2.2,0c0.7,0.1,1.4-0.4,1.5-1.1c0.1-0.7,0.5-1.3,1.2-1.6
			c0.6-0.3,1.4-0.4,2.1-0.1c1.1,0.5,2.2,1.1,3.2,1.9C24.6,3.5,25,4.2,25,4.9c0,0.7-0.3,1.4-0.8,1.8c-0.5,0.4-0.6,1.2-0.2,1.8
			c0.4,0.6,0.8,1.3,1.1,1.9c0.3,0.7,1,1,1.7,0.7c0.7-0.3,1.4-0.2,2,0.2c0.6,0.4,1,1,1.1,1.7C30,13.7,30,14.4,30,15s0,1.3-0.1,1.9
			c-0.1,0.7-0.5,1.3-1.1,1.7c-0.6,0.4-1.3,0.4-2,0.2l0.2-0.5l-0.2,0.5c-0.6-0.2-1.4,0.1-1.7,0.7c-0.3,0.7-0.7,1.3-1.1,1.9
			c-0.4,0.6-0.3,1.4,0.2,1.8c0.5,0.5,0.9,1.1,0.8,1.8c0,0.7-0.4,1.4-0.9,1.8c-1,0.8-2.1,1.4-3.2,1.9c-0.7,0.3-1.4,0.2-2.1-0.1
			c-0.6-0.3-1-0.9-1.2-1.6c-0.1-0.7-0.8-1.2-1.5-1.1c-0.7,0.1-1.5,0.1-2.2,0c-0.7-0.1-1.4,0.4-1.5,1.1c-0.1,0.7-0.5,1.3-1.2,1.6
			C10.9,28.9,10.5,29,10.1,29z M3.7,17.7c0.9,0,1.8,0.5,2.2,1.4c0.3,0.6,0.6,1.2,1,1.8c0.7,1,0.6,2.4-0.4,3.2
			c-0.3,0.3-0.5,0.6-0.5,1c0,0.4,0.2,0.8,0.5,1.1c0.9,0.7,1.9,1.3,3,1.7c0.4,0.2,0.8,0.1,1.2-0.1c0.4-0.2,0.6-0.5,0.7-0.9
			c0.2-1.2,1.3-2,2.6-1.9c0.7,0.1,1.3,0.1,2,0c1.3-0.1,2.4,0.7,2.6,1.9c0.1,0.4,0.3,0.7,0.7,0.9c0.4,0.2,0.8,0.2,1.2,0.1
			c1.1-0.5,2.1-1,3-1.7c0.3-0.3,0.5-0.6,0.5-1.1c0-0.4-0.2-0.8-0.5-1c-1-0.8-1.1-2.2-0.4-3.2c0.4-0.5,0.7-1.1,1-1.8
			c0.5-1.1,1.8-1.7,2.9-1.3c0,0,0,0,0,0l0,0c0.4,0.1,0.8,0.1,1.1-0.1c0.4-0.2,0.6-0.6,0.6-1C29,16.2,29,15.6,29,15s0-1.2-0.1-1.8
			c-0.1-0.4-0.3-0.8-0.6-1c-0.3-0.2-0.8-0.2-1.1-0.1c-1.2,0.4-2.4-0.1-3-1.3c-0.3-0.6-0.6-1.2-1-1.8c-0.7-1-0.6-2.4,0.4-3.2
			c0.3-0.3,0.5-0.6,0.5-1c0-0.4-0.2-0.8-0.5-1.1c-0.9-0.7-1.9-1.3-3-1.7C20,1.9,19.6,2,19.2,2.2c-0.4,0.2-0.6,0.5-0.7,0.9
			c-0.2,1.2-1.3,2-2.6,1.9c-0.7-0.1-1.3-0.1-2,0c-1.3,0.1-2.4-0.7-2.6-1.9c-0.1-0.4-0.3-0.7-0.7-0.9C10.4,2,10,1.9,9.6,2.1
			c-1.1,0.5-2.1,1-3,1.7C6.2,4.1,6,4.5,6,4.9c0,0.4,0.2,0.8,0.5,1c1,0.8,1.1,2.2,0.4,3.2c-0.4,0.5-0.7,1.1-1,1.8
			C5.3,12,4,12.6,2.9,12.2C2.5,12,2.1,12,1.8,12.3c-0.4,0.2-0.6,0.6-0.6,1C1,13.8,1,14.4,1,15s0,1.2,0.1,1.8c0.1,0.4,0.3,0.8,0.6,1
			c0.3,0.2,0.8,0.2,1.1,0.1C3.2,17.7,3.4,17.7,3.7,17.7z"/>
	</g>
	<g>
		<path class="cls-1" d="M15,21c-3.3,0-6-2.7-6-6s2.7-6,6-6s6,2.7,6,6S18.3,21,15,21z M15,10c-2.8,0-5,2.2-5,5s2.2,5,5,5s5-2.2,5-5S17.8,10,15,10z
			"/>
	</g>
</g>
</svg>
