<svg xmlns="http://www.w3.org/2000/svg" viewBox="0 0 30 30">
  <defs>
    <style>.cls-1{fill:#e41419;}</style>
  </defs>
<g>
	<g>
		<path class="cls-1" d="M27.744,2.5H2.256C1.288,2.5,0.5,3.287,0.5,4.255v17.489c0,0.967,0.788,1.755,1.756,1.755H14.5v3H9
			c-0.276,0-0.5,0.224-0.5,0.5s0.224,0.5,0.5,0.5h12c0.276,0,0.5-0.224,0.5-0.5s-0.224-0.5-0.5-0.5h-5.5v-3h12.244
			c0.968,0,1.756-0.788,1.756-1.755V4.255C29.5,3.288,28.712,2.5,27.744,2.5z M28.5,21.744c0,0.416-0.339,0.755-0.756,0.755H2.256
			c-0.417,0-0.756-0.338-0.756-0.755V4.255C1.5,3.839,1.839,3.5,2.256,3.5h25.488c0.417,0,0.756,0.338,0.756,0.755V21.744z M27,4.5
			H3C2.724,4.5,2.5,4.724,2.5,5v16c0,0.276,0.224,0.5,0.5,0.5h24c0.276,0,0.5-0.224,0.5-0.5V5C27.5,4.724,27.276,4.5,27,4.5z
			 M26.5,20.5h-23v-15h23V20.5z"/>
	</g>
</g>
</svg>
