<svg xmlns="http://www.w3.org/2000/svg" viewBox="0 0 22 30"><title>documentation</title><g id="Vrstva_2" data-name="Vrstva 2"><g id="Layer_1" data-name="Layer 1"><path d="M17.5,11H4.5a.5.5,0,0,1,0-1h13a.5.5,0,0,1,0,1Z"/><path d="M17.5,7h-6a.5.5,0,0,1,0-1h6a.5.5,0,0,1,0,1Z"/><path d="M21.5,30H.5a.47.47,0,0,1-.5-.5V8.5c0-.1.1-.3.1-.4l8-8c.1,0,.3-.1.4-.1h13a.47.47,0,0,1,.5.5v29A.47.47,0,0,1,21.5,30ZM1,29H21V1H8.7L1,8.7Z"/><path d="M8.5,9H.5a.5.5,0,0,1,0-1H8V.5a.5.5,0,0,1,1,0v8A.47.47,0,0,1,8.5,9Z"/><path d="M17.5,15H4.5a.5.5,0,0,1,0-1h13a.5.5,0,0,1,0,1Z"/><path d="M17.5,19H4.5a.5.5,0,0,1,0-1h13a.5.5,0,0,1,0,1Z"/><path d="M17.5,23H4.5a.5.5,0,0,1,0-1h13a.5.5,0,0,1,0,1Z"/><path d="M17.5,27H4.5a.5.5,0,0,1,0-1h13a.5.5,0,0,1,0,1Z"/></g></g></svg>