<svg xmlns="http://www.w3.org/2000/svg" viewBox="0 0 380.87 305.21"><defs><style>.cls-1{fill:#2e353c;}</style></defs><title>EASY-TO-BUILD</title><g id="Vrstva_2" data-name="Vrstva 2"><g id="ARROWS"><path d="M191.57,202c.27-1-.61-1.5-.71-2.25-.37-.55-.82-.69-1.68-.11l1.72.09a2,2,0,0,0-.87,1.81,5.73,5.73,0,0,0-.75-.65,4.39,4.39,0,0,1-2.32-3.18,3.55,3.55,0,0,0-1.65-2.81l.48-.82a3.64,3.64,0,0,1-1.39-2.45,6.83,6.83,0,0,0-1.21-3.25,3.58,3.58,0,0,1-.83-3,1.8,1.8,0,0,0,0-.95q-.88-2.52-1.84-5c-.27-.71-.64-1.38-.95-2.07a12.06,12.06,0,0,1-1.23-5.19c0-.35-.34-.68-.47-1a19.78,19.78,0,0,1-.87-2.74c-.35-1.76-.57-3.53-.86-5.3a1.84,1.84,0,0,1,.19-1.52,19.32,19.32,0,0,0,2.11.43c.93.09,1,.95,1.55,1.37-.37.35-.26.7.08,1a1.2,1.2,0,0,1,.39,1.16c0,1.45,1.42,2.89,3.1,3.22a4.63,4.63,0,0,0,0-.54,31.63,31.63,0,0,1-1-6.41,2.37,2.37,0,0,1,1-2.05l1.46.85a7.43,7.43,0,0,0,0,2.55c.27.71-.39,1.42.35,2.12a8,8,0,0,1,1.23,2.22l-.83,1.54a4.31,4.31,0,0,0,1.05.94,4.2,4.2,0,0,1,2.85,4.61c-1.89,1.33-1.49,3-.67,4.9.39-.25,1-.45.95-.62,0-.8.68-1.16.87-1.77.15,0,.24,0,.28,0,.2.16.38.33.49.43.39-.23.79-.66,1.1-.61.66.11.69.69.56,1.23a5.73,5.73,0,0,0-.14.56c0,.19-.08.44,0,.55a9.68,9.68,0,0,1,1.74,3.54,10.55,10.55,0,0,0,.71,1.53l.78,1.56.66-1.42c.38.15.87.21.94.4a16,16,0,0,1,.45,2.05,16.62,16.62,0,0,1,1.52,1.67,1.17,1.17,0,0,1-.1,1.7c-1,1-.44,2.35,1,2.84l1.43.48c-.72.51-1.93-.27-2,.95,1,.58,2.37.75,2.4,2.33l-2.38-.08a11.32,11.32,0,0,1,3.6,2.69,2,2,0,0,0,1,.53,2.45,2.45,0,0,1,2.2,2.36c-.5.43-.79.24-1.17-.18a6.94,6.94,0,0,0-1.72-1.57,11.48,11.48,0,0,0-2.24-.71c-.38,1-.22,1.41.5,1.24a2.39,2.39,0,0,1,2.49.86c.09.1,0,.33,0,.52l-1.66-.23c.22.47.28.85.48.94a18.35,18.35,0,0,0,2.5.84,2.31,2.31,0,0,1,1.74,1.44c.07.16-.11.41-.19.67l1.69.4c1.39,1.94,2.23,4.21,4.57,5.36-.59.7-1.66-.17-2,.86l1.76.72.91-.74c.46.25.6,1,1.34.58.1-.05.51.31.67.54.05.07-.25.36-.4.54s-.24.28-.34.4c1.12,2.15,1.39,2.44,2.82,3l-1.2.85,2.3,0-.31,1.34c2.27-.29,2.63-.08,3.59,1.9a1.46,1.46,0,0,0,.47.55c.84.63,1.74,1.21,2.56,1.87,1.13.91,2.93,1.21,3.12,3,0,.26.38.56.66.71,2,1,3.08,3.16,5.21,4.09.2.09.28.42.43.63s.34.66.59.73c1,.28,2.08.77,2.38,1.55.42,1.08,2,.83,2.11,2,.9.43,1.23,1.27,1.78,2a4.4,4.4,0,0,0,3.43,2.18,1.55,1.55,0,0,1,1.09.4,36.76,36.76,0,0,0,3.08,3.28,8.92,8.92,0,0,0,2.62,2c.55.27,1.18.49,1.27,1.14.18,1.27,1.26,1.57,2.27,2s1.76.61,2.62.91l.3,1.35a3.69,3.69,0,0,1,3.1,1.91,2.9,2.9,0,0,0,1.37,1c1.15.52,2.41.86,3.54,1.42a29.17,29.17,0,0,1,6.55,4.38,4.9,4.9,0,0,0,2,1.31c1,.2,1.32,1,1.83,1.62a3.45,3.45,0,0,1,3.3.78,4.16,4.16,0,0,0,2.76,1c.12,0,.24.09.55.22l.22,1.25a10.14,10.14,0,0,0,2.28.4,3.12,3.12,0,0,1,2.35.95,6.59,6.59,0,0,0,1.17.64c.33.18.75.28,1,.54a2,2,0,0,0,1.78.78c1.93-.08,3.34,1.06,4.74,2a16.16,16.16,0,0,0,4.19,2.35c1.59.45,2.58,2.14,4.5,1.84,1.6.69,3.2,1.37,4.79,2.09.59.27,1,.79,1.79.81a11,11,0,0,1,2,.58c.5.12,1,.81,1.6.12.1-.11.65.05.93.19a15.71,15.71,0,0,1,1.34.9c1.05-.52,2.12-1.11,3.23-.37a6.7,6.7,0,0,0,2.69.79,10.66,10.66,0,0,1,3.56,1.59,2.7,2.7,0,0,1,1,1c.65,1.36.82,1.49,2.74,1.42-.19-1-2-.57-1.89-2,.43.15.71.26,1,.35,1.09.33,2.22,1,3.25.87s1.64-.12,2.28.63a2,2,0,0,0,1.1.44,2.73,2.73,0,0,1,1.72.92,1.63,1.63,0,0,0,1.66.51c1.12-.21,2.23-.48,3.35-.71a2.31,2.31,0,0,1,.58,0l.49,1.57c.6-.07,1.13-.12,1.66-.2a7,7,0,0,1,1.17-.24,9.93,9.93,0,0,1,2.53.6,9.39,9.39,0,0,0,2.78-.11,3.22,3.22,0,0,1,.8.15l5.43,1.15,1.24-1.09c2.07.9,2.72.75,3.65-.82a3.18,3.18,0,0,0-2.55-1.27c-.76-.11-1.66,0-2.19-.79a.62.62,0,0,0-.52-.22c-.85.3-1.41-.29-2.06-.56-2.3-.92-4.57-1.92-6.91-2.74-.78-.28-1.55-.39-1.84-1.17-2,.38-2.6.11-3.94-1.33-.56-.6-1.32-1.4-2-1.45-1.49-.11-2.63-1.06-4.07-1.15a2,2,0,0,1-1.29-.52,5.92,5.92,0,0,0-3.32-1.75c-.22-.05-.39-.27-.67-.47.86-.83,2.33-.94,2.42-2.28,0-.1.33-.23.52-.26a23.46,23.46,0,0,1,3.43-.35c2.27.06,3.69,2,5.82,2.45.11,0,.19.17.27.28a4.34,4.34,0,0,0,3.9,1.68c.11,0,.22.13.29.18l-.11,1.61,1.42-1c2.7.63,4.73,2.39,7.41,2.82a20.43,20.43,0,0,1,7.69,3A7.21,7.21,0,0,0,370.2,284a2.37,2.37,0,0,1,2.3,1.37c.32,1,1.09,1.35,2,1.76s1.27.6,2,0a2.19,2.19,0,0,1,2.41.2c-.05.45-.1.9-.18,1.55l1.73-.87.43.87a15.36,15.36,0,0,0-1.71.81,8.41,8.41,0,0,1-4,1.68,4.33,4.33,0,0,0-1.29.54c-.55.23-1.11.46-1.67.67-.94.36-1.9.67-2.83,1.06s-2.06,1-3.12,1.42a36.25,36.25,0,0,0-6.1,2.64,2.09,2.09,0,0,1-.56.21c-2.48.7-4.66,2.09-7.21,2.6a3.3,3.3,0,0,0-.9.45l-2.91,1.48c-.32,1.34-.53,1.53-1.75,1a2.3,2.3,0,0,0-1.73,0c-1.11.34-2.18,1-3.46.54a1.05,1.05,0,0,0-.58,0c-1,.31-2.06.64-3.09,1a4.28,4.28,0,0,1-4.09-.62,5.22,5.22,0,0,1,3.67-3.41c.66.45,1.34,1.16,2.33.5l-.15-1.18c.54-.23,1.16-.73,1.6-.63a4.63,4.63,0,0,0,2.18-.26c1.59-.31,3.17-.79,4.78-.94a4.59,4.59,0,0,0,3.47-1.65l3.3-.56a3.61,3.61,0,0,1,2.67-2.44l-1.09-1.2c-.75.67-1,1.67-1.87,1.64-.31-.48-.48-1.07-.75-1.12a10,10,0,0,0-3.63-.27,4.07,4.07,0,0,1-2.92-.32,5.09,5.09,0,0,0-4.47-.32c-1.33.52-2.74-1-4.1.05-.08.06-.36-.13-.55-.2s-.12-.09-.18-.09a11.48,11.48,0,0,0-1.17-.07,6,6,0,0,1-1.39.05,13.08,13.08,0,0,0-6.63-.22,1.46,1.46,0,0,1-.8-.06,11.15,11.15,0,0,0-3.89-.56c-.59,0-1.32.22-1.73,0-.71-.42-1.31-.08-1.94-.14a36.29,36.29,0,0,1-4.38-.7c-.35-.07-.59-.51-.94-.71s-.95-.59-1.23-.47c-1,.43-1.85-.19-2.75-.28a16.2,16.2,0,0,1-2.74-.62c-1.25-.34-2.48-.71-3.71-1.09a5.68,5.68,0,0,1-1.29-.47,4,4,0,0,0-2.55-.48,4.89,4.89,0,0,1-4.2-1,.92.92,0,0,0-.71-.2c-.63.2-1-.18-1.49-.41a7.57,7.57,0,0,0-2.11-.69c-2.73-.33-5.12-1.67-7.77-2.25-.31-.07-.56-.38-.87-.5-1.44-.53-2.69-1.7-4.31-1.56a11.78,11.78,0,0,1-3.53-.53,6.87,6.87,0,0,1-4.19-2.55c-.33-.43-.95-1-1.37-1a4.15,4.15,0,0,1-2.89-1.12,5.71,5.71,0,0,0-1.28-.46l-.57,1.06c-.53-.62-1.21-1.07-1.33-1.63-.27-1.27-1.21-1.43-2.29-1.75a16.61,16.61,0,0,1-5.37-2.29c-1.15-.85-2.09-2-3.62-2.35-.3-.08-.47-.57-.71-.86s-.44-.71-.76-.83a17,17,0,0,1-1.86-.38c-.53-.28-.81-.94-1.31-1.28a37,37,0,0,1-4.85-3.26,10.85,10.85,0,0,0-1.9-1.06,7.15,7.15,0,0,1-1.29-.92,41.28,41.28,0,0,0-5.24-4.33c-1.95-1.42-4.17-2.58-5.34-4.79a2.11,2.11,0,0,0-1.14-.78,3.34,3.34,0,0,1-2.32-2.44,7.11,7.11,0,0,1-1.18-.38c-1.1-.57-2.48-.86-2.73-2.35,0-.28-.51-.57-.86-.72a2.12,2.12,0,0,1-1.4-2.3c-.67-.39-1.23-.68-1.75-1s-.93-.76-1.43-1.09a2.64,2.64,0,0,1-1.41-1.78,1.47,1.47,0,0,0-.8-1c-1.18-.43-1.29-1.37-1.42-2.24a7.16,7.16,0,0,0-.95-.58,5.1,5.1,0,0,1-2.61-2.31c-1.14-2.18-3.64-3.46-4.43-5.87,0,0-.1-.09-.14-.14a50.15,50.15,0,0,1-6.12-7.08c-1-1.56-2.39-2.94-3.5-4.46a34.91,34.91,0,0,1-1.79-3c-.13-.22-.2-.53-.4-.64-1.63-1-2-2.58-2.62-4.11a3.29,3.29,0,0,0-.59-1.2c-.72-.69-.5-1.39-.25-2.14Zm175,84.57c-.34,1.09-.34,1.09.74,1.46l-2,1.07,1.49.92c1.27-1,1.27-1,.45-2C367,287.63,366.84,287.19,366.55,286.59Zm-121.4-30.92c.17.28.29.75.51.79,1.36.28,2,1.42,3.05,2.17l1-.92a15.08,15.08,0,0,0,2.37,2.36c.67.43.17.92.47,1.34a8.55,8.55,0,0,1,2.09.26c1,.37.27,1.22.32,2l2.25-1.07c.51,1.85,2.25,2.26,3.7,3.21a3.91,3.91,0,0,0-.34.78c0,.22,0,.62.11.68a11.83,11.83,0,0,0,2.61.89c.37.05.86-.5,1.26-.8a5.27,5.27,0,0,0,.64-.77l.69,1.79,3.95.41.63.9v0l-.74.66a6.29,6.29,0,0,0,2.65,3,1.18,1.18,0,0,0,.7.32c1-.13,1.58.58,2.26,1.06a5.12,5.12,0,0,0,3.56,1.22,3.54,3.54,0,0,1,1.52.39c1.07.42,2.12.87,3.18,1.32s2.21,1,3.32,1.46a4.53,4.53,0,0,0,1.69.62,9.18,9.18,0,0,1,3.82,1.13,7,7,0,0,0,2.52.45,2.65,2.65,0,0,0-2-2.05,4.17,4.17,0,0,0-1-.14c-2-.19-2.07-.21-2.56-2.13-1.35.35-2.55-.35-3.84-.6-.7-.13-1.23-.95-1.87-1.4-.35-.25-.94-.64-1.17-.52-1.2.6-1.74-.2-2.39-.84l-1.46.73-.25-1.3-1.95-.23c-.32-2.06-2.46-1.54-3.95-2.34a2.66,2.66,0,0,1,2.85.17,5,5,0,0,0,4.23.66l.81,1.3.9-1.56c-.14-.23-.18-.42-.27-.44-2.41-.57-4.43-2.18-7-2.32a2.31,2.31,0,0,1-1.4-.69,9.08,9.08,0,0,0-4.38-2.52c-.06,0-.18,0-.2,0-.74-1.17-2.14-1.23-3.28-1.72-.59-.26-1.22-.41-2-.67l-.05-.94a2.29,2.29,0,0,1,2.14-.13A30.79,30.79,0,0,1,268,263a2.94,2.94,0,0,0,2.88.06c-.35-.23-.57-.51-.82-.53a2.1,2.1,0,0,1-1.5-.89c-1.11-1.42-2.55-1.34-4.19-1-1.34.28-2.64,1-4.09.64-.33-.08-.78-.07-1-.27a3.46,3.46,0,0,0-2.93-1c-.79,0-.94-.42-.75-1.9a6.6,6.6,0,0,1-2.19-.67,11.45,11.45,0,0,0-3.74-1.55,13.41,13.41,0,0,1-2.76-1.75,3.37,3.37,0,0,0-.63.77,1.08,1.08,0,0,1-1.2.81c.38-1.05.38-1.05-.45-1.45.07-.3.3-.74.17-.86a6.29,6.29,0,0,0-1.56-1.13,5.12,5.12,0,0,0-1.48-.17c.14.54.23.87.31,1.21s.13.6.22,1.05l2.11.12ZM193,187.1c-.3.15-.57.33-1,.57a7.13,7.13,0,0,0,.95,1.65,5.62,5.62,0,0,0,1.7.73l-1.08.87c.16.73.58,1,1.44.85s1.56-.24,2.38-.37c.2-1.51-2.33-.72-2.25-2.22l1-.27c-.16-1.37-1.8-1.25-2.39-2.14a1.54,1.54,0,0,0,.55-2,3.27,3.27,0,0,0-2.52-1c-.16,0-.39.24-.39.36s.14.61.28.64a7.75,7.75,0,0,0,1.37,0c.47.63,1.14,1.17.73,2.05A6.13,6.13,0,0,0,193,187.1Zm59.12,64.11,1.2,1.75,1.26-.2c0,.24.11.48.2.9-1.54-.19-2.88-.4-3.64-1.76a2,2,0,0,0-.62-.75,10.85,10.85,0,0,1-2.49-2.62,10.57,10.57,0,0,0-1.19-1c-.73-.64-1.81-1-1.83-2.17a.46.46,0,0,0-.18-.33c-1.24-.87-2.53-1.7-3.74-2.6-.8-.59-1.4.27-2.22.14L238,241a4.09,4.09,0,0,1-4-1.16,3.93,3.93,0,0,0-3.51-1.18c-.76-1.55-2.34-2.19-4.13-3.22h1.89a7.48,7.48,0,0,1-.17-1.06,10.74,10.74,0,0,1,.08-1.27c-1.27.26-2.14-.59-3.19-1-.13,0-.3-.11-.33-.2-.68-1.81-3.07-2.28-3.55-4.25l-1.55.51c-.29-1,1-1.55.4-2.53l-1.19.36c-.13-2.09-2.65-2.21-3.53-3.94l1.43-.37c-.21-.28-.36-.69-.57-.72a7,7,0,0,0-2.78-.15,1.91,1.91,0,0,1-2.4-.8c.85-.8,1.82-.69,3-.2l-.05-1.87-1.47-.07a14.39,14.39,0,0,0-2-1.49,2.46,2.46,0,0,1-1.54-1.68c-.17-1.11-.76-1.38-1.81-1.24a3.06,3.06,0,0,1-.6,0c.16.85,0,1.71.79,2.33.21.16.2.59.24.9a2.92,2.92,0,0,0,1.51,2.5,5,5,0,0,1,1.88,2,9.44,9.44,0,0,1,.64,1.83,3.28,3.28,0,0,0,2.15,2.14,4.1,4.1,0,0,1,2.74,3.06,1.49,1.49,0,0,0,.88,1c1.44.48,1.8,1.88,2.83,2.71.17.14.05.59.06.77l3.56,1.9-.81.42c.39,1.3,2,1.22,2.73,2.16s1.33,1.89,2.08,3l.75-.49,0,0a1.9,1.9,0,0,1,1.54.79,13.83,13.83,0,0,0,1.73,1.59c.25.22.7.39.75.63.31,1.66,1.91,2,3.12,2.76.39.24.81.44,1.2.65l.06,1.09a13.19,13.19,0,0,0,1.3.43c1.56.33,1.56.32,2.34,1.41l.38-.61c1.65.27,3,.8,2.91,2.85a4.53,4.53,0,0,1,3.51.21,5.74,5.74,0,0,1,1.15.73,13.91,13.91,0,0,0,5,2.9,4.92,4.92,0,0,1,2.35,1.43,2.18,2.18,0,0,0,1.92.77,2.3,2.3,0,0,1,1.29.39c1.59,1.07,1.57,1.09,2.87-.27l.54,1.91,1.58,0c-.92-.8-1.54-1.32-2.16-1.85-.28-1-1.14-1.36-2.17-1.68l-.75.85-2.62-4.43-.61,1-1.07-.37C254.16,251.4,254.16,251.4,252.12,251.21ZM204.9,209.54c-.31-.4-.64-.65-.65-.92a6.6,6.6,0,0,1,.21-1.49L202.83,206c.29-1.31.28-1.3-.65-2.09a10.47,10.47,0,0,1-1.87-1.76,3.68,3.68,0,0,0-2.39-1.36c-.17,1.49-.21,2.86,1.12,4,.45.38,1.28.65.83,1.52,0,.08.29.35.47.51.8.76,1.71,1.42,1.48,2.73-.12.67.47,1.14,1.15,1.44a13.72,13.72,0,0,0,6.15,1.67c-.56-.71-1.57-1-1.47-2l-1.77-.22-.14-2.57-.35,0Zm-7.19-12.1a1,1,0,0,0-.5-1.43,1.42,1.42,0,0,0-1.76.85c-.26.83.24,1.64,1.49,2.25C197.24,198.46,197.51,198,197.71,197.44Zm100,84.43a6.9,6.9,0,0,0,3.59,1.16l-1.88-2.59ZM182.62,172l1.66,2.21c-.08-1.29.29-2.65-1.12-3.81Zm92.78,93.56a.6.6,0,0,0-.53.12c-.1.1-.15.42-.06.49a7.68,7.68,0,0,0,2.69,1.64l.28-.45C277,266.74,276.21,266.12,275.4,265.54Zm-78.14-70.28c.47-1.52.25-1.69-1.88-1.62C195.55,194.91,196.57,194.81,197.26,195.26Zm37.2,40.34h-.64l.11,2.37,1.6,0C235.33,237,234.34,236.51,234.46,235.6Zm84.7,46.82c-2-.32-2.08-.28-2,1.13C317.84,283.19,318.62,283.09,319.16,282.42Zm1.79.32c.58,1.08,1.62.87,2.41,1.17C323,282.61,321.87,283.11,321,282.74Zm-37.54-9.68c.39,1,1.2.78,2,.93C284.93,273.09,284.35,272.74,283.41,273.06ZM296,280.65c.36.29.75.52,1.21.19a.47.47,0,0,0,0-.46c-.22-.34-.36-.33-1.43,0C295.89,280.54,295.9,280.61,296,280.65ZM187.79,195.23c.36-1.11.36-1.11-1-1.61Zm115.74,83.58c.11,0,.33,0,.38-.06.38-.51.08-.81-.57-1.09C303.09,278.17,302.82,278.59,303.53,278.81ZM190.94,185.86c.06.23.05.41.12.44.54.25,1.07.4,1.71-.61Zm111.44,91.7c-.44-1.06-1.12-.8-1.74-.71Zm16.77,9.82c-.16-.26-.22-.49-.31-.5-.42,0-.85,0-1.27,0l0,.46Zm-15.65-4c-.1,0-.21.18-.31.28a2.3,2.3,0,0,0,.49.2c.07,0,.17-.14.29-.25A1.28,1.28,0,0,0,303.5,283.35Zm8.44-2.08-.18-.61c-.17.06-.43.07-.49.18s0,.32.09.55Zm-101-65.89s0,.23,0,.34h1l-.08-.49A8.68,8.68,0,0,0,210.93,215.38Zm40.26,35.06c-.09-.09-.16-.22-.27-.27s-.21,0-.32,0l.3.47Z"/><path d="M233.13,241.47c-.26-1.28-.61-2-1.7-2.4C231.53,240.14,231.53,240.14,233.13,241.47Z"/><path d="M228.37,239.65c0-.42.14-.87-.61-1-.28.63-.24,1,.65,1Z"/><path d="M270.44,269.66a1.24,1.24,0,0,0,1.66-.09,1,1,0,0,0-1.65.13Z"/><path d="M262.83,266a1.91,1.91,0,0,0-.44-.24s-.15.15-.22.23a3.48,3.48,0,0,0,.39.28S262.71,266.14,262.83,266Z"/><path class="cls-1" d="M14,101.48l3.07-.28a7.92,7.92,0,0,0,3.09-1.13q5.76-2,7.9-4.12a2,2,0,0,0,.64-.66.91.91,0,0,1,.58-.48.57.57,0,0,0,0,.2s.41-.46,1.24-1.45a7.12,7.12,0,0,1,2.88-2.16,6.23,6.23,0,0,1,2.72-.57c.71.07,1.11.22,1.2.47q.88,1.1-1,4.45-5.56,9.82-21.62,12.72a9.44,9.44,0,0,1-4.17-.64c-1.28-.52-2.09-.85-2.43-1L6.35,106l-1.48-.69A12.6,12.6,0,0,1,.65,99.16,15.29,15.29,0,0,1,0,93.1a30.41,30.41,0,0,1,.85-6.62A99.35,99.35,0,0,1,6.11,72.35l.36-.69a25.11,25.11,0,0,1,1.42-5.07c1-1.58,1.21-2.7.53-3.37q-.64-.6,2.3-4a19.08,19.08,0,0,1,2.82-2.73,7.07,7.07,0,0,1,3.28-2.14C18,54,18.7,54.1,19,54.68a5.51,5.51,0,0,0,2.51-.61c1.2-.48,2-.78,2.39-.9.28-.52,1.91-1.2,4.89-2.06l5.29-1c.34-.16.89,0,1.67.42a5.62,5.62,0,0,1,1.95,1.9,1.84,1.84,0,0,1-.48,2.5q-1.28,1.26-5.07,2.36t-6.77,2.26c-2,.77-3.35,1.3-4.11,1.58l-1.47.55a11.53,11.53,0,0,0-1,.53,3.85,3.85,0,0,0-1.05.76A12.93,12.93,0,0,0,16,65.71q-.62.57-2.19,5.67c-.27.56-.89,1.77-1.85,3.62s-1.3,2.91-1,3.17a17.31,17.31,0,0,0,2.51,0A21.61,21.61,0,0,1,17,76.78q9.9-4.36,11.37-4.85a1.62,1.62,0,0,1,2.11-.27A5.76,5.76,0,0,1,32.65,74a2,2,0,0,1-.29,2.74,27.5,27.5,0,0,1-6.16,3.09c-3.29,1.36-5.83,2.44-7.62,3.26S15.39,84.52,14.37,85a16.71,16.71,0,0,1-2.81.93A4,4,0,0,1,9.62,86a1,1,0,0,1-.71-1c-.6-.16-1.13.58-1.58,2.22a19.35,19.35,0,0,0-.54,8.52,5.1,5.1,0,0,0,.52,1.71Q9.22,100.94,14,101.48Z"/><path class="cls-1" d="M43,96.9a3.55,3.55,0,0,0-1.3-1.74q-1.34-.94,2.74-12.63a9.7,9.7,0,0,0,.92-1.79,6.36,6.36,0,0,1,.73-1.45.88.88,0,0,1,.14-.61.67.67,0,0,1,.48-.35L47.16,77a18.27,18.27,0,0,1,2.42-3.76A28.71,28.71,0,0,1,53.24,69a5.64,5.64,0,0,1,3.12-1.45,4.84,4.84,0,0,1,3.06.58,4.85,4.85,0,0,0,1.13.67c1.08.6,3.55,2.12,7.38,4.55l-.66,4a10.43,10.43,0,0,0,2.45,9.12,3.32,3.32,0,0,0,2.9,1.47c1.25,0,1.95.46,2.1,1.37.34,2.08-.14,3.38-1.46,3.91Q67.47,95,63.57,89.82a7.7,7.7,0,0,1-1.93-3.11A16.75,16.75,0,0,1,60.23,89q-8.59,12.19-14.48,9.66a4.33,4.33,0,0,0-1.49-1C43.46,97.24,43.06,97,43,96.9ZM57.6,74.11q-2.81.47-7.46,12.4a20.68,20.68,0,0,0-1.26,5.12q1.24,0,4.26-3.51c.39-.48.92-1.12,1.59-1.9s1.17-1.37,1.47-1.73.7-.85,1.17-1.44a22.52,22.52,0,0,0,2.07-3.55l1.21-3C59.48,74.76,58.47,74,57.6,74.11Z"/><path class="cls-1" d="M88.25,60.75a7.13,7.13,0,0,1,2.87-1,5.91,5.91,0,0,1,2.41-.09,2.8,2.8,0,0,1,.58-.25,4,4,0,0,1,2.61,1.13,9.09,9.09,0,0,1,2.22,2.13c.62,3.7.62,5.59,0,5.69-.25,0-.35.22-.3.52q.18,1.06-1.47,2.67A6.2,6.2,0,0,1,94,73.38a4,4,0,0,1-1.84-.75,2.35,2.35,0,0,1-1.11-1.49s.41-.77,1.25-2.16a5.43,5.43,0,0,0,1-3.53c-.07-.4-.53-.53-1.39-.39a23.9,23.9,0,0,0-5.41,4.57c-.2.65-.46,1-.76,1.06,0,0-.05-.07-.13-.06a4,4,0,0,0-.74.91,11.75,11.75,0,0,0-1.23,2.27,6.3,6.3,0,0,0-.58,2.4l-.11.25.06.38a1.73,1.73,0,0,0,0,.62q.19,1.22,3.83,3.07A46.48,46.48,0,0,1,92,83.43a5.9,5.9,0,0,1,1.93,2A5.63,5.63,0,0,1,95,87.73a4.44,4.44,0,0,1-2,4.44,13.92,13.92,0,0,1-6.18,2.47,12.77,12.77,0,0,1-6.72-.52c-2-.77-3.08-1.54-3.24-2.32s0-1.29.57-1.54a2.49,2.49,0,0,1,2.07-.65c1.1,0,2.45,0,4,0a12.89,12.89,0,0,0,2.8-.78c.85-.34,1.26-.62,1.23-.82s-.28-.45-.75-.74a2,2,0,0,0-1.37-.32c0-.2-1.18-.88-3.43-2s-3.41-2-3.48-2.43a.2.2,0,0,1,0-.16l-.07-.38c-.35,0-.76-.37-1.22-1.28a9.63,9.63,0,0,1-.92-2.74q-.66-3.95,3.31-9.41A23.88,23.88,0,0,1,88.25,60.75Z"/><path class="cls-1" d="M114.42,84a6.21,6.21,0,0,1-1.65,1.13.31.31,0,0,0-.28.4c0,.22-.57.66-1.81,1.31a11.11,11.11,0,0,1-2.52,1.08,2.44,2.44,0,0,1-1.65-.58,6.18,6.18,0,0,1-1.41-1.21,6.1,6.1,0,0,0-1.45-1.21c-1.72-1.22-2.53-2.54-2.46-4q.34-3.57,1.64-11.08T105,60.4a3.24,3.24,0,0,1,2.22-1.46,2.67,2.67,0,0,1,2.71.57,3.89,3.89,0,0,1,1.2,1.86,5.15,5.15,0,0,1-.23,2.38c-.27,1-.47,1.77-.59,2.29l-.33,1.3c-.1.36-.16.57-.17.65s0,.44-.09,1.07c0,1.67-.18,2.53-.44,2.57a6.79,6.79,0,0,0-.42,2.65c-.24,3.58-.09,5.55.44,5.93q4-.66,7.13-5.94.06-2.51.55-7.51t.52-7.73a5.69,5.69,0,0,1,.43-1.36c.11-.15.45-.27,1-.37a4.83,4.83,0,0,1,2.06.21,4.16,4.16,0,0,1,1.85,1,7.38,7.38,0,0,1,.81,6.81c-.71,1.37-1,4.46-1,9.29q-.21,3-.2,9.17a37.45,37.45,0,0,0-.76,4.84,23,23,0,0,1-1,4.66,28.81,28.81,0,0,1-6.36,11.75,18,18,0,0,1-8.91,5.38,13.05,13.05,0,0,1-2.26.45,9.05,9.05,0,0,1-1.8-.48,6.37,6.37,0,0,1-2-1.23c-1.5-2.15-.66-3.48,2.53-4a4.06,4.06,0,0,0,1.84,0,3.15,3.15,0,0,0,1.85-.86,5.62,5.62,0,0,1,2.14-1.21,16.31,16.31,0,0,0,3.43-3.07,18.18,18.18,0,0,0,2.29-4.36A18.27,18.27,0,0,0,115.11,90a70.43,70.43,0,0,0,1.12-7.84A10.46,10.46,0,0,1,114.42,84Z"/><path class="cls-1" d="M140.78,65.23c3.16-.52,5.29-.41,6.38.35s1.48,1.59,1.19,2.49a2,2,0,0,1-2.16,1.34q-10.5,2.52-12.25,2.81a9.42,9.42,0,0,1-2.95.1,2.92,2.92,0,0,1-3-1.06q-1.75-1.67,2.08-3l1.34-.38A44.53,44.53,0,0,1,140.78,65.23Z"/><path class="cls-1" d="M152.05,54.15a1.58,1.58,0,0,1-.5-.89,4.12,4.12,0,0,1,.38-1.74q.45-1.25,1-1.29c.33,0,1.09-.15,2.27-.38a8.59,8.59,0,0,0,2.35-.66,1.65,1.65,0,0,0,.75-1.14A19,19,0,0,1,159.31,45c1.2-3.74,2.11-5.94,2.73-6.62a4.85,4.85,0,0,1,2.31-1.4,4.17,4.17,0,0,1,2.81.24,2.64,2.64,0,0,1,.6,3.18,20.66,20.66,0,0,1-1,2.59c-.5,1.07-.86,1.91-1.07,2.52-.66,1.36-.67,2,0,2A20.24,20.24,0,0,0,170,46.38q3.48-1.17,4.46,1.95c.36,1.19.35,2,0,2.27a9.09,9.09,0,0,1-3.43.95,32.33,32.33,0,0,1-4.53,1.18,13.71,13.71,0,0,0-2.59.63A2.27,2.27,0,0,0,162.7,55a2.06,2.06,0,0,0-.39.93c-.21.65-.65,2-1.31,3.88a78.67,78.67,0,0,0-1.06,12.43,3.34,3.34,0,0,0,.5,2.1c.32.37,1.18.51,2.57.43,2.47-.14,5-1.32,7.61-3.52l1.85-1.56c.26-.66.87-.43,1.84.71a4.09,4.09,0,0,1,.6.84q.5,3-2.39,5.32a17.66,17.66,0,0,1-6.11,3.62,16,16,0,0,1-5.13,1.09,6.06,6.06,0,0,1-3.61-1.51,8.72,8.72,0,0,1-2.38-2.61l-.48-.55c-.35-.2-.67-1.49-1-3.86a27.31,27.31,0,0,1-.29-5.06q.15-1.91,1.31-8.1l1.32-4.75L153,54.54A1.29,1.29,0,0,1,152.05,54.15Z"/><path class="cls-1" d="M183.8,51.93A17,17,0,0,1,190,46.85c2.92-1.21,5.1-1.29,6.52-.22q3.18.79,4.32,4.82,1.65,6.21-2,13.91a24.63,24.63,0,0,1-6.58,8.35c-1.16,1.13-3.4,2.08-6.71,2.83a4.9,4.9,0,0,1-3.2-1q-4-3-4-5.81L178.19,68c-.29-.21-.39-.4-.29-.57s.18-.29.22-.35c.3,0,.36-.31.18-.77a6.68,6.68,0,0,1,.07-2.86,19.09,19.09,0,0,1,1.12-4.09A25.44,25.44,0,0,1,183.8,51.93Zm10.27,8.49c0-.19.12-.6.23-1.21a8.41,8.41,0,0,1,.34-1.43,6.29,6.29,0,0,0-.07-2.36c-.19-1.25-.5-2-.95-2.15a2.06,2.06,0,0,0-1.4,0,7,7,0,0,0-1.58,1.28c-3.32,3.88-5,7.73-5.19,11.55a4.23,4.23,0,0,0,.89,2.78c.53.56,1.28.6,2.25.13a6.69,6.69,0,0,0,2.46-2.08l1.34-1.83c.21-.29.38-.55.53-.79a4.11,4.11,0,0,0,.39-1q.16-.62.27-.9a8.37,8.37,0,0,0,.27-1C194,60.94,194,60.61,194.07,60.42Z"/><path class="cls-1" d="M218.18,52.4c3.17-.53,5.29-.41,6.38.34s1.49,1.59,1.2,2.5a2,2,0,0,1-2.16,1.33c-7,1.69-11.09,2.62-12.26,2.82a9.38,9.38,0,0,1-3,.09,2.93,2.93,0,0,1-3-1.06c-1.17-1.11-.47-2.11,2.08-3l1.35-.38A44,44,0,0,1,218.18,52.4Z"/><path class="cls-1" d="M233.79,41.77l.4-2.72a12.09,12.09,0,0,0,.86-3.54q.52-3.16,1-5.21,1.78-6.61,2.36-9.75c.23-.51.49-1.15.77-1.93a10.65,10.65,0,0,1,1.27-2.71,4.53,4.53,0,0,1,2.45.38,6,6,0,0,1,2.6,1.36A1.32,1.32,0,0,1,246,19a21.75,21.75,0,0,1-.83,3.26c-.47,1.53-.76,2.48-.85,2.83s-.25.88-.45,1.56-.54,1.91-1,3.68-1,3.78-1.46,6-.89,4.35-1.21,6.33-.56,3.32-.7,4l-.1,1.73L241,45.89a17.33,17.33,0,0,1,4.61-4.67,19.25,19.25,0,0,1,7-3.11c2-.32,4,.73,6,3.15a7.62,7.62,0,0,1,1.29,4,9.67,9.67,0,0,1-.6,4.39,2.59,2.59,0,0,0-.93,2q.08.93-3,5.73a28.47,28.47,0,0,1-4.52,5,27.22,27.22,0,0,1-4,3.2,8.84,8.84,0,0,1-1.9.82c-1.23.42-2,.7-2.35.86a4.22,4.22,0,0,1-4.13-1.81,2.19,2.19,0,0,1-1-1.62q.91-.15,1-.48c0-.31.21-.45.78-.44q4-.36,11.78-10.39A32.68,32.68,0,0,0,253.39,47a2.14,2.14,0,0,0-.43-2.12q-1.2-1.59-4.79,1.73a32.38,32.38,0,0,0-7.6,9.22l-2.42,4.23c0,.2-.22.51-.75.91a3.44,3.44,0,0,1-1.4.7,2.3,2.3,0,0,1-1.72-1.44,9.93,9.93,0,0,1-1.15-.55,3.5,3.5,0,0,1-.55-.73c-.42-.65-.48-2.26-.17-4.8q.42-9.21,1.15-10A4.71,4.71,0,0,0,233.79,41.77Z"/><path class="cls-1" d="M280.22,54.44,280,53.3a6.13,6.13,0,0,1-1.24,2.86,13.07,13.07,0,0,1-3.07,3.16q-4.49,4-7.9.85a6,6,0,0,1-3.3-5.78,33.44,33.44,0,0,1,1.28-12.54q2.24-7.24,2.35-7.5a4.49,4.49,0,0,1,2.85-.43c1.14.15,1.82.55,2,1.19.39.45.54,1.43.45,2.93a20.52,20.52,0,0,1-1,5c-1.2,5.3-1.75,8.53-1.63,9.68s.51,1.78,1.2,1.87a2.2,2.2,0,0,0,2-.26,9.55,9.55,0,0,0,2.65-3.52,26.68,26.68,0,0,0,2.44-6.69,21.59,21.59,0,0,0,.67-6.59,2.63,2.63,0,0,1,.15-1.9,5,5,0,0,1,1.33-1.86,2.16,2.16,0,0,1,.68-.85c.3-.23.54-.26.73-.08l1.2-.28c.1,0,.37.19.81.61a4.5,4.5,0,0,0,.9.75q2.43,1.47.48,9.51-2.81,9.84,1.1,12.23c.9.43,1.45,1.69,1.64,3.79-.09.74-.77,1.25-2.05,1.51a4.83,4.83,0,0,1-3.21-.25q-1.23-.81-3-4.81A5.16,5.16,0,0,1,280.22,54.44Z"/><path class="cls-1" d="M294.26,33.22c.18-.81.83-1.11,2-.91a5.65,5.65,0,0,1,3.12,1.87,3.05,3.05,0,0,1,1,2.37,60.59,60.59,0,0,1-.55,7.27,27.08,27.08,0,0,0,0,8.17,40.88,40.88,0,0,1,.17,4.81c-.06.89-.3,1.35-.71,1.37a3.88,3.88,0,0,1-3.47-1.38,10.1,10.1,0,0,1-2.41-4.44c-.12-2-.19-3.35-.23-4.18Q293.73,35.66,294.26,33.22Zm3-17.67a12.85,12.85,0,0,1,3.67.49q4.6,6.57,0,9.44c-.31.32-.81.32-1.48,0a4,4,0,0,1-2.23-.95c-1-.67-1.47-1.14-1.52-1.39a13.91,13.91,0,0,1-.19-4.46C295.68,16.82,296.26,15.77,297.26,15.55Z"/><path class="cls-1" d="M307.27,51.91a22.69,22.69,0,0,1,0-5.93,14.9,14.9,0,0,1,.54-5.63q1.37-11.07,1.42-12.18c.24-1.39.58-3.23,1-5.52s.75-3.85.89-4.71.34-2.37.58-4.54a18.52,18.52,0,0,1,.8-4.35c.56-1.29.93-2.21,1.1-2.76,0-.31.47-.62,1.41-.94s1.58-.34,1.93-.08c.24-.15.75.2,1.54,1a4.23,4.23,0,0,1,1.28,2.05,2.45,2.45,0,0,1-.17,1.36c-.17.36-.54,1.37-1.1,3a38.38,38.38,0,0,1-.81,5.44,23,23,0,0,0-.52,2.27c-.06.43-.26,1.48-.61,3.15s-.7,3.86-1.06,6.57a28.62,28.62,0,0,1-.94,5.11,18.45,18.45,0,0,0-.46,5,23.15,23.15,0,0,0-.47,4.21c-.07.53-.1,1.57-.11,3.1a12.89,12.89,0,0,1-.31,3.29,4.81,4.81,0,0,1-.72,2.74,1.63,1.63,0,0,1-2.12.86Q307.54,53.5,307.27,51.91Z"/><path class="cls-1" d="M332.28,43.15c.56-.09.94.46,1.13,1.65s.63,1.91,1.3,2.17c.18.17,0,.54-.64,1.08s-1.95,1.66-4,3.36a10.9,10.9,0,0,1-3.26,1.08,4.91,4.91,0,0,1-2.59-.58,6.5,6.5,0,0,1-3.53-4.33,16.74,16.74,0,0,1-.37-7.9,34.06,34.06,0,0,1,5.26-11.57,11.39,11.39,0,0,1,1.84-1.63q5.18-4.07,8.73-2.39c.95.05,1.56-.07,1.85-.38a5.59,5.59,0,0,0,.83-2.32q1.24-6.61,2.49-12t1.42-6.28c.11-.57.19-1,.25-1.29a1.46,1.46,0,0,1,.21-.62l2-1a2.23,2.23,0,0,1,2,.41A4.34,4.34,0,0,1,349,2.22q.4,2.5-1.51,10.47t-2.26,10.09q-.36,2.13-.69,3.63c-.22,1-.41,1.8-.54,2.39a12,12,0,0,0-.27,2.12,46.71,46.71,0,0,1-1,5.43,43.47,43.47,0,0,0-.88,8.31A18.18,18.18,0,0,0,343,50.05c.1.61-.26,1.29-1.07,2.05a4.41,4.41,0,0,1-4.28.08q-1.5-1.07-2-4.34-.09-2.33.29-8.13a53.76,53.76,0,0,1,.74-7.26,4.06,4.06,0,0,0-.18-2.31c-.23-.28-.86-.35-1.88-.24q-3.27.47-6.78,8.54-2.42,5.64-1.11,7.44.63.91,3-1Q330,44.62,332.28,43.15Z"/></g></g></svg>