<svg xmlns="http://www.w3.org/2000/svg" viewBox="0 0 24 24"><defs><style>.cls-1{fill:#e41419;}</style></defs><title>easy-to-build</title><g id="Vrstva_2" data-name="Vrstva 2"><g id="Tools"><g id="_Skupina_" data-name="&lt;Skupina&gt;"><g id="_Skupina_2" data-name="&lt;Skupina&gt;"><g id="_Skupina_3" data-name="&lt;Skupina&gt;"><path id="_Složená_cesta_" data-name="&lt;Složená cesta&gt;" class="cls-1" d="M11,15.21a1.19,1.19,0,0,1-.84-.35A4.79,4.79,0,0,1,8.92,13,1.5,1.5,0,0,0,8,12.08a4.68,4.68,0,0,1-1.82-1.21L.85,5.56A2.89,2.89,0,0,1,0,3.5,2.93,2.93,0,0,1,.85,1.44L1.44.85h0a3,3,0,0,1,4.12,0l5.3,5.3A4.69,4.69,0,0,1,12.08,8a1.5,1.5,0,0,0,.95.95,4.68,4.68,0,0,1,1.82,1.21,1.2,1.2,0,0,1,.37.86,1.18,1.18,0,0,1-.35.84l-3,3A1.18,1.18,0,0,1,11,15.21ZM2.15,1.56l-.59.59A1.92,1.92,0,0,0,1,3.5a1.9,1.9,0,0,0,.56,1.35l5.3,5.3a3.73,3.73,0,0,0,1.43,1,2.51,2.51,0,0,1,1.58,1.58,3.8,3.8,0,0,0,1,1.43.2.2,0,0,0,.29,0l3-3a.19.19,0,0,0,0-.27,3.77,3.77,0,0,0-1.45-1,2.51,2.51,0,0,1-1.58-1.58,3.72,3.72,0,0,0-1-1.43l-5.3-5.3A2,2,0,0,0,2.15,1.56Z"/></g><g id="_Skupina_4" data-name="&lt;Skupina&gt;"><path id="_Cesta_" data-name="&lt;Cesta&gt;" class="cls-1" d="M22.5,24a.5.5,0,0,1-.22-.05l-3.45-1.72A1.49,1.49,0,0,1,18,20.88v-.68l-5.85-5.85a.5.5,0,0,1,.71-.71l6,6A.5.5,0,0,1,19,20v.88a.5.5,0,0,0,.28.45l3.13,1.56.49-.49-1.56-3.12a.5.5,0,0,0-.45-.28H20a.5.5,0,0,1-.35-.15l-6-6a.5.5,0,1,1,.71-.71L20.21,18h.67a1.49,1.49,0,0,1,1.34.83l1.72,3.45a.5.5,0,0,1-.09.58l-1,1A.5.5,0,0,1,22.5,24Z"/></g></g><g id="_Skupina_5" data-name="&lt;Skupina&gt;"><g id="_Skupina_6" data-name="&lt;Skupina&gt;"><path id="_Složená_cesta_2" data-name="&lt;Složená cesta&gt;" class="cls-1" d="M14.25,13.25a.5.5,0,0,1-.35-.15l-.5-.5a.5.5,0,0,1,0-.71l.76-.76a.19.19,0,0,0,0-.27,3.77,3.77,0,0,0-1.45-1,2.51,2.51,0,0,1-1-.6.5.5,0,0,1,0-.71l1.44-1.44A2.65,2.65,0,0,0,14,5.18a4.91,4.91,0,0,1,1.58-3.6A4.69,4.69,0,0,1,19.06,0a5,5,0,0,1,3.07,1.12.5.5,0,0,1-.06.82L19,3.78a2.72,2.72,0,0,0,1.46,2.15l2.74-1.64a.5.5,0,0,1,.5,0A.54.54,0,0,1,24,4.7a5,5,0,0,1-1.35,3.73A5,5,0,0,1,19,10a4.62,4.62,0,0,1-1.14-.15L14.6,13.1A.5.5,0,0,1,14.25,13.25Zm-1.4-4.4.17.07h0a4.67,4.67,0,0,1,1.82,1.21,1.2,1.2,0,0,1,.37.86s0,.05,0,.08l2.14-2.14a.5.5,0,0,1,.5-.13A3.92,3.92,0,0,0,19,9a4,4,0,0,0,4-3.39l-2.2,1.32a.5.5,0,0,1-.48,0l-.21-.11A3.71,3.71,0,0,1,18,3.5a.5.5,0,0,1,.24-.43l2.64-1.58A3.88,3.88,0,0,0,19,1a3.71,3.71,0,0,0-2.74,1.26A3.93,3.93,0,0,0,15,5.13a3.64,3.64,0,0,1-1.12,2.69Z"/></g><g id="_Skupina_7" data-name="&lt;Skupina&gt;"><path id="_Složená_cesta_3" data-name="&lt;Složená cesta&gt;" class="cls-1" d="M5,24H5a5,5,0,0,1-2.88-.93.5.5,0,0,1,0-.84l3.34-2A2.72,2.72,0,0,0,4,18.07L.81,20a.5.5,0,0,1-.75-.37l0-.12A3.78,3.78,0,0,1,0,19a5,5,0,0,1,5-5,3,3,0,0,0,2.05-.76l1.51-1.51a.5.5,0,0,1,.35-.15h0a.5.5,0,0,1,.35.15,2.5,2.5,0,0,1,.6,1,3.75,3.75,0,0,0,1,1.43.2.2,0,0,0,.29,0l.76-.76a.51.51,0,0,1,.71,0l.5.5a.5.5,0,0,1,0,.71l-2.27,2.27A2.65,2.65,0,0,0,10,18.83,4.9,4.9,0,0,1,8.44,22.4,4.78,4.78,0,0,1,5,24ZM3.38,22.65A3.93,3.93,0,0,0,5,23H5a3.78,3.78,0,0,0,2.71-1.28A3.91,3.91,0,0,0,9,18.87a3.65,3.65,0,0,1,1.13-2.7l1-1a1.19,1.19,0,0,1-.93-.35A4.73,4.73,0,0,1,8.92,13a1.39,1.39,0,0,0-.07-.17L7.76,13.95A3.81,3.81,0,0,1,5,15H5a4,4,0,0,0-4,3.71l2.73-1.64a.5.5,0,0,1,.48,0l.21.11A3.71,3.71,0,0,1,6.5,20.5a.5.5,0,0,1-.24.43Z"/></g></g></g></g></g></svg>