<svg xmlns="http://www.w3.org/2000/svg" xmlns:xlink="http://www.w3.org/1999/xlink" viewBox="0 0 43.22 43.22"><defs><style>.cls-1,.cls-5{fill:none;}.cls-2{clip-path:url(#clip-path);}.cls-3{fill:#fcc341;}.cls-4{fill:#fff;}.cls-5{stroke:#fcc341;stroke-miterlimit:10;}</style><clipPath id="clip-path" transform="translate(0)"><rect class="cls-1" width="43.22" height="43.22"/></clipPath></defs><title>Datový zdroj 14</title><g id="Vrstva_2" data-name="Vrstva 2"><g id="Vrstva_1-2" data-name="Vrstva 1"><g class="cls-2"><path class="cls-3" d="M43.22,21.61A21.61,21.61,0,1,1,21.61,0,21.62,21.62,0,0,1,43.22,21.61" transform="translate(0)"/><path class="cls-4" d="M33.61,17.83c-4.08-.62-7.59-2.75-11.43-4,0,0-.32-.28-.51-.14-1.16.89-8.77,3.6-11.53,4.83A9.92,9.92,0,0,0,12.36,20c.8.37,1.64.66,2.48,1a12.89,12.89,0,0,0,.53,5.44c0,.11.41.32.48.39a3.64,3.64,0,0,0,1.66.9c6,1.72,11.66-.22,11.77-1.72.07-1-.26-4.44.19-5.79,1.46-.69,2.94-1.35,4.4-2" transform="translate(0)"/><path class="cls-4" d="M9.8,19.7c0-.06.08-.13.16-.12l0,0c.18.08.16.38.13.57A.64.64,0,0,1,9.65,20c0-.11.09-.23.15-.34m0,.79a1.59,1.59,0,0,0,.8.18c.06,0,.14,0,.15-.1a1.13,1.13,0,0,0-.35-1.06.63.63,0,0,0-.36-.27H10l0,0c.06,0,0-.11,0-.09l-.21.09a1.93,1.93,0,0,0-.42,0,.18.18,0,0,0-.18.16,1.06,1.06,0,0,0,.19.88.83.83,0,0,0,.48.25" transform="translate(0)"/><path class="cls-4" d="M9.35,22.43c.12-.64.29-1.26.45-1.89,0,0-.06-.06-.07,0a12.21,12.21,0,0,0-.66,2.13c-.08.47-.25,1.45.21,1.82a.08.08,0,0,0,.13-.06,4.79,4.79,0,0,0-.15-.81,4.59,4.59,0,0,1,.09-1.17" transform="translate(0)"/><path class="cls-4" d="M9.83,22.54A4.12,4.12,0,0,1,10,20.73s0,0,0,0a4.57,4.57,0,0,0-.28,1.82,3.41,3.41,0,0,0,.44,1.71c0,.07.14,0,.13-.05-.1-.56-.35-1.08-.43-1.66" transform="translate(0)"/><path class="cls-4" d="M10.22,20.9s-.08,0-.06,0a5.32,5.32,0,0,1,.51,2,6.7,6.7,0,0,0,.09,1.62.08.08,0,0,0,.15,0,4.06,4.06,0,0,0,0-1.8,5.28,5.28,0,0,0-.65-1.83" transform="translate(0)"/><path class="cls-4" d="M10.63,20.91s0,0,0,0a4.66,4.66,0,0,1,.61,1.56c.15.58.06,1.18.18,1.75,0,.09.15.07.17,0a3.3,3.3,0,0,0-.12-1.81,3.51,3.51,0,0,0-.81-1.52" transform="translate(0)"/><path class="cls-5" d="M12.76,20.64l8.3,2.23s5.19-1.4,9.34-2.57" transform="translate(0)"/></g></g></g></svg>
