<svg xmlns="http://www.w3.org/2000/svg" viewBox="0 0 24.57 24.57"><defs><style>.cls-1{fill:#0f7b8d;}.cls-2{fill:#fff;}</style></defs><title>Datový zdroj 6</title><g id="Vrstva_2" data-name="Vrstva 2"><g id="Vrstva_1-2" data-name="Vrstva 1"><path class="cls-1" d="M24.57,12.29A12.29,12.29,0,1,1,12.29,0,12.28,12.28,0,0,1,24.57,12.29"/><path class="cls-2" d="M16.65,14.88c0,.42.43,1.74-.64,1.71H9c-1.23,0-.79-1.44-.79-1.86l0-5.9c0-.42.33-.78,1.42-.85L16,8.07c.42,0,.93.49.78,1.72Z"/><path class="cls-2" d="M10.18,7.14c0,.08-.16.15-.35.15s-.35-.07-.35-.15V5.46c0-.08.15-.15.35-.15s.35.07.35.15Z"/><path class="cls-2" d="M11.86,7.14c0,.08-.16.15-.36.15s-.35-.07-.35-.15V5.46c0-.08.16-.15.35-.15s.36.07.36.15Z"/><path class="cls-2" d="M13.6,7.14c0,.08-.16.15-.36.15s-.35-.07-.35-.15V5.46c0-.08.16-.15.35-.15s.36.07.36.15Z"/><path class="cls-2" d="M15.2,7.14c0,.08-.16.15-.36.15s-.35-.07-.35-.15V5.46c0-.08.16-.15.35-.15s.36.07.36.15Z"/><path class="cls-2" d="M10.05,19.17c0,.08-.16.15-.35.15s-.35-.07-.35-.15V17.49c0-.08.15-.15.35-.15s.35.07.35.15Z"/><path class="cls-2" d="M11.73,19.17c0,.08-.16.15-.35.15s-.36-.07-.36-.15V17.49c0-.08.16-.15.36-.15s.35.07.35.15Z"/><path class="cls-2" d="M13.47,19.17c0,.08-.16.15-.36.15s-.35-.07-.35-.15V17.49c0-.08.16-.15.35-.15s.36.07.36.15Z"/><path class="cls-2" d="M15.07,19.17c0,.08-.16.15-.36.15s-.35-.07-.35-.15V17.49c0-.08.16-.15.35-.15s.36.07.36.15Z"/><path class="cls-2" d="M5.34,9.66c-.08,0-.15-.16-.15-.36S5.26,9,5.34,9H7c.08,0,.15.16.15.35s-.07.36-.15.36Z"/><path class="cls-2" d="M5.34,11.33c-.08,0-.15-.15-.15-.35s.07-.35.15-.35H7c.08,0,.15.16.15.35s-.07.35-.15.35Z"/><path class="cls-2" d="M5.34,13.07c-.08,0-.15-.16-.15-.35s.07-.35.15-.35H7c.08,0,.15.16.15.35s-.07.35-.15.35Z"/><path class="cls-2" d="M5.34,14.67c-.08,0-.15-.16-.15-.35s.07-.35.15-.35H7c.08,0,.15.16.15.35s-.07.35-.15.35Z"/><path class="cls-2" d="M17.62,10c-.08,0-.15-.16-.15-.36s.07-.35.15-.35H19.3c.08,0,.15.16.15.35s-.07.36-.15.36Z"/><path class="cls-2" d="M17.62,11.63c-.08,0-.15-.15-.15-.35s.07-.35.15-.35H19.3c.08,0,.15.16.15.35s-.07.35-.15.35Z"/><path class="cls-2" d="M17.62,13.37c-.08,0-.15-.16-.15-.35s.07-.35.15-.35H19.3c.08,0,.15.16.15.35s-.07.35-.15.35Z"/><path class="cls-2" d="M17.62,15c-.08,0-.15-.16-.15-.35s.07-.35.15-.35H19.3c.08,0,.15.16.15.35s-.07.35-.15.35Z"/></g></g></svg>
