<svg id="Layer_1" data-name="Layer 1" xmlns="http://www.w3.org/2000/svg" viewBox="0 0 24 22.98"><defs><style>.cls-1{fill:#2e343c;}</style></defs><title>obalka-lista-projects</title><path class="cls-1" d="M22.86,7,13.64,1a3,3,0,0,0-3.27,0L1.14,7A2.49,2.49,0,0,0,0,9.08V21a2.5,2.5,0,0,0,2.5,2.5h19A2.5,2.5,0,0,0,24,21V9.08A2.49,2.49,0,0,0,22.86,7Zm-14,9.39-6,5a.5.5,0,0,1-.64-.77l6-5a.5.5,0,0,1,.64.77ZM12,15.51A2.79,2.79,0,0,1,10.42,15L2.22,9.4a.5.5,0,1,1,.56-.82L11,14.19a1.79,1.79,0,0,0,2,0l8.2-5.61a.5.5,0,0,1,.57.82L13.58,15A2.79,2.79,0,0,1,12,15.51Zm9.88,5.8a.5.5,0,0,1-.7.06l-6-5a.5.5,0,1,1,.64-.77l6,5A.5.5,0,0,1,21.88,21.31Z" transform="translate(0 -0.51)"/></svg>