<svg xmlns="http://www.w3.org/2000/svg" xmlns:xlink="http://www.w3.org/1999/xlink" viewBox="0 0 26.11 26.11"><defs><style>.cls-1,.cls-4,.cls-6{fill:none;}.cls-2{clip-path:url(#clip-path);}.cls-3{fill:#e7323c;}.cls-4,.cls-6{stroke:#fff;stroke-miterlimit:10;}.cls-4{stroke-width:0.95px;}.cls-5{fill:#fff;}.cls-6{stroke-width:0.91px;}</style><clipPath id="clip-path" transform="translate(0)"><rect class="cls-1" width="26.11" height="26.11"/></clipPath></defs><title>Datový zdroj 12</title><g id="Vrstva_2" data-name="Vrstva 2"><g id="Vrstva_1-2" data-name="Vrstva 1"><g class="cls-2"><path class="cls-3" d="M26.11,13.06A13.06,13.06,0,1,1,13.06,0,13,13,0,0,1,26.11,13.06" transform="translate(0)"/><path class="cls-4" d="M20.68,13.06c-.56,5.6-3.42,7.28-7.64,7.28S5.29,17.08,5.4,13.06C5.54,8.16,8.82,5.78,13,5.78S21.09,9.06,20.68,13.06Z" transform="translate(0)"/><path class="cls-5" d="M18.12,11.12a1.34,1.34,0,1,1-1.34-1.34,1.34,1.34,0,0,1,1.34,1.34" transform="translate(0)"/><path class="cls-5" d="M10.67,10.8A1.34,1.34,0,1,1,9.33,9.46a1.34,1.34,0,0,1,1.34,1.34" transform="translate(0)"/><path class="cls-6" d="M17.65,14A4.37,4.37,0,0,1,13,18,4.37,4.37,0,0,1,8.41,14" transform="translate(0)"/></g></g></g></svg>
