<?xml version="1.0" standalone="no"?>
<!DOCTYPE svg PUBLIC "-//W3C//DTD SVG 20010904//EN"
 "http://www.w3.org/TR/2001/REC-SVG-20010904/DTD/svg10.dtd">
<svg version="1.0" xmlns="http://www.w3.org/2000/svg"
 width="200.000000pt" height="200.000000pt" viewBox="0 0 200.000000 200.000000"
 preserveAspectRatio="xMidYMid meet">
<metadata>
Created by potrace 1.15, written by Peter Selinger 2001-2017
</metadata>
<g transform="translate(0.000000,200.000000) scale(0.100000,-0.100000)"
fill="#fec701" stroke="none">
<path d="M815 1895 c-217 -48 -425 -184 -551 -361 -187 -262 -220 -612 -85
-900 47 -100 84 -154 158 -235 112 -120 250 -207 408 -255 83 -26 103 -28 255
-28 152 0 172 2 255 28 388 118 647 465 647 866 0 432 -306 804 -730 886 -90
17 -276 17 -357 -1z m290 -479 c72 -19 131 -52 186 -103 86 -80 129 -182 129
-303 0 -372 -451 -558 -715 -295 -157 157 -164 409 -16 576 99 112 272 164
416 125z"/>
<path d="M914 1366 c-226 -57 -343 -306 -242 -515 34 -71 122 -153 193 -181
87 -34 200 -33 277 2 76 35 122 73 162 133 88 131 85 297 -8 423 -85 116 -244
174 -382 138z m-29 -261 c14 -13 25 -33 25 -45 0 -25 -42 -70 -65 -70 -20 0
-57 19 -67 34 -17 24 -8 65 18 85 35 27 59 26 89 -4z m320 0 c14 -13 25 -33
25 -45 0 -29 -44 -70 -75 -70 -33 0 -65 33 -65 68 0 32 8 45 35 60 31 18 54
14 80 -13z m-314 -250 c61 -35 135 -34 200 1 27 15 55 24 64 20 31 -11 10 -41
-50 -71 -75 -37 -146 -39 -222 -6 -59 26 -78 44 -69 66 8 21 27 19 77 -10z"/>
</g>
</svg>
