<svg xmlns="http://www.w3.org/2000/svg" width="12px" height="20px" viewBox="0 0 718.94 1504"><defs><style>.cls-1{fill:#fff;}</style></defs><title>facebook</title><g id="Vrstva_2" data-name="Vrstva 2"><g id="Vrstva_1-2" data-name="Vrstva 1"><g id="Layer_1"><path class="cls-1" d="M16,490.67H196.27V261.33a16.13,16.13,0,0,1,.13-2.07c3.71-70.48,18-134.18,50.79-180.94C281.25,29.83,334.2,0,414.25,0H702.94a16,16,0,0,1,16,16V247.16a16,16,0,0,1-16,16H589c-29.39,0-51.45,4.5-65.76,16.32L513,267.16l10.19,12.34c-.31.26-.63.49-.95.72C509,291.73,501.54,311.06,499.91,341h0V490.67h203a16,16,0,0,1,16,16V752a16,16,0,0,1-16,16h-203v720a16,16,0,0,1-16,16H212.27a16,16,0,0,1-16-16V768H16A16,16,0,0,1,0,752V506.67a16,16,0,0,1,16-16Z"/></g></g></g></svg>