<svg xmlns="http://www.w3.org/2000/svg" viewBox="0 0 30 30"><defs><style>.cls-1{fill:#2e343c;}</style></defs><title>faq</title><g id="Vrstva_2" data-name="Vrstva 2"><g id="Layer_1" data-name="Layer 1"><path class="cls-1" d="M15.5,27H.5a.47.47,0,0,1-.5-.5V8.5c0-.1.1-.3.1-.4l8-8c.1,0,.3-.1.4-.1h13a.47.47,0,0,1,.5.5v15a.5.5,0,0,1-1,0V1H8.7L1,8.7V26H15.5a.5.5,0,0,1,0,1Z"/><path class="cls-1" d="M8.5,9H.5a.5.5,0,0,1,0-1H8V.5a.5.5,0,0,1,1,0v8A.47.47,0,0,1,8.5,9Z"/><path class="cls-1" d="M23.5,26a.47.47,0,0,1-.5-.5v-1a.66.66,0,0,1,.4-.5c.7-.2,1.6-.5,1.6-1.5A1.91,1.91,0,0,0,23,21a2,2,0,0,0-2,1.5.5.5,0,0,1-1,0A3,3,0,0,1,23,20a2.81,2.81,0,0,1,3,2.5,2.43,2.43,0,0,1-2,2.4v.6A.47.47,0,0,1,23.5,26Z"/><path class="cls-1" d="M23.5,30A6.5,6.5,0,1,1,30,23.5,6.49,6.49,0,0,1,23.5,30Zm0-12A5.5,5.5,0,1,0,29,23.5,5.55,5.55,0,0,0,23.5,18Z"/><path class="cls-1" d="M23.5,28a.5.5,0,0,1,0-1h0a.5.5,0,0,1,0,1Z"/></g></g></svg>