<svg xmlns="http://www.w3.org/2000/svg" viewBox="0 0 614.91 333.38"><defs><style>.cls-1{fill:#2e353c;}</style></defs><title>FIRST_PROJECT</title><g id="Vrstva_2" data-name="Vrstva 2"><g id="ARROWS"><path d="M323.65,101.52c-.24-.75-.45-1.46.28-2.14a3.2,3.2,0,0,0,.61-1.19c.61-1.52,1-3.13,2.68-4.06.2-.12.28-.43.41-.64.61-1,1.13-2,1.83-3C330.6,89,332,87.65,333,86.11a50.9,50.9,0,0,1,6.22-7c.05,0,.13-.08.14-.13.83-2.4,3.35-3.64,4.52-5.8a5.11,5.11,0,0,1,2.65-2.27,9.12,9.12,0,0,0,.95-.57c.14-.86.27-1.81,1.45-2.22a1.46,1.46,0,0,0,.82-1,2.62,2.62,0,0,1,1.43-1.75c.51-.33.94-.75,1.45-1.08s1.09-.62,1.77-1A2.1,2.1,0,0,1,355.86,61c.35-.15.82-.44.87-.72.28-1.48,1.65-1.75,2.76-2.3a7.24,7.24,0,0,1,1.19-.37A3.37,3.37,0,0,1,363,55.24a2.06,2.06,0,0,0,1.15-.76c1.2-2.18,3.44-3.32,5.41-4.7a43.65,43.65,0,0,0,5.3-4.25,6.34,6.34,0,0,1,1.31-.9,12,12,0,0,0,1.91-1A37.09,37.09,0,0,1,383,40.4c.51-.33.79-1,1.32-1.26a17.43,17.43,0,0,1,1.88-.35c.32-.11.52-.53.76-.82s.43-.78.72-.85c1.55-.35,2.5-1.46,3.66-2.3a16.74,16.74,0,0,1,5.41-2.21c1.08-.3,2-.44,2.31-1.71.13-.56.81-1,1.35-1.61l.56,1.06a5.45,5.45,0,0,0,1.29-.44,4.14,4.14,0,0,1,2.9-1.07c.42,0,1.05-.53,1.39-1a6.88,6.88,0,0,1,4.22-2.49,11.56,11.56,0,0,1,3.54-.47c1.62.16,2.89-1,4.33-1.51.32-.11.57-.42.88-.48,2.66-.54,5.07-1.85,7.81-2.14a7.29,7.29,0,0,0,2.11-.66c.49-.21.87-.59,1.5-.39a.87.87,0,0,0,.72-.19,4.86,4.86,0,0,1,4.2-.95,4,4,0,0,0,2.56-.44,6.26,6.26,0,0,1,1.3-.46c1.24-.35,2.47-.7,3.72-1a15.7,15.7,0,0,1,2.75-.59c.91-.07,1.75-.68,2.75-.24.28.13.86-.24,1.25-.45s.6-.63,1-.7a36.09,36.09,0,0,1,4.38-.63c.64-.05,1.23.3,1.95-.11.41-.24,1.14,0,1.72,0a11.17,11.17,0,0,0,3.9-.51,1.46,1.46,0,0,1,.8,0,13.07,13.07,0,0,0,6.63-.11,5.58,5.58,0,0,1,1.4.07c.39,0,.78,0,1.17-.06.06,0,.11-.06.18-.09s.48-.25.55-.19c1.35,1,2.78-.43,4.1.11a5.11,5.11,0,0,0,4.48-.25,4,4,0,0,1,2.92-.28,10,10,0,0,0,3.63-.22c.28,0,.46-.63.77-1.1.9,0,1.11,1,1.85,1.66l1.11-1.18a3.62,3.62,0,0,1-2.64-2.48l-3.29-.61A4.62,4.62,0,0,0,483.32,7a46.34,46.34,0,0,1-4.76-1,4.59,4.59,0,0,0-2.17-.3c-.45.1-1.06-.41-1.6-.65L475,3.84c-1-.67-1.67,0-2.34.46A5.23,5.23,0,0,1,469,.84a4.29,4.29,0,0,1,4.1-.56c1,.34,2,.68,3.08,1a1,1,0,0,0,.58,0c1.28-.47,2.35.24,3.45.6a2.23,2.23,0,0,0,1.72,0c1.24-.48,1.44-.28,1.75,1.07l2.88,1.52a3.59,3.59,0,0,0,.89.46c2.55.54,4.71,2,7.17,2.7a2.13,2.13,0,0,1,.56.23,36.42,36.42,0,0,0,6.07,2.73c1.05.44,2,1,3.09,1.46s1.88.73,2.81,1.1c.56.22,1.11.46,1.67.7a4.7,4.7,0,0,0,1.27.56,8.28,8.28,0,0,1,4,1.74,17,17,0,0,0,1.7.83l-.45.86L513.62,17c.06.65.11,1.1.15,1.55a2.21,2.21,0,0,1-2.41.17c-.73-.63-1.29-.39-2-.06s-1.65.74-2,1.73A2.34,2.34,0,0,1,505,21.75a7,7,0,0,0-3.75,1.31A20.78,20.78,0,0,1,493.55,26c-2.69.38-4.74,2.11-7.46,2.7l-1.4-1.05.08,1.61c-.07.05-.18.18-.28.18a4.33,4.33,0,0,0-3.93,1.62c-.08.11-.17.26-.28.28-2.13.41-3.58,2.34-5.85,2.36a22.27,22.27,0,0,1-3.43-.4c-.19,0-.51-.17-.52-.26-.07-1.35-1.53-1.48-2.38-2.32.28-.2.46-.41.68-.46a5.86,5.86,0,0,0,3.34-1.71,2,2,0,0,1,1.3-.49C474.86,28,476,27,477.5,27c.72,0,1.5-.83,2.07-1.43,1.36-1.41,2-1.67,4-1.26.3-.78,1.07-.88,1.86-1.15,2.35-.78,4.63-1.75,6.94-2.64.66-.25,1.22-.84,2.07-.52a.71.71,0,0,0,.53-.21c.54-.77,1.43-.66,2.2-.77a3.21,3.21,0,0,0,2.57-1.22c-.91-1.59-1.56-1.75-3.65-.88l-1.21-1.11-5.45,1.07a3.28,3.28,0,0,1-.81.14,9.38,9.38,0,0,0-2.77-.15,10,10,0,0,1-2.54.56,6.32,6.32,0,0,1-1.17-.26c-.52-.09-1.05-.14-1.65-.22l-.51,1.56a2.36,2.36,0,0,1-.59,0c-1.11-.24-2.22-.53-3.33-.76a1.64,1.64,0,0,0-1.68.49,2.72,2.72,0,0,1-1.72.89,2,2,0,0,0-1.11.42c-.66.74-1.29.73-2.3.6s-2.16.51-3.25.82c-.3.09-.58.2-1,.34-.12-1.45,1.72-1,1.92-2-1.92-.1-2.1,0-2.76,1.38a2.88,2.88,0,0,1-1,1,10.93,10.93,0,0,1-3.58,1.53,6.74,6.74,0,0,0-2.7.75c-1.12.73-2.18.12-3.22-.42a15.53,15.53,0,0,1-1.36.88c-.28.14-.83.29-.93.18-.62-.7-1.1,0-1.61.1a10.81,10.81,0,0,1-2,.54c-.8,0-1.21.52-1.81.78-1.59.7-3.2,1.36-4.81,2-1.92-.33-2.94,1.35-4.53,1.77a16,16,0,0,0-4.22,2.29c-1.41.88-2.84,2-4.77,1.89a2,2,0,0,0-1.79.75c-.21.26-.64.36-1,.53a6.28,6.28,0,0,0-1.18.62,3,3,0,0,1-2.36.91,10.41,10.41,0,0,0-2.29.37l-.24,1.25c-.31.12-.43.22-.56.21a4.19,4.19,0,0,0-2.77,1,3.42,3.42,0,0,1-3.3.73c-.53.63-.81,1.41-1.86,1.59a5,5,0,0,0-2,1.28,29.64,29.64,0,0,1-6.61,4.29c-1.15.54-2.4.86-3.57,1.36a3,3,0,0,0-1.39,1,3.69,3.69,0,0,1-3.12,1.86l-.31,1.34c-.87.29-1.76.56-2.64.87s-2.1.65-2.3,1.92c-.1.65-.73.86-1.29,1.13a8.83,8.83,0,0,0-2.65,2,35.27,35.27,0,0,0-3.12,3.23,1.56,1.56,0,0,1-1.1.38c-1.67,0-2.63,1.08-3.46,2.13-.56.71-.91,1.55-1.81,2-.14,1.15-1.71.88-2.14,1.95-.31.77-1.4,1.25-2.4,1.52-.26.07-.42.47-.61.72s-.23.54-.43.62c-2.15.9-3.25,3-5.28,4-.28.15-.63.45-.66.71-.22,1.79-2,2.06-3.17,2.95-.83.64-1.73,1.21-2.59,1.83a1.55,1.55,0,0,0-.47.55c-1,2-1.36,2.16-3.62,1.84l.29,1.34-2.3-.08,1.19.86c-1.44.55-1.72.83-2.87,3,.1.12.23.26.34.4s.44.47.39.54c-.16.24-.58.59-.68.54-.73-.4-.88.32-1.34.56l-.91-.76-1.77.69c.32,1,1.41.19,2,.89-2.36,1.13-3.24,3.38-4.66,5.3l-1.7.37c.08.26.26.51.19.67a2.33,2.33,0,0,1-1.76,1.42,16.08,16.08,0,0,0-2.52.81c-.2.08-.26.46-.49.92l1.66-.2c0,.19.07.42,0,.52A2.36,2.36,0,0,1,336,102c-.73-.18-.9.26-.53,1.23a10.69,10.69,0,0,0,2.25-.67,7.13,7.13,0,0,0,1.75-1.54c.38-.42.68-.61,1.17-.17a2.46,2.46,0,0,1-2.24,2.33,2,2,0,0,0-1,.51,11.36,11.36,0,0,1-3.65,2.64l2.39,0c-.05,1.58-1.47,1.72-2.43,2.29.07,1.22,1.29.46,2,1l-1.44.46c-1.41.47-2,1.76-1,2.82a1.16,1.16,0,0,1,.07,1.7,15.49,15.49,0,0,1-1.54,1.66,14.06,14.06,0,0,1-.48,2c-.07.19-.56.24-.94.39l-.64-1.43-.81,1.55a11.75,11.75,0,0,0-.73,1.52,9.36,9.36,0,0,1-1.79,3.51c-.1.12,0,.37,0,.55a5.66,5.66,0,0,0,.13.56c.13.55.09,1.13-.58,1.23-.3,0-.7-.39-1.08-.63-.12.1-.3.27-.5.43,0,0-.13,0-.28,0-.19-.61-.91-1-.84-1.78,0-.17-.56-.38-.94-.64-.86,1.89-1.28,3.55.59,4.91A4.2,4.2,0,0,1,320,133c-.4.16-.68.58-1.06.92l.8,1.56a8.36,8.36,0,0,1-1.25,2.2c-.76.68-.11,1.41-.39,2.11a7.37,7.37,0,0,0-.07,2.55l-1.48.83a2.36,2.36,0,0,1-1-2.07,30.8,30.8,0,0,1,1.13-6.39,4.63,4.63,0,0,0,0-.54c-1.68.3-3.16,1.72-3.14,3.17a1.2,1.2,0,0,1-.41,1.16.59.59,0,0,0-.09,1c-.56.41-.64,1.27-1.57,1.34-.67.06-1.32.25-2.12.4a1.8,1.8,0,0,1-.17-1.52c.32-1.76.56-3.53.94-5.28a19.42,19.42,0,0,1,.91-2.73c.13-.36.48-.69.49-1a12.09,12.09,0,0,1,1.3-5.16c.33-.69.7-1.36,1-2.06.67-1.65,1.3-3.32,1.92-5a1.77,1.77,0,0,0,.05-.94,3.54,3.54,0,0,1,.88-3,6.79,6.79,0,0,0,1.25-3.24,3.6,3.6,0,0,1,1.43-2.42l-.47-.83a3.55,3.55,0,0,0,1.69-2.79,4.37,4.37,0,0,1,2.37-3.14,5.15,5.15,0,0,0,.76-.64,2,2,0,0,0,.84,1.82l-1.72.07c.86.59,1.3.46,1.68-.09.11-.74,1-1.28.75-2.23ZM502.15,17.6c.84-.93.84-.93-.42-2l-1.5.9,2,1.1c-1.09.35-1.09.35-.76,1.45C501.72,18.47,501.94,18,502.15,17.6ZM378.85,49.4l-2.12.09c-.1.45-.16.75-.23,1l-.33,1.2a5,5,0,0,0,1.49-.15,6.17,6.17,0,0,0,1.57-1.1c.13-.13-.1-.57-.16-.86.84-.39.84-.39.47-1.45a1.08,1.08,0,0,1,1.19.83,3.33,3.33,0,0,0,.62.77,13.87,13.87,0,0,1,2.78-1.7,11.29,11.29,0,0,0,3.77-1.5,6.82,6.82,0,0,1,2.19-.64c-.16-1.48,0-1.93.78-1.88a3.44,3.44,0,0,0,2.95-1c.18-.2.63-.18,1-.25,1.46-.3,2.75.39,4.08.7,1.64.36,3.08.47,4.21-.93a2.1,2.1,0,0,1,1.51-.87c.25,0,.48-.29.83-.52a3,3,0,0,0-2.89,0,27.86,27.86,0,0,1-3.18,1.3,2.27,2.27,0,0,1-2.14-.16l.06-.94c.79-.25,1.42-.39,2-.63,1.15-.48,2.55-.52,3.31-1.68,0,0,.14,0,.2,0a9.19,9.19,0,0,0,4.42-2.46,2.26,2.26,0,0,1,1.4-.67c2.59-.11,4.63-1.68,7-2.22.09,0,.14-.21.28-.44l-.88-1.56L414.22,33a5.07,5.07,0,0,0-4.24.6,2.66,2.66,0,0,1-2.85.13c1.51-.78,3.63-.23,4-2.28l2-.2.26-1.3,1.46.75c.65-.63,1.2-1.42,2.4-.8.22.12.82-.27,1.17-.51.65-.44,1.2-1.25,1.89-1.37,1.29-.23,2.51-.91,3.86-.54.51-1.92.55-1.94,2.59-2.1a3.78,3.78,0,0,0,1-.12,2.67,2.67,0,0,0,2-2,7.07,7.07,0,0,0-2.53.41,9.06,9.06,0,0,1-3.83,1.07,4.63,4.63,0,0,0-1.7.6c-1.12.46-2.23.95-3.35,1.41s-2.12.87-3.19,1.27a3.58,3.58,0,0,1-1.53.37A5.1,5.1,0,0,0,410,29.58c-.69.47-1.24,1.17-2.27,1a1.26,1.26,0,0,0-.71.3,6.46,6.46,0,0,0-2.7,3l.74.68v0l-.65.89-3.95.35-.71,1.78a5.74,5.74,0,0,0-.63-.78c-.4-.31-.88-.87-1.25-.82a11.33,11.33,0,0,0-2.62.86c-.13,0-.17.45-.13.67a3.89,3.89,0,0,0,.33.78c-1.46.93-3.21,1.32-3.75,3.16l-2.23-1.1c-.06.79.61,1.65-.35,2a8.07,8.07,0,0,1-2.09.23c-.31.42.19.91-.49,1.33a15.46,15.46,0,0,0-2.41,2.33l-1-.93c-1.05.73-1.71,1.86-3.07,2.11-.22.05-.35.52-.53.79Zm-51.68,66.89c.4.88-.28,1.41-.76,2a7.79,7.79,0,0,0-1.37,0c-.14,0-.28.4-.29.63s.23.33.39.37a3.27,3.27,0,0,0,2.53-1,1.55,1.55,0,0,0-.52-2c.6-.88,2.25-.73,2.42-2.1l-.94-.29c-.07-1.49,2.46-.67,2.28-2.18-.82-.14-1.61-.23-2.38-.41s-1.28.1-1.45.83l1.07.88a6,6,0,0,0-1.71.71,7.13,7.13,0,0,0-1,1.64c.4.24.67.43,1,.59S326.92,116.19,327.17,116.29Zm61.76-65.07,1.08-.35.59,1c1-1.6,1.81-3,2.68-4.39l.74.85c1-.3,1.9-.66,2.2-1.64l2.19-1.82-1.59-.06-.56,1.89c-1.28-1.37-1.27-1.35-2.87-.3a2.36,2.36,0,0,1-1.29.37,2.16,2.16,0,0,0-1.94.74,4.88,4.88,0,0,1-2.37,1.39,14,14,0,0,0-5.05,2.83,5.72,5.72,0,0,1-1.16.71,4.54,4.54,0,0,1-3.51.16c.06,2-1.3,2.56-3,2.81l-.36-.62c-.8,1.08-.8,1.07-2.37,1.38a9.36,9.36,0,0,0-1.3.41L371,57.67c-.4.2-.83.39-1.22.63-1.22.73-2.82,1.06-3.16,2.71-.05.24-.5.41-.75.62a14.73,14.73,0,0,0-1.76,1.56,1.89,1.89,0,0,1-1.55.77l0,0-.75-.5c-.76,1.06-1.42,2-2.12,2.93s-2.35.82-2.76,2.12l.8.44-3.59,1.84c0,.18.1.63-.07.77-1,.81-1.42,2.21-2.87,2.67a1.5,1.5,0,0,0-.89.94,4.07,4.07,0,0,1-2.79,3,3.32,3.32,0,0,0-2.18,2.11,8.78,8.78,0,0,1-.66,1.82,5.15,5.15,0,0,1-1.91,1.94,2.94,2.94,0,0,0-1.55,2.48c0,.31,0,.74-.25.9-.82.61-.65,1.46-.82,2.31a3.86,3.86,0,0,1,.59,0c1,.16,1.65-.1,1.83-1.22a2.46,2.46,0,0,1,1.57-1.65,14.66,14.66,0,0,0,2-1.46l1.47,0,.08-1.88c-1.16.47-2.13.57-3-.24a1.92,1.92,0,0,1,2.41-.77,6.75,6.75,0,0,0,2.78-.1c.21,0,.37-.44.59-.71l-1.43-.4c.91-1.71,3.43-1.79,3.59-3.88l1.19.37c.56-1-.68-1.55-.37-2.53l1.55.54c.5-2,2.9-2.41,3.6-4.2,0-.09.21-.16.33-.2,1.07-.36,1.94-1.2,3.21-.92,0-.54-.08-.91-.06-1.27a7.69,7.69,0,0,1,.19-1.06l-1.89,0c1.81-1,3.39-1.62,4.17-3.16a3.91,3.91,0,0,0,3.53-1.12,4,4,0,0,1,4-1.1l.9-1.55c.82-.11,1.41.76,2.21.18,1.24-.89,2.53-1.69,3.79-2.55a.46.46,0,0,0,.18-.32c0-1.16,1.12-1.52,1.86-2.14a13,13,0,0,0,1.21-1,10.72,10.72,0,0,1,2.53-2.59,2,2,0,0,0,.62-.74c.79-1.35,2.13-1.53,3.67-1.7-.1.41-.15.65-.21.89L387.71,51l-1.22,1.74C388.53,52.6,388.53,52.6,388.93,51.22ZM339.12,95.44l.35,0,.18-2.57,1.78-.18c-.09-1,.92-1.29,1.49-2a13.7,13.7,0,0,0-6.17,1.59c-.68.29-1.28.74-1.17,1.42.21,1.31-.71,2-1.53,2.7-.18.16-.51.42-.47.51.43.87-.4,1.13-.86,1.51-1.34,1.1-1.32,2.47-1.18,4A3.65,3.65,0,0,0,334,101a10.46,10.46,0,0,1,1.89-1.73c.94-.78.95-.76.68-2.08l1.65-1.08a6.7,6.7,0,0,1-.19-1.5c0-.27.35-.51.66-.91ZM330.55,104c-1.27.59-1.78,1.4-1.54,2.23a1.42,1.42,0,0,0,1.75.87,1,1,0,0,0,.53-1.41C331.09,105.19,330.84,104.68,330.55,104ZM434.23,24.22l1.92-2.56a6.8,6.8,0,0,0-3.6,1.11ZM316.34,132.56c1.42-1.15,1.07-2.51,1.18-3.79-.57.73-1.14,1.46-1.69,2.18ZM412.39,37l-.28-.45a7.79,7.79,0,0,0-2.72,1.6c-.08.07,0,.39.06.5s.43.19.53.12C410.8,38.2,411.59,37.6,412.39,37Zm-83.48,72.48c2.12.1,2.34-.07,1.9-1.6C330.11,108.33,329.09,108.21,328.91,109.48ZM369.7,65.73h-1.6L368,68.11h.64C368.49,67.18,369.48,66.69,369.7,65.73ZM452,21.38c-.06,1.41,0,1.45,2,1.15C453.45,21.86,452.67,21.75,452,21.38Zm6.24-.27c-.79.29-1.83.07-2.43,1.13C456.7,21.88,457.81,22.4,458.2,21.11Zm-38.05,9.36c-.84.14-1.65-.11-2.06.9C419,31.71,419.61,31.36,420.15,30.47Zm10.42-6.2c1.07.31,1.2.32,1.43,0a.46.46,0,0,0-.05-.47c-.44-.34-.84-.11-1.21.18C430.7,24,430.68,24.07,430.57,24.27Zm-110.22,85.1c1.33-.47,1.33-.47,1-1.59Zm117.74-82.3c.65-.27,1-.57.59-1.09a.44.44,0,0,0-.38-.06C437.59,26.12,437.85,26.55,438.09,27.07ZM326.17,117.39c-.62-1-1.16-.87-1.69-.64-.07,0-.07.21-.13.44ZM435.38,27.83c.61.1,1.3.37,1.75-.68Zm17.12-10.2,0,.45c.42,0,.85,0,1.27,0,.09,0,.15-.23.32-.49Zm-13.69,3.52c-.12-.11-.22-.26-.28-.25a2.72,2.72,0,0,0-.5.19c.1.1.21.29.31.28S438.64,21.24,438.81,21.15Zm7.35,2.3c-.05.23-.16.44-.09.55s.31.13.48.19l.2-.61ZM345.66,88.12l.09-.48h-1c0,.12,0,.33,0,.34A8.7,8.7,0,0,0,345.66,88.12Zm39.6-34.83-.31.46c.11,0,.24.07.32,0a1.38,1.38,0,0,0,.27-.27Z"/><path d="M367.36,62.21c-.29,1.28-.65,2-1.74,2.38C365.73,63.52,365.73,63.52,367.36,62.21Z"/><path d="M362.57,64c0,.42.13.87-.63,1-.27-.65-.22-1,.67-1Z"/><path d="M405.08,34.58a1.23,1.23,0,0,1,1.65.11,1,1,0,0,1-1.64-.15Z"/><path d="M397.41,38.11a2.06,2.06,0,0,1-.44.23s-.14-.15-.22-.23a2.63,2.63,0,0,1,.4-.28S397.29,38,397.41,38.11Z"/><path class="cls-1" d="M47.34,186.22c2,.71,3,1.17,3.15,1.4a.86.86,0,0,1,.14.95l.46.47c.72.58.63,1.7-.28,3.34A.82.82,0,0,1,50,193a24,24,0,0,1-3.41-.56,50.18,50.18,0,0,0-12.87-1.87q-3.87-.37-4.77.39-1.55,1.27-5.15,7.09t-3.79,6q2.28,1.09,13.3,2a14.73,14.73,0,0,1,4,.25c.88.26,1.28,1.1,1.21,2.53a2.74,2.74,0,0,1-1.71,2.74,13.74,13.74,0,0,1-5.35.34q-3.73-.27-8-.95a49.79,49.79,0,0,1-6-1.21,1.67,1.67,0,0,0-.91,1.23,85,85,0,0,0-5.32,8.09Q7.65,225,7.42,226.35A14.82,14.82,0,0,0,6,229.15a3.84,3.84,0,0,1-.77,1.53,1.4,1.4,0,0,1-1.62.87,1.84,1.84,0,0,1-1.61-1q-3.16-2.17-1.42-5.49,1.07-2.6,3.56-7.33a54.84,54.84,0,0,1,3.75-6.4,19.08,19.08,0,0,0,2-3.23,16.46,16.46,0,0,1,.94-1.85,2.23,2.23,0,0,1,.15-1.09,6,6,0,0,1,.8-.82,10.82,10.82,0,0,0,2.86-3.13l5.63-10c.73-1.52,1-2.3.79-2.33l-2.25-.13-2.26-.12c-1.33,0-1.92-.49-1.76-1.39a7.33,7.33,0,0,1,1.39-2.38,2.28,2.28,0,0,1,2-1l3-.16a8.62,8.62,0,0,1,4,.79c.67-.3,1.06-.59,1.16-.88a3.46,3.46,0,0,1,3.21-2.21c1.47,0,2.32.48,2.53,1.6a2.68,2.68,0,0,1-.06,1.26q-.2.63.18.69a32.68,32.68,0,0,0,4.64,0c3.64.33,5.87.69,6.67,1.09a13.08,13.08,0,0,1,1.61,0A9,9,0,0,0,47.34,186.22Z"/><path class="cls-1" d="M38,227.55l.58-1.52a8.06,8.06,0,0,1,1-2.36,118.79,118.79,0,0,0,6.34-11.46c.1-.6.56-.86,1.36-.77.59-.1,1.24.26,2,1.08A9.67,9.67,0,0,1,51,215.17c.53.77.26,1.94-.81,3.53a21.87,21.87,0,0,0-2.5,4.77c-.83,1.24-1.41,2.15-1.72,2.74a26.38,26.38,0,0,0-1.21,2.95,8.62,8.62,0,0,1-1.32,2.67q-1.19,2.79-3,3.17a2.41,2.41,0,0,1-2.8-1.41,4.78,4.78,0,0,1-.49-3.14A5.2,5.2,0,0,1,38,227.55Zm12-24.24a3.54,3.54,0,0,1-.22-1.62,1.74,1.74,0,0,1,.52-1,15.09,15.09,0,0,0,1.55-2c1.48-1.95,2.4-2.92,2.75-2.91a2.68,2.68,0,0,1,2.5.52,5,5,0,0,1,2,2.28q.82,3.24-2.27,5.85a4.93,4.93,0,0,1-3.18,1.41,3.22,3.22,0,0,1-2.58-.68A4.4,4.4,0,0,1,50,203.31Z"/><path class="cls-1" d="M66.3,209.15a3.22,3.22,0,0,1,2.14,1q1.4,1.71-3.92,8.73c-1.15,1.54-1.57,2.34-1.27,2.4a16.91,16.91,0,0,1,4.69-3.19,37.2,37.2,0,0,1,4.51-2.18c.6-.18,1.23-.34,1.9-.48s1.05-.22,1.16-.26a7,7,0,0,1,3.85,0c1.38.37,2.15.95,2.32,1.75a1.37,1.37,0,0,0,.69,1.36l.29.51c-.07.4-.51.85-1.31,1.35a3.65,3.65,0,0,1-2.35.63,8.05,8.05,0,0,0-2.8.32c-1.11.3-2.18.62-3.22,1l-2.34.82c-.53.19-1.2.45-2,.77a18.4,18.4,0,0,0-4.33,2.71,15.69,15.69,0,0,0-2.78,2.21,7.09,7.09,0,0,0-1.57,2.54,17.13,17.13,0,0,0-1,2.63,6.44,6.44,0,0,1-1.52,2.09,3.43,3.43,0,0,1-1.84,1c-.55.05-1.19-.37-1.9-1.26q-2-2.13-1.41-4.07t2.83-7.1a45.86,45.86,0,0,1,3.76-7.56,40.91,40.91,0,0,1,5-7.42A3.33,3.33,0,0,1,66.3,209.15Z"/><path class="cls-1" d="M106.69,215.78a7.6,7.6,0,0,1,1.37,2.94,7.68,7.68,0,0,1,.42,2.93c-.12.65-.94,1.79-2.46,3.43-.87,1.18-1.34,1.83-1.38,1.95a1.64,1.64,0,0,1-.23.39.9.9,0,0,1-.19.23l-.18.17c-.1.08-.17.12-.22.11a.36.36,0,0,0-.2,0,.2.2,0,0,1-.22,0,2.17,2.17,0,0,0-.86-.19c-.5-.06-1-.53-1.6-1.4a3.4,3.4,0,0,1-.66-2.43,4.13,4.13,0,0,1,1.06-2.06,5,5,0,0,0,.89-1.11c0-.13-.19-.23-.64-.31-1.2-.21-3,.22-5.36,1.3s-3.72,2.5-4,4.27a9.14,9.14,0,0,0,.5,5.06,13.31,13.31,0,0,1,1.13,3.87,14.43,14.43,0,0,1,.26,5.33,4.14,4.14,0,0,1-2.6,3.17,9.8,9.8,0,0,1-5.7.38,9.29,9.29,0,0,1-5.74-3.32q-2.26-2.72-1.85-5.11c.15-.85.58-1.21,1.28-1.09a17.12,17.12,0,0,1,1.89,1.53,6.2,6.2,0,0,0,2.8,1.61c2,.35,3.19,0,3.59-1.06a8.3,8.3,0,0,0-.5-3.33q-1.94-4.35-1.11-10.84.46-2.62,6.29-5.46t9.33-2.6Q105.88,214.87,106.69,215.78Z"/><path class="cls-1" d="M131.35,216.64c-.09.5.24.82,1,1a28.08,28.08,0,0,0,3.27.26,6,6,0,0,1,1,0,2.12,2.12,0,0,1,1.32.38,3.45,3.45,0,0,1-.11,2.61c-.39,1.16-.85,1.8-1.38,1.91-.05,0-.6.05-1.65.18q-1.24.09-7-.38-2.6,3.4-3.06,4.06a3.46,3.46,0,0,0-.49.8l-4.3,6c-.2,0-.33.1-.38.4.09.63,0,1-.28,1.18a5.87,5.87,0,0,0-1.26,1c.2.29,0,.84-.68,1.65a11.49,11.49,0,0,1-1.72,3.64,14.69,14.69,0,0,0-.15,1.74c0,.26.11.38.32.37a10,10,0,0,0,2,.28q1.22-.33-2,5.06a22.92,22.92,0,0,1-2.9,2.61c-1,.73-1.59,1.07-1.84,1q-6.27-1.19-4-8a10.71,10.71,0,0,0,.67-1.58,5.65,5.65,0,0,1,1.24-2.25.46.46,0,0,0,.12-.67,17.3,17.3,0,0,1,2.12-4.18c-.23-.45,0-.87.61-1.25s.88-.7.75-1,0-.74.51-1.38,1-1.36,1.66-2.18a15.19,15.19,0,0,0,1.17-1.64,14.7,14.7,0,0,1,1.78-2.85c1.2-1.75,2-2.82,2.3-3.23.43-.13.3-.32-.4-.57a31.16,31.16,0,0,0-4.27-.94,9.85,9.85,0,0,1-4.5-1.64,2.15,2.15,0,0,1,.21-2.51,2.59,2.59,0,0,1,2.67-1.15l9.73.86.45-1.23.71-.77c.22-.24.36-.4.43-.46a2,2,0,0,0,.21-.31,6.53,6.53,0,0,0,.55-1.37,9.62,9.62,0,0,0,2.16-3.56,24.54,24.54,0,0,0,2.35-2.82c2-2.84,4-3.36,5.91-1.59,1.33,1.26,1.83,2.33,1.52,3.2a3.82,3.82,0,0,1-.79,1.44,15.86,15.86,0,0,0-1.5,2.4,9.14,9.14,0,0,0-2.66,3.7C132,216.07,131.51,216.62,131.35,216.64Z"/><path class="cls-1" d="M144.88,254.21l1-2.6a99.12,99.12,0,0,1,4.61-9.07q3.87-7.11,6.48-11.44c2-3,3-5,3.23-6.07,0-.25.39-.63,1-1.13a2.68,2.68,0,0,1,2.09-.21,4,4,0,0,1,1.92,1.15,5.94,5.94,0,0,1,.08,4.33,7.67,7.67,0,0,1-2.33,3.61c-.12.13-.16.17-.1.13q4.88-1.84,8-.83a7.3,7.3,0,0,1,4.44,3.52,8.26,8.26,0,0,1,.8,5.5,10,10,0,0,1-1.86,3.57,11.82,11.82,0,0,1-2.5,2.84c-.3,0-.79.4-1.48,1.36a10.27,10.27,0,0,1-3.84,1.91c-1.83.58-3,.72-3.59.41a.76.76,0,0,0-.49.61c-.06.35-1,.59-2.71.72a17.21,17.21,0,0,1-4,0,3,3,0,0,1-1.91-1,1.62,1.62,0,0,0-.72,1,6.66,6.66,0,0,1-1.14,2.07c-.69,1-1.18,1.45-1.48,1.4-.34.2-.39.47-.15.82a4.8,4.8,0,0,1-.85,2.25,8.81,8.81,0,0,1-1.38,3.46,6.37,6.37,0,0,1-.57,1.71c-.28.54-.52.8-.72.76s-.6.71-.84,2a5.63,5.63,0,0,1-1.71,3.13,3,3,0,0,1-2.31,1.06c-1-.07-1.53-.37-1.69-.91a5.78,5.78,0,0,1-.34-4.69,20.93,20.93,0,0,0,1.59-4.2l.8-2.33a6.9,6.9,0,0,0,1.44-3.37A2.16,2.16,0,0,1,144.88,254.21Zm11.2-7.52a13.85,13.85,0,0,0,4.14-.47,15.86,15.86,0,0,0,4.5-1.49,24.91,24.91,0,0,0,2.22-1.42,8.86,8.86,0,0,0,1.48-1.4,3.29,3.29,0,0,0,.51-3.77q-1.71-3-8.54,1.59a12.36,12.36,0,0,0-3.95,4.47Q155.33,246.56,156.08,246.69Z"/><path class="cls-1" d="M202.61,234.41a4.06,4.06,0,0,1,1.81,1.09,4.73,4.73,0,0,1,1.33,1.7c.9,2.47.8,4.21-.3,5.2-2.06,1.74-4,2.25-5.9,1.51-.24-.1-.48-.5-.71-1.21a5.06,5.06,0,0,1-.34-1.6c.05-.25-.61.13-2,1.16l-2.4,1.77a37.94,37.94,0,0,0-5.28,6.14c-2.13,2.89-3.49,4.8-4.06,5.73a22,22,0,0,1-1.41,2.06,1.83,1.83,0,0,1-.94.76,3.45,3.45,0,0,1-1.65-.48c-.83-.38-1.31-.68-1.42-.91q-2.42-3,1-6.46.71-1,3-5.07c1.51-2.74,2.38-4.28,2.59-4.6a3.47,3.47,0,0,0,.17-1.86,1.47,1.47,0,0,0-1.16-.86c-1-.18-1.43-1.07-1.15-2.67A4,4,0,0,1,186,233a7,7,0,0,1,3.18-.1A4.67,4.67,0,0,1,192,234c.51.55.75,2.26.71,5.14.4-.24,1.11-.75,2.12-1.52s1.72-1.31,2.13-1.59C199.62,234.76,201.51,234.22,202.61,234.41Z"/><path class="cls-1" d="M214.75,240.87a16.74,16.74,0,0,1,7.42-2.71c3.11-.18,5.16.47,6.14,1.93,1.8,1.19,2.61,3.15,2.43,5.9q-.5,6.31-6.4,12.3a24.32,24.32,0,0,1-8.86,5.62q-2.19,1-7.18.44a4.88,4.88,0,0,1-2.67-1.94q-2.74-4.11-1.82-6.72l.45-1.7c-.21-.29-.23-.5-.08-.63l.31-.25c.3,0,.44-.17.43-.66a6.63,6.63,0,0,1,1-2.64,18.92,18.92,0,0,1,2.38-3.44A25,25,0,0,1,214.75,240.87Zm6.78,11.26q.15-.24.6-1a7.8,7.8,0,0,1,.8-1.22,6.25,6.25,0,0,0,.7-2.23c.24-1.21.18-2-.18-2.3a2,2,0,0,0-1.3-.46,7.45,7.45,0,0,0-1.9.67c-4.35,2.53-7.22,5.54-8.61,9.06a4.12,4.12,0,0,0-.08,2.87c.31.7,1,1,2.05.87a6.76,6.76,0,0,0,3-1.14c.94-.63,1.55-1.05,1.84-1.26s.55-.39.76-.56a3.87,3.87,0,0,0,.67-.77c.24-.34.43-.59.56-.75s.32-.45.58-.86S221.42,252.29,221.53,252.13Z"/><path class="cls-1" d="M237.39,265.68c-.27.36-1.61,2.42-4,6.16a24.73,24.73,0,0,1-3.55,5.24,17.42,17.42,0,0,1-2.94,3.11,19,19,0,0,1-3.2,2.45,6.7,6.7,0,0,1-5.22.51,6.46,6.46,0,0,1-4.46-3,2.6,2.6,0,0,1,1.31-2.86c1.14-.78,2.13-.89,3-.33,1.24.84,2.54.6,3.9-.7a33.92,33.92,0,0,0,4.46-5.85c2-3.05,3.11-4.71,3.31-5a23.33,23.33,0,0,0,1.51-2.9,13.11,13.11,0,0,0,1.79-3.15c.45-.23.57-.49.37-.79q3.42-7.19,4.19-8.68a25,25,0,0,0,1.21-2.72,5.28,5.28,0,0,1,.82-1.63,21.73,21.73,0,0,1,.74-2.18q.49-1.31.51-1.38,1.59-.72,3.69,1a6.79,6.79,0,0,1,.93,1.48,5.29,5.29,0,0,1-.09,2.49,23.63,23.63,0,0,1-1.75,5.13A64.37,64.37,0,0,1,239,262.26C238,264.2,237.5,265.34,237.39,265.68Zm12-37.78a4.43,4.43,0,0,1,2.38,1.38,3.28,3.28,0,0,1,1.21,2.61,4.73,4.73,0,0,1-1.37,2.69,6.63,6.63,0,0,1-3,1.91,9.26,9.26,0,0,1-3.93-1.77c-1-1.26-.89-2.7.38-4.33A5.54,5.54,0,0,1,249.43,227.9Z"/><path class="cls-1" d="M265.18,244.1q8.38,1.47,7.16,8.43c-.42,2.4-2,4.74-4.67,7s-5.18,3.26-7.44,2.86a8.17,8.17,0,0,1-5.35-3.18,10.16,10.16,0,0,0-2,3.89c-.18,1.05-.29,1.73-.31,2a6.94,6.94,0,0,0,0,1.32,1.74,1.74,0,0,0,1.59,1.67,8.85,8.85,0,0,0,2.41.15,7.36,7.36,0,0,0,1.39-.25c.3-.11.78-.32,1.43-.64s1.2-.57,1.67-.75.92-.35,1.37-.53l.91-.38a3.86,3.86,0,0,1,.89-.23,3.68,3.68,0,0,1,2,1,1.93,1.93,0,0,1,.7,1.71,5.11,5.11,0,0,1-1.79,2.31,8.32,8.32,0,0,1-3.19,1.87l-.9.3a1.82,1.82,0,0,1-1.5.66l-.6-.1a3.68,3.68,0,0,1-2.2.85,9.81,9.81,0,0,1-3.28,0q-8.53-1.5-6.83-11.23,1-5.46,5.89-11.55Q259.34,243.07,265.18,244.1Zm-7.56,10.55a1.48,1.48,0,0,1,.66,0c.23,0,.48.4.78,1.06a1.9,1.9,0,0,0,1.49,1.19,4.28,4.28,0,0,0,3.79-1.18,5.51,5.51,0,0,0,1.93-2.83c.31-1.79,0-2.78-1-3a5,5,0,0,0-3.06.7,11.52,11.52,0,0,0-3.32,2.66Z"/><path class="cls-1" d="M295.08,261.23c-.73.8-1.33,1.16-1.8,1.07s-.74,0-.79.29-.34.38-.86.31a3.64,3.64,0,0,1-1.59-.62,1.59,1.59,0,0,1-.85-1.08,21.8,21.8,0,0,1,1-2.64c.62-1.51.84-2.53.65-3.05s-.79-.67-1.81-.43a10.64,10.64,0,0,0-4.87,3.35,28.46,28.46,0,0,0-3.52,5.94,22.22,22.22,0,0,0-1.77,4.59c-.06,1,.06,1.58.37,1.84a5.42,5.42,0,0,0,4,.39,34.16,34.16,0,0,0,5.11-2.26,3.23,3.23,0,0,0,.78-.71,2.57,2.57,0,0,1,1.11-.81,2,2,0,0,1,2-.66l1.57.27a4.07,4.07,0,0,1,1.86,2.18c.12.49.07.79-.16.9l-.44.31q.19.66-3.24,3.1c-2.29,1.63-3.72,2.39-4.26,2.29s-.85,0-.91.31-.87.53-2.52,1a18.3,18.3,0,0,1-3.95.74,8.33,8.33,0,0,1-6.08-2.54,6.45,6.45,0,0,1-1.92-6,22.19,22.19,0,0,1,2.75-8.39,25.46,25.46,0,0,1,5.61-7.58c3.08-2.59,5.37-4.06,6.87-4.39a12,12,0,0,1,4.64-.07c2.63,1.13,3.86,2.22,3.67,3.27l.31.44c.45.08.81.94,1.09,2.58s.15,2.81-.38,3.49A8.29,8.29,0,0,1,295.08,261.23Z"/><path class="cls-1" d="M304.08,258.11c-.2,0-.23-.43-.1-1.18l.07-.37a.63.63,0,0,0-.26-.51,1.9,1.9,0,0,1-.44-.58c-.09-.2.1-.53.6-1a2,2,0,0,1,1.24-.71l1.69.07,2.11.06a5.72,5.72,0,0,0,3.74-1q4.13-6.84,5.65-8,3.51-1.08,4.58,1.58a4.78,4.78,0,0,0,.39.64c.19.27.27.45.25.55a4.57,4.57,0,0,1-.29.8,71.06,71.06,0,0,1-4.38,6,9.68,9.68,0,0,0,2.4.42,10.29,10.29,0,0,1,3.56.39q3.14.56,2.84,4.05,0,2.08-3.73,1.43c-5.17-.7-7.81-.93-7.9-.69-.28.1-.81.81-1.61,2.11s-1.47,2.54-2,3.73q-3.66,9-2,11.61.93,1.32,4.95-.9a2.44,2.44,0,0,1,2.47-.26,1.74,1.74,0,0,1,.92,1.82,4.56,4.56,0,0,1-1.18,2.53,9.16,9.16,0,0,1-4.76,2.48,7.17,7.17,0,0,1-4.72-.13,13.22,13.22,0,0,1-3.88-3.62,7.59,7.59,0,0,1-1-3.1,17.38,17.38,0,0,1,.29-3.19l.39-2.17q.3-1.72,4.25-10.59c.24-.53.07-.93-.52-1.21a7.64,7.64,0,0,0-2.17-.62A4,4,0,0,1,304.08,258.11Z"/><path class="cls-1" d="M342,284.9l-.11-1.56c-1.1-.81-1.38-1.71-.84-2.69q1.37-1.62,5.23-7.61t4.34-6.91a2.58,2.58,0,0,1,1.46-2.14c1.07-.53,2-.11,2.86,1.27a6.92,6.92,0,0,1,.76,4.92,23.61,23.61,0,0,1-2.59,4.83q-2.43,3.93-4.66,7a36.27,36.27,0,0,1-2.92,3.69,1.69,1.69,0,0,1-1.44.52Zm16.38-36.16A6.39,6.39,0,0,1,361,250a16,16,0,0,0,1.43,3.26,6.06,6.06,0,0,1,1,3.5c-.38,2.15-1.76,3-4.16,2.59a5.47,5.47,0,0,1-3.09-2.4,5.34,5.34,0,0,1-1.24-4.15,8.92,8.92,0,0,1,1.73-2.13A15.88,15.88,0,0,0,358.35,248.74Z"/><path class="cls-1" d="M365.9,279.54q.08,0,3.78-2.58,6.94-4.86,10.19-4.45a3.66,3.66,0,0,1,2.62,2.23,6.82,6.82,0,0,1,.55,4.34q-.07.45-.6,2.52l-.75,4.27c.79-.07,1.57-.16,2.37-.28a19.7,19.7,0,0,1,4.43-.23c-.39,1.37-1.62,3-3.67,4.87s-3.85,2.68-5.4,2.41-2.88-1.58-3.56-3.86a14.58,14.58,0,0,1,0-5.1l.57-3.3c.1-.54.1-.83,0-.85q-.6-.11-7.3,4.86T360.31,289a5.14,5.14,0,0,1-1.32-.81,6.07,6.07,0,0,1-1.27-1.12c-.46-.64-.46-2.24,0-4.78s2.63-6.64,6.55-12.28A25.27,25.27,0,0,0,366,267.6a18.88,18.88,0,0,1,4.07-4.76,9.78,9.78,0,0,1,1.19.28,5.83,5.83,0,0,1,1.75,1.23,3.51,3.51,0,0,1,1.23,2.46,9.74,9.74,0,0,1-3.1,5.32,23.33,23.33,0,0,0-3,4.48,21.92,21.92,0,0,0-2.21,2.93Z"/><path class="cls-1" d="M434.35,268.11l-.3-.05a7,7,0,0,0-2.93-.21c-1.64.08-2.5.19-2.57.36s-.75.32-2,.46a13,13,0,0,1-2.27.14c-.33-.16-.64-.88-.93-2.17a4.33,4.33,0,0,1-.15-2.42,5.48,5.48,0,0,1,2.27-1.3,30.78,30.78,0,0,1,3.61-1.22,51.93,51.93,0,0,1,5.34.13,35.6,35.6,0,0,1,5,.54q7,2.07,7.15,7.59c.06,2.32-1.42,4.43-4.42,6.32l-2.17.93a34.77,34.77,0,0,1-5.6,2.18c-1,.23-1.89.4-2.56.51s-1,.23-1,.33q5.73,1.69,9,8.21.9,3.63-2.12,7.46a17.13,17.13,0,0,1-7.49,5.51q-3.54,1.23-11,.47a10.13,10.13,0,0,1-4.92-2.33c-1.43-1.23-2-2.31-1.75-3.24q.65-2.74,3.63-1.76a18.63,18.63,0,0,0,7.75,1.36,11.74,11.74,0,0,0,6.49-1.82c1.62-1.14,2.51-2.15,2.7-3s-.26-1.86-1.31-2.89a15.74,15.74,0,0,0-3.77-2.71,10.15,10.15,0,0,0-3.52-1.28,7.8,7.8,0,0,1-3.57-1.82,4.54,4.54,0,0,1-.55-1.91c-.13-.92-.2-1.44-.23-1.54,0-.37.55-.83,1.78-1.39s4.23-1.64,9-3.24a71.23,71.23,0,0,0,8.35-3.13c.76-.53,1.11-1,1.05-1.4s-.66-.82-1.82-1.28Q434.48,267.37,434.35,268.11Z"/><path class="cls-1" d="M469.65,269.22a17,17,0,0,1,3.91.38,13.3,13.3,0,0,1,5.38,2.3c1.72,1.2,2.51,2.17,2.38,2.92l-.09.53c-.11.59-.25.83-.43.69l-.45-.08-.75-.13.35,2.38a7.83,7.83,0,0,1,.17,3.42,52.1,52.1,0,0,1-3.71,9.92,5.12,5.12,0,0,0-.75,1.88c-.2.27-.67.93-1.39,2L473,297.28c-.58.36-.77.69-.56,1a6,6,0,0,1-1.06,1.63c-.66.83-1.1,1.23-1.33,1.19s-.35,0-.39.24q-.13.82-4.1,3.6a20.8,20.8,0,0,1-4.61,2.31c-2.13.84-3.55,1.2-4.24,1.07a13.45,13.45,0,0,1-3.41-1.44,11.3,11.3,0,0,1-3.26-2.35q-5.34-6.5-2.07-16.34a30.69,30.69,0,0,1,5.16-8.93,31.34,31.34,0,0,1,7.95-7A19,19,0,0,1,469.65,269.22Zm3.74,8.61a2.44,2.44,0,0,0-1.92-1.19,4.73,4.73,0,0,0-2.89.42,1.36,1.36,0,0,1-1.17-.13c-.4-.22-.58-.46-.53-.71.1-.6-.15-.68-.77-.25s-1.78,1.4-3.48,2.9a18.89,18.89,0,0,0-2.67,2.27,8.09,8.09,0,0,0-1.31,1.47,13.4,13.4,0,0,1-1,1.79,23.21,23.21,0,0,0-1.93,2.63,22,22,0,0,0-1.64,2.76l-.87,4.94a4.21,4.21,0,0,0,.05,2.32,30.65,30.65,0,0,0,1.71,3.47c.43.48.73.73.91.74a4.28,4.28,0,0,0,.79-.1,5.25,5.25,0,0,1,1.05-.08,3.89,3.89,0,0,0,3-.55,13.28,13.28,0,0,0,5.67-5,33.71,33.71,0,0,0,4-6.09,8.1,8.1,0,0,0,1.83-4.27,17.4,17.4,0,0,1,1.12-4.16,18.71,18.71,0,0,0,.31-2.22A2,2,0,0,0,473.39,277.83Z"/><path class="cls-1" d="M502.3,290.7l.14-1.67a2.33,2.33,0,0,1,1.42-1.72,4.6,4.6,0,0,1,2.87-.31,3.08,3.08,0,0,1,2.37,1.85,4.87,4.87,0,0,1,.49,2.94,5.78,5.78,0,0,1-1,2.48l-3.85,6.11c0,.15,0,.23.1.25.13.18.86-.18,2.2-1.08a48.14,48.14,0,0,1,5.85-3.18,21.26,21.26,0,0,1,5.4-2,4.26,4.26,0,0,1,2.31,1.8,4.1,4.1,0,0,1,1,3.33,30.53,30.53,0,0,1-2.58,5.49,24.09,24.09,0,0,1,5.66-3.25c2.63-1.19,4.49-1.71,5.6-1.57a3.26,3.26,0,0,1,2.86,2.82,20.56,20.56,0,0,1,.07,6,17.78,17.78,0,0,0-.1,5c0,.31.24.59.74.83a5.11,5.11,0,0,1,1.37,1,1.92,1.92,0,0,1,.42,1.81q-.54,3-5.47,2.13a4.69,4.69,0,0,1-3.38-3,9.27,9.27,0,0,1-.65-5.71,15.9,15.9,0,0,1,.63-2.51q.41-1.25.45-1.47c0-.15,0-.23-.19-.26q-1.94-.35-9.7,5.62a1.4,1.4,0,0,0-.44.31,16.22,16.22,0,0,0-1.82,1.15c-1.75,1.13-2.92,1.65-3.52,1.54a2.12,2.12,0,0,1-1.34-.7l-.71-.81a2.26,2.26,0,0,1-.63-2.12l.07-.38,2.6-4.71a30.87,30.87,0,0,0,2.68-4.24c0-.3,0-.45,0-.46q-1.12-.19-4.78,2.63-3.93,3-5.26,4c-.88.64-1.82,1.37-2.81,2.17l-2.52,2.06a6.46,6.46,0,0,1-1.11.85,4.22,4.22,0,0,1-2.74-1.79,3.79,3.79,0,0,1-.85-2.85,13.27,13.27,0,0,1,.67-2.47c.28-.75.73-1.81,1.33-3.2s1-2.33,1.23-2.83.42-1,.62-1.51.31-.82.35-.94.22-.44.52-1,.63-1.05,1-1.63,1-1.51,1.84-2.8A7.26,7.26,0,0,0,502.3,290.7Z"/><path class="cls-1" d="M537.33,315.3l.57-1.52a8.11,8.11,0,0,1,1-2.37A121.53,121.53,0,0,0,545.27,300c.11-.6.56-.85,1.37-.76.58-.11,1.24.25,2,1.08a9.79,9.79,0,0,1,1.7,2.65c.53.76.26,1.93-.82,3.52a22.5,22.5,0,0,0-2.49,4.77,32.29,32.29,0,0,0-1.72,2.75,25.57,25.57,0,0,0-1.21,3,8.66,8.66,0,0,1-1.32,2.66q-1.18,2.81-3,3.18a2.42,2.42,0,0,1-2.8-1.42,4.84,4.84,0,0,1-.49-3.14A5.15,5.15,0,0,1,537.33,315.3Zm12-24.24a3.68,3.68,0,0,1-.22-1.62,1.72,1.72,0,0,1,.53-1,17.08,17.08,0,0,0,1.55-2c1.47-2,2.39-2.93,2.75-2.92a2.66,2.66,0,0,1,2.49.52,5,5,0,0,1,2,2.29q.82,3.22-2.26,5.85a5,5,0,0,1-3.18,1.41,3.24,3.24,0,0,1-2.58-.69A4.56,4.56,0,0,1,549.34,291.06Z"/><path class="cls-1" d="M576.1,305l2-.27a4.45,4.45,0,0,1,2.22,1.2c.73.67,1.05,1.28,1,1.83,0,.15.09.37.34.68a4.67,4.67,0,0,1,.77,3.53,35.59,35.59,0,0,1-2.33,6.49,46.63,46.63,0,0,0-2.25,5.74,5.39,5.39,0,0,0,0,2.07,4.25,4.25,0,0,1,.1,1.37c-.05.28-.34.61-.87,1a2.85,2.85,0,0,1-2.26.33,3.8,3.8,0,0,1-2.52-2.1,6.2,6.2,0,0,1-.64-4.28,40.42,40.42,0,0,1,3.16-8.28c.1-.29.19-.54.28-.76l.21-.5c0-.12.09-.23.13-.33a1.83,1.83,0,0,0,.11-.4c0-.17,0-.28-.25-.32a2.36,2.36,0,0,0-1,.21,10.34,10.34,0,0,0-1.35.62c-.42.23-1,.58-1.8,1a22.42,22.42,0,0,1-2,1.08c-.56.26-1.76.92-3.59,2q-7.08,4.23-7.63,4.14a6.08,6.08,0,0,1-2.07-1.45,2.91,2.91,0,0,1-1.28-2.58,22.9,22.9,0,0,1,2.28-5,69,69,0,0,1,4.61-7.36,13.53,13.53,0,0,0,1-2.68q1.23-3.49,2.8-3.21a3.85,3.85,0,0,1,2.62,2,4.67,4.67,0,0,1,.78,3.26,11.6,11.6,0,0,1-1.34,3.47,12.62,12.62,0,0,1-1.44,2.26,2.18,2.18,0,0,0,.51-.3,15.36,15.36,0,0,1,2.71-1.38q2.63-1.31,4.37-2Z"/><path class="cls-1" d="M609.68,304A9.24,9.24,0,0,0,612,305.2c.73.23,1.45,1,2.16,2.42a5,5,0,0,1,.58,3.73,7.62,7.62,0,0,1-1.86,3.11,3.88,3.88,0,0,1-2.53,1.48c.2,0,.16-.05-.11-.25a8,8,0,0,1-.88-.7l-.33.1a2.49,2.49,0,0,0-.19-1.11,2.83,2.83,0,0,1,0-1.66q.24-.93.27-1.11a1.87,1.87,0,0,1,.1-.33.19.19,0,0,0-.07-.25,6.21,6.21,0,0,0-.81-.22q-2.39-1-5.52.65a25.42,25.42,0,0,0-3.18,1.64,7.49,7.49,0,0,0-1.7,2,3.64,3.64,0,0,0-1,1.59q-.23,1.28,4.5,4.26a4.67,4.67,0,0,1,1.93,2c.27.67.44,1.11.5,1.33a8.77,8.77,0,0,1,.52,2.33c.19,1.26.19,2,0,2.08a.41.41,0,0,0,.11.25c.35,1.2-.25,2.31-1.82,3.35a9,9,0,0,1-5,1.55,28.44,28.44,0,0,1-4.87-.39q-4-.69-5.39-3.57a4.22,4.22,0,0,1,.53-3.92c.47-.64,1-.57,1.51.19a4.29,4.29,0,0,0,2.14,1c.85.15,1.89.3,3.13.44a4.91,4.91,0,0,0,2.57-.17,1.38,1.38,0,0,0,.82-.9,1.41,1.41,0,0,0-.28-1.05,18,18,0,0,1-5.31-3.59c-1.58-1.54-2.41-3-2.47-4.41a9,9,0,0,1,1.23-4.57,13.13,13.13,0,0,1,3.47-4.17,38.72,38.72,0,0,1,4-1.62l0,.08q2.6-2,8.15-2.89Q609.31,304,609.68,304Z"/></g></g></svg>