<svg xmlns="http://www.w3.org/2000/svg" viewBox="0 0 30 20"><defs><style>.cls-1{fill:#2e343c;}</style></defs><title>forum</title><g id="Vrstva_2" data-name="Vrstva 2"><g id="Layer_1" data-name="Layer 1"><path class="cls-1" d="M3.5,18A.5.5,0,0,1,3,17.38L3.86,14H3.5A3.5,3.5,0,0,1,0,10.5v-7A3.5,3.5,0,0,1,3.5,0h12A3.5,3.5,0,0,1,19,3.5a.5.5,0,0,1-.5.5h-4A2.5,2.5,0,0,0,12,6.5v6a2.47,2.47,0,0,0,.15.83.5.5,0,0,1-.47.67h-3L3.81,17.89A.5.5,0,0,1,3.5,18Zm0-17A2.5,2.5,0,0,0,1,3.5v7A2.5,2.5,0,0,0,3.5,13h1a.5.5,0,0,1,.49.62l-.64,2.56,3.84-3.07A.51.51,0,0,1,8.5,13H11a3.14,3.14,0,0,1,0-.5v-6A3.5,3.5,0,0,1,14.5,3H18A2.5,2.5,0,0,0,15.5,1Z"/><path class="cls-1" d="M26.5,20a.5.5,0,0,1-.31-.11L21.32,16H14.5A3.5,3.5,0,0,1,11,12.5v-6A3.5,3.5,0,0,1,14.5,3h12A3.5,3.5,0,0,1,30,6.5v6A3.5,3.5,0,0,1,26.5,16h-.36L27,19.38a.5.5,0,0,1-.49.62ZM14.5,4A2.5,2.5,0,0,0,12,6.5v6A2.5,2.5,0,0,0,14.5,15h7a.51.51,0,0,1,.31.11l3.84,3.08L25,15.62A.5.5,0,0,1,25.5,15h1A2.5,2.5,0,0,0,29,12.5v-6A2.5,2.5,0,0,0,26.5,4Z"/></g></g></svg>