<svg xmlns="http://www.w3.org/2000/svg" viewBox="0 0 24 20">
  <defs>
    <style>.cls-1{fill:#e41419;}</style>
  </defs>
  <title>free-shipping</title>

  <g id="Vrstva_2" data-name="Vrstva 2">
    <g id="Tools">
      <path class="cls-1" d="M5.5,11A5.5,5.5,0,1,1,11,5.5,5.51,5.51,0,0,1,5.5,11Zm0-10A4.5,4.5,0,1,0,10,5.5,4.5,4.5,0,0,0,5.5,1Z"/>
      <path class="cls-1" d="M5.5,11C3.88,11,3,8.17,3,5.5S3.88,0,5.5,0,8,2.83,8,5.5,7.12,11,5.5,11Zm0-10C4.89,1,4,2.75,4,5.5S4.89,10,5.5,10,7,8.25,7,5.5,6.11,1,5.5,1Z"/>
      <path class="cls-1" d="M5.5,8C2.83,8,0,7.12,0,5.5S2.83,3,5.5,3,11,3.88,11,5.5,8.17,8,5.5,8Zm0-4C2.75,4,1,4.89,1,5.5S2.75,7,5.5,7,10,6.11,10,5.5,8.25,4,5.5,4Z"/>
      <path class="cls-1" d="M6.5,20A3.5,3.5,0,1,1,10,16.5,3.5,3.5,0,0,1,6.5,20Zm0-6A2.5,2.5,0,1,0,9,16.5,2.5,2.5,0,0,0,6.5,14Z"/>
      <path class="cls-1" d="M17.5,20A3.5,3.5,0,1,1,21,16.5,3.5,3.5,0,0,1,17.5,20Zm0-6A2.5,2.5,0,1,0,20,16.5,2.5,2.5,0,0,0,17.5,14Z"/>
      <path class="cls-1" d="M3.5,17H2.93A2.93,2.93,0,0,1,.31,12.76L2.05,9.28a.5.5,0,1,1,.89.45L1.2,13.21A1.93,1.93,0,0,0,2.93,16H3.5a.5.5,0,0,1,0,1Z"/>
      <path class="cls-1" d="M20.88,17a.5.5,0,0,1,0-1,.5.5,0,0,0,.45-.28l1-1.95a6.64,6.64,0,0,0,.7-3A2.32,2.32,0,0,0,22.16,9L18,5.54A2.33,2.33,0,0,0,16.48,5h-6a.5.5,0,0,1,0-1h6a3.33,3.33,0,0,1,2.13.77l4.2,3.5A3.32,3.32,0,0,1,24,10.82a7.64,7.64,0,0,1-.8,3.4l-1,1.95A1.49,1.49,0,0,1,20.88,17Z"/>
      <path class="cls-1" d="M14.5,17h-5a.5.5,0,0,1,0-1h5a.5.5,0,0,1,0,1Z"/>
      <path class="cls-1" d="M21.5,11h-6a.5.5,0,0,1-.49-.62l1-4a.5.5,0,0,1,.8-.27l5,4a.5.5,0,0,1-.31.89Zm-5.36-1h3.93L16.8,7.38Z"/>
    </g>
  </g>
</svg>
