<svg xmlns="http://www.w3.org/2000/svg" viewBox="0 0 103.5 99.92"><defs><style>.cls-1{fill:#e41419;}</style></defs><title>darecek</title><g id="Vrstva_2" data-name="Vrstva 2"><g id="Gift_Box" data-name="Gift Box"><path class="cls-1" d="M44.61,53.52H5.35a1.78,1.78,0,0,0-1.78,1.78V91a8.93,8.93,0,0,0,8.92,8.92H44.61a1.78,1.78,0,0,0,1.78-1.78V55.31A1.78,1.78,0,0,0,44.61,53.52Z"/><path class="cls-1" d="M98.15,53.52H58.89a1.78,1.78,0,0,0-1.78,1.78V98.14a1.78,1.78,0,0,0,1.78,1.78H91A8.93,8.93,0,0,0,99.93,91V55.31A1.78,1.78,0,0,0,98.15,53.52Z"/><path class="cls-1" d="M94.58,25H69.86a1.77,1.77,0,0,0-1.18.45,28.65,28.65,0,0,1-2.57,2.05A1.78,1.78,0,0,0,66,30.28l3.6,3.16A5.36,5.36,0,0,1,70,41a5.51,5.51,0,0,1-7.55.49l-2.43-2.13a1.81,1.81,0,0,0-1.91-.28,1.79,1.79,0,0,0-1,1.63v7.47A1.78,1.78,0,0,0,58.89,50h42.83a1.78,1.78,0,0,0,1.78-1.78V33.9A8.93,8.93,0,0,0,94.58,25Z"/><path class="cls-1" d="M45.35,39.07a1.8,1.8,0,0,0-1.91.28L41,41.49A5.51,5.51,0,0,1,33.45,41a5.36,5.36,0,0,1,.49-7.55l3.6-3.16a1.78,1.78,0,0,0-.16-2.81,28.65,28.65,0,0,1-2.57-2.05A1.77,1.77,0,0,0,33.64,25H8.92A8.93,8.93,0,0,0,0,33.9V48.17A1.78,1.78,0,0,0,1.78,50H44.61a1.78,1.78,0,0,0,1.78-1.78V40.7A1.79,1.79,0,0,0,45.35,39.07Z"/><path class="cls-1" d="M64.85,38.81a1.79,1.79,0,0,0,2.36-2.68l-9.69-8.5c8.07-2.35,14.78-9.42,17.2-18.89a7.4,7.4,0,0,0-1.3-6.33A5.77,5.77,0,0,0,67,.29C59.92,2.75,54.42,8.92,51.75,16.57,49.08,8.92,43.58,2.75,36.51.29a5.77,5.77,0,0,0-6.43,2.1,7.4,7.4,0,0,0-1.3,6.33C31.2,18.2,37.91,25.27,46,27.62l-9.69,8.5a1.79,1.79,0,0,0,2.36,2.68L50,28.88V96.21a1.78,1.78,0,1,0,3.57,0V28.88ZM68.16,3.67a1.92,1.92,0,0,1,.61-.11,2.4,2.4,0,0,1,1.83,1,3.82,3.82,0,0,1,.66,3.26c-2.33,9.13-9.14,15.72-17,16.89l-.56-.49C54.54,14.69,60.23,6.42,68.16,3.67ZM32.24,7.85a3.82,3.82,0,0,1,.66-3.26,2.4,2.4,0,0,1,1.83-1,1.91,1.91,0,0,1,.61.11c7.93,2.75,13.62,11,14.48,20.59l-.56.49C41.38,23.57,34.57,17,32.24,7.85Z"/></g></g></svg>