<svg xmlns="http://www.w3.org/2000/svg" width="17px" height="20px" viewBox="0 0 323.08 389.98"><defs><style>.cls-1{fill:#b9bdc0;}.cls-2{fill:#b9bdc0;}</style></defs><title>github</title><g id="Vrstva_2" data-name="Vrstva 2"><g id="Layer_1" data-name="Layer 1"><path class="cls-1" d="M231.51,292.88c2.1,1.8,1.3,4.3,1.3,6.5v88.7c0,.6.2,1.3.2,1.9H127c.4-17.4.4-34.9,0-52.3,3.2.1,1.7,2.6,1.7,3.9.1,14,.2,28,0,41.9-.1,4,1.2,5.1,5.1,5.1,30.8-.1,61.6-.2,92.4,0,4.4,0,5.1-1.5,5.1-5.4-.2-25.3-.1-50.6-.1-75.9C231.31,302.48,231.51,297.68,231.51,292.88Z"/><path class="cls-2" d="M231.51,292.88c-.1,4.8-.2,9.6-.2,14.4,0,25.3-.1,50.6.1,75.9,0,3.9-.7,5.5-5.1,5.4q-46.2-.3-92.4,0c-3.9,0-5.2-1.1-5.1-5.1.2-14,.1-28,0-41.9,0-1.3,1.6-3.8-1.7-3.9-.7,0-1.3.1-2,.1-1.3-.6-2.5-.5-3.3.9-12.4,1.3-24.9,2.3-37.2-.8-21.8-5.5-37.4-18.4-47-38.9a169.67,169.67,0,0,0-23.9-37.2c-3-3.6-7.8-5-11-8.6-1.2-1.4-3.2-2.5-2.6-4.4.6-2.3,3.1-2.2,5.1-2.4,20-1.7,34.2,7.8,44.1,24.2,9.1,15,21,26.1,38.2,30.6,12.2,3.2,24.4,2.5,36.4-1.2,2.8-.9,4.3-2.1,4.6-5.5.9-12.4,3.5-24.4,12.1-34.9-3.3-.6-5.9-1.2-8.6-1.6-21.2-3.2-40.9-10.5-58-23.6-19.1-14.6-31-34.1-34.7-58-3.2-20.9-2-41.9.7-62.8,2.1-16.1,6.6-31.4,18.2-43.4,4.1-4.2,4.4-7.6,2.6-12.9-6.1-17.8-4.4-35.7,1.1-53.5,1-3.3,2.5-4.3,6.1-3.4,13.5,3.3,23.9,11.2,33.3,20.8a125.74,125.74,0,0,1,12.3,15c1.1,1.5,1.9,2.3,3.8.8,7.2-5.7,15.9-7.5,24.6-8.8a266.65,266.65,0,0,1,75.7-.1c8.4,1.2,16.9,2.7,23.9,8,3.3,2.5,4.6,1.1,6.4-1.5a100.77,100.77,0,0,1,24.5-25.1,57.55,57.55,0,0,1,20.3-9.2c3.2-.8,4.5.1,5.5,3,6.8,19.2,7.8,38.4.2,57.6-.9,2.4-1.5,4.1.7,6.2,12.3,11.6,18.1,26.4,20.5,42.7,2.9,19.8,4.6,39.7,2.3,59.8-3.8,33.8-21,58.4-50.8,74.5a2,2,0,0,0-2.4,1.3c-.8.4-1.6.8-2.3,1.1a10,10,0,0,0-6.6,2.9c-.8.3-1.7.5-2.5.8a2,2,0,0,0-2.5,1.2c-.5.1-1.1.3-1.6.4-4,.6-8,1.1-11.4,3.5l-1.6.3c-2.9-.1-5.8.1-8.3,1.9l-6.5.9c-1.7.1-3.6-.1-5.1.5s-.9,1.7.5,2.1l.1.1a2.91,2.91,0,0,0,2.1,2.8c.8,1.6,1.6,3.2,2.4,4.7.2,2.1.6,4.1,2.4,5.5.2.9.4,1.7.6,2.6.5,2.8.5,5.6,2.1,8.1.1.6.2,1.2.3,1.7a2.76,2.76,0,0,0,.6,3.3A16,16,0,0,0,231.51,292.88Z"/><path class="cls-1" d="M241.71,255.48c3.4-2.5,7.4-2.9,11.4-3.5C249.41,253.48,246,255.88,241.71,255.48Z"/><path class="cls-1" d="M231.81,257.68c2.5-1.8,5.4-1.9,8.3-1.9C237.71,257.78,234.81,258,231.81,257.68Z"/><path class="cls-1" d="M230.41,285c-1.7-2.4-1.7-5.3-2.1-8.1A8.32,8.32,0,0,1,230.41,285Z"/><path class="cls-1" d="M259.71,249.38a9.77,9.77,0,0,1,6.6-2.9A8,8,0,0,1,259.71,249.38Z"/><path class="cls-1" d="M220.81,261.18c-1.5-.4-2.1-1.4-.5-2.1s3.4-.4,5.1-.5C224.31,260.28,221.41,258.78,220.81,261.18Z"/><path class="cls-1" d="M227.71,274.28c-1.8-1.4-2.2-3.4-2.4-5.5C227.41,270.08,227.51,272.18,227.71,274.28Z"/><path class="cls-1" d="M231.31,290a2.89,2.89,0,0,1-.6-3.3C231.91,287.58,232.31,288.68,231.31,290Z"/><path class="cls-1" d="M121.81,338.68c.8-1.4,1.9-1.4,3.3-.9A2.64,2.64,0,0,1,121.81,338.68Z"/><path class="cls-1" d="M223,264.08a2.8,2.8,0,0,1-2.1-2.8A2.42,2.42,0,0,1,223,264.08Z"/><path class="cls-1" d="M268.71,245.38a2.1,2.1,0,0,1,2.4-1.3C270.81,245.28,270.11,246.08,268.71,245.38Z"/><path class="cls-1" d="M254.71,251.48a1.93,1.93,0,0,1,2.5-1.2C256.81,251.38,256.11,252.08,254.71,251.48Z"/></g></g></svg>