<svg xmlns="http://www.w3.org/2000/svg" width="19" height="16"><path fill-rule="evenodd" fill="#FFF" d="M7.73-.003c.776 0 1.552.023 2.303.023.194 0 .436 0 .436.25 0 .728-1.237.728-1.77.797.8.523 1.066 1.547 1.066 2.435 0 2.8-2.35 3.164-2.35 3.984 0 .75 3.053 1.865 3.053 4.438 0 2.867-2.836 4.073-5.502 4.073-2.302 0-4.968-.932-4.968-3.46C0 9.853 3.15 9.1 5.477 9.1c-.29-.75-.558.046-.558-1.5C2.592 7.6.944 6.324.944 4.07.945 2.23 2.205.886 4.023.34 5.065.02 6.64-.002 7.73-.002zM5.648 6.074c1.163 0 1.55-1.002 1.55-1.934 0-1.185-.75-3.118-2.278-3.118-1.14 0-1.552 1.023-1.552 1.933 0 1.185.752 3.12 2.28 3.12zm-.34 8.147c1.333 0 3.223-.772 3.223-2.228 0-1.434-1.72-2.05-3.005-2.05-1.405 0-3.223.616-3.223 2.186 0 1.457 1.697 2.093 3.005 2.093zm11.27-10.104v2.277h-1.624V4.116H12.53V2.614h2.423V.338h1.623v2.276H19v1.502h-2.424z"/></svg>