<?xml version="1.0" encoding="iso-8859-1"?>
<!-- Generator: Adobe Illustrator 19.2.1, SVG Export Plug-In . SVG Version: 6.00 Build 0)  -->
<svg version="1.1" xmlns="http://www.w3.org/2000/svg" xmlns:xlink="http://www.w3.org/1999/xlink" x="0px" y="0px"
	 viewBox="0 0 24 24" style="enable-background:new 0 0 24 24;" xml:space="preserve">
<g id="Mail">
</g>
<g id="Open_Mail">
</g>
<g id="Mail_Attachmet">
</g>
<g id="Mails">
</g>
<g id="Trash">
</g>
<g id="Trash_Full">
</g>
<g id="Preferences_1">
</g>
<g id="Preferences_2">
</g>
<g id="Mouse">
</g>
<g id="Computer">
</g>
<g id="Notebook">
</g>
<g id="Mobile_Phone">
</g>
<g id="Print">
</g>
<g id="Calculator">
</g>
<g id="Tag">
</g>
<g id="Paperclip">
</g>
<g id="Heart">
</g>
<g id="Lock">
</g>
<g id="Lock_Open">
</g>
<g id="Key_1">
</g>
<g id="Star">
</g>
<g id="Add">
</g>
<g id="Remove">
</g>
<g id="Error">
</g>
<g id="Check_1">
</g>
<g id="Time">
</g>
<g id="Question_Mark">
</g>
<g id="Error_Mark">
</g>
<g id="Sand-Glass">
</g>
<g id="Battery_Full">
</g>
<g id="Battery_Charge">
</g>
<g id="Battery_Half">
</g>
<g id="Battery_Low">
</g>
<g id="No_Battery">
</g>
<g id="Key_2">
</g>
<g id="Link">
</g>
<g id="Brake_Link">
</g>
<g id="Pencil">
</g>
<g id="At">
</g>
<g id="Reply">
</g>
<g id="Accessible">
</g>
<g id="Up_Arrow">
</g>
<g id="Brush">
</g>
<g id="Design_Mug">
</g>
<g id="Design">
</g>
<g id="Server">
</g>
<g id="Database">
</g>
<g id="Save">
</g>
<g id="Female">
</g>
<g id="Male">
</g>
<g id="Book">
</g>
<g id="Power">
</g>
<g id="Reload">
</g>
<g id="Map">
</g>
<g id="Loction_1">
</g>
<g id="Location_2">
</g>
<g id="Globe">
</g>
<g id="Suitcase">
</g>
<g id="Callendar">
</g>
<g id="Cloud_Off">
</g>
<g id="File_1">
</g>
<g id="File_2">
</g>
<g id="Folder">
</g>
<g id="Open_Folder">
</g>
<g id="Cloud">
</g>
<g id="Upload_Cloud">
</g>
<g id="Download_Cloud">
</g>
<g id="Eye">
</g>
<g id="Invisible">
</g>
<g id="Assignment">
</g>
<g id="Note_Book">
	<g>
		<g>
			<path d="M5.5,5h-3C2.224,5,2,4.776,2,4.5S2.224,4,2.5,4h3C5.776,4,6,4.224,6,4.5S5.776,5,5.5,5z"/>
		</g>
		<g>
			<path d="M5.5,10h-3C2.224,10,2,9.776,2,9.5S2.224,9,2.5,9h3C5.776,9,6,9.224,6,9.5S5.776,10,5.5,10z"/>
		</g>
		<g>
			<path d="M5.5,15h-3C2.224,15,2,14.776,2,14.5S2.224,14,2.5,14h3C5.776,14,6,14.224,6,14.5S5.776,15,5.5,15z"/>
		</g>
		<g>
			<path d="M5.5,20h-3C2.224,20,2,19.776,2,19.5S2.224,19,2.5,19h3C5.776,19,6,19.224,6,19.5S5.776,20,5.5,20z"/>
		</g>
		<g>
			<path d="M19.5,24h-14C4.122,24,3,22.879,3,21.5v-19C3,1.121,4.122,0,5.5,0h14C20.878,0,22,1.121,22,2.5v19
				C22,22.879,20.878,24,19.5,24z M5.5,1C4.673,1,4,1.673,4,2.5v19C4,22.327,4.673,23,5.5,23h14c0.827,0,1.5-0.673,1.5-1.5v-19
				C21,1.673,20.327,1,19.5,1H5.5z"/>
		</g>
		<g>
			<path d="M6.5,6C5.673,6,5,5.327,5,4.5S5.673,3,6.5,3S8,3.673,8,4.5S7.327,6,6.5,6z M6.5,4C6.224,4,6,4.225,6,4.5S6.224,5,6.5,5
				S7,4.775,7,4.5S6.776,4,6.5,4z"/>
		</g>
		<g>
			<path d="M6.5,11C5.673,11,5,10.327,5,9.5S5.673,8,6.5,8S8,8.673,8,9.5S7.327,11,6.5,11z M6.5,9C6.224,9,6,9.225,6,9.5
				S6.224,10,6.5,10S7,9.775,7,9.5S6.776,9,6.5,9z"/>
		</g>
		<g>
			<path d="M6.5,16C5.673,16,5,15.327,5,14.5S5.673,13,6.5,13S8,13.673,8,14.5S7.327,16,6.5,16z M6.5,14C6.224,14,6,14.225,6,14.5
				S6.224,15,6.5,15S7,14.775,7,14.5S6.776,14,6.5,14z"/>
		</g>
		<g>
			<path d="M6.5,21C5.673,21,5,20.327,5,19.5S5.673,18,6.5,18S8,18.673,8,19.5S7.327,21,6.5,21z M6.5,19C6.224,19,6,19.225,6,19.5
				S6.224,20,6.5,20S7,19.775,7,19.5S6.776,19,6.5,19z"/>
		</g>
	</g>
</g>
<g id="Webpage">
</g>
<g id="Mailbox">
</g>
<g id="Drive">
</g>
<g id="Disc">
</g>
<g id="Wifi_1">
</g>
<g id="Wifi_2">
</g>
<g id="Archive">
</g>
<g id="Archive_File">
</g>
<g id="News">
</g>
<g id="Home">
</g>
<g id="Collaboration">
</g>
<g id="Announcement">
</g>
<g id="Watch">
</g>
<g id="Clock">
</g>
<g id="Volume">
</g>
<g id="Mute">
</g>
<g id="Hand">
</g>
<g id="Layers">
</g>
<g id="Bell">
</g>
<g id="Speach_Bubble">
</g>
<g id="Speach_Bubbles">
</g>
<g id="Zoom_In">
</g>
<g id="Zoom_Out">
</g>
<g id="Search">
</g>
<g id="Back_Arrow">
</g>
<g id="Close">
</g>
<g id="Check_2">
</g>
<g id="Left_Arrow_2">
</g>
<g id="Right_Arrow_2">
</g>
</svg>
