<svg xmlns="http://www.w3.org/2000/svg" xmlns:xlink="http://www.w3.org/1999/xlink" viewBox="0 0 42.98 42.98"><defs><style>.cls-1{fill:none;}.cls-2{clip-path:url(#clip-path);}.cls-3{fill:#e7323c;}.cls-4{fill:#fff;}</style><clipPath id="clip-path"><rect class="cls-1" width="42.98" height="42.98"/></clipPath></defs><title>Datový zdroj 15</title><g id="Vrstva_2" data-name="Vrstva 2"><g id="Vrstva_1-2" data-name="Vrstva 1"><g class="cls-2"><path class="cls-3" d="M43,21.49A21.49,21.49,0,1,1,21.49,0,21.49,21.49,0,0,1,43,21.49"/><path class="cls-4" d="M10.39,32.71c-.26-.79,0-11.8,0-11.8l9.31,7-.13-7.6L28.74,28l.52-14.2s3.25-1,3.41-.13c.53,2.75-.13,19.57-.13,19.57s-21.41,1.69-22.15-.52"/><path class="cls-4" d="M11.1,8C10,12.09,23,11.69,23.15,7.2c0-.76-2.54.17-2.79.34-3.31,2.29,5.33,5.06,6.69,5.28.77.12,3.5-1.12,2.57-1.27-.55-.09-8.11-3-6.83-3.85L20,8c-.06,2.13-6.49,2-5.79-.55.21-.75-2.88-.31-3.11.52"/></g></g></g></svg>
