<svg xmlns="http://www.w3.org/2000/svg" viewBox="0 0 649.84 337.04"><defs><style>.cls-1{fill:#2e353c;}</style></defs><title>INSPIRATION</title><g id="Vrstva_2" data-name="Vrstva 2"><g id="ARROWS"><path d="M325.85,101.05c-.25,1,.64,1.49.75,2.23.38.55.82.68,1.68.09l-1.72-.07a2,2,0,0,0,.84-1.82,5.73,5.73,0,0,0,.76.64,4.37,4.37,0,0,1,2.37,3.14,3.58,3.58,0,0,0,1.69,2.79l-.46.83a3.63,3.63,0,0,1,1.42,2.42,6.79,6.79,0,0,0,1.25,3.24,3.54,3.54,0,0,1,.88,3,1.77,1.77,0,0,0,.06.94c.61,1.67,1.24,3.34,1.91,5,.28.7.66,1.37,1,2.06a12.1,12.1,0,0,1,1.31,5.16c0,.35.35.68.48,1a20.86,20.86,0,0,1,.92,2.73c.37,1.75.61,3.52.93,5.28a1.8,1.8,0,0,1-.17,1.52c-.8-.15-1.45-.34-2.12-.4-.93-.07-1-.93-1.57-1.34a.59.59,0,0,0-.09-1,1.22,1.22,0,0,1-.41-1.16c0-1.45-1.46-2.87-3.14-3.17a4.63,4.63,0,0,0,0,.54,31.49,31.49,0,0,1,1.14,6.39,2.39,2.39,0,0,1-1,2.07l-1.47-.83a7.6,7.6,0,0,0-.08-2.55c-.28-.7.37-1.43-.38-2.11a8.11,8.11,0,0,1-1.26-2.2l.8-1.56c-.38-.34-.66-.76-1.06-.92a4.2,4.2,0,0,1-2.92-4.57c1.88-1.36,1.45-3,.59-4.91-.38.26-1,.47-.93.64.06.8-.66,1.17-.85,1.78-.15,0-.24,0-.28,0-.2-.16-.38-.33-.49-.43-.39.24-.78.68-1.09.63-.67-.1-.71-.68-.58-1.23a3.78,3.78,0,0,0,.13-.56c0-.18.07-.43,0-.55a9.51,9.51,0,0,1-1.79-3.51,11.75,11.75,0,0,0-.73-1.52l-.81-1.55-.63,1.43c-.38-.15-.87-.2-.95-.39a15.52,15.52,0,0,1-.48-2,17.85,17.85,0,0,1-1.54-1.66,1.16,1.16,0,0,1,.07-1.7c.95-1.06.4-2.35-1-2.82l-1.44-.46c.72-.52,1.94.24,2-1-1-.57-2.38-.71-2.44-2.29l2.39,0a11.3,11.3,0,0,1-3.64-2.64,2.12,2.12,0,0,0-1.05-.51,2.46,2.46,0,0,1-2.24-2.33c.49-.44.79-.25,1.17.17a7.31,7.31,0,0,0,1.75,1.54,10.69,10.69,0,0,0,2.25.67c.37-1,.2-1.41-.52-1.23a2.38,2.38,0,0,1-2.5-.82c-.09-.1,0-.33,0-.52l1.67.2c-.24-.46-.3-.84-.5-.92a15.75,15.75,0,0,0-2.52-.81,2.35,2.35,0,0,1-1.76-1.42c-.07-.16.11-.41.19-.67l-1.7-.37c-1.42-1.92-2.29-4.17-4.65-5.3.58-.7,1.67.16,2-.89l-1.77-.69-.9.76c-.47-.24-.62-1-1.35-.56-.1,0-.52-.3-.68-.54-.05-.07.25-.36.39-.54s.24-.28.34-.4c-1.15-2.14-1.42-2.42-2.87-3l1.19-.86-2.29.08.28-1.34c-2.26.32-2.63.12-3.62-1.84a1.55,1.55,0,0,0-.47-.55c-.86-.62-1.76-1.19-2.59-1.83-1.14-.89-3-1.16-3.17-2.95,0-.26-.38-.56-.66-.71-2-1-3.13-3.11-5.28-4-.2-.08-.28-.41-.43-.62s-.35-.65-.6-.72c-1-.27-2.1-.75-2.41-1.52-.43-1.07-2-.8-2.13-1.95-.91-.42-1.26-1.26-1.82-2A4.38,4.38,0,0,0,271,62.66a1.59,1.59,0,0,1-1.11-.38,35.27,35.27,0,0,0-3.12-3.23,8.83,8.83,0,0,0-2.65-2c-.56-.27-1.19-.48-1.29-1.13-.19-1.27-1.28-1.55-2.3-1.92s-1.77-.58-2.63-.87l-.32-1.34a3.69,3.69,0,0,1-3.12-1.86,2.93,2.93,0,0,0-1.39-1c-1.16-.5-2.42-.82-3.56-1.36a29.48,29.48,0,0,1-6.62-4.29,5,5,0,0,0-2-1.28c-1-.18-1.33-1-1.85-1.59a3.44,3.44,0,0,1-3.31-.73,4.19,4.19,0,0,0-2.77-1c-.12,0-.25-.09-.56-.21l-.24-1.25a10.43,10.43,0,0,0-2.28-.37,3.06,3.06,0,0,1-2.37-.91,6.28,6.28,0,0,0-1.18-.62c-.32-.17-.75-.27-1-.53a2.07,2.07,0,0,0-1.8-.75c-1.93.11-3.35-1-4.76-1.89a16.2,16.2,0,0,0-4.23-2.29c-1.59-.42-2.61-2.1-4.53-1.77-1.6-.67-3.22-1.33-4.81-2-.6-.26-1-.77-1.81-.78a10.81,10.81,0,0,1-2-.54c-.51-.11-1-.8-1.61-.1-.09.11-.65,0-.93-.18-.46-.24-.87-.56-1.36-.88-1,.54-2.1,1.15-3.22.42a6.74,6.74,0,0,0-2.7-.75A10.93,10.93,0,0,1,188,21.7a2.88,2.88,0,0,1-1-1c-.66-1.36-.84-1.48-2.76-1.38.21,1,2,.54,1.93,2l-1-.34c-1.08-.31-2.22-.94-3.25-.82s-1.64.14-2.29-.6a2,2,0,0,0-1.11-.42,2.72,2.72,0,0,1-1.73-.89,1.63,1.63,0,0,0-1.67-.49c-1.12.23-2.23.52-3.34.76a2.38,2.38,0,0,1-.59,0l-.51-1.56c-.6.08-1.13.13-1.65.22a6.15,6.15,0,0,1-1.17.26,10.13,10.13,0,0,1-2.54-.56,9.38,9.38,0,0,0-2.77.15,3.28,3.28,0,0,1-.81-.14l-5.45-1.07L155,16.88c-2.09-.87-2.73-.71-3.64.88A3.19,3.19,0,0,0,153.94,19c.77.11,1.66,0,2.21.77a.67.67,0,0,0,.52.21c.85-.32,1.41.27,2.07.52,2.32.89,4.6,1.86,6.95,2.64.78.27,1.55.37,1.85,1.15,2-.41,2.61-.15,4,1.26.58.6,1.35,1.39,2.07,1.43,1.49.08,2.64,1,4.09,1.09a2,2,0,0,1,1.29.49,5.89,5.89,0,0,0,3.34,1.71c.22.05.4.26.68.46-.84.84-2.31,1-2.38,2.32,0,.09-.33.23-.52.26a22.27,22.27,0,0,1-3.43.4c-2.27,0-3.72-1.95-5.85-2.36-.11,0-.2-.17-.27-.28a4.35,4.35,0,0,0-3.93-1.62c-.11,0-.22-.13-.29-.18l.08-1.61L165,28.69c-2.71-.59-4.76-2.32-7.45-2.7a20.65,20.65,0,0,1-7.73-2.93A7.08,7.08,0,0,0,146,21.75a2.35,2.35,0,0,1-2.32-1.35c-.34-1-1.12-1.33-2-1.73s-1.28-.57-2,.06a2.21,2.21,0,0,1-2.41-.17c0-.45.09-.9.15-1.55l-1.71.89-.45-.86a17,17,0,0,0,1.7-.83,8.28,8.28,0,0,1,4-1.74,4.62,4.62,0,0,0,1.28-.56c.55-.24,1.1-.48,1.66-.7.94-.37,1.89-.7,2.81-1.1s2-1,3.1-1.46a36.69,36.69,0,0,0,6.06-2.73,2.13,2.13,0,0,1,.56-.23c2.46-.73,4.63-2.16,7.17-2.7a3.83,3.83,0,0,0,.9-.46L167.4,3c.3-1.35.51-1.55,1.74-1.07a2.23,2.23,0,0,0,1.72,0c1.1-.36,2.17-1.07,3.46-.6a1,1,0,0,0,.58,0c1-.32,2-.66,3.07-1a4.28,4.28,0,0,1,4.1.56,5.19,5.19,0,0,1-3.62,3.46c-.67-.44-1.35-1.13-2.34-.46L176.29,5c-.55.24-1.15.75-1.6.65a4.62,4.62,0,0,0-2.18.3,46.34,46.34,0,0,1-4.76,1,4.62,4.62,0,0,0-3.45,1.7L161,9.28a3.62,3.62,0,0,1-2.63,2.48l1.1,1.18c.75-.68,1-1.68,1.85-1.66.31.47.5,1.06.77,1.1a10,10,0,0,0,3.63.22,4,4,0,0,1,2.92.28,5.11,5.11,0,0,0,4.48.25c1.33-.54,2.75.93,4.1-.11.07-.06.37.12.56.19s.11.09.17.09c.4,0,.79.06,1.18.06a5.48,5.48,0,0,1,1.39-.07,13.07,13.07,0,0,0,6.63.11,1.46,1.46,0,0,1,.8,0,11.17,11.17,0,0,0,3.9.51c.59,0,1.31-.24,1.73,0,.71.41,1.3.06,1.94.11a36.25,36.25,0,0,1,4.39.63c.35.07.6.51.94.7s1,.58,1.25.45c1-.44,1.84.17,2.75.24a15.51,15.51,0,0,1,2.75.59c1.25.32,2.49.67,3.72,1a6.06,6.06,0,0,1,1.3.46,4,4,0,0,0,2.56.44,4.89,4.89,0,0,1,4.21.95.85.85,0,0,0,.71.19c.63-.2,1,.18,1.5.39a7.25,7.25,0,0,0,2.12.66c2.74.29,5.15,1.6,7.8,2.14.32.06.57.37.88.48,1.45.51,2.71,1.67,4.33,1.51a11.51,11.51,0,0,1,3.54.47,6.91,6.91,0,0,1,4.23,2.49c.34.43,1,1,1.39,1a4.13,4.13,0,0,1,2.89,1.07,5.38,5.38,0,0,0,1.3.44l.55-1.06c.54.61,1.23,1.05,1.35,1.61.29,1.27,1.23,1.41,2.31,1.71a16.65,16.65,0,0,1,5.41,2.21c1.16.84,2.12,2,3.66,2.3.29.07.48.56.72.85s.45.71.77.82a17.71,17.71,0,0,1,1.87.35c.53.27.81.93,1.32,1.26A37.87,37.87,0,0,1,273,43.59a11.89,11.89,0,0,0,1.9,1,6.34,6.34,0,0,1,1.31.9,43,43,0,0,0,5.31,4.25c2,1.38,4.2,2.52,5.4,4.7a2.09,2.09,0,0,0,1.16.76,3.36,3.36,0,0,1,2.35,2.41,7.24,7.24,0,0,1,1.19.37c1.11.55,2.48.82,2.76,2.3.05.28.52.57.87.72a2.1,2.1,0,0,1,1.43,2.27c.68.38,1.25.66,1.78,1s.93.75,1.44,1.08a2.62,2.62,0,0,1,1.43,1.75,1.49,1.49,0,0,0,.82,1c1.18.41,1.31,1.36,1.45,2.22a8.23,8.23,0,0,0,1,.57,5.15,5.15,0,0,1,2.65,2.27c1.16,2.16,3.68,3.4,4.51,5.8,0,0,.1.09.14.13a51,51,0,0,1,6.23,7c1.06,1.54,2.42,2.9,3.56,4.41a33.31,33.31,0,0,1,1.83,3c.13.21.21.52.41.64,1.64.93,2.07,2.54,2.68,4.06a3.36,3.36,0,0,0,.61,1.19c.73.68.53,1.39.28,2.14Zm-176.21-82c.33-1.1.33-1.1-.76-1.45l2-1.1-1.5-.9c-1.25,1.05-1.25,1.05-.42,2ZM271.49,48.19c-.17-.27-.3-.74-.53-.79-1.36-.25-2-1.38-3.07-2.11l-1,.93a15.46,15.46,0,0,0-2.41-2.33c-.67-.42-.18-.91-.49-1.33a8.17,8.17,0,0,1-2.09-.23c-1-.35-.29-1.21-.35-2l-2.23,1.1c-.54-1.84-2.29-2.23-3.75-3.16a3.39,3.39,0,0,0,.33-.78c0-.22,0-.62-.12-.67a11.48,11.48,0,0,0-2.62-.86c-.37-.05-.85.51-1.25.82a4.52,4.52,0,0,0-.63.78l-.72-1.78-4-.35-.65-.89v0l.74-.68a6.46,6.46,0,0,0-2.7-3,1.23,1.23,0,0,0-.7-.3c-1,.14-1.59-.56-2.28-1a5.1,5.1,0,0,0-3.58-1.17,3.62,3.62,0,0,1-1.53-.37c-1.07-.4-2.13-.83-3.19-1.27s-2.22-.95-3.34-1.41a4.7,4.7,0,0,0-1.7-.6,9.06,9.06,0,0,1-3.84-1.07,7.07,7.07,0,0,0-2.53-.41,2.67,2.67,0,0,0,2,2,3.73,3.73,0,0,0,1,.12c2,.16,2.07.18,2.58,2.1,1.35-.37,2.57.31,3.86.54.7.12,1.24.93,1.89,1.37.36.24.95.63,1.18.51,1.19-.62,1.74.17,2.4.8l1.45-.75.26,1.3,2,.2c.35,2.05,2.48,1.5,4,2.28a2.66,2.66,0,0,1-2.85-.13,5.07,5.07,0,0,0-4.24-.6L236,31.76l-.88,1.56c.15.23.2.42.29.44,2.41.54,4.45,2.11,7,2.22a2.26,2.26,0,0,1,1.4.67,9.22,9.22,0,0,0,4.43,2.46c.06,0,.17,0,.19,0,.76,1.16,2.16,1.2,3.31,1.68.59.24,1.22.38,2,.63l.06.94a2.26,2.26,0,0,1-2.14.16,27.86,27.86,0,0,1-3.18-1.3,3,3,0,0,0-2.88,0c.34.23.57.5.82.52a2.1,2.1,0,0,1,1.51.87c1.14,1.4,2.57,1.29,4.21.93,1.34-.31,2.62-1,4.08-.7.33.07.78,0,1,.25a3.44,3.44,0,0,0,2.95,1c.79-.05.94.4.78,1.88a6.82,6.82,0,0,1,2.19.64,11.37,11.37,0,0,0,3.77,1.5,13.6,13.6,0,0,1,2.78,1.7,3.09,3.09,0,0,0,.62-.77,1.08,1.08,0,0,1,1.19-.83c-.37,1.06-.37,1.06.47,1.45-.06.29-.28.73-.16.86a6.22,6.22,0,0,0,1.58,1.1,4.9,4.9,0,0,0,1.48.15c-.14-.54-.24-.87-.32-1.2s-.14-.6-.24-1l-2.11-.09ZM324.65,116c.29-.16.56-.35,1-.59a7.13,7.13,0,0,0-1-1.64,6,6,0,0,0-1.71-.71l1.07-.88c-.17-.73-.59-1-1.45-.83s-1.56.27-2.37.41c-.19,1.51,2.34.69,2.27,2.18l-.94.29c.18,1.37,1.82,1.22,2.42,2.1a1.55,1.55,0,0,0-.52,2,3.27,3.27,0,0,0,2.53,1c.16,0,.4-.25.39-.37s-.14-.61-.29-.63a7.78,7.78,0,0,0-1.37,0c-.48-.62-1.15-1.15-.76-2C324.15,116.19,324.41,116.11,324.65,116ZM264.58,52.76c-.45-.65-.82-1.18-1.22-1.74l-1.26.22c-.06-.24-.11-.48-.21-.89,1.54.17,2.88.35,3.67,1.7a1.89,1.89,0,0,0,.63.74,10.68,10.68,0,0,1,2.52,2.59,13,13,0,0,0,1.21,1c.74.62,1.82,1,1.86,2.14a.43.43,0,0,0,.19.32c1.25.86,2.55,1.66,3.78,2.55.81.58,1.39-.29,2.21-.18l.9,1.55a4,4,0,0,1,4,1.1A3.92,3.92,0,0,0,286.4,65c.78,1.54,2.37,2.16,4.17,3.16l-1.88,0a7.58,7.58,0,0,1,.18,1.06c0,.36,0,.73-.06,1.27,1.27-.28,2.15.56,3.21.92.12,0,.29.11.33.2.7,1.79,3.1,2.23,3.61,4.2l1.55-.54c.3,1-.94,1.56-.37,2.53l1.18-.37c.16,2.09,2.69,2.17,3.6,3.88l-1.43.4c.21.27.37.68.58.71a6.75,6.75,0,0,0,2.78.1,1.92,1.92,0,0,1,2.41.77c-.84.81-1.81.71-3,.24l.09,1.88,1.47,0a14,14,0,0,0,2,1.46,2.46,2.46,0,0,1,1.57,1.65c.19,1.12.78,1.38,1.83,1.22a4,4,0,0,1,.6,0c-.18-.85,0-1.7-.83-2.31-.21-.16-.21-.59-.25-.9a3,3,0,0,0-1.54-2.48,5.11,5.11,0,0,1-1.92-1.94,8.78,8.78,0,0,1-.66-1.82,3.32,3.32,0,0,0-2.18-2.11,4.08,4.08,0,0,1-2.78-3,1.55,1.55,0,0,0-.9-.94c-1.45-.46-1.84-1.86-2.87-2.67-.17-.14-.06-.59-.07-.77L293.29,69l.8-.44c-.41-1.3-2-1.19-2.76-2.12s-1.36-1.87-2.12-2.93l-.75.5,0,0a1.86,1.86,0,0,1-1.54-.77,15.55,15.55,0,0,0-1.76-1.56c-.25-.21-.71-.38-.76-.62-.34-1.65-1.94-2-3.16-2.71-.39-.24-.82-.43-1.21-.63L280,56.58a9.36,9.36,0,0,0-1.3-.41c-1.57-.31-1.57-.3-2.36-1.38l-.37.62c-1.66-.25-3-.76-3-2.81a4.54,4.54,0,0,1-3.51-.16,5.72,5.72,0,0,1-1.16-.71,13.79,13.79,0,0,0-5.05-2.83,4.88,4.88,0,0,1-2.37-1.39,2.15,2.15,0,0,0-1.94-.74,2.33,2.33,0,0,1-1.28-.37c-1.61-1-1.6-1.07-2.87.3l-.57-1.89-1.59.06,2.19,1.82c.3,1,1.16,1.34,2.2,1.64l.74-.85,2.69,4.39.58-1,1.08.35C262.55,52.6,262.55,52.6,264.58,52.76Zm47.84,41c.31.4.64.64.66.91a7.3,7.3,0,0,1-.18,1.5l1.64,1.08c-.27,1.32-.26,1.3.68,2.08a10.13,10.13,0,0,1,1.89,1.73,3.65,3.65,0,0,0,2.42,1.32c.15-1.48.17-2.85-1.18-4-.46-.38-1.29-.64-.86-1.51,0-.09-.29-.35-.47-.51-.82-.75-1.73-1.39-1.53-2.7.11-.68-.49-1.13-1.16-1.42a13.77,13.77,0,0,0-6.18-1.59c.57.71,1.59,1,1.5,2l1.77.18.18,2.57.35,0Zm7.36,12a1,1,0,0,0,.53,1.41,1.41,1.41,0,0,0,1.75-.87c.24-.83-.27-1.64-1.53-2.23C320.23,104.68,320,105.19,319.78,105.72ZM218.52,22.77a6.78,6.78,0,0,0-3.6-1.11l1.92,2.56ZM335.25,131l-1.7-2.18c.11,1.28-.24,2.64,1.19,3.79ZM241.09,38.77a.62.62,0,0,0,.53-.12c.1-.11.14-.43.06-.5a7.79,7.79,0,0,0-2.72-1.6l-.27.45C239.48,37.6,240.27,38.2,241.09,38.77Zm79.17,69.11c-.44,1.53-.22,1.7,1.91,1.6C322,108.21,321,108.33,320.26,107.88ZM282.47,68.1h.64L283,65.73h-1.6C281.59,66.69,282.58,67.18,282.47,68.1ZM197.09,22.53c2,.3,2.08.26,2-1.15C198.4,21.75,197.62,21.86,197.09,22.53Zm-1.79-.29c-.6-1.06-1.63-.84-2.43-1.13C193.26,22.4,194.37,21.88,195.3,22.24ZM233,31.37c-.41-1-1.22-.76-2.06-.9C231.46,31.36,232,31.71,233,31.37ZM220.33,24c-.37-.29-.77-.52-1.21-.18a.46.46,0,0,0-.05.47c.23.33.36.32,1.43,0C220.39,24.07,220.38,24,220.33,24Zm109.4,83.81c-.34,1.12-.34,1.12,1,1.59Zm-117-81.86a.42.42,0,0,0-.37.06c-.37.52-.07.82.58,1.09C213.23,26.55,213.49,26.12,212.77,25.92Zm114,91.27c-.06-.23-.05-.41-.12-.44-.54-.23-1.08-.38-1.7.64Zm-112.78-90c.46,1.05,1.14.78,1.75.68ZM197,17.58c.16.26.23.48.32.49.42,0,.84,0,1.27,0l-.05-.45Zm15.71,3.79c.1,0,.2-.18.31-.28a3.41,3.41,0,0,0-.5-.19c-.07,0-.17.14-.29.25A1.21,1.21,0,0,0,212.74,21.37Zm-8.41,2.21.19.61c.17-.06.42-.08.49-.19s0-.32-.1-.55ZM306.3,88s0-.22,0-.34h-1l.1.48C305.71,88.08,306,88,306.3,88ZM265.53,53.51a1.38,1.38,0,0,0,.27.27c.08,0,.21,0,.32,0l-.3-.46Z"/><path d="M283.72,62.21c.28,1.28.64,2,1.73,2.38C285.34,63.52,285.34,63.52,283.72,62.21Z"/><path d="M288.5,64c0,.42-.12.87.63,1,.27-.65.22-1-.67-1Z"/><path d="M246,34.58a1.23,1.23,0,0,0-1.65.11,1,1,0,0,0,1.64-.15Z"/><path d="M253.66,38.11a2.32,2.32,0,0,0,.44.23c.05,0,.15-.15.22-.23a2.21,2.21,0,0,0-.4-.28S253.78,38,253.66,38.11Z"/><path class="cls-1" d="M16.48,332.39c-.89.26-1.3.65-1.22,1.16a1.43,1.43,0,0,1-.5,1.33,2.33,2.33,0,0,1-1.75.5,3.55,3.55,0,0,1-2.12-.84q-1.2-1.21-6-.24a5.74,5.74,0,0,1-3.31,0c-1.17-.34-1.71-.86-1.61-1.55s.59-1.45,1.93-2.36a13.08,13.08,0,0,1,5-1.92l3.18-.57a14.28,14.28,0,0,0,.8-3.63c.07-1.05.14-1.91.22-2.57s.3-2.16.66-4.51q1.31-8.15,1.37-9.72a47.32,47.32,0,0,0,1.24-8.53c1.23-7.46,1.62-11.24,1.2-11.33a31,31,0,0,0-4,.89,18,18,0,0,0-3.56,1.14c-.2.4-.63.42-1.31.05a2.85,2.85,0,0,1-1.38-1.34c-.38-1.08-.34-1.82.12-2.2A11.34,11.34,0,0,1,9.2,284a43.56,43.56,0,0,1,5.9-2.13,8.4,8.4,0,0,0,4.2-2.33,7.21,7.21,0,0,1,2.59-.87c.67.31,2.44.13,5.3-.52q6.89-1.77,8.52.7a3.14,3.14,0,0,1,.22,2.42,1.81,1.81,0,0,1-1.68,1.16,25.25,25.25,0,0,1-5,1.25c-3.3.83-5,1.46-5.24,1.91a4.84,4.84,0,0,0-.42.76,5.06,5.06,0,0,1-.36.68,11.32,11.32,0,0,1-.29,3.4c-.32,1.82-.62,3.76-.92,5.83-.85,5.23-1.4,8.22-1.64,9q0,.31-2.59,21.36c1.25-.29,3.29-.81,6.11-1.53s4.35-1,4.58-.91a2.47,2.47,0,0,1,.77,1q1.84,1.82.31,3.46t-5.74,2.22C19.81,331.59,17.37,332.12,16.48,332.39Z"/><path class="cls-1" d="M54.7,317.11l-.43-5.23-.19-1.22c-.31-1-.72-1.45-1.23-1.37-.91.14-2.47,1.3-4.68,3.46a48.82,48.82,0,0,0-8.62,10.7,2.8,2.8,0,0,1-1,1,3.59,3.59,0,0,1-1.21.23A4.28,4.28,0,0,1,35,323.54a9,9,0,0,1-2.23-2.3q-.47-3,1.64-9.46.19-1.27,1.27-5.61a24.35,24.35,0,0,0,1-6.58l-.09-.06a.68.68,0,0,1,.65-.88c.07-.17.57-.33,1.48-.47a4.84,4.84,0,0,1,3,.63,3.51,3.51,0,0,1,1.91,2.74c.2,1.27-.16,3.32-1.06,6.17s-1.35,4.31-1.34,4.41q1.08-1,4.1-4.22,6.84-7.53,8.67-7.82a6.09,6.09,0,0,1,3,.67,4.7,4.7,0,0,1,2.41,1.69l.24,3.54.81,4.16a14.06,14.06,0,0,1,.23,3.48l.29.42c-.17.23.16,1,1,2.18a9.67,9.67,0,0,1,1.3,2.33c0,.33-.24.9-.87,1.7a4.1,4.1,0,0,1-1.91,1.5Q55.52,322.36,54.7,317.11Z"/><path class="cls-1" d="M87.65,287.81a7.86,7.86,0,0,1,2.28,2.37,7.48,7.48,0,0,1,1.35,2.67c.1.66-.31,2-1.23,4.09-.45,1.42-.68,2.2-.69,2.33a1.57,1.57,0,0,1-.09.44,1.32,1.32,0,0,1-.11.29l-.12.22c-.06.11-.12.17-.17.18a.34.34,0,0,0-.17.1.19.19,0,0,1-.23,0,2.24,2.24,0,0,0-.88.1,2.73,2.73,0,0,1-2-.82,3.4,3.4,0,0,1-1.42-2.12,4,4,0,0,1,.34-2.31A5.06,5.06,0,0,0,85,294c0-.13-.26-.16-.72-.08-1.21.19-2.79,1.18-4.71,3s-2.75,3.61-2.47,5.41a9.26,9.26,0,0,0,2.13,4.7,13.53,13.53,0,0,1,2.36,3.33,15,15,0,0,1,2,5,4.21,4.21,0,0,1-1.46,3.89,9.84,9.84,0,0,1-5.34,2.23,9.46,9.46,0,0,1-6.59-1.3c-2-1.24-3.19-2.68-3.44-4.3-.14-.86.15-1.35.86-1.46a16.05,16.05,0,0,1,2.32.85,6.48,6.48,0,0,0,3.21.63c2-.32,3.06-1.05,3.09-2.2a8.27,8.27,0,0,0-1.56-3q-3.28-3.54-4.61-10-.42-2.67,4.24-7.29t8.1-5.55C85.18,287.41,86.94,287.4,87.65,287.81Z"/><path class="cls-1" d="M92.73,335.37c-1.38-1-2.11-1.81-2.21-2.42a66.27,66.27,0,0,1,.39-7.5c.35-4.4.67-7.3.94-8.72s.5-2.53.69-3.34q.78-3.48,1.18-6.42c.26-2,.83-4.81,1.71-8.53s1.38-6,1.54-6.86.32-1.82.52-2.89c.49-2.21.8-3.5,1-3.89.11-.64,1.13-1.4,3.08-2.27a2.06,2.06,0,0,1,2.53.77c.59.74.61,2.24.08,4.51l-.29,1.6,2.64-1q5.37-.53,6-.47a4.58,4.58,0,0,1,2.49.23,5.94,5.94,0,0,1,1.67,1.46,4.9,4.9,0,0,1,1.87,2q1,2.34-.58,6.72a15.66,15.66,0,0,1-3.77,6.35l-1.82,1.3c-.09.43-1.08,1.34-3,2.72a16.16,16.16,0,0,1-5,2.7,5.45,5.45,0,0,1-2.87.33c-1-.05-1.47.07-1.42.38-.16.64-.32,1.23-.47,1.74s-.31,1.13-.46,1.83Q96.45,333,96.22,334.48a17.22,17.22,0,0,1-.46,2.56A8.66,8.66,0,0,1,92.73,335.37Zm18.58-40.5a2.38,2.38,0,0,0-2.61-.76,14.45,14.45,0,0,0-4.57,2.66c-1.29.72-2,1.38-2.11,2-.28,1.18-.6,2.43-.94,3.73a5.24,5.24,0,0,0-.24,2.69c.45.24,1.3.13,2.56-.33a14.53,14.53,0,0,0,4-2.38c1.43-1.13,2.18-2.14,2.25-3a17.31,17.31,0,0,0,2.11-3.72A.84.84,0,0,0,111.31,294.87Z"/><path class="cls-1" d="M123.31,306.33l0-1.65a8.36,8.36,0,0,1,.22-2.6A121.09,121.09,0,0,0,125.91,289c-.1-.61.25-1,1.06-1.18.52-.29,1.27-.16,2.24.39a9.62,9.62,0,0,1,2.49,2c.77.56.89,1.77.38,3.64a22.62,22.62,0,0,0-.84,5.39c-.39,1.47-.64,2.53-.74,3.2a23.81,23.81,0,0,0-.2,3.22,8.55,8.55,0,0,1-.4,3c-.14,2.05-.75,3.39-1.82,4a2.45,2.45,0,0,1-3.15-.44,5,5,0,0,1-1.5-2.85A5.18,5.18,0,0,1,123.31,306.33Zm3.59-27.18a3.68,3.68,0,0,1-.74-1.48,1.77,1.77,0,0,1,.18-1.12,16.61,16.61,0,0,0,.82-2.47c.78-2.35,1.34-3.58,1.69-3.69a2.71,2.71,0,0,1,2.56-.32,5.06,5.06,0,0,1,2.69,1.53c1.23,1.89,1.14,4-.26,6.35a5,5,0,0,1-2.58,2.39,3.27,3.27,0,0,1-2.7.19A4.38,4.38,0,0,1,126.9,279.15Z"/><path class="cls-1" d="M144.44,279.42a3.29,3.29,0,0,1,2.38.25q1.89,1.18-.92,9.65c-.59,1.86-.73,2.76-.43,2.72a17.41,17.41,0,0,1,3.45-4.6,38.42,38.42,0,0,1,3.62-3.56c.51-.37,1.07-.72,1.66-1.08s.94-.56,1-.63a7.14,7.14,0,0,1,3.71-1.24c1.43-.09,2.37.22,2.79.93a1.4,1.4,0,0,0,1.1,1.08l.45.39c.07.41-.21,1-.82,1.73a3.74,3.74,0,0,1-2,1.37,8,8,0,0,0-2.58,1.22c-1,.65-1.89,1.31-2.77,2s-1.54,1.2-2,1.56-1,.81-1.69,1.39a19.19,19.19,0,0,0-3.27,4,16.55,16.55,0,0,0-1.94,3,7.14,7.14,0,0,0-.67,2.95,17.46,17.46,0,0,0-.14,2.86,6.22,6.22,0,0,1-.78,2.5,3.53,3.53,0,0,1-1.42,1.59c-.51.23-1.26,0-2.24-.59-1.75-.92-2.65-2.07-2.68-3.44s.1-3.95.39-7.73a47.08,47.08,0,0,1,1.13-8.48,42.17,42.17,0,0,1,2.34-8.74A3.35,3.35,0,0,1,144.44,279.42Z"/><path class="cls-1" d="M194.09,295.94a7.52,7.52,0,0,1-2.25,3.36,6.33,6.33,0,0,1-3.12,1.73,3.36,3.36,0,0,1-2.8-1,13.34,13.34,0,0,1-3.19-4.95L180.39,298c-.3.46-.66,1-1.08,1.57a15.66,15.66,0,0,0-1.55,2.11q-.37,1.08-3.95,3.12a5.84,5.84,0,0,1-2.5.46c-1,0-1.58-.1-1.61-.33a.92.92,0,0,0-.1-.37.79.79,0,0,0-.35,0,10.4,10.4,0,0,0-2.6-1.23,4.86,4.86,0,0,1-1.3-2.29,21.57,21.57,0,0,1,.13-5.16q-.61-4.43,2.8-10.77t6.94-9.22a4.19,4.19,0,0,1,2.68-1.59,5.34,5.34,0,0,1,3.06.15,10.12,10.12,0,0,1,3.08,2.24,22,22,0,0,1,2.8,3.23s.21.52.61,1.42a3.87,3.87,0,0,1,.51,1.52,15,15,0,0,0,.31,2.76,20.66,20.66,0,0,0,0,5.77,2.86,2.86,0,0,0,.66,2c.4.36,1,.27,1.75-.27a2.19,2.19,0,0,1,2.58.06A2.11,2.11,0,0,1,194.09,295.94Zm-22.27.63q.41,2.67,2.9.64a10.65,10.65,0,0,0,2.39-2.71c.68-1.3,1.54-3.07,2.6-5.31a14.76,14.76,0,0,0,1.94-5.53q-1.25-2.45-2.34-2.52c-1.42.23-3.09,2.2-5,5.93a15.77,15.77,0,0,0-2.1,5.78A19.39,19.39,0,0,0,171.82,296.57Z"/><path class="cls-1" d="M196.44,278.55c-.21,0-.37-.33-.49-1.09l-.06-.38c0-.16-.16-.29-.41-.41a2,2,0,0,1-.61-.41c-.15-.16-.07-.55.25-1.17s.64-1,1-1.08.87-.27,1.64-.49l2-.63a5.77,5.77,0,0,0,3.24-2.22q1.73-7.91,2.8-9.56c2-1.45,3.64-1.45,4.91,0a4.24,4.24,0,0,0,.58.49c.26.19.4.34.42.44a5.35,5.35,0,0,1,0,.86,70.18,70.18,0,0,1-2.23,7.21,10,10,0,0,0,2.44-.38,10.07,10.07,0,0,1,3.54-.79q3.19-.49,4,3c.47,1.33-.57,2.2-3.1,2.59-5.19,1-7.8,1.66-7.81,1.92a6.78,6.78,0,0,0-.85,2.55c-.33,1.51-.58,2.92-.74,4.25Q206.41,293,208.9,295q1.32,1,4.44-2.49a2.51,2.51,0,0,1,2.29-1.06,1.77,1.77,0,0,1,1.48,1.45,4.67,4.67,0,0,1-.31,2.81,9.24,9.24,0,0,1-3.75,3.94,7.25,7.25,0,0,1-4.57,1.41,13.41,13.41,0,0,1-4.9-2.19,7.54,7.54,0,0,1-1.93-2.66,16.06,16.06,0,0,1-.77-3.16l-.34-2.2q-.28-1.75.61-11.56c.07-.58-.23-.91-.89-1a7.93,7.93,0,0,0-2.28.13A3.83,3.83,0,0,1,196.44,278.55Z"/><path class="cls-1" d="M223.12,294.73l-.62-1.47c-1.31-.42-1.87-1.18-1.68-2.3q.78-2,2.53-9c1.16-4.68,1.8-7.36,1.9-8.05a2.61,2.61,0,0,1,.69-2.53c.86-.86,1.91-.76,3.17.29a7,7,0,0,1,2.33,4.47,24.34,24.34,0,0,1-.9,5.48q-1,4.56-2.19,8.21a36.11,36.11,0,0,1-1.59,4.49,1.66,1.66,0,0,1-1.22,1Zm3.88-40a6.37,6.37,0,0,1,2.94.32,15.87,15.87,0,0,0,2.44,2.66,6.08,6.08,0,0,1,2.1,3q.53,3.27-3.14,3.84a5.48,5.48,0,0,1-3.74-1.29,5.37,5.37,0,0,1-2.55-3.57,8.86,8.86,0,0,1,1-2.61A15.41,15.41,0,0,0,227,254.69Z"/><path class="cls-1" d="M242.07,269.87a17.16,17.16,0,0,1,6.23-5c2.94-1.18,5.11-1.23,6.53-.15q3.16.82,4.26,4.86,1.59,6.22-2.12,13.89a24.84,24.84,0,0,1-6.65,8.29q-1.77,1.68-6.74,2.77a4.94,4.94,0,0,1-3.19-1c-2.66-2-4-4-4-5.85l-.12-1.77c-.29-.22-.39-.41-.28-.58a3.35,3.35,0,0,1,.22-.35c.3,0,.36-.3.19-.77a6.52,6.52,0,0,1,.1-2.86,18.94,18.94,0,0,1,1.15-4.07A25.31,25.31,0,0,1,242.07,269.87Zm10.19,8.58c.05-.19.13-.59.24-1.21a8.22,8.22,0,0,1,.36-1.42,6.2,6.2,0,0,0-.06-2.36c-.17-1.25-.47-2-.92-2.16a2,2,0,0,0-1.4,0,7.17,7.17,0,0,0-1.6,1.26q-5,5.77-5.29,11.5a4.23,4.23,0,0,0,.86,2.79,1.77,1.77,0,0,0,2.24.16,6.75,6.75,0,0,0,2.49-2.07c.69-.91,1.14-1.51,1.35-1.81a9.44,9.44,0,0,0,.54-.78,3.69,3.69,0,0,0,.4-1c.12-.41.21-.71.29-.9a10,10,0,0,0,.27-1C252.13,279,252.21,278.64,252.26,278.45Z"/><path class="cls-1" d="M271.86,277.46c.05,0,1-1.25,2.77-3.71q5.07-6.94,8.32-7.61a3.74,3.74,0,0,1,3.24,1.29,6.87,6.87,0,0,1,1.95,4c.05.3.13,1.18.25,2.61l.68,4.34c.73-.32,1.45-.67,2.17-1a19.71,19.71,0,0,1,4.18-1.67q.1,2.16-1.92,5.87c-1.36,2.48-2.82,3.83-4.4,4.08s-3.28-.58-4.68-2.54a15.35,15.35,0,0,1-1.69-4.88l-.53-3.35c-.08-.56-.18-.83-.28-.81q-.62.09-5.41,7t-6.93,7.27a4.68,4.68,0,0,1-1.53-.34,6.47,6.47,0,0,1-1.58-.65c-.65-.47-1.17-2-1.58-4.59s.36-7.22,2.27-13.91A26.18,26.18,0,0,0,268,266a19.36,19.36,0,0,1,2.35-5.9,10.22,10.22,0,0,1,1.23-.11,5.82,5.82,0,0,1,2.08.61,3.46,3.46,0,0,1,2,1.95,9.77,9.77,0,0,1-1.22,6.12,23.3,23.3,0,0,0-1.44,5.28,20.2,20.2,0,0,0-1.16,3.54Z"/><path class="cls-1" d="M346.24,272.2a7.49,7.49,0,0,1-2.24,3.35,6.36,6.36,0,0,1-3.12,1.74,3.37,3.37,0,0,1-2.8-1,13.19,13.19,0,0,1-3.19-5l-2.35,2.94c-.29.46-.65,1-1.08,1.57a14.54,14.54,0,0,0-1.54,2.11q-.37,1.08-4,3.11a5.64,5.64,0,0,1-2.49.47q-1.56,0-1.62-.33a1,1,0,0,0-.09-.38.89.89,0,0,0-.35,0,10.27,10.27,0,0,0-2.61-1.23,4.84,4.84,0,0,1-1.29-2.29,20.59,20.59,0,0,1,.13-5.17q-.61-4.41,2.8-10.76t6.94-9.23a4.18,4.18,0,0,1,2.67-1.58,5.43,5.43,0,0,1,3.06.14,10.24,10.24,0,0,1,3.08,2.25,21.45,21.45,0,0,1,2.8,3.23s.22.52.62,1.42a3.87,3.87,0,0,1,.51,1.52,14.06,14.06,0,0,0,.31,2.76,19.93,19.93,0,0,0,0,5.77,2.78,2.78,0,0,0,.66,2c.39.35,1,.26,1.75-.27a2.19,2.19,0,0,1,2.58.06A2.11,2.11,0,0,1,346.24,272.2Zm-22.27.63q.42,2.67,2.91.64a10.76,10.76,0,0,0,2.38-2.71q1-2,2.6-5.31a14.58,14.58,0,0,0,1.94-5.53q-1.23-2.46-2.34-2.52c-1.42.22-3.08,2.2-5,5.93a15.68,15.68,0,0,0-2.09,5.78A19.83,19.83,0,0,0,324,272.83Z"/><path class="cls-1" d="M370.65,267.81l-.43-5.23-.19-1.22c-.31-1-.72-1.45-1.22-1.37-.92.14-2.48,1.3-4.69,3.46a48.44,48.44,0,0,0-8.61,10.7,2.8,2.8,0,0,1-1,1,3.59,3.59,0,0,1-1.21.23,4.38,4.38,0,0,1-2.41-1.18,9,9,0,0,1-2.23-2.3c-.31-2,.23-5.18,1.65-9.46.12-.85.55-2.72,1.26-5.61a24.35,24.35,0,0,0,1-6.58l-.09-.06a.69.69,0,0,1,.65-.88c.07-.17.57-.33,1.48-.47a4.83,4.83,0,0,1,3,.63,3.49,3.49,0,0,1,1.91,2.74c.2,1.27-.15,3.32-1.06,6.17s-1.35,4.31-1.34,4.41c.73-.68,2.09-2.09,4.1-4.22,4.56-5,7.46-7.63,8.67-7.82a6,6,0,0,1,2.95.67,4.7,4.7,0,0,1,2.41,1.69l.24,3.54.81,4.16a13.5,13.5,0,0,1,.23,3.47l.3.43c-.18.23.15,1,1,2.18a9.12,9.12,0,0,1,1.3,2.33c.05.33-.24.9-.87,1.7a4.13,4.13,0,0,1-1.9,1.5Q371.46,273.06,370.65,267.81Z"/><path class="cls-1" d="M406.83,259a41.74,41.74,0,0,0,.64,6.06c.43,2.79.4,4.25-.1,4.37q-3.19,1-4.47-.16a3.79,3.79,0,0,1-1.94-2.5c-.08-.82-.18-1.63-.31-2.44l-.22-1.45c-.27-.06-.6.17-1,.7s-1.1,1.42-1.89,2.32a17.92,17.92,0,0,1-4.73,5.45,9.52,9.52,0,0,1-5.17,1.55c-1.34.06-2.56-.69-3.66-2.23a9.35,9.35,0,0,1-1.77-5.1,23.28,23.28,0,0,1,2.18-10.48,17.61,17.61,0,0,1,3.74-5.49q5.85-6.45,11.29-5.58c1.58.48,2.46.27,2.63-.64a11.17,11.17,0,0,0,.41-1.59,15.55,15.55,0,0,1,.52-1.91q1-6.24,2-9.94c.65-2.47,1.15-4.4,1.51-5.81,1.2-3.62,2.64-5,4.32-4.26a9.9,9.9,0,0,1,1.7,1.14,4.28,4.28,0,0,1,1,1.79,5.43,5.43,0,0,1-.33,3.4,102.71,102.71,0,0,0-4,14c0,.27-.12,1.15-.32,2.67s-.34,3-.4,4.46-.24,2.22-.54,2.27Q406.88,251.24,406.83,259Zm-11,.63a40.43,40.43,0,0,0,3-5q2-3.66,1.87-4.23c-.06-.38-.5-.66-1.34-.84a3.94,3.94,0,0,0-2.42.22q-2.19.9-5.27,6.16t-3.14,8.87c-.06.95.14,1.38.6,1.31a4.4,4.4,0,0,0,1.26-.39,4.78,4.78,0,0,0,1.25-1c.45-.45.78-.81,1-1.05s.63-.76,1.23-1.55S395.09,260.49,395.79,259.6Z"/><path class="cls-1" d="M449.89,227.78c.08.51.5.7,1.26.58a31.26,31.26,0,0,0,3.23-.81,6.57,6.57,0,0,1,1-.31,2.22,2.22,0,0,1,1.4-.06,3.45,3.45,0,0,1,.74,2.53c0,1.25-.22,2-.69,2.29-.06,0-.56.25-1.53.71a70.39,70.39,0,0,1-6.79,1.92c-.93,2.74-1.46,4.37-1.62,4.88a3.41,3.41,0,0,0-.2.93l-2.15,7.2c-.21,0-.28.2-.24.5q.45.87.12,1.23a6.6,6.6,0,0,0-.88,1.38c.3.22.26.82-.1,1.81a11.8,11.8,0,0,1-.46,4.05,16.2,16.2,0,0,0,.42,1.72c.09.25.23.33.43.25a10.24,10.24,0,0,0,2-.4q1.07-.71-.23,5.49a22.14,22.14,0,0,1-1.92,3.46c-.7,1-1.17,1.55-1.43,1.59q-6.4.91-6.44-6.32a10.87,10.87,0,0,0,.12-1.74,5.73,5.73,0,0,1,.46-2.56.48.48,0,0,0-.11-.69,17.78,17.78,0,0,1,.67-4.7c-.37-.36-.31-.82.17-1.39s.62-1,.4-1.19-.2-.72,0-1.49.54-1.64.88-2.63a17.33,17.33,0,0,0,.59-2,14.25,14.25,0,0,1,.77-3.32c.58-2.06,1-3.35,1.15-3.84q.56-.4-.57-.42A32.33,32.33,0,0,0,436,237a10,10,0,0,1-4.84-.1,2.15,2.15,0,0,1-.62-2.47,2.6,2.6,0,0,1,2.18-2l9.61-2.36,0-1.32c.15-.34.3-.66.43-1l.26-.58a1.73,1.73,0,0,0,.1-.37,6.3,6.3,0,0,0,.08-1.49,9.86,9.86,0,0,0,.91-4.12,24.65,24.65,0,0,0,1.33-3.48q1.55-5.07,5.15-3.46c1.68.78,2.51,1.64,2.51,2.58a4.16,4.16,0,0,1-.29,1.64,15.56,15.56,0,0,0-.66,2.79,9.18,9.18,0,0,0-1.34,4.42A7,7,0,0,1,449.89,227.78Z"/><path class="cls-1" d="M462.59,233.2c1.3-2.28,3-3.16,5-2.64a4.21,4.21,0,0,1,1.29,2.56,5.54,5.54,0,0,1-.38,3.29,23.15,23.15,0,0,0-2.44,11.3c-.3,2.43.11,3.69,1.21,3.78,1.48.14,2.86-.85,4.14-2.94a26.41,26.41,0,0,0,3-8.23,17.26,17.26,0,0,0,.3-2.58,13.23,13.23,0,0,1,.27-2.26,4.73,4.73,0,0,1,1.81-3.4c1.06-.84,1.94-1.05,2.63-.64a3.15,3.15,0,0,1,2.58,3.1,11.18,11.18,0,0,1-.62,5.51c-.68,2-1.18,3.58-1.5,4.88a22.3,22.3,0,0,1-2.71,5.6,14.77,14.77,0,0,1-4.08,4.81,9.78,9.78,0,0,1-8.49,2.49c-1-.67-1.7-1.19-2.11-1.54a8.6,8.6,0,0,1-2.86-4.54c-.6-2-.54-5.24.18-9.62S461.43,234.78,462.59,233.2Z"/><path class="cls-1" d="M484.8,229a1.63,1.63,0,0,1-.5-.9,4.08,4.08,0,0,1,.4-1.74c.31-.83.63-1.25,1-1.28s1.09-.14,2.28-.36a8.54,8.54,0,0,0,2.35-.64,1.61,1.61,0,0,0,.76-1.13,20.06,20.06,0,0,1,1.08-3q1.86-5.58,2.79-6.59a4.86,4.86,0,0,1,2.32-1.38,4.12,4.12,0,0,1,2.81.27,2.6,2.6,0,0,1,.57,3.18,19.23,19.23,0,0,1-1.07,2.58c-.51,1.07-.88,1.91-1.09,2.51-.68,1.35-.7,2-.07,2a19.94,19.94,0,0,0,4.42-1.12c2.32-.75,3.8-.09,4.44,2,.34,1.19.33,2,0,2.26a9,9,0,0,1-3.44.93,34.93,34.93,0,0,1-4.53,1.14,13,13,0,0,0-2.6.6,2.28,2.28,0,0,0-1.22,1.67,2.16,2.16,0,0,0-.4.92c-.21.65-.66,1.94-1.34,3.87a78.47,78.47,0,0,0-1.18,12.42,3.29,3.29,0,0,0,.48,2.1c.32.37,1.17.52,2.56.46,2.48-.12,5-1.28,7.65-3.45l1.86-1.54c.26-.66.87-.42,1.83.73a3.83,3.83,0,0,1,.6.84q.47,3-2.45,5.29a17.49,17.49,0,0,1-6.14,3.57,16,16,0,0,1-5.14,1,6,6,0,0,1-3.59-1.55,8.75,8.75,0,0,1-2.36-2.63l-.48-.55c-.34-.2-.65-1.49-.91-3.87a27.27,27.27,0,0,1-.25-5.07q.18-1.89,1.39-8.08l1.37-4.74-3.18-.36A1.29,1.29,0,0,1,484.8,229Z"/><path class="cls-1" d="M516.56,227a17.16,17.16,0,0,1,6.23-5q4.41-1.77,6.52-.16,3.18.84,4.27,4.87,1.59,6.22-2.12,13.89a24.84,24.84,0,0,1-6.65,8.29c-1.18,1.12-3.42,2-6.74,2.76a4.86,4.86,0,0,1-3.19-1q-4-3-4-5.85l-.12-1.77c-.29-.22-.39-.41-.28-.58a3.35,3.35,0,0,1,.22-.35c.3,0,.36-.3.19-.77a6.52,6.52,0,0,1,.1-2.86,18.63,18.63,0,0,1,1.15-4.08A25.6,25.6,0,0,1,516.56,227Zm10.19,8.58c0-.19.13-.59.24-1.21a8,8,0,0,1,.36-1.42,6.25,6.25,0,0,0-.06-2.37c-.17-1.24-.47-2-.92-2.15a2.09,2.09,0,0,0-1.4,0,7.65,7.65,0,0,0-1.6,1.27q-5,5.76-5.29,11.5a4.23,4.23,0,0,0,.86,2.79c.53.57,1.28.62,2.24.15a6.73,6.73,0,0,0,2.49-2.06c.69-.91,1.14-1.51,1.35-1.81a9.44,9.44,0,0,0,.54-.78,3.69,3.69,0,0,0,.4-1c.12-.41.21-.71.29-.9s.16-.54.27-1S526.7,235.81,526.75,235.62Z"/><path class="cls-1" d="M557.74,216.25a4.12,4.12,0,0,1,2.1.45,4.52,4.52,0,0,1,1.82,1.2c1.68,2.07,2.15,3.77,1.42,5.08-1.4,2.34-3.12,3.47-5.16,3.37-.27,0-.62-.32-1.08-.92A5.2,5.2,0,0,1,556,224c0-.25-.54.34-1.52,1.76s-1.54,2.25-1.71,2.49a38.56,38.56,0,0,0-3.06,7.61q-1.65,5.2-2,6.82a22.63,22.63,0,0,1-.67,2.44,2,2,0,0,1-.65,1,3.64,3.64,0,0,1-1.75.08,3.44,3.44,0,0,1-1.66-.41q-3.29-2.06-1.17-6.52c.24-.76.64-2.71,1.19-5.83s.88-4.88,1-5.26a3.38,3.38,0,0,0-.45-1.84,1.45,1.45,0,0,0-1.39-.44c-1.07.16-1.72-.57-2-2.19a4.12,4.12,0,0,1,1.25-3.47,7.15,7.15,0,0,1,3-1.13,4.77,4.77,0,0,1,3,.19c.68.37,1.47,1.93,2.37,4.7a25.66,25.66,0,0,0,1.54-2.15c.71-1.07,1.22-1.81,1.52-2.22Q556.08,216.51,557.74,216.25Z"/><path class="cls-1" d="M568.62,218.53c.18-.81.84-1.11,2-.89a5.52,5.52,0,0,1,3.1,1.89,3,3,0,0,1,1,2.38,59.82,59.82,0,0,1-.62,7.27,27,27,0,0,0-.13,8.16,40.48,40.48,0,0,1,.13,4.81c-.07.9-.31,1.35-.72,1.36a3.88,3.88,0,0,1-3.46-1.41,10.08,10.08,0,0,1-2.37-4.46c-.1-2-.16-3.35-.18-4.18Q568.05,221,568.62,218.53Zm3.17-17.64a12.45,12.45,0,0,1,3.66.52q4.54,6.61-.08,9.44c-.32.31-.81.31-1.48,0a4.07,4.07,0,0,1-2.22-1c-1-.68-1.47-1.15-1.5-1.4A13.78,13.78,0,0,1,570,204C570.19,202.14,570.78,201.1,571.79,200.89Z"/><path class="cls-1" d="M593.66,211.19a7.52,7.52,0,0,1,2.18.52,7.28,7.28,0,0,1,4.47,1.64,17,17,0,0,1,2.2,4.64c.78,1.65,1,2.76.53,3.35a5,5,0,0,0-.34.6q0,.08.15.21a2.37,2.37,0,0,1-.22,1.12q-.69,4,.15,5.9,1.77,3.39,4.43-.07a3.28,3.28,0,0,1,2-1.16c.59,0,.91.07,1,.32a1.07,1.07,0,0,0,.82.26q.31,0,.42.72a6.25,6.25,0,0,1-.43,3.26c-.64.88-.94,1.44-.9,1.7-.22.29-.54.7-1,1.24a6.6,6.6,0,0,1-3.33,1.38,5.5,5.5,0,0,1-3.36-.33c-2.25-1.11-3.69-2.36-4.33-3.77l-.5-.7-2,1.79L594,236.08c-.33.57-.64.88-1,.93l-.76.12c.06.35-.59.9-1.93,1.62a11,11,0,0,1-3.23,1.29c-.83.33-1.94,0-3.33-.89a6.46,6.46,0,0,1-2.62-2.78c-.63-1.72-.63-4.13,0-7.21a30.83,30.83,0,0,1,3.82-9.48,21.24,21.24,0,0,1,6.76-7.33A7.73,7.73,0,0,1,593.66,211.19Zm2.52,7.63c-.3-.52-.6-.79-.91-.79a4.68,4.68,0,0,0-1.82.83c-1.33,1.14-2.75,3.42-4.27,6.82s-2.18,5.75-2,7l.5.7c.56-.09,1.61-.92,3.16-2.48a24.65,24.65,0,0,0,2.76-3.08c.28-.49.57-1,.87-1.66a19.16,19.16,0,0,1,1.32-2.27,7.34,7.34,0,0,0,1.12-2.55A3.21,3.21,0,0,0,596.18,218.82Z"/><path class="cls-1" d="M612.29,229.25q.47-9.51,1.05-11.78c.16-1,.29-1.94.42-2.79q1.14-7.74,2.71-10.63c0-.11.08-.31.14-.61a6,6,0,0,1,.14-.61,4.15,4.15,0,0,1,.2-2.21,12.58,12.58,0,0,0,.95-2.88l1.45-4.67a4.51,4.51,0,0,1,2-3.27l-.09-.06a3.1,3.1,0,0,1,1.24-1.28,4.48,4.48,0,0,1,1.72-.74,2,2,0,0,1,2.56,1.94,4.6,4.6,0,0,1-.18,2.83h.07a12.3,12.3,0,0,1-.85,3.25q-.34.53-2.43,6.69a58.28,58.28,0,0,0-2.68,9.77c-.07.22-.19.68-.37,1.38s-.28,1.11-.31,1.22l-.49,4.91,0,1.64c-.46,2.36-.71,3.8-.73,4.33a8.79,8.79,0,0,0-.2,1.43,16.05,16.05,0,0,1-.29,1.92,28.2,28.2,0,0,0-.31,6.51l0,.32a4.84,4.84,0,0,1-.55,2.66,1.74,1.74,0,0,1-1.79.82q-2.33-.42-2.88-3.25A30.18,30.18,0,0,1,612.29,229.25Z"/><path class="cls-1" d="M638.74,201a7.1,7.1,0,0,1,2.89-1,5.57,5.57,0,0,1,2.4-.07,2.6,2.6,0,0,1,.59-.25,4,4,0,0,1,2.59,1.16,9.37,9.37,0,0,1,2.21,2.15q.87,5.55,0,5.69c-.25,0-.36.21-.31.52.11.71-.38,1.59-1.49,2.65a6.17,6.17,0,0,1-3.19,1.82,4,4,0,0,1-1.83-.77,2.27,2.27,0,0,1-1.09-1.5,23.05,23.05,0,0,1,1.26-2.15,5.4,5.4,0,0,0,1-3.51c-.06-.41-.53-.54-1.39-.41a24.07,24.07,0,0,0-5.45,4.52c-.21.65-.47,1-.77,1.05,0-.05,0-.07-.13-.06a4.11,4.11,0,0,0-.76.9A12.52,12.52,0,0,0,634,214a6.18,6.18,0,0,0-.6,2.39l-.12.25.06.38a1.71,1.71,0,0,0,0,.63c.13.81,1.39,1.84,3.8,3.1a46.23,46.23,0,0,1,5.06,3,6,6,0,0,1,1.91,2,5.62,5.62,0,0,1,1.06,2.32,4.41,4.41,0,0,1-2.08,4.42,13.89,13.89,0,0,1-6.21,2.41,12.72,12.72,0,0,1-6.71-.59q-3-1.17-3.21-2.34c-.15-.78,0-1.29.58-1.53a2.45,2.45,0,0,1,2.08-.64c1.1,0,2.45,0,4.05,0a13.13,13.13,0,0,0,2.81-.75c.85-.34,1.27-.61,1.23-.81s-.28-.45-.74-.75a2,2,0,0,0-1.37-.33c0-.2-1.17-.89-3.41-2.08s-3.39-2-3.46-2.46a.19.19,0,0,1,.06-.16l-.06-.38c-.36.05-.76-.38-1.22-1.29a9.49,9.49,0,0,1-.89-2.75q-.63-3.94,3.4-9.37A23.82,23.82,0,0,1,638.74,201Z"/></g></g></svg>