<svg xmlns="http://www.w3.org/2000/svg" xmlns:xlink="http://www.w3.org/1999/xlink" viewBox="0 0 22.99 22.99"><defs><style>.cls-1{fill:none;}.cls-2{clip-path:url(#clip-path);}.cls-3{fill:#0f7b8d;}.cls-4{fill:#fff;}</style><clipPath id="clip-path"><rect class="cls-1" width="22.99" height="22.99"/></clipPath></defs><title>Datový zdroj 10</title><g id="Vrstva_2" data-name="Vrstva 2"><g id="Vrstva_1-2" data-name="Vrstva 1"><g class="cls-2"><path class="cls-3" d="M23,11.5A11.5,11.5,0,1,1,11.5,0,11.48,11.48,0,0,1,23,11.5"/><path class="cls-4" d="M10.6,13.59h0l.1-.08h0a1.51,1.51,0,0,0-.21.23h0l.14-.16m1.29-.54a1.94,1.94,0,0,0-.43.11l-.29.07a2.82,2.82,0,0,1,.72-.18m1.75.41a1.07,1.07,0,0,1,.18.19h0l0,0a1.7,1.7,0,0,0-.22-.24l.12.08m.42.77h0s0,.06,0,.09a.25.25,0,0,0,0-.07m-3,1.63.11.09a1.78,1.78,0,0,1-.27-.17l.16.08m-.86-1a1.1,1.1,0,0,1,0-.18.67.67,0,0,0,.09.42.29.29,0,0,0,0,.09,1.33,1.33,0,0,1-.13-.33m2.9,1.09h0a1.26,1.26,0,0,1-.26.13,1,1,0,0,0,.23-.13m-.58,0a.37.37,0,0,1-.12.07h-.09a.7.7,0,0,0,.19-.06h0m-1.21-2.13h0m.32-.21a.57.57,0,0,0-.18.12l-.05-.05.17-.08h.06m1.3-.07-.13,0h0l.08,0m-.7-.67a2,2,0,0,0-.64,0s0,0,0,0l-.19.08A1.8,1.8,0,0,0,10,15.19a2.58,2.58,0,0,0,2.83,1.21,2,2,0,0,0,1.51-2.17,2,2,0,0,0-2.13-1.43"/><path class="cls-4" d="M15.05,12.73a1.19,1.19,0,0,0,.22.12,1.43,1.43,0,0,1-.28-.13h.06m-4.93-2.39,0,0,.06,0h0m5.4,1.11,0-.06.12.14-.09-.08m-4.63.26h0m-.47-1.11h0m1.75-.53h0m-3,2.27,0,0a.33.33,0,0,1,.1-.14l-.06.1M8.83,13l-.09,0,0,0h.07M15,12.15l-.09-.07a1,1,0,0,1-.08-.14l.17.21m.81-1a3.1,3.1,0,0,0-1.37-1,7.43,7.43,0,0,0-2.06-.45,4.4,4.4,0,0,0-2.75.72,3.6,3.6,0,0,0-1.71,1.9.78.78,0,0,0,0,.27,1,1,0,0,0,.09.54s0,0,0,.05l.07.09a.42.42,0,0,0,.09.14.17.17,0,0,0,.17,0,.73.73,0,0,0,.33,0l.12,0A2.73,2.73,0,0,0,10,12.6c.24-.18.49-.37.75-.53a2.53,2.53,0,0,1,.53-.24l.45-.07a4.36,4.36,0,0,1,1.63.21h0a3.12,3.12,0,0,1,.73.37,2.8,2.8,0,0,0,1.45.74.68.68,0,0,0,.77-.73,2.46,2.46,0,0,0-.55-1.18"/><path class="cls-4" d="M6,10.79H6s0,.08,0,.12l0,.11A.52.52,0,0,1,6,10.79m11.65-2h0l-.06-.17h0a.72.72,0,0,1,.09.2h0m.23,1.45a.68.68,0,0,0,0-.14h0a.62.62,0,0,1,0,.13M14.62,9s0,0,0,0l-.14-.07.13,0M7.35,8.22l-.11.13,0,0,0-.08.1-.07m3-.81h0Zm0,0,0,0h.17l-.11,0-.1,0m6.87,2.07,0,0h0l0-.05s0,.06,0,.09M6.81,10.77l.08-.1h0s0,0,0,0l-.15.09v0M6.37,11h0v0h0l0,0m11.77-.87c0-.11,0-.23,0-.34a3.84,3.84,0,0,0-1.62-2.49,8.48,8.48,0,0,0-4.31-1.39A6.63,6.63,0,0,0,7.8,7.44a4.57,4.57,0,0,0-2,2.76.13.13,0,0,0,0,.06,1.1,1.1,0,0,0,0,.18.82.82,0,0,0,.18.77c.44.48,1.06.06,1.51-.23a8.11,8.11,0,0,0,1.17-1A5.21,5.21,0,0,1,14,8.91a5.07,5.07,0,0,1,.94.53l.41.3c.28.25.53.52.81.77a2.35,2.35,0,0,0,.88.55,1.1,1.1,0,0,0,.59.12c.53-.08.54-.71.51-1"/></g></g></g></svg>
