<svg xmlns="http://www.w3.org/2000/svg" viewBox="0 0 24 16"><defs><style>.cls-1{fill:#e41419;}</style></defs><title>lifetime-support</title><g id="Vrstva_2" data-name="Vrstva 2"><g id="Chat_3" data-name="Chat 3"><g id="_Skupina_" data-name="&lt;Skupina&gt;"><g id="_Skupina_2" data-name="&lt;Skupina&gt;"><path id="_Cesta_" data-name="&lt;Cesta&gt;" class="cls-1" d="M2.5,14A.5.5,0,0,1,2,13.34L2.81,11H2.5A2.5,2.5,0,0,1,0,8.5v-6A2.5,2.5,0,0,1,2.5,0h10A2.5,2.5,0,0,1,15,2.5a.5.5,0,0,1-1,0A1.5,1.5,0,0,0,12.5,1H2.5A1.5,1.5,0,0,0,1,2.5v6A1.5,1.5,0,0,0,2.5,10h1a.5.5,0,0,1,.47.66l-.49,1.48,2.72-2a.5.5,0,0,1,.3-.1h3a.5.5,0,0,1,0,1H6.67L2.8,13.9A.5.5,0,0,1,2.5,14Z"/></g><g id="_Skupina_3" data-name="&lt;Skupina&gt;"><path id="_Složená_cesta_" data-name="&lt;Složená cesta&gt;" class="cls-1" d="M21.5,16a.5.5,0,0,1-.3-.1L17.33,13H11.5A2.5,2.5,0,0,1,9,10.5v-6A2.5,2.5,0,0,1,11.5,2h10A2.5,2.5,0,0,1,24,4.5v6A2.5,2.5,0,0,1,21.5,13h-.31L22,15.34a.5.5,0,0,1-.47.66ZM11.5,3A1.5,1.5,0,0,0,10,4.5v6A1.5,1.5,0,0,0,11.5,12h6a.5.5,0,0,1,.3.1l2.72,2L20,12.66A.5.5,0,0,1,20.5,12h1A1.5,1.5,0,0,0,23,10.5v-6A1.5,1.5,0,0,0,21.5,3Z"/></g></g></g></g></svg>