<svg xmlns="http://www.w3.org/2000/svg" viewBox="0 0 138.41 138.41"><defs><style>.cls-1{fill:none;}.cls-2{fill:#b9bdc0;}</style></defs><title>linkedin</title><g id="Vrstva_2" data-name="Vrstva 2"><g id="OR_Obraz" data-name="OR Obraz"><g id="_4_stroke" data-name="4 stroke"><g id="LinkedIn"><rect class="cls-1" width="138.41" height="138.41"/><path id="LinkedIn-2" data-name="LinkedIn" class="cls-2" d="M3.49,46.64h27v85.48h-27ZM16.29,36h-.2C6.33,36,0,29.42,0,21.13,0,12.69,6.52,6.29,16.48,6.29s16.07,6.38,16.27,14.82C32.75,29.39,26.43,36,16.29,36Zm122.12,96.17H107.82V87.89c0-11.58-4.78-19.48-15.31-19.48-8,0-12.52,5.33-14.61,10.47-.78,1.84-.66,4.42-.66,7v46.26H46.94s.39-78.36,0-85.48H77.25V60.06C79,54.19,88.72,45.82,104.17,45.82c19.17,0,34.24,12.29,34.24,38.77v47.53Z"/></g></g></g></g></svg>