<svg xmlns="http://www.w3.org/2000/svg" viewBox="0 0 61.95 53.01"><defs><style>.cls-1{fill:#2e343c;}</style></defs><title>livechat</title><g id="Vrstva_2" data-name="Vrstva 2"><g id="Messaging"><g id="row1"><path id="_2" data-name="2" class="cls-1" d="M57,47.3A11.73,11.73,0,0,0,62,38a11.61,11.61,0,0,0-4.41-8.88,19.9,19.9,0,0,0,.62-5C58.15,10.83,45.11,0,29.08,0S0,10.83,0,24.16c0,6.43,3.11,12.62,8.58,17.14a9.89,9.89,0,0,1-5.07,7.23L.2,50.31l3.5,1.37a10.69,10.69,0,0,0,3.93.68c4.52,0,9.87-2.15,14-4.84a35.13,35.13,0,0,0,14.59,0,17.42,17.42,0,0,0,10.19,3.15,18.43,18.43,0,0,0,4.38-.52c2.76,1.88,7,3.54,9.64,2.5A6.8,6.8,0,0,1,57,47.3ZM38.93,40.19a2.61,2.61,0,1,1,2.61-2.61A2.6,2.6,0,0,1,38.93,40.19Zm7.82,0a2.61,2.61,0,1,1,2.61-2.61A2.6,2.6,0,0,1,46.74,40.19Zm-.29-14.89C37.9,25.29,31,31,31,38a11,11,0,0,0,2.23,6.56A31.44,31.44,0,0,1,21.75,44L21,43.79l-.63.43c-3.46,2.35-8,4.3-11.67,4.62a14.56,14.56,0,0,0,3.48-8l.14-1-.81-.61c-5.19-4-8-9.29-8-15C3.48,12.75,15,3.48,29.08,3.48s25.6,9.28,25.6,20.69a16.55,16.55,0,0,1-.26,2.94A18,18,0,0,0,46.46,25.29Zm8.11,14.89a2.61,2.61,0,1,1,2.61-2.61A2.6,2.6,0,0,1,54.56,40.19Z"/></g></g></g></svg>