<svg xmlns="http://www.w3.org/2000/svg" viewBox="0 0 136.21 68.21"><defs><style>.cls-1{fill:#ec1305;}</style></defs><title>LIVECHAT</title><g id="Vrstva_2" data-name="Vrstva 2"><g id="Vrstva_1-2" data-name="Vrstva 1"><g id="Vrstva_2-2" data-name="Vrstva 2"><g id="Messaging"><g id="row1"><path id="_2" data-name=" 2" class="cls-1" d="M106.88,60.91a15.1,15.1,0,0,0,6.44-12,15,15,0,0,0-5.68-11.43,25.62,25.62,0,0,0,.8-6.44C108.36,13.95,91.57,0,70.92,0S33.48,13.95,33.48,31.11c0,8.28,4,16.25,11,22.07A12.73,12.73,0,0,1,38,62.49l-4.26,2.29,4.51,1.76a13.76,13.76,0,0,0,5.06.88c5.82,0,12.71-2.77,18-6.23a45.23,45.23,0,0,0,18.79,0,22.43,22.43,0,0,0,13.12,4.06,23.73,23.73,0,0,0,5.64-.67c3.55,2.42,9,4.56,12.41,3.22A8.76,8.76,0,0,1,106.88,60.91ZM83.61,51.75A3.36,3.36,0,1,1,87,48.39a3.36,3.36,0,0,1-3.36,3.36Zm10.07,0A3.36,3.36,0,1,1,97,48.39a3.36,3.36,0,0,1-3.36,3.36h0ZM93.3,32.58c-11,0-19.91,7.34-19.91,16.35a14.16,14.16,0,0,0,2.87,8.45,40.48,40.48,0,0,1-14.78-.72l-1-.27-.81.55c-4.46,3-10.3,5.54-15,5.95a18.75,18.75,0,0,0,4.48-10.3l.18-1.29-1-.79C41.62,45.36,38,38.55,38,31.2,38,16.42,52.79,4.48,70.92,4.48s33,11.95,33,26.64a21.31,21.31,0,0,1-.33,3.79A23.18,23.18,0,0,0,93.3,32.56Zm10.44,19.17a3.36,3.36,0,1,1,3.36-3.36,3.36,3.36,0,0,1-3.36,3.36h0Z"/></g></g></g><path class="cls-1" d="M13.45,14c-.91-1.72-2.5-1.73-3.94-1-1.62.86-2.22,2.27-2.85,4.07L0,15.37A14.18,14.18,0,0,1,7.08,5.88C12.33,3.1,17.79,3.27,21,9.28c3,5.73-3.13,10.94.12,15.94L13.94,29C9.7,23.31,15.06,17.05,13.45,14Zm3.08,22.93a5.4,5.4,0,1,1,9.55-5,5.4,5.4,0,1,1-9.55,5Z"/><path class="cls-1" d="M125.14,46.69A2.59,2.59,0,1,1,126.85,50,2.59,2.59,0,0,1,125.14,46.69Zm6.66-8.87a1.27,1.27,0,0,0-1-1.66,3,3,0,0,0-2.35.43l-1.69-2.83a6.8,6.8,0,0,1,5.61-.86c2.73.82,4.54,2.71,3.6,5.84s-4.75,2.68-5.32,5.49l-3.72-1.12C127.39,39.74,131.33,39.41,131.8,37.82Z"/></g></g></svg>