<svg xmlns="http://www.w3.org/2000/svg" viewBox="0 0 302.47 129.35"><defs><style>.cls-1{fill:#fff;}.cls-2{fill:#00788a;}.cls-2,.cls-3,.cls-4{fill-rule:evenodd;}.cls-3,.cls-5{fill:#e40026;}.cls-4{fill:#fec700;}</style></defs><title>Datový zdroj 2</title><g id="Vrstva_2" data-name="Vrstva 2"><g id="Vrstva_1-2" data-name="Vrstva 1"><path class="cls-1" d="M12.49,58.79a40.13,40.13,0,0,0-1.31,16.38c.11,1.1.26,2.18.42,3.27.33,1.85.73,3.69,1.16,5.53,1.58,4.19,3.52,14.37,18.46,28.78A63.2,63.2,0,0,1,35,118a19.53,19.53,0,0,0,5.7,4.87A20.44,20.44,0,0,0,53.36,126c11.56-.25,13.42-15.8,17.82-24.33a60.66,60.66,0,0,1,3-6.9c1.44-3.05,2.87-6.31,1.66-10a17.12,17.12,0,0,1-1-7,12.19,12.19,0,0,1,.47-2.33c.43-1.42,1.83-3.27,1.67-4.69.86-5.74-2-16.82-6.5-21.81-4.26-5.81-12.46-9.8-19.23-11.78A33.88,33.88,0,0,0,39.86,36a33.08,33.08,0,0,0-4.51.64c-.26.07-.52.1-.78.18a31.54,31.54,0,0,0-7.57,3,28.23,28.23,0,0,0-6.43,4.92,33.66,33.66,0,0,0-8.08,14.07"/><path class="cls-2" d="M58.24,1.36A93,93,0,0,1,70.8,4.8c15,5.24,29,15.64,47.59,12.24C97,33.55,76.45,51.08,60.24,41.25A42.58,42.58,0,0,0,44,36.34a24.58,24.58,0,0,0-10.52,1.51v0C43.75,33.7,50.71,23.46,52.26,19.57c1.13-2.82,4.32-12.9,6-18.21"/><path class="cls-3" d="M27.53,107.85s-3.22.74-4.8-1.31c-24.43-31.87-32.4-74.67-7.68-96,1.46,7.14,4.13,20.31,4.83,25.07.88,6-2.42,16.09-3.05,17.94-.35.58-.7,1.19-1,1.81C11.39,63.26,6.37,83,27.53,107.85"/><path class="cls-4" d="M15.05,10.5c10-8.67,24.38-12.86,43.19-9.14-1.66,5.31-4.85,15.39-6,18.21-1.55,3.89-8.51,14.13-18.73,18.26v0c-6,2.28-11.64,7.19-16.69,15.66.63-1.85,3.93-11.92,3.05-17.94-.7-4.76-3.37-17.93-4.83-25.07"/><path class="cls-3" d="M50,63.09c-4,2.66-10.21,6.72-13.68,9.72a25.55,25.55,0,0,1-2.43,2.13c-.15.09-.29.08-.3-.14a12.78,12.78,0,0,1,4.74-9.12c4.12-3,11.73-2.59,11.67-2.59m-1.43,46.44c5.14,1.54,9.42.59,13.87-3.21C62.81,107.85,56.85,120.42,48.61,109.53Zm-5.55-22.8s-.9,1.32-1.87,3c-2,3.85,2.53,9.23,11.37,12.58a16.86,16.86,0,0,0,7.63,1.1,9.25,9.25,0,0,0,5.36-1.83c-5.51,7.65-22.2,2.25-27.37-4.19-.43,2.47-.55,5.17.25,6.13-2.87-3.27-4.41-7.86-3.06-11.13S43.06,86.73,43.06,86.73Zm7.41-13.82s-8.1-.75-11.59,1.89-1.27,4.79-.57,5.27,5.59,2.63,4.63-3.68c1.55-1.33,5.37-2.73,6.89-3.26ZM12.7,65.44c-.11,1-.18,2-.22,3-1.23,16.4,9.76,32.94,19.7,44.64,11.3,13.3,19.27,14.36,25.12,9.36,6.13-5.26,10.18-15.72,12.43-21.83a89,89,0,0,0,4-12.65,11.41,11.41,0,0,0,0-5.25c-.85-2.74-3.14-6.85-6.19-7.1a3.85,3.85,0,0,1,.37,1.79C67.8,79.32,66.48,80.9,65,81s-2.74-1.41-2.68-3.29a4.48,4.48,0,0,1,.25-1.29.49.49,0,0,0,0-.11l0-.07a3.59,3.59,0,0,1,.17-.34c2.12-4.12,7.14-3.39,9.32-1.87a10.53,10.53,0,0,1,2.11,2.15c.12-.35.26-.71.39-1.08s.37-1,.53-1.45a9.52,9.52,0,0,0,.56-3.06s0,0,0,0a4.86,4.86,0,0,0-.17-1l-.09-.14v-.14c-.46-1.22-1.51-2-3.26-2.37-2.79-.65-9.45,3.16-13.24,5.29,2.52-2.21,8.36-8.28,10.65-9.24a6.89,6.89,0,0,1,5.18-.12c-1.53-6.58-5.56-11.64-10.62-16.93,11,5,15,20.57,15,22.86a10.58,10.58,0,0,1-.42,5.49c-.2.58-.37,1.05-.54,1.5-.79,2.14-1.53,5-.94,7.32a13.27,13.27,0,0,1,.06,6.39,91.06,91.06,0,0,1-4,13c-2.32,6.32-7,17.38-13.52,23-6.86,5.88-16.28,6.83-30.42-9.62-2.28-3-4.72-6.32-7.09-9.94A114.78,114.78,0,0,1,4.48,70.27Z"/><path class="cls-3" d="M53,80c-5.27,2-7.16,5.71-5.34,10.68,1.89,5.47,8.56,9.23,12.43,7.72,5.35-2,7.87-8.44,5.76-13.69S59.07,77.62,53,80"/><path class="cls-3" d="M141.24,112.58h-.61a12.35,12.35,0,0,1-6.76-2.1L130.82,117a17.05,17.05,0,0,0,9,2.65Zm6.34-31.94-.75,0c-7.08,0-13.23,7.36-13.88,16.71-.39,5.64,2.21,10.51,8.07,10.51a7.81,7.81,0,0,0,1.18-.09l1.44-7.3c-1.57-.23-2.44-1.59-2.28-4,.21-3,2-6.86,4.67-8.08Zm14.16.48h-8.3l-.29,1.71-.17.06A6.39,6.39,0,0,0,149.89,81l-1.4,7.06A5.44,5.44,0,0,1,152,89.86l-.17.88c-1.05,4.63-3.37,7.93-5.69,9.18l-1.39,7A12.41,12.41,0,0,0,149,103.3l.16.06c-1.12,5.74-3,8-5.48,8.83l-1.46,7.37c6.66-.47,12.84-3.79,15-14.88Zm-37.48,0-5.19,27.05h8.29l5.2-27Zm5.39-3.49a5.27,5.27,0,0,0,5.48-4.92c.19-2.71-1.66-4.7-4.65-4.7A5.23,5.23,0,0,0,125,72.88,4.34,4.34,0,0,0,129.65,77.63Zm-27.33,30.53c10.42-.11,15.13-5,15.67-12.77.29-4.2-1.68-6.91-5-8.24V87a12.46,12.46,0,0,0,6.72-10c.38-5.43-2.86-8.09-9.64-8.13l-1.57,7.91a2.28,2.28,0,0,1,2.08,2.7,5.35,5.35,0,0,1-3.59,4.9l-1.42,7.18c2.5.13,3.59,1.27,3.45,3.19-.21,3-1.82,5.31-5.21,5.65ZM96.1,68.89l-7.54,39.28H99.94l1.52-7.69H98.72l1.73-8.91h2.78l1.36-6.86H101.7l1.6-8h2.88l1.55-7.8Z"/><path class="cls-3" d="M279.59,81.22l-5.25,27.05h8.29l1.91-10c1.36-6.75,5.13-10.13,7.62-10.13,1.77,0,2,1.72,1.22,5.48l-2.95,14.66h8.23L302,91.73c1.52-7.58-.34-11-5.47-11A12.34,12.34,0,0,0,287.23,85l-.11-.06.71-3.76Zm-37,27.55a11.09,11.09,0,0,0,8.91-4.93h.11c.57,2.88,2.75,4.93,7.06,4.93,7,0,14.15-4.15,16.71-16.43a34.22,34.22,0,0,0,.77-11.12h-8.33a33.8,33.8,0,0,1-.66,9.46c-1.67,8.35-4.82,10.67-6.59,10.67-1.55,0-1.95-1.43-1.18-5.36l2.85-14.77h-8L252,92.72c-1.29,6.64-4.36,8.63-5.9,8.63-1.77,0-2-2-1.26-5.69l3-14.44H239.6l-3.46,16.37C234.79,104.17,236.8,108.77,242.55,108.77ZM224,80.74c-9,.44-14.65,8-15.24,16.41-.49,7.06,3.39,11.21,9.69,11.59l1.47-7.44c-1.54-.3-2.92-1.75-2.72-4.59.26-3.7,2.28-7.62,5.31-8.43Zm-3.16,28c9.39-.67,14.17-8,14.75-16.43.48-6.79-3.16-10.9-9.21-11.49l-1.49,7.54c1.25.42,2.46,1.61,2.26,4.51-.25,3.63-2.1,7-4.78,8.15ZM203.55,67.56l-7.8,40.71h8.3l7.85-40.71ZM185,77l.63,0c3,0,5.23,1.94,6.73,5l7.39-5.31c-3.22-6.14-8.39-8.18-13-8.18h0ZM178,100c-3.11-.87-4.77-3.67-4.47-8.07.43-6.17,3.83-12.49,8.93-14.37l1.76-8.89C172.9,69.91,165,80,164.16,92.23c-.68,9.81,4.49,15.31,12.13,16.35Zm1.06,8.81A20.73,20.73,0,0,0,194.4,102l-5.79-5.76a11.8,11.8,0,0,1-8.28,4l-1.69,8.51Z"/><polygon class="cls-5" points="158.57 125.01 161.45 125.01 163.57 113.92 160.7 113.92 158.57 125.01"/><path class="cls-5" d="M168.38,122.51c-1,0-1.76-.7-1.65-2.28.13-2,1.43-3.83,3-3.83,1,0,1.8.68,1.69,2.24-.16,2.22-1.4,3.87-3,3.87m-.4,2.66c3.78,0,6.12-3,6.38-6.72.21-3-1.5-4.68-4.22-4.68-3.62,0-6.12,3.12-6.36,6.66C163.57,123.45,165.24,125.17,168,125.17Z"/><polygon class="cls-5" points="175.84 125.01 178.67 125.01 180.31 116.44 182.78 116.44 183.26 113.92 175.5 113.92 175.01 116.44 177.48 116.44 175.84 125.01"/><polygon class="cls-5" points="195.63 113.92 192.29 113.92 189.03 118.08 188.99 118.06 189.77 113.92 186.96 113.92 184.83 125.01 187.63 125.01 188.24 121.86 189.07 120.93 190.41 125.01 193.63 125.01 191.39 118.92 195.63 113.92"/><polygon class="cls-5" points="194.45 125.01 197.32 125.01 199.45 113.92 196.58 113.92 194.45 125.01"/><polygon class="cls-5" points="200.97 125.01 203.8 125.01 205.44 116.44 207.91 116.44 208.4 113.92 200.64 113.92 200.15 116.44 202.62 116.44 200.97 125.01"/><polygon class="cls-5" points="209.97 125.01 212.73 125.01 213.45 121.15 216.86 121.15 217.31 118.69 213.94 118.69 214.37 116.44 218.51 116.44 219 113.92 212.1 113.92 209.97 125.01"/><path class="cls-5" d="M223,122.51c-1,0-1.77-.7-1.66-2.28.14-2,1.44-3.83,3-3.83,1,0,1.79.68,1.68,2.24-.15,2.22-1.39,3.87-3,3.87m-.41,2.66c3.78,0,6.13-3,6.39-6.72.2-3-1.5-4.68-4.22-4.68-3.62,0-6.12,3.12-6.37,6.66C218.16,123.45,219.84,125.17,222.57,125.17Z"/><path class="cls-5" d="M233,119.09l.52-2.69h.84a.86.86,0,0,1,.91,1,1.66,1.66,0,0,1-1.57,1.64ZM229.08,125h2.76l.65-3.45h.68l1.16,3.45h3l-1.52-4a4.69,4.69,0,0,0,2.39-4,2.66,2.66,0,0,0-3-3.11h-4Z"/><polygon class="cls-5" points="240.88 125.01 243.65 125.01 244.7 119.47 244.75 119.45 245.75 123 247.39 123 249.59 119.54 249.62 119.56 248.57 125.01 251.33 125.01 253.46 113.92 250.69 113.92 247.28 119.64 247.24 119.64 245.74 113.92 243.01 113.92 240.88 125.01"/><path class="cls-5" d="M256.9,120.79l1.49-3.46h0l.27,3.46ZM252.09,125h3l.8-1.87h3L259,125H262l-1.48-11.09h-2.65Z"/><polygon class="cls-5" points="273.57 113.92 270.23 113.92 266.97 118.08 266.92 118.06 267.71 113.92 264.9 113.92 262.77 125.01 265.57 125.01 266.18 121.86 267.01 120.93 268.35 125.01 271.56 125.01 269.33 118.92 273.57 113.92"/><polygon class="cls-5" points="272.3 125.01 279.26 125.01 279.75 122.5 275.52 122.5 275.87 120.7 278.94 120.7 279.38 118.28 276.32 118.28 276.69 116.44 280.62 116.44 281.11 113.92 274.42 113.92 272.3 125.01"/><path class="cls-5" d="M284.46,119.09l.52-2.69h.84a.86.86,0,0,1,.91,1,1.65,1.65,0,0,1-1.56,1.64ZM280.57,125h2.76l.65-3.45h.69l1.15,3.45h3l-1.52-4a4.67,4.67,0,0,0,2.39-4,2.66,2.66,0,0,0-3-3.11h-4Z"/><path class="cls-5" d="M293.21,125.17c2.45,0,4.22-1.39,4.38-3.74.12-1.76-1.22-2.29-2.82-3.29-.79-.49-.93-.81-.9-1.14a.81.81,0,0,1,.89-.75,1.75,1.75,0,0,1,1.52.92l2.09-1.66a3.78,3.78,0,0,0-3.36-1.74,3.89,3.89,0,0,0-4.12,3.56c-.13,1.87,1.24,2.6,2.49,3.37,1,.58,1.25.78,1.23,1.17s-.42.8-1.17.8a2.28,2.28,0,0,1-1.89-1.27l-2.12,1.72a4.21,4.21,0,0,0,3.78,2"/></g></g></svg>
