<svg xmlns="http://www.w3.org/2000/svg" viewBox="0 0 634.93 130.16"><defs><style>.cls-1{fill:#e3111b;}</style></defs><title>LOGO-SVG</title><g id="Vrstva_2" data-name="Vrstva 2"><g id="Vrstva_1-2" data-name="Vrstva 1"><path class="cls-1" d="M570.1,119.89l0-89.27,16.67.27-.28,17.34C589.91,41.47,598,37,608,37.16c16.81.26,26.58,11.15,26.31,28.56l.58,55.21-16.79-.27-.63-52.83c.16-9.62-5.36-15.7-14.74-15.85S586.3,58.41,586.14,68l.63,52.13Z"/><polygon class="cls-1" points="90.52 28.66 104.41 28.88 104.14 76.1 102.69 123.81 85.28 123.19 87.16 75.53 90.52 28.66"/><polygon class="cls-1" points="317.52 25.44 337.12 24.88 333.12 76.16 337.52 125.48 318.7 124.63 318.45 76.16 317.52 25.44"/><path class="cls-1" d="M88.62,9.31c.73-9.14,12.54-11.66,18.25-7.08,5.6,7.51-.6,17.56-9.37,17.27-4.35-1.61-10.09-4.74-8.88-10.19"/><path class="cls-1" d="M175.48,40.24c.19-3.17-1.52-8.78-.1-8.85,4.11-3.07,9.87-1.94,15.55-2.24-.18,24.21,6.75,48.07,3.82,73.84-4.06,31.54-45.33,32.26-67.36,19.16l7.84-13.21c11.88,9.34,26.16,10,38.57,2.26,6.89-4.61,4.94-14.48,6-21.67-7.92,11.81-24.89,14.11-38,9.09C124.35,91,116.16,70,122.38,52.63a32.57,32.57,0,0,1,25.88-22.69c9.86-1.94,22.79.25,27.23,10.3m-2.14,39.45c11-11.75,2.93-31.26-11.51-34.79-11.5-2.25-21.08,5.37-24.81,15.53-2.25,11.51,4.09,24,17,26.17,7.18,1.06,14.13-2.14,19.31-6.9"/><path class="cls-1" d="M301.56,42.95,289.65,53.12c-7-7.94-16-11.85-26.74-11.85a33.71,33.71,0,0,0-24.65,9.9c-6.59,6.54-9.8,14.77-9.8,24.66s3.21,18.12,9.8,24.66,14.85,9.76,24.65,9.76c11.06,0,20.16-4,27-12.13l11.77,10.18A50.7,50.7,0,0,1,262.91,126c-14.43,0-26.75-4.75-36.84-14.22s-15-21.6-15-35.95,5-26.33,15-36,22.41-14.35,36.84-14.35c15.54,0,28.42,5.86,38.65,17.42"/><path class="cls-1" d="M346.71,90.67a35.38,35.38,0,0,1,11.2-26.47,40.12,40.12,0,0,1,54.62,0,35.37,35.37,0,0,1,11.19,26.47,35.37,35.37,0,0,1-11.19,26.47,40.12,40.12,0,0,1-54.62,0,35.38,35.38,0,0,1-11.2-26.47m54.06,15.74a21.56,21.56,0,0,0,6.3-15.74,21,21,0,0,0-6.3-15.61,22.23,22.23,0,0,0-31.24,0,21.49,21.49,0,0,0-6.16,15.61,22,22,0,0,0,6.16,15.74,22.57,22.57,0,0,0,31.24,0"/><polygon class="cls-1" points="456.31 119.97 425.39 40.87 440.9 35.91 462.54 96.82 481.17 36.27 494.71 32.87 519.77 95.38 539.47 29.48 556.02 27.63 526.73 122.13 513.54 119.92 488.35 58.92 469.02 122.17 456.31 119.97"/><path class="cls-1" d="M0,123.46V26.34H35.3q11.53,0,19.32,7.1a22.43,22.43,0,0,1,8,17.7c0,9.34-4.62,16.57-12.46,19.51,12.46,2.23,19.6,11.71,19.6,24.11,0,8.2-2.8,15.19-8.54,20.62s-12.6,8.09-21.14,8.09Zm17.51-58H32.93c7.41,0,12.59-4.88,12.59-12,0-6.54-5.18-11.42-12.46-11.42H17.51Zm0,42.2H37.12c8.82,0,15.27-6,15.27-13.92S45.94,80.11,37,80.11H17.51Z"/></g></g></svg>