<?xml version="1.0" encoding="utf-8"?>
<!-- Generator: Adobe Illustrator 23.0.0, SVG Export Plug-In . SVG Version: 6.00 Build 0)  -->
<svg version="1.1" id="Vrstva_1" xmlns="http://www.w3.org/2000/svg" xmlns:xlink="http://www.w3.org/1999/xlink" x="0px" y="0px"
	 viewBox="0 0 900 400" style="enable-background:new 0 0 900 400;" xml:space="preserve">
<style type="text/css">
	.st0{fill-rule:evenodd;clip-rule:evenodd;fill:#E40428;}
	.st1{fill:#FFFFFF;}
	.st2{fill-rule:evenodd;clip-rule:evenodd;fill:#007889;}
	.st3{fill-rule:evenodd;clip-rule:evenodd;fill:#FEC700;}
</style>
<path class="st0" d="M422.66,334.64c-0.56,0.02-1.12,0.03-1.7,0.03c-6.7,0-12.94-2.02-19.06-5.92l-8.58,18.22
	c7.97,5.11,16.42,7.21,25.41,7.45L422.66,334.64z M440.51,244.72c-0.68-0.04-1.37-0.05-2.09-0.05c-19.93,0-37.25,20.71-39.08,47.03
	c-1.1,15.88,6.2,29.59,22.71,29.59c1.11,0,2.22-0.09,3.31-0.25l4.08-20.56c-4.44-0.63-6.89-4.45-6.42-11.12
	c0.58-8.3,5.56-19.31,13.15-22.75L440.51,244.72z M480.37,246.06h-23.36l-0.8,4.83l-0.48,0.16c-2.21-2.47-5.11-4.24-8.71-5.28
	l-3.95,19.88c3.9,0.43,7.17,2.1,9.89,5.03l-0.49,2.49c-2.95,13.02-9.47,22.31-16.03,25.84l-3.92,19.74
	c4.43-2.19,8.53-5.7,12.04-10.23l0.46,0.16c-3.17,16.17-8.33,22.59-15.44,24.88l-4.11,20.73c18.74-1.31,36.15-10.67,42.19-41.88
	L480.37,246.06z M374.87,246.06l-14.63,76.15h23.36l14.63-76.15H374.87z M390.03,236.25c8.56,0,14.89-5.92,15.44-13.86
	c0.53-7.63-4.69-13.24-13.1-13.24c-8.57,0-14.88,5.76-15.43,13.7C376.42,230.49,381.78,236.25,390.03,236.25z M313.11,322.21
	c29.31-0.32,42.58-13.96,44.11-35.97c0.82-11.84-4.72-19.47-13.96-23.2l0.02-0.31c11.45-5.61,18.2-17.6,18.93-28.19
	c1.06-15.27-8.05-22.75-27.15-22.89l-4.42,22.28c4.2,0.81,6.16,3.2,5.86,7.62c-0.47,6.76-4.38,11.84-10.11,13.78l-4.01,20.21
	c7.05,0.38,10.11,3.59,9.73,8.99c-0.6,8.59-5.12,14.94-14.68,15.91L313.11,322.21z M295.58,211.65l-21.22,110.57h32.02l4.3-21.65
	h-7.72l4.86-25.07h7.84l3.83-19.31h-8.15l4.53-22.58h8.11l4.36-21.96H295.58z"/>
<path class="st0" d="M812.16,246.35l-14.78,76.15h23.36l5.38-28.19c3.81-19,14.44-28.5,21.44-28.5c4.98,0,5.58,4.83,3.45,15.42
	l-8.31,41.27h23.15l9.28-46.56c4.28-21.33-0.96-30.99-15.39-30.99c-9.94,0-18.64,4.2-26.05,12.15l-0.3-0.16l1.98-10.59H812.16z
	 M707.9,323.9c8.88,0,19-4.83,25.07-13.86h0.31c1.62,8.1,7.76,13.86,19.88,13.86c19.75,0,39.85-11.68,47.05-46.25
	c2.45-10.59,3.2-21.49,2.17-31.3h-23.46c0.55,9.97,0.02,17.6-1.85,26.63c-4.72,23.51-13.58,30.06-18.57,30.06
	c-4.36,0-5.48-4.05-3.31-15.11l8.02-41.58h-22.55l-6.3,32.39c-3.63,18.69-12.27,24.29-16.61,24.29c-4.98,0-5.68-5.61-3.56-16.04
	l8.4-40.65h-23.02l-9.74,46.1C686.06,310.97,691.7,323.9,707.9,323.9z M655.65,245c-25.42,1.23-41.27,22.47-42.91,46.19
	c-1.38,19.88,9.54,31.56,27.27,32.62l4.16-20.95c-4.35-0.83-8.22-4.92-7.67-12.92c0.72-10.41,6.43-21.43,14.94-23.71L655.65,245z
	 M646.74,323.76c26.45-1.91,39.9-22.68,41.54-46.26c1.33-19.13-8.9-30.69-25.94-32.34l-4.21,21.21c3.52,1.18,6.93,4.54,6.37,12.69
	c-0.71,10.24-5.91,19.85-13.44,22.95L646.74,323.76z M598.1,207.88L576.13,322.5h23.36l22.12-114.62H598.1z M545.73,234.42
	c0.58-0.04,1.17-0.06,1.76-0.06c8.41,0,14.73,5.45,18.95,14.17l20.82-14.95c-9.08-17.29-23.63-23.05-36.71-23.05l-0.07,0
	L545.73,234.42z M526.17,299.11c-8.75-2.44-13.44-10.32-12.58-22.7c1.21-17.37,10.77-35.18,25.12-40.47l4.96-25.01
	c-31.86,3.6-54.09,32.09-56.47,66.42c-1.92,27.62,12.63,43.12,34.15,46.05L526.17,299.11z M529.13,323.9c16.82,0,32.1-7.01,43.21-19
	l-16.32-16.2c-6.35,6.94-15.1,11.14-23.29,11.21l-4.76,23.97C528.36,323.9,528.75,323.9,529.13,323.9z"/>
<g>
	<path class="st1" d="M57.93,183.32c-4.62,14.88-5.46,30.7-3.71,46.42c0.3,3.1,0.73,6.18,1.19,9.25c0.93,5.24,2.06,10.46,3.3,15.66
		c4.47,11.87,9.94,40.71,52.28,81.53c4.29,4.6,6.9,9.88,10.76,14.95c4.14,5.55,9.89,10.08,16.15,13.8
		c10.77,6.97,23.97,9.8,35.8,8.73c32.76-0.72,38.01-44.75,50.48-68.91c2.48-6.73,5.16-13.05,8.47-19.54
		c4.09-8.64,8.13-17.87,4.71-28.44c-2.12-7.2-3.42-13.18-2.69-19.72c0.19-2.12,0.65-4.3,1.31-6.6c1.22-4.02,5.21-9.25,4.75-13.27
		c2.42-16.25-5.8-47.64-18.41-61.76c-12.09-16.47-35.29-27.78-54.49-33.37c-10.51-3.07-21.48-3.85-32.38-3.24
		c-4.27,0.26-8.52,0.96-12.75,1.82c-0.73,0.19-1.49,0.29-2.23,0.51c-7.51,1.92-14.75,4.67-21.45,8.41
		c-6.72,3.69-12.78,8.46-18.19,13.93C70.04,154.37,62.42,168.41,57.93,183.32"/>
	<path class="st2" d="M187.54,20.66c11.3,2.23,23.13,5.42,35.57,9.76c42.53,14.83,82.04,44.28,134.79,34.66
		c-60.72,46.75-117.67,95.54-163.58,67.69c-15.43-7.78-31.99-12.07-47.01-13.04c-10.16-0.66-20.14,0.61-29.79,4.28
		c0-0.02,0-0.03,0.01-0.05c28.96-11.71,47.78-41.95,51.58-51.46C172.89,62.99,182.82,35.72,187.54,20.66"/>
	<path class="st3" d="M65.18,46.55c28.42-24.57,69.07-36.42,122.36-25.89c-4.72,15.06-9.15,28.83-15.69,47.34
		c-6.54,18.51-25.36,44.26-54.33,55.96c0,0.02,0,0.03-0.01,0.05c-16.99,6.46-32.99,20.37-47.29,44.36
		c-0.05-5.25,5.06-33.76,5.39-50.82C75.94,100.5,69.33,66.76,65.18,46.55"/>
	<path class="st0" d="M164.3,195.5c-11.29,7.54-28.92,19.04-38.75,27.53c-2.05,1.77-4.64,4.62-6.88,6.03
		c-0.42,0.26-0.83,0.23-0.84-0.37c-0.11-7.88,5.39-20.02,13.42-25.85C142.91,194.38,164.46,195.51,164.3,195.5 M160.26,327.04
		c14.55,4.37,26.67,1.68,39.29-9.07C200.46,322.29,183.6,357.89,160.26,327.04z M144.52,262.48c0,0-2.53,3.73-5.29,8.35
		c-5.56,10.91,7.17,26.15,32.2,35.64c7.06,2.67,14.11,3.76,21.64,3.12c10.11-0.83,12.63-3.77,15.18-5.19
		c-15.62,21.67-62.89,6.38-77.54-11.87c-1.21,6.99-1.55,14.65,0.71,17.36c-8.12-9.27-12.47-22.27-8.67-31.53
		C126.54,269.09,144.52,262.48,144.52,262.48z M165.51,223.34c0,0-22.94-2.14-32.83,5.33c-9.89,7.47-3.6,13.58-1.61,14.95
		c1.99,1.37,15.84,7.45,13.11-10.44c4.4-3.76,15.21-7.73,19.51-9.23C164.83,223.56,165.51,223.34,165.51,223.34z M57.73,201.79
		c-0.31,2.91-0.58,6.28-0.68,9.1c-3.49,46.48,28.51,93.2,56.67,126.34c32,37.66,54.59,40.66,71.14,26.49
		c17.37-14.87,28.85-44.51,35.21-61.82c6.4-17.45,9.74-28.29,11.19-35.83c1.32-6.92,1-10.92,0.03-14.87
		c-2.4-7.77-8.89-19.4-17.52-20.11c0.71,1.45,1.09,3.19,1.03,5.06c-0.19,5.33-3.91,9.78-8.26,9.96c-4.38,0.17-7.75-3.99-7.58-9.33
		c0.04-1.28,0.3-2.51,0.71-3.65c0.03-0.1,0.07-0.2,0.11-0.3c0.03-0.07,0.06-0.14,0.09-0.21c0.14-0.33,0.29-0.65,0.46-0.96
		c6.01-11.66,20.22-9.59,26.4-5.31c2.03,1.41,4.1,3.68,5.98,6.11c0.36-1.01,0.74-2.03,1.13-3.08c0.52-1.39,1.05-2.83,1.48-4.09
		c1.32-3.84,1.6-6.78,1.59-8.67c-0.01-0.02-0.02-0.05-0.03-0.07c-0.08-1.01-0.23-1.94-0.48-2.79l-0.26-0.41l0-0.38
		c-1.31-3.47-4.27-5.56-9.24-6.72c-7.88-1.84-26.76,8.95-37.49,14.97c7.13-6.26,23.67-23.44,30.17-26.17
		c4.89-2.05,10.14-2.09,14.68-0.33c-4.34-18.65-10.77-37.21-25.1-52.22c26.07,17.31,37.37,62.54,37.4,69.01
		c0.57,1.87,1.22,8.56-1.18,15.56c-0.56,1.64-1.05,2.96-1.53,4.24c-2.25,6.05-4.32,14.25-2.66,20.73c1.27,4.94,1.75,9.78,0.16,18.09
		c-1.51,7.89-4.93,19.04-11.46,36.82c-6.58,17.92-19.68,49.24-38.3,65.19c-19.43,16.64-46.1,19.32-86.17-27.26
		c-6.44-8.42-13.36-17.91-20.08-28.15c-22.94-31.5-40.25-66.37-50.08-100.92L57.73,201.79z"/>
	<path class="st0" d="M172.58,243.33c-14.93,5.73-20.3,16.17-15.15,30.24c5.36,15.48,24.26,26.13,35.22,21.87
		c15.17-5.74,22.29-23.91,16.31-38.77C203.1,242.07,189.87,236.68,172.58,243.33"/>
	<path class="st0" d="M100.56,322.28c0,0-9.13,2.12-13.6-3.71C17.76,228.32-4.83,107.08,65.18,46.55c4.15,20.21,7.19,35.24,11.69,59
		c4.49,23.76-4.84,57.57-6.64,62.82c-0.99,1.66-1.97,3.36-2.94,5.11C54.83,195.99,40.61,251.99,100.56,322.28"/>
</g>
</svg>
