<svg xmlns="http://www.w3.org/2000/svg" xmlns:xlink="http://www.w3.org/1999/xlink" viewBox="0 0 684.78 234.97"><defs><style>.cls-1,.cls-9{fill:none;}.cls-2{fill:#dc3832;}.cls-3{clip-path:url(#clip-path);}.cls-4{fill:#fff;}.cls-5{fill:#221f20;}.cls-6{fill:#dc373d;}.cls-7{fill:#115074;}.cls-8{fill:#f7c746;}.cls-9{stroke:#ea983f;stroke-linecap:round;stroke-linejoin:round;stroke-width:0.59px;}.cls-10{fill:#eb983e;}.cls-11{fill:#c7c8ca;}</style><clipPath id="clip-path" transform="translate(0 -4.23)"><rect class="cls-1" x="529.3" y="7.42" width="156.91" height="227.63" transform="translate(-9.2 62.7) rotate(-5.86)"/></clipPath></defs><title>Datový zdroj 2</title><g id="Vrstva_2" data-name="Vrstva 2"><g id="Vrstva_1-2" data-name="Vrstva 1"><path class="cls-2" d="M5.83,213H.61V189.73H5.83Z" transform="translate(0 -4.23)"/><path class="cls-2" d="M40.91,201.88a13,13,0,0,1-1.32,6,9.42,9.42,0,0,1-3.78,4,11.19,11.19,0,0,1-5.64,1.4,11.27,11.27,0,0,1-5.62-1.39,9.54,9.54,0,0,1-3.83-4A12.68,12.68,0,0,1,19.34,202v-1.15a13,13,0,0,1,1.35-6,9.5,9.5,0,0,1,3.81-4,11.2,11.2,0,0,1,5.63-1.4,11.2,11.2,0,0,1,5.63,1.4,9.51,9.51,0,0,1,3.81,4,12.94,12.94,0,0,1,1.35,6Zm-5.29-1.05a9.15,9.15,0,0,0-1.43-5.55,4.79,4.79,0,0,0-4.07-1.9,4.79,4.79,0,0,0-4.05,1.87,9,9,0,0,0-1.44,5.5v1.13a9.26,9.26,0,0,0,1.43,5.52,4.77,4.77,0,0,0,4.11,2,4.73,4.73,0,0,0,4-1.89A9.21,9.21,0,0,0,35.62,202Z" transform="translate(0 -4.23)"/><path class="cls-2" d="M71.73,193.61H64V213H58.76V193.61H51.1v-3.88H71.73Z" transform="translate(0 -4.23)"/><path class="cls-2" d="M109.35,203.65l-2.71,2.68V213h-5.22V189.73h5.22v10.53l2.3-2.89,6.45-7.64h6.42l-9,10.32L122.07,213h-6.21Z" transform="translate(0 -4.23)"/><path class="cls-2" d="M139,213H133.8V189.73H139Z" transform="translate(0 -4.23)"/><path class="cls-2" d="M172.37,193.61h-7.76V213h-5.22V193.61h-7.65v-3.88h20.63Z" transform="translate(0 -4.23)"/><path class="cls-2" d="M217.29,203.47h-10V213H202V189.73h16.49v3.88H207.27v6h10Z" transform="translate(0 -4.23)"/><path class="cls-2" d="M251.81,201.88a13,13,0,0,1-1.32,6,9.42,9.42,0,0,1-3.78,4,12.06,12.06,0,0,1-11.26,0,9.54,9.54,0,0,1-3.83-4,12.68,12.68,0,0,1-1.37-5.93v-1.15a13,13,0,0,1,1.35-6,9.5,9.5,0,0,1,3.81-4,12,12,0,0,1,11.25,0,9.51,9.51,0,0,1,3.81,4,12.94,12.94,0,0,1,1.35,6Zm-5.29-1.05a9.15,9.15,0,0,0-1.43-5.55,5.32,5.32,0,0,0-8.12,0,9,9,0,0,0-1.44,5.5v1.13A9.26,9.26,0,0,0,237,207.4a5.26,5.26,0,0,0,8.14.07,9.21,9.21,0,0,0,1.43-5.51Z" transform="translate(0 -4.23)"/><path class="cls-2" d="M274.42,204.46h-4.16V213H265V189.73h9.41q4.49,0,6.92,1.83a6.11,6.11,0,0,1,2.44,5.19,6.7,6.7,0,0,1-1.12,4,7.55,7.55,0,0,1-3.4,2.53l5.48,9.49V213h-5.6Zm-4.16-3.88h4.21a4.56,4.56,0,0,0,3-.92,3.14,3.14,0,0,0,1.08-2.53,3.35,3.35,0,0,0-1-2.58,4.47,4.47,0,0,0-3.12-.94h-4.19Z" transform="translate(0 -4.23)"/><path class="cls-2" d="M322.36,189.73l6.51,16.85,6.47-16.85h6.85V213H337v-6.35l.52-11L330.64,213h-3.58l-6.82-17.3.52,10.95V213h-5.22V189.73Z" transform="translate(0 -4.23)"/><path class="cls-2" d="M370.49,208.18h-9.15L359.6,213H354l9.43-23.23h4.84L377.79,213h-5.55Zm-7.74-3.88h6.33l-3.18-8.7Z" transform="translate(0 -4.23)"/><path class="cls-2" d="M397.53,203.65l-2.71,2.68V213H389.6V189.73h5.22v10.53l2.3-2.89,6.45-7.64H410l-9,10.32L410.25,213H404Z" transform="translate(0 -4.23)"/><path class="cls-2" d="M436.89,202.9h-10v6.22h11.76V213h-17V189.73H438.6v3.88H426.87v5.54h10Z" transform="translate(0 -4.23)"/><path class="cls-2" d="M460.51,204.46h-4.16V213h-5.22V189.73h9.41q4.49,0,6.92,1.83a6.11,6.11,0,0,1,2.44,5.19,6.7,6.7,0,0,1-1.12,4,7.55,7.55,0,0,1-3.4,2.53l5.48,9.49V213h-5.6Zm-4.16-3.88h4.21a4.56,4.56,0,0,0,3-.92,3.14,3.14,0,0,0,1.08-2.53,3.35,3.35,0,0,0-1-2.58,4.47,4.47,0,0,0-3.12-.94h-4.19Z" transform="translate(0 -4.23)"/><path class="cls-2" d="M496.45,206.87a2.38,2.38,0,0,0-1-2.08,14.32,14.32,0,0,0-3.76-1.53,28,28,0,0,1-4.3-1.59q-4.31-2.14-4.31-5.76a5.3,5.3,0,0,1,1.16-3.36,7.51,7.51,0,0,1,3.32-2.31,13.5,13.5,0,0,1,4.86-.83,12.28,12.28,0,0,1,4.84.9,7.57,7.57,0,0,1,3.3,2.55,6.26,6.26,0,0,1,1.17,3.73h-5.22a3,3,0,0,0-1.1-2.48,4.78,4.78,0,0,0-3.08-.89,5.13,5.13,0,0,0-3,.74,2.28,2.28,0,0,0-1.06,2,2.22,2.22,0,0,0,1.24,1.9,14.73,14.73,0,0,0,3.66,1.44,16.35,16.35,0,0,1,6.49,3,5.83,5.83,0,0,1,2,4.53,5.44,5.44,0,0,1-2.49,4.73,11.62,11.62,0,0,1-6.7,1.72,13.94,13.94,0,0,1-5.32-1,8.33,8.33,0,0,1-3.66-2.69,6.48,6.48,0,0,1-1.26-4h5.24q0,3.85,5,3.85a5.21,5.21,0,0,0,2.91-.69A2.2,2.2,0,0,0,496.45,206.87Z" transform="translate(0 -4.23)"/><g id="Big_Clown" data-name="Big Clown"><path class="cls-2" d="M450.46,168.13l0-70.53,13.17.21-.22,13.7c2.74-5.35,9.1-8.88,17.06-8.75,13.29.21,21,8.81,20.79,22.57l.46,43.62-13.28-.22L487.91,127c.13-7.6-4.23-12.4-11.64-12.53s-13,5.09-13.16,12.68l.51,41.19Z" transform="translate(0 -4.23)"/><polygon class="cls-2" points="71.51 91.81 82.49 91.99 82.28 129.3 81.12 167 67.37 166.5 68.87 128.85 71.51 91.81"/><polygon class="cls-2" points="250.88 89.27 266.36 88.83 263.21 129.34 266.67 168.31 251.82 167.64 251.61 129.34 250.88 89.27"/><path class="cls-2" d="M70,80.76c.58-7.22,9.9-9.22,14.41-5.59C88.87,81.1,84,89,77,88.81c-3.44-1.27-8-3.74-7-8" transform="translate(0 -4.23)"/><path class="cls-2" d="M138.64,105.19c.15-2.5-1.2-6.94-.07-7,3.25-2.42,7.79-1.53,12.28-1.77-.13,19.13,5.35,38,3,58.34-3.21,24.92-35.82,25.49-53.23,15.14q3.11-5.22,6.21-10.44c9.39,7.38,20.66,7.92,30.47,1.78,5.43-3.64,3.9-11.44,4.74-17.12-6.27,9.33-19.68,11.15-30,7.18-13.81-6-20.29-22.58-15.38-36.34a25.76,25.76,0,0,1,20.45-17.93c7.79-1.53,18,.2,21.51,8.14M137,136.37c8.73-9.29,2.32-24.7-9.09-27.49-9.08-1.77-16.65,4.24-19.61,12.27-1.78,9.09,3.23,19,13.44,20.68,5.67.84,11.16-1.69,15.25-5.45" transform="translate(0 -4.23)"/><path class="cls-2" d="M238.26,107.34l-9.41,8A26.91,26.91,0,0,0,207.73,106a26.61,26.61,0,0,0-19.48,7.82c-5.19,5.17-7.74,11.67-7.74,19.49s2.55,14.31,7.74,19.48,11.73,7.71,19.48,7.71c8.73,0,15.93-3.19,21.35-9.58l9.3,8a40.07,40.07,0,0,1-30.65,14c-11.4,0-21.13-3.75-29.11-11.23s-11.85-17.07-11.85-28.4,4-20.81,11.85-28.41,17.71-11.34,29.11-11.34a39.08,39.08,0,0,1,30.53,13.76" transform="translate(0 -4.23)"/><path class="cls-2" d="M273.94,145a27.94,27.94,0,0,1,8.86-20.91,31.68,31.68,0,0,1,43.15,0,29.14,29.14,0,0,1,0,41.83,31.68,31.68,0,0,1-43.15,0A28,28,0,0,1,273.94,145m42.72,12.44a17,17,0,0,0,5-12.44,16.62,16.62,0,0,0-5-12.33,17.56,17.56,0,0,0-24.68,0A17,17,0,0,0,287.11,145,17.44,17.44,0,0,0,292,157.48a17.82,17.82,0,0,0,24.68,0" transform="translate(0 -4.23)"/><polygon class="cls-2" points="360.55 163.96 336.12 101.46 348.36 97.54 365.46 145.67 380.18 97.82 390.88 95.14 410.68 144.53 426.25 92.46 439.31 91 416.19 165.67 405.75 163.92 385.85 115.72 370.59 165.7 360.55 163.96"/><path class="cls-2" d="M0,171V94.21H27.88a21.79,21.79,0,0,1,15.28,5.61,17.74,17.74,0,0,1,6.3,14c0,7.38-3.64,13.09-9.84,15.41,9.84,1.76,15.48,9.25,15.48,19.05a21.53,21.53,0,0,1-6.74,16.29c-4.43,4.29-10,6.39-16.71,6.39Zm13.84-45.8H26c5.86,0,10-3.86,10-9.47,0-5.17-4.11-9-9.85-9H13.84Zm0,33.35H29.32c7,0,12.07-4.73,12.07-11S36.3,136.7,29.21,136.7H13.84Z" transform="translate(0 -4.23)"/></g><g id="Clown"><g class="cls-3"><path class="cls-4" d="M658.9,136a71.57,71.57,0,0,1-6.23,28.64c-.75,1.81-1.57,3.59-2.41,5.35-1.51,3-3.15,5.92-4.84,8.83-4.86,6.34-13.41,22.71-46.36,39.58-3.42,2-6,4.69-9.21,7a34.63,34.63,0,0,1-12.24,5.37,36.31,36.31,0,0,1-23.16-1.27c-19.6-6.4-14.74-33.89-17.84-50.71a110.53,110.53,0,0,0-1.54-13.32c-.89-6-1.64-12.25,2.35-18,2.59-4,4.46-7.32,5.22-11.39A22.21,22.21,0,0,0,543,132c0-2.65-1.45-6.52-.44-8.86.91-2.16,1.93-4.33,3-6.45.34.34.74.28,1.09-.6,1.3-3.2,2.68-6.36,4.28-9.41,3.47-6.66,7.86-12.76,14-17.38,10.29-7.72,26.32-10.3,38.91-10.17A60.46,60.46,0,0,1,624,83a58.76,58.76,0,0,1,7.35,3.42c.41.25.84.45,1.25.72a56.07,56.07,0,0,1,11.38,9,50.19,50.19,0,0,1,8.42,11.71A60.16,60.16,0,0,1,658.9,136" transform="translate(0 -4.23)"/><path class="cls-5" d="M656.31,169.21c-.43.08-16.82,25.11-16,24.66,3-1.61,11.92.89,14.8,2.42.26.15.46-.06.55-.31,2.73-7.24,9.12-14.72,13.79-20.84,1-1.27-10.71-6.46-13.15-5.93" transform="translate(0 -4.23)"/><path class="cls-5" d="M634.75,196c-.68.14-12,11.7-12.94,12.86-.71.92-1.77,3.63-.65,3.95,3.13.87,9,2.07,12.37,3,.18,0,.25-.13.35-.29,2.18-4,12.25-12.15,17.49-14.13.54-.21-14.86-5.73-16.62-5.42" transform="translate(0 -4.23)"/><path class="cls-5" d="M546.25,182.19c-2.3-1.09,0,4.12.16,4.31a18.28,18.28,0,0,0,4.55,3.93A30.53,30.53,0,0,0,564.89,195c10.79,1,26.67-2.9,34.4-10.89.51-.54.22-4-.66-3.67-4.71,1.88-8.88,4.94-13.69,6.78a56.3,56.3,0,0,1-16.1,3.39,32,32,0,0,1-14.32-2.18c-2.58-1-8.15-3.67-8.24-6.13,0,0,0-.06,0-.08" transform="translate(0 -4.23)"/><path class="cls-6" d="M681.82,120.44l-11.72,7-1-.16-.08,0L661.52,126l-.91-.14c-.2-1.43-.46-2.87-.77-4.32l-.19,0,.17-.08.8-.43,5.52-2.9,2,.28,4.73.71,7.31,1.08Z" transform="translate(0 -4.23)"/></g><polygon class="cls-6" points="681.82 116.21 681.55 117.6 672.57 163.19 664.52 159.09 669.94 124.24 670.1 123.22 681.82 116.21"/><g class="cls-3"><path class="cls-6" d="M670.1,127.45l-5.58,35.88-.14,0-7.27-1.71-.76-.17a72.89,72.89,0,0,0,4.8-21.34,70.74,70.74,0,0,0-.53-14.19l.91.14,7.61,1.26Z" transform="translate(0 -4.23)"/></g><polygon class="cls-7" points="684.78 99.16 669.83 118.92 659.13 88.42 658.97 87.95 674.45 58.52 674.47 58.51 675.25 61.6 684.78 99.16"/><polygon class="cls-7" points="674.47 58.51 658.97 87.95 658.47 87.89 658.46 87.89 642.69 86.3 641.56 86.18 641.56 86.17 641.33 86.16 641.39 86.03 641.71 85.49 642.36 84.35 646.9 76.39 657.56 57.76 667.76 58.22 672.02 58.41 672.03 58.41 674.45 58.52 674.47 58.51"/><polygon class="cls-8" points="644.42 0.3 625.8 56.27 624.76 56.23 605.84 55.38 624.89 1.59 641.67 0.48 644.42 0.3"/><polygon class="cls-9" points="644.42 0.3 625.8 56.27 624.76 56.23 605.84 55.38 624.89 1.59 641.67 0.48 644.42 0.3"/><polygon class="cls-8" points="674.32 41.94 667.79 58.21 656.73 85.76 646.9 76.39 626.55 56.98 625.8 56.27 644.42 0.3 646.23 2.81 674.32 41.94"/><polygon class="cls-9" points="674.32 41.94 667.79 58.21 656.73 85.76 646.9 76.39 626.55 56.98 625.8 56.27 644.42 0.3 646.23 2.81 674.32 41.94"/><g class="cls-3"><path class="cls-4" d="M681.82,120.44l-.27,1.4-10.9,6.51a1.18,1.18,0,0,1-.44.14.89.89,0,0,1-.27,0,1,1,0,0,1-.88-1.2,1,1,0,0,1,.5-.72l10.63-6.35Z" transform="translate(0 -4.23)"/><path class="cls-4" d="M669.13,127.29l-4.75,36a.14.14,0,0,0,.12.14.13.13,0,0,0,.15-.1l6.42-35.75a1,1,0,0,0-.8-1.14,1,1,0,0,0-1.15.8.12.12,0,0,1,0,0" transform="translate(0 -4.23)"/><path class="cls-7" d="M669.84,123.15l-9.06-1.43-.93-.15-.19,0,.16-.09a54.07,54.07,0,0,0-18.26-31.05l1.13.11,15.77,1.59.51.06.18.48,9,25.76Z" transform="translate(0 -4.23)"/><path class="cls-4" d="M675.25,65.84,659.43,92.43a.49.49,0,0,1-.29.23.47.47,0,0,1-.38,0,.49.49,0,0,1-.29-.51.89.89,0,0,1,0-.19L672,62.64l2.43.11h0Z" transform="translate(0 -4.23)"/></g><polygon class="cls-10" points="605.85 55.38 625.8 56.27 656.72 85.76 638.89 84.01 605.85 55.38"/><g class="cls-3"><path class="cls-4" d="M646.23,7,626.8,60.84a.87.87,0,0,1-.25.38,1,1,0,0,1-1,.27,1.06,1.06,0,0,1-.75-1,1,1,0,0,1,0-.28L641.67,4.71l2.75-.19Z" transform="translate(0 -4.23)"/><path class="cls-11" d="M575.15,113.9a21.89,21.89,0,0,0-1.6-3.72c-2.51-5.81-9.09-8.28-14.34-7.74a17.54,17.54,0,0,0-7.64,3.67l-.64.53c-1.6,3.05-3,6.21-4.28,9.41-.36.88-.75.94-1.09.6-1,2.13-2,4.3-3,6.45-1,2.35.44,6.22.44,8.86a22.74,22.74,0,0,1-.41,4.22c.07.23.14.47.21.69a15.05,15.05,0,0,0,14.27,11,17.48,17.48,0,0,0,6.18-1c11.69-4.24,15.72-21.15,11.84-33" transform="translate(0 -4.23)"/><path class="cls-11" d="M617.51,120.3c-12.24-8.56-34.45-.32-35.22,16.1-.69,9.61,9.19,25.59,22.36,23.48,14.91-2.39,24.91-18.46,18.78-32.3a17.34,17.34,0,0,0-5.92-7.28" transform="translate(0 -4.23)"/><path class="cls-5" d="M587.74,133.64c6.17,1.72,11.46,3,16.69,6.9a30,30,0,0,1,7.32,8c1,1.52.93,3.69,2.08,5,.22.24.48.31.61-.07,1.58-5-3.23-10.86-6.38-14.1-4.45-4.6-14.2-10.84-20.4-6.12-.08.05,0,.4.08.42" transform="translate(0 -4.23)"/><path class="cls-5" d="M543.5,121.37c2-3,4.81-7.3,9-6,3,.94,5.24,4.27,7.09,6.62,2.19,2.79,9.55,14.36,14.2,11.09.61-.42.15-2.31-.34-2.68-3.09-2.33-6.2-3.21-9-6.3-2.57-2.85-4.76-6-7.39-8.83-5.8-6.19-10.83-3.09-14.52,3.52-.35.64.28,3.54.91,2.57" transform="translate(0 -4.23)"/><path class="cls-5" d="M548,192c2,6.71,12.09,17.52,19.83,13.08.34-.2.1-1.46-.21-1.63-3.79-2-8-2.5-11.71-4.85-3.12-2-4.88-5.34-7.79-7.46-.24-.18-.13.8-.11.86" transform="translate(0 -4.23)"/><path class="cls-5" d="M547.43,132.1l.18.28c.14.26.44.82.81.74a23.06,23.06,0,0,1,9.6,0,9.25,9.25,0,0,1,4.27,2.11c1.1,1.06,1,3.12,1.54,4.53.17.42.59,1.3,1.14,1.26l.3,0c.29,0,.26-.72.24-.87-.41-4.18-2.34-8-6.17-10-3.65-1.86-8.46-1.34-12,.43-.35.17-.1.88,0,1.1a1.72,1.72,0,0,0,.11.39" transform="translate(0 -4.23)"/><path class="cls-5" d="M563.44,139.31c-.85,3.56-3.22,6-5.33,5.54s-3.12-3.78-2.28-7.33,3.21-6,5.32-5.53,3.12,3.78,2.28,7.32" transform="translate(0 -4.23)"/><path class="cls-5" d="M608.13,152.57c-.47,1.93-2.7,3.05-5,2.51s-3.83-2.56-3.37-4.49,2.7-3.05,5-2.51,3.84,2.56,3.38,4.49" transform="translate(0 -4.23)"/><path class="cls-5" d="M589.13,176.88c3.23.65,6.59,2,8.61,4.7,3,4,.9,8.07-.68,12-.13.31-.6,3,.46,2.1,7.76-6.57,4.72-26.46-7.94-20.31-.25.12-.89,1.39-.45,1.48" transform="translate(0 -4.23)"/><path class="cls-6" d="M586.65,166.64c-1.8,10.44-9.49,17.36-19.3,15.83-10.75-1.49-18.92-11.55-17.15-22.15s12.66-17.57,23.09-15.6c10.24,1.93,15.45,9.83,13.36,21.92" transform="translate(0 -4.23)"/><path class="cls-5" d="M593.89,144.55c1.2.88,2.71,1.11,4.09,1.64a24.44,24.44,0,0,1,4.19,2.28c2.88,1.84,4.89,4.27,7.06,6.83,1.09,1.28.77-3.12.48-3.71-1.33-2.73-3.92-4.84-6.36-6.56-2.18-1.55-7.24-4.71-9.72-2.47-.39.36-.13,1.71.25,2" transform="translate(0 -4.23)"/><path class="cls-5" d="M593.25,151.16c1.58,2.74,4.54,4,7.49,4.71,2.15.54,7.13,1.61,8.86-.15.33-.34.19-1.76-.25-2-1-.47-1.69-.19-2.74-.09a23.78,23.78,0,0,1-4.6-.07c-3.38-.31-5.82-1.68-8.76-3.08-.19-.09,0,.59,0,.66" transform="translate(0 -4.23)"/><path class="cls-5" d="M659.26,135.93a71.93,71.93,0,0,1-6.21,28.65c-.77,1.81-1.57,3.58-2.43,5.36-1.49,3-3.14,5.92-4.84,8.82-4.84,6.34-13.41,22.72-46.37,39.58-3.42,2-5.94,4.69-9.18,7.05A35.09,35.09,0,0,1,578,230.76a36.26,36.26,0,0,1-23.16-1.27c-19.58-6.4-14.74-33.88-17.82-50.71a109.12,109.12,0,0,0-1.54-13.33c-.89-5.94-1.64-12.24,2.32-18,2.42-3.7,4.2-6.85,5.06-10.6a21.85,21.85,0,0,0,.57-5c0-2.64-1.45-6.51-.44-8.86.93-2.16,1.93-4.33,3-6.45.36.34.76.27,1.09-.6a101.64,101.64,0,0,1,4.54-9.84c3.42-6.5,7.74-12.43,13.78-17,10.29-7.72,26.3-10.29,38.89-10.16a60.39,60.39,0,0,1,20.1,4,58,58,0,0,1,7.34,3.42c.43.25.87.45,1.27.71a56.53,56.53,0,0,1,11.39,9,51,51,0,0,1,8.39,11.71,59.88,59.88,0,0,1,6.53,28.17M658,105a55.43,55.43,0,0,0-22.3-22.74,61.64,61.64,0,0,0-23.55-7.64,72.45,72.45,0,0,0-8.48-.84c-13-.48-28.64,3-39.49,10.4-9.57,6.55-15,17.86-19.2,28.26-.16.39-2.3,6.21-3.33,8.47a3.39,3.39,0,0,0-.4,2.19c.17,1,.3,2.08.43,3.09a31.71,31.71,0,0,1,.15,6.47,0,0,0,0,1,0,0,16.24,16.24,0,0,1-.2,1.68c-1,6.3-6.65,10.21-7.89,16.9a36.73,36.73,0,0,0-.38,13.63c1.58,8.45,2,16.29,2.74,24.28,2.21,16.36,1.17,38.43,18.77,45.64,14.37,8.51,34.42,4.13,42.69-9.14a115.63,115.63,0,0,0,60.28-59,89.61,89.61,0,0,0,5.17-14.92,70.29,70.29,0,0,0,2-15.8,66.16,66.16,0,0,0-7-31" transform="translate(0 -4.23)"/></g></g></g></g></svg>