<svg xmlns="http://www.w3.org/2000/svg" viewBox="0 0 30 30">
  <defs>
    <style>.cls-1{fill:#e41419;}</style>
  </defs>
<g id="Battery_Charge">
	<g>
		<g>
			<g>
				<path class="cls-1" d="M24.5,22h-22C1.122,22,0,20.878,0,19.5v-9C0,9.122,1.122,8,2.5,8h22c1.378,0,2.5,1.122,2.5,2.5V12h1.5
					c0.827,0,1.5,0.673,1.5,1.5v3c0,0.827-0.673,1.5-1.5,1.5H27v1.5C27,20.878,25.878,22,24.5,22z M2.5,9C1.673,9,1,9.673,1,10.5v9
					C1,20.327,1.673,21,2.5,21h22c0.827,0,1.5-0.673,1.5-1.5v-2c0-0.276,0.224-0.5,0.5-0.5h2c0.276,0,0.5-0.224,0.5-0.5v-3
					c0-0.276-0.224-0.5-0.5-0.5h-2c-0.276,0-0.5-0.224-0.5-0.5v-2C26,9.673,25.327,9,24.5,9H2.5z"/>
			</g>
			<g>
				<path class="cls-1" d="M23.5,19H17c-0.276,0-0.5-0.224-0.5-0.5S16.724,18,17,18h6v-6h-6c-0.276,0-0.5-0.224-0.5-0.5S16.724,11,17,11h6.5
					c0.276,0,0.5,0.224,0.5,0.5v7C24,18.776,23.776,19,23.5,19z"/>
			</g>
			<g>
				<path class="cls-1" d="M10,19H3.5C3.224,19,3,18.776,3,18.5v-7C3,11.224,3.224,11,3.5,11H10c0.276,0,0.5,0.224,0.5,0.5S10.277,12,10,12H4v6h6
					c0.276,0,0.5,0.224,0.5,0.5S10.277,19,10,19z"/>
			</g>
		</g>
		<g>
			<path class="cls-1" d="M12.333,20c-0.076,0-0.153-0.018-0.226-0.054c-0.173-0.088-0.273-0.264-0.273-0.446c0-0.077,0.017-0.154,0.054-0.227
				l2.084-4.104l-2.796,1.049c-0.194,0.072-0.411,0.019-0.548-0.135c-0.138-0.154-0.167-0.376-0.073-0.56l2.667-5.25
				c0.125-0.247,0.425-0.344,0.672-0.219c0.246,0.125,0.344,0.426,0.219,0.672l-2.084,4.104l2.795-1.048
				c0.002-0.001,0.005-0.002,0.008-0.003l0,0c0.001,0,0.002,0,0.002-0.001c0,0,0,0,0,0c0,0,0.001,0,0.002,0l0,0
				c0.021-0.008,0.043-0.014,0.065-0.018c0,0,0,0,0.001,0l0,0c0.098-0.019,0.204-0.01,0.302,0.034h0c0,0,0,0,0,0
				c0.019,0.008,0.037,0.018,0.054,0.029l0,0c0,0,0,0,0,0c0.085,0.052,0.15,0.125,0.191,0.21c0.015,0.031,0.027,0.063,0.035,0.097
				c0.028,0.111,0.018,0.233-0.038,0.344c0,0,0,0,0,0c0,0,0,0.001,0,0.001l0,0c0,0,0,0.001,0,0.001l-2.667,5.25
				C12.691,19.9,12.515,20,12.333,20z"/>
		</g>
	</g>
</g>
</svg>
