<svg xmlns="http://www.w3.org/2000/svg" viewBox="0 0 30 20"><defs><style>.cls-1{fill:#2e343c;}</style></defs><title>mail</title><g id="Vrstva_2" data-name="Vrstva 2"><g id="Layer_1" data-name="Layer 1"><path class="cls-1" d="M27.5,20H2.5A2.48,2.48,0,0,1,0,17.5V2.5A2.48,2.48,0,0,1,2.5,0h25A2.48,2.48,0,0,1,30,2.5v15A2.48,2.48,0,0,1,27.5,20ZM2.5,1A1.54,1.54,0,0,0,1,2.5v15A1.54,1.54,0,0,0,2.5,19h25A1.54,1.54,0,0,0,29,17.5V2.5A1.54,1.54,0,0,0,27.5,1Z"/><path class="cls-1" d="M14.7,11a3.38,3.38,0,0,1-2-.6L3.2,3.9a.48.48,0,0,1-.1-.7.47.47,0,0,1,.7-.1l9.5,6.5a2.56,2.56,0,0,0,2.9,0l10-6.5a.5.5,0,1,1,.6.8l-10,6.5A3.7,3.7,0,0,1,14.7,11Z"/><path class="cls-1" d="M3.5,17a.76.76,0,0,1-.4-.2.43.43,0,0,1,.1-.7l7-6a.43.43,0,0,1,.7.1.43.43,0,0,1-.1.7l-7,6A.37.37,0,0,1,3.5,17Z"/><path class="cls-1" d="M26.5,17a.37.37,0,0,1-.3-.1l-7-6a.62.62,0,0,1-.1-.7c.1-.2.5-.2.7-.1l7,6a.62.62,0,0,1,.1.7A.76.76,0,0,1,26.5,17Z"/></g></g></svg>