<?xml version="1.0" encoding="utf-8"?>
<!-- Generator: Adobe Illustrator 19.0.0, SVG Export Plug-In . SVG Version: 6.00 Build 0)  -->
<svg version="1.1" id="Layer_1" xmlns="http://www.w3.org/2000/svg" xmlns:xlink="http://www.w3.org/1999/xlink" x="0px" y="0px"
	 viewBox="0 0 30 30" style="enable-background:new 0 0 30 30;" xml:space="preserve">
<g>
	<g>
		<path d="M29.5,4.5h-22C7.2,4.5,7,4.3,7,4s0.2-0.5,0.5-0.5h22C29.8,3.5,30,3.7,30,4S29.8,4.5,29.5,4.5z"/>
	</g>
	<g>
		<path d="M20.5,7.5h-13C7.2,7.5,7,7.3,7,7s0.2-0.5,0.5-0.5h13C20.8,6.5,21,6.7,21,7S20.8,7.5,20.5,7.5z"/>
	</g>
	<g>
		<path d="M29.5,14.5h-22C7.2,14.5,7,14.3,7,14s0.2-0.5,0.5-0.5h22c0.3,0,0.5,0.2,0.5,0.5S29.8,14.5,29.5,14.5z"/>
	</g>
	<g>
		<path d="M20.5,17.5h-13C7.2,17.5,7,17.3,7,17s0.2-0.5,0.5-0.5h13c0.3,0,0.5,0.2,0.5,0.5S20.8,17.5,20.5,17.5z"/>
	</g>
	<g>
		<path d="M29.5,24.5h-22C7.2,24.5,7,24.3,7,24s0.2-0.5,0.5-0.5h22c0.3,0,0.5,0.2,0.5,0.5S29.8,24.5,29.5,24.5z"/>
	</g>
	<g>
		<path d="M20.5,27.5h-13C7.2,27.5,7,27.3,7,27s0.2-0.5,0.5-0.5h13c0.3,0,0.5,0.2,0.5,0.5S20.8,27.5,20.5,27.5z"/>
	</g>
	<g>
		<path d="M2.5,29.5C1.1,29.5,0,28.4,0,27c0-0.3,0.2-0.5,0.5-0.5S1,26.7,1,27c0,0.8,0.7,1.5,1.5,1.5S4,27.8,4,27s-0.7-1.5-1.5-1.5
			H1.8c-0.3,0-0.5-0.2-0.5-0.5s0.2-0.5,0.5-0.5h0.7C3.3,24.5,4,23.8,4,23s-0.7-1.5-1.5-1.5S1,22.2,1,23c0,0.3-0.2,0.5-0.5,0.5
			S0,23.3,0,23c0-1.4,1.1-2.5,2.5-2.5S5,21.6,5,23c0,0.8-0.4,1.5-1,2c0.6,0.5,1,1.2,1,2C5,28.4,3.9,29.5,2.5,29.5z"/>
	</g>
	<g>
		<path d="M4.5,19.5h-4c-0.2,0-0.4-0.1-0.5-0.3s0-0.4,0.1-0.5l2.6-2.6C3.5,15.2,4,14.2,4,13c0-0.8-0.7-1.5-1.5-1.5S1,12.2,1,13v0.7
			c0,0.3-0.2,0.5-0.5,0.5S0,13.9,0,13.7V13c0-1.4,1.1-2.5,2.5-2.5S5,11.6,5,13c0,1.4-0.6,2.8-1.6,3.8l-1.7,1.7h2.8
			C4.8,18.5,5,18.7,5,19S4.8,19.5,4.5,19.5z"/>
	</g>
	<g>
		<path d="M2.5,9.5C2.2,9.5,2,9.3,2,9V3.1L0.9,5.2C0.8,5.5,0.5,5.6,0.3,5.4C0,5.3-0.1,5,0.1,4.8l2-4c0.1-0.2,0.3-0.3,0.6-0.3
			C2.8,0.6,3,0.8,3,1v8C3,9.3,2.8,9.5,2.5,9.5z"/>
	</g>
</g>
</svg>
