<svg xmlns="http://www.w3.org/2000/svg" width="53" height="216"><path fill-rule="evenodd" opacity=".102" fill="#2E343C" d="M25.97 156c.982 0 1.78.74 1.78 1.656 0 .915-.798 1.656-1.78 1.656-.985 0-1.783-.74-1.783-1.656 0-.915.798-1.656 1.782-1.656z"/><path fill-rule="evenodd" opacity=".2" fill="#2E343C" d="M25.97 167.03c.982 0 1.78.735 1.78 1.642 0 .906-.798 1.64-1.78 1.64-.985 0-1.783-.734-1.783-1.64 0-.907.798-1.64 1.782-1.64z"/><path fill-rule="evenodd" opacity=".302" fill="#2E343C" d="M25.97 178c.982 0 1.78.74 1.78 1.656 0 .915-.798 1.656-1.78 1.656-.985 0-1.783-.74-1.783-1.656 0-.915.798-1.656 1.782-1.656z"/><path fill-rule="evenodd" opacity=".4" fill="#2E343C" d="M25.97 189c.982 0 1.78.734 1.78 1.64 0 .907-.798 1.64-1.78 1.64-.985 0-1.783-.733-1.783-1.64 0-.906.798-1.64 1.782-1.64z"/><path fill-rule="evenodd" opacity=".6" fill="#2E343C" d="M25.97 200c.982 0 1.78.734 1.78 1.64 0 .906-.798 1.64-1.78 1.64-.985 0-1.783-.734-1.783-1.64 0-.906.798-1.64 1.782-1.64zM25.97 210.97c.982 0 1.78.74 1.78 1.655 0 .914-.798 1.656-1.78 1.656-.985 0-1.783-.74-1.783-1.655s.798-1.656 1.782-1.656z"/><path fill-rule="evenodd" opacity=".102" fill="#2E343C" d="M26 55.687c1.104 0 2 .742 2 1.657 0 .914-.896 1.656-2 1.656-1.105 0-2-.742-2-1.656 0-.915.895-1.657 2-1.657z"/><path fill-rule="evenodd" opacity=".2" fill="#2E343C" d="M26 44.718c1.104 0 2 .735 2 1.64 0 .907-.896 1.642-2 1.642-1.105 0-2-.735-2-1.64 0-.907.895-1.642 2-1.642z"/><path fill-rule="evenodd" opacity=".302" fill="#2E343C" d="M26 33.78c1.104 0 2 .736 2 1.642 0 .906-.896 1.64-2 1.64-1.105 0-2-.734-2-1.64 0-.906.895-1.64 2-1.64z"/><path fill-rule="evenodd" opacity=".4" fill="#2E343C" d="M26 22.844c1.104 0 2 .727 2 1.625 0 .896-.896 1.623-2 1.623-1.105 0-2-.727-2-1.624 0-.9.895-1.626 2-1.626z"/><path fill-rule="evenodd" opacity=".6" fill="#2E343C" d="M26 11.875c1.104 0 2 .727 2 1.625 0 .897-.896 1.625-2 1.625-1.105 0-2-.728-2-1.625 0-.898.895-1.625 2-1.625zM26 .906c1.104 0 2 .735 2 1.64 0 .907-.896 1.64-2 1.64-1.105 0-2-.733-2-1.64 0-.905.895-1.64 2-1.64z"/><path fill-rule="evenodd" stroke="#DBDBDB" stroke-width="2" fill="#EEE" d="M26 85c13.807 0 25 11.193 25 25s-11.193 25-25 25-25-11.193-25-25 11.193-25 25-25z"/></svg>