<?xml version="1.0" encoding="iso-8859-1"?>
<!-- Generator: Adobe Illustrator 19.2.1, SVG Export Plug-In . SVG Version: 6.00 Build 0)  -->
<svg version="1.1" xmlns="http://www.w3.org/2000/svg" xmlns:xlink="http://www.w3.org/1999/xlink" x="0px" y="0px"
	 viewBox="0 0 24 24" style="enable-background:new 0 0 24 24;" xml:space="preserve">
<g id="Flag">
</g>
<g id="Umbrella">
</g>
<g id="Briefcase">
</g>
<g id="Box">
</g>
<g id="Magnet">
</g>
<g id="Percent">
	<g>
		<g>
			<path d="M6,10c-1.93,0-3.5-1.57-3.5-3.5S4.07,3,6,3s3.5,1.57,3.5,3.5S7.93,10,6,10z M6,4C4.621,4,3.5,5.122,3.5,6.5S4.621,9,6,9
				s2.5-1.122,2.5-2.5S7.379,4,6,4z"/>
		</g>
		<g>
			<path d="M18,21c-1.93,0-3.5-1.57-3.5-3.5S16.07,14,18,14s3.5,1.57,3.5,3.5S19.93,21,18,21z M18,15c-1.379,0-2.5,1.122-2.5,2.5
				S16.621,20,18,20s2.5-1.122,2.5-2.5S19.379,15,18,15z"/>
		</g>
		<g>
			<path d="M3,24c-0.104,0-0.208-0.032-0.297-0.098c-0.223-0.164-0.27-0.477-0.105-0.699l17-23c0.166-0.222,0.48-0.268,0.699-0.104
				c0.223,0.164,0.27,0.477,0.105,0.699l-17,23C3.304,23.93,3.152,24,3,24z"/>
		</g>
	</g>
</g>
<g id="Rocket">
</g>
<g id="Share">
</g>
<g id="Transmitter">
</g>
<g id="Record_2">
</g>
<g id="Record_1">
</g>
<g id="Anchor">
</g>
<g id="Airplane">
</g>
<g id="Car">
</g>
<g id="Newsfeed">
</g>
<g id="Wifi_Tethering">
</g>
<g id="No_Wifi_Tethering">
</g>
<g id="Bar_Chart_2">
</g>
<g id="Shop">
</g>
<g id="Alarm">
</g>
<g id="Sim_Card">
</g>
<g id="Radar">
</g>
<g id="Hand_2">
</g>
<g id="Palette">
</g>
<g id="Cake">
</g>
<g id="Blende">
</g>
<g id="Feather_Pen">
</g>
<g id="Ticket">
</g>
<g id="Medal">
</g>
<g id="Mouse_Pointer_1">
</g>
<g id="Mouse_Pointer_2">
</g>
<g id="Fingerprint">
</g>
<g id="Earth">
</g>
</svg>
