<svg xmlns="http://www.w3.org/2000/svg" viewBox="0 0 485.22 303.18"><defs><style>.cls-1{fill:#2e353c;}</style></defs><title>PERSONAL_SUPPORT</title><g id="Vrstva_2" data-name="Vrstva 2"><g id="ARROWS"><path d="M192.13,201.67c.25.74.45,1.45-.28,2.13a3.36,3.36,0,0,0-.61,1.19c-.61,1.52-1,3.13-2.68,4.07-.2.11-.28.42-.41.64a34.64,34.64,0,0,1-1.83,3c-1.14,1.51-2.5,2.87-3.56,4.41a50.39,50.39,0,0,1-6.23,7s-.12.08-.14.13c-.83,2.4-3.35,3.65-4.51,5.8a5.17,5.17,0,0,1-2.65,2.28,8,8,0,0,0-1,.56c-.14.87-.27,1.81-1.45,2.22a1.46,1.46,0,0,0-.82,1,2.66,2.66,0,0,1-1.43,1.76c-.51.32-.94.74-1.45,1.07s-1.09.62-1.77,1a2.11,2.11,0,0,1-1.43,2.28c-.35.14-.82.43-.87.71-.28,1.48-1.65,1.75-2.76,2.31a8.38,8.38,0,0,1-1.19.36,3.34,3.34,0,0,1-2.35,2.41,2.09,2.09,0,0,0-1.16.76c-1.2,2.19-3.43,3.32-5.4,4.71a41.21,41.21,0,0,0-5.31,4.25,6.75,6.75,0,0,1-1.31.9,11.12,11.12,0,0,0-1.9,1,37.87,37.87,0,0,1-4.91,3.19c-.51.33-.79,1-1.32,1.26s-1.28.15-1.87.36c-.32.11-.53.52-.77.81s-.43.78-.72.85c-1.54.35-2.5,1.47-3.66,2.3a16.43,16.43,0,0,1-5.41,2.21c-1.08.31-2,.45-2.31,1.72-.12.55-.81,1-1.35,1.61l-.55-1.07a5.38,5.38,0,0,0-1.3.44,4.15,4.15,0,0,1-2.9,1.08c-.42-.05-1,.53-1.38.95a6.84,6.84,0,0,1-4.23,2.49,11.83,11.83,0,0,1-3.54.48c-1.62-.16-2.88,1-4.33,1.5-.32.11-.56.42-.88.48-2.65.55-5.06,1.85-7.8,2.14a7.25,7.25,0,0,0-2.12.66c-.49.22-.87.59-1.5.39a.87.87,0,0,0-.71.19,4.86,4.86,0,0,1-4.21.95,4,4,0,0,0-2.56.45,6.88,6.88,0,0,1-1.3.45c-1.23.35-2.47.71-3.72,1a16.42,16.42,0,0,1-2.75.58c-.91.08-1.75.68-2.75.24-.28-.13-.85.24-1.25.45s-.59.63-.94.7a38.37,38.37,0,0,1-4.39.64c-.64,0-1.23-.31-1.94.1-.42.24-1.15,0-1.73,0a11,11,0,0,0-3.9.52,1.46,1.46,0,0,1-.8,0,13,13,0,0,0-6.63.12,5.48,5.48,0,0,1-1.39-.07,11.64,11.64,0,0,0-1.18.05c-.06,0-.11.07-.18.09s-.48.25-.55.19c-1.35-1-2.77.43-4.1-.11a5.15,5.15,0,0,0-4.48.25,4,4,0,0,1-2.92.29,9.76,9.76,0,0,0-3.63.21c-.28,0-.46.63-.77,1.1-.9,0-1.1-1-1.85-1.66l-1.1,1.19a3.59,3.59,0,0,1,2.63,2.47l3.29.61a4.59,4.59,0,0,0,3.45,1.7c1.61.18,3.17.68,4.76,1a4.49,4.49,0,0,0,2.18.3c.45-.1,1.05.41,1.59.65l-.17,1.17c1,.68,1.67,0,2.34-.46a5.21,5.21,0,0,1,3.62,3.47,4.28,4.28,0,0,1-4.1.55c-1-.33-2-.68-3.07-1a1,1,0,0,0-.59,0c-1.28.48-2.35-.23-3.45-.59a2.23,2.23,0,0,0-1.72,0c-1.23.48-1.44.29-1.74-1.06l-2.88-1.53a4.25,4.25,0,0,0-.9-.46c-2.54-.54-4.71-2-7.17-2.7a2.13,2.13,0,0,1-.56-.23,35.84,35.84,0,0,0-6.06-2.72c-1.06-.45-2-1-3.1-1.47s-1.88-.73-2.81-1.09L7,289.28a4.35,4.35,0,0,0-1.28-.56,8.47,8.47,0,0,1-4-1.74,15,15,0,0,0-1.7-.84l.45-.86,1.71.89c-.06-.65-.11-1.1-.15-1.55a2.19,2.19,0,0,1,2.41-.16c.74.63,1.29.38,2,.05s1.65-.74,2-1.73a2.35,2.35,0,0,1,2.32-1.34,7.25,7.25,0,0,0,3.76-1.31,20.48,20.48,0,0,1,7.73-2.93c2.69-.39,4.74-2.12,7.45-2.71l1.4,1.05L31,273.93c.07-.05.18-.18.29-.17a4.36,4.36,0,0,0,3.93-1.63c.07-.11.16-.26.27-.28,2.13-.41,3.58-2.33,5.85-2.36a23.6,23.6,0,0,1,3.43.41c.19,0,.51.16.52.26.07,1.34,1.54,1.47,2.38,2.31-.28.2-.46.42-.68.46a5.89,5.89,0,0,0-3.34,1.71,2,2,0,0,1-1.29.49c-1.45.08-2.6,1-4.09,1.09-.72,0-1.49.83-2.07,1.43-1.35,1.42-2,1.67-4,1.27-.3.77-1.07.88-1.85,1.14-2.35.79-4.63,1.76-6.95,2.64-.66.26-1.22.84-2.07.53a.61.61,0,0,0-.52.21c-.55.76-1.44.66-2.21.76a3.17,3.17,0,0,0-2.56,1.23c.91,1.58,1.55,1.75,3.64.87l1.21,1.12,5.45-1.08a3.82,3.82,0,0,1,.81-.14,9.4,9.4,0,0,0,2.77.16,9.73,9.73,0,0,1,2.54-.57,7,7,0,0,1,1.17.26c.52.09,1,.14,1.65.22l.51-1.56a2.38,2.38,0,0,1,.59,0c1.11.25,2.22.53,3.34.76a1.64,1.64,0,0,0,1.67-.48,2.69,2.69,0,0,1,1.73-.9,2,2,0,0,0,1.11-.42c.65-.74,1.28-.73,2.29-.6s2.16-.51,3.25-.82c.3-.08.58-.19,1-.34.11,1.46-1.73,1-1.93,2,1.92.1,2.1,0,2.76-1.39a2.78,2.78,0,0,1,1-1A10.74,10.74,0,0,1,56.28,280a6.74,6.74,0,0,0,2.7-.75c1.12-.72,2.18-.11,3.22.43a15,15,0,0,1,1.36-.89c.28-.14.83-.29.93-.18.62.7,1.1,0,1.61-.09a10.12,10.12,0,0,1,2-.55c.8,0,1.21-.52,1.81-.78,1.59-.7,3.2-1.35,4.81-2,1.92.34,2.94-1.34,4.53-1.77a15.91,15.91,0,0,0,4.23-2.29c1.41-.87,2.83-2,4.76-1.89a2,2,0,0,0,1.8-.75c.21-.26.63-.35,1-.52a7,7,0,0,0,1.18-.63,3.1,3.1,0,0,1,2.37-.91,10.43,10.43,0,0,0,2.28-.37l.24-1.25c.31-.12.44-.22.56-.21a4.19,4.19,0,0,0,2.77-1,3.49,3.49,0,0,1,3.31-.73c.52-.63.81-1.4,1.85-1.59a4.89,4.89,0,0,0,2-1.28,29.48,29.48,0,0,1,6.62-4.29c1.14-.53,2.4-.86,3.56-1.36a2.93,2.93,0,0,0,1.39-1,3.69,3.69,0,0,1,3.12-1.86l.32-1.34c.86-.28,1.76-.56,2.63-.87s2.11-.65,2.3-1.92c.1-.65.73-.85,1.29-1.12a9,9,0,0,0,2.65-2,36.72,36.72,0,0,0,3.12-3.24,1.64,1.64,0,0,1,1.11-.38c1.66,0,2.62-1.08,3.45-2.13.56-.71.91-1.54,1.81-2,.14-1.15,1.71-.88,2.14-1.95.31-.77,1.41-1.24,2.41-1.52.25-.07.41-.46.6-.72s.23-.54.43-.62c2.15-.9,3.25-3,5.28-4,.28-.14.63-.45.66-.7.22-1.79,2-2.07,3.17-3,.83-.64,1.73-1.21,2.59-1.83a1.61,1.61,0,0,0,.47-.54c1-2,1.36-2.17,3.62-1.85l-.28-1.34,2.29.08-1.19-.86c1.44-.54,1.72-.83,2.87-3-.1-.13-.23-.26-.34-.41s-.44-.47-.39-.54c.16-.23.58-.59.68-.54.73.4.88-.31,1.35-.55l.9.75,1.77-.69c-.32-1-1.41-.18-2-.89,2.36-1.12,3.23-3.37,4.65-5.3l1.7-.37c-.08-.26-.26-.51-.19-.67a2.35,2.35,0,0,1,1.76-1.42,16.79,16.79,0,0,0,2.52-.8c.2-.08.26-.47.5-.93l-1.67.2c0-.18-.07-.42,0-.52a2.39,2.39,0,0,1,2.5-.82c.72.18.89-.25.52-1.23a10.15,10.15,0,0,0-2.25.68,7.27,7.27,0,0,0-1.75,1.53c-.38.42-.68.61-1.17.17a2.47,2.47,0,0,1,2.24-2.33,2,2,0,0,0,1.05-.51,11.14,11.14,0,0,1,3.64-2.63l-2.39,0c.06-1.57,1.47-1.72,2.44-2.29-.08-1.22-1.3-.46-2-1l1.44-.47c1.41-.47,2-1.76,1-2.82a1.16,1.16,0,0,1-.07-1.7A16.51,16.51,0,0,1,184,187a15.69,15.69,0,0,1,.48-2c.08-.19.57-.24.95-.39l.63,1.43.81-1.55a11.15,11.15,0,0,0,.73-1.52,9.51,9.51,0,0,1,1.79-3.51c.1-.11.05-.37,0-.55a5.66,5.66,0,0,0-.13-.56c-.13-.55-.09-1.12.58-1.23.31,0,.7.39,1.09.63.11-.1.29-.27.49-.43,0,0,.13,0,.28,0,.19.61.91,1,.85,1.78,0,.17.55.39.93.64.86-1.89,1.29-3.55-.59-4.91a4.18,4.18,0,0,1,2.92-4.56,4.72,4.72,0,0,0,1.06-.93l-.8-1.55a8,8,0,0,1,1.26-2.21c.75-.68.1-1.41.38-2.11a7.6,7.6,0,0,0,.08-2.55l1.47-.83a2.36,2.36,0,0,1,1,2.07,30.8,30.8,0,0,1-1.13,6.39,4.63,4.63,0,0,0,0,.54c1.68-.3,3.16-1.72,3.14-3.17a1.2,1.2,0,0,1,.41-1.15c.34-.28.46-.63.09-1,.56-.41.64-1.27,1.57-1.34a20.88,20.88,0,0,0,2.12-.4,1.8,1.8,0,0,1,.17,1.52c-.32,1.76-.56,3.54-.93,5.29a21.24,21.24,0,0,1-.92,2.72c-.13.36-.48.69-.48,1a12.24,12.24,0,0,1-1.31,5.16c-.32.69-.7,1.36-1,2.06-.67,1.65-1.3,3.32-1.92,5a1.91,1.91,0,0,0,0,1,3.52,3.52,0,0,1-.88,3,6.83,6.83,0,0,0-1.25,3.24,3.65,3.65,0,0,1-1.42,2.43l.46.82a3.58,3.58,0,0,0-1.69,2.79,4.37,4.37,0,0,1-2.37,3.14,5.22,5.22,0,0,0-.76.65,2,2,0,0,0-.84-1.83l1.72-.06c-.86-.6-1.3-.46-1.68.08-.11.75-1,1.28-.75,2.23ZM13.63,285.58c-.83.93-.83.93.42,2l1.5-.9-2-1.1c1.09-.35,1.09-.35.76-1.44C14.06,284.71,13.85,285.15,13.63,285.58Zm123.31-31.8,2.11-.09c.1-.44.16-.75.23-1s.19-.67.33-1.21a4.9,4.9,0,0,0-1.48.15,6.25,6.25,0,0,0-1.58,1.11c-.13.12.1.56.16.86-.84.38-.84.38-.47,1.45a1.09,1.09,0,0,1-1.19-.83,3,3,0,0,0-.62-.78,13.6,13.6,0,0,1-2.78,1.7,11.81,11.81,0,0,0-3.77,1.5,6.58,6.58,0,0,1-2.19.64c.16,1.48,0,1.94-.78,1.89a3.44,3.44,0,0,0-3,1c-.18.2-.63.19-1,.25-1.46.3-2.74-.39-4.08-.69-1.64-.37-3.07-.48-4.21.92a2.07,2.07,0,0,1-1.51.87c-.25,0-.48.29-.82.52a2.92,2.92,0,0,0,2.88,0,29.81,29.81,0,0,1,3.18-1.3,2.29,2.29,0,0,1,2.14.16l-.06.95c-.79.24-1.42.38-2,.63-1.15.47-2.55.52-3.31,1.67,0,0-.13,0-.19,0a9.13,9.13,0,0,0-4.43,2.45,2.26,2.26,0,0,1-1.4.67c-2.59.11-4.63,1.68-7,2.22-.1,0-.14.21-.29.44l.88,1.57.83-1.29a5.07,5.07,0,0,0,4.24-.6,2.64,2.64,0,0,1,2.85-.12c-1.5.77-3.63.22-4,2.27l-2,.2-.26,1.31-1.45-.76c-.66.63-1.21,1.42-2.4.8-.23-.11-.82.27-1.18.51-.65.44-1.19,1.25-1.89,1.37-1.29.23-2.51.91-3.86.54-.51,1.92-.54,1.94-2.58,2.1a4.91,4.91,0,0,0-1,.12,2.67,2.67,0,0,0-2,2,7.06,7.06,0,0,0,2.53-.42,9.06,9.06,0,0,1,3.84-1.07,4.49,4.49,0,0,0,1.7-.59l3.34-1.42c1.06-.43,2.12-.87,3.19-1.27a3.62,3.62,0,0,1,1.53-.37,5.1,5.1,0,0,0,3.58-1.17c.69-.47,1.25-1.17,2.28-1,.21,0,.5-.17.7-.31a6.41,6.41,0,0,0,2.7-3l-.74-.67v0l.65-.9,4-.34.72-1.78a4.77,4.77,0,0,0,.63.77c.4.31.88.87,1.24.82a11.37,11.37,0,0,0,2.63-.85c.12-.05.16-.46.12-.68a3.39,3.39,0,0,0-.33-.78c1.46-.93,3.21-1.31,3.75-3.15l2.23,1.09c.06-.79-.61-1.65.35-2a9.17,9.17,0,0,1,2.09-.23c.31-.42-.18-.91.49-1.33a15.38,15.38,0,0,0,2.41-2.32l1,.93c1.05-.73,1.71-1.87,3.07-2.12.23,0,.36-.51.53-.79Zm51.67-66.88c-.39-.89.28-1.42.76-2a7.8,7.8,0,0,0,1.37,0c.15,0,.28-.41.29-.63s-.23-.34-.39-.37a3.3,3.3,0,0,0-2.53,1,1.55,1.55,0,0,0,.52,2c-.6.88-2.24.73-2.42,2.1l.94.29c.07,1.49-2.46.67-2.27,2.18.81.14,1.6.23,2.37.41s1.28-.1,1.45-.83l-1.07-.88a5.73,5.73,0,0,0,1.71-.71,7.05,7.05,0,0,0,1-1.63c-.4-.25-.67-.44-1-.59A6.9,6.9,0,0,0,188.61,186.9ZM126.85,252l-1.08.35-.58-1-2.69,4.39-.74-.86c-1,.31-1.9.66-2.2,1.65l-2.19,1.81,1.59.06.57-1.89c1.27,1.37,1.26,1.35,2.87.31a2.34,2.34,0,0,1,1.28-.38,2.15,2.15,0,0,0,1.94-.74,4.88,4.88,0,0,1,2.37-1.39,14,14,0,0,0,5-2.82,5.31,5.31,0,0,1,1.16-.71,4.46,4.46,0,0,1,3.51-.16c-.06-2.06,1.3-2.57,3-2.82l.37.62c.79-1.08.79-1.06,2.36-1.37a13.14,13.14,0,0,0,1.3-.41l.08-1.09c.39-.21.82-.4,1.21-.64,1.22-.73,2.82-1,3.16-2.71,0-.24.51-.4.76-.62a14.63,14.63,0,0,0,1.76-1.56,1.89,1.89,0,0,1,1.54-.77l0,0,.75.5c.76-1.06,1.42-2,2.12-2.93s2.35-.82,2.76-2.12l-.8-.43,3.59-1.84c0-.19-.1-.64.07-.78,1-.81,1.42-2.21,2.87-2.66a1.54,1.54,0,0,0,.9-.95,4.08,4.08,0,0,1,2.78-3,3.31,3.31,0,0,0,2.18-2.1,8.66,8.66,0,0,1,.66-1.83A5.15,5.15,0,0,1,173,219.1a2.93,2.93,0,0,0,1.55-2.48c0-.31,0-.74.25-.89.82-.61.65-1.47.83-2.32a4,4,0,0,1-.6,0c-1.05-.16-1.64.1-1.83,1.22a2.44,2.44,0,0,1-1.57,1.65,14,14,0,0,0-2,1.46l-1.47,0-.09,1.87c1.16-.47,2.13-.57,3,.24a1.91,1.91,0,0,1-2.41.77,6.93,6.93,0,0,0-2.78.1c-.21,0-.37.44-.59.72l1.44.39c-.91,1.72-3.44,1.8-3.6,3.88l-1.18-.37c-.57,1,.67,1.56.37,2.53l-1.55-.53c-.51,2-2.91,2.4-3.61,4.19,0,.1-.21.16-.33.2-1.06.37-1.94,1.21-3.21.93a12.55,12.55,0,0,1,.06,1.26,7.35,7.35,0,0,1-.18,1.06l1.88,0c-1.8,1-3.39,1.62-4.17,3.16a3.93,3.93,0,0,0-3.53,1.13,4.09,4.09,0,0,1-4,1.1l-.9,1.54c-.82.11-1.4-.76-2.21-.18-1.23.89-2.53,1.7-3.78,2.55a.43.43,0,0,0-.19.32c0,1.16-1.12,1.52-1.86,2.15a13,13,0,0,0-1.21,1,10.64,10.64,0,0,1-2.52,2.58,2,2,0,0,0-.63.74c-.79,1.35-2.13,1.54-3.67,1.71.1-.41.15-.66.21-.9l1.26.22,1.22-1.73C127.26,250.59,127.26,250.59,126.85,252Zm49.81-44.23-.35,0-.18,2.57-1.77.19c.09,1-.93,1.29-1.5,2a13.9,13.9,0,0,0,6.18-1.58c.67-.29,1.27-.75,1.16-1.42-.2-1.32.71-2,1.53-2.71.18-.16.51-.42.47-.5-.43-.88.4-1.14.86-1.51,1.35-1.1,1.32-2.48,1.18-4a3.69,3.69,0,0,0-2.42,1.32,10.13,10.13,0,0,1-1.89,1.73c-.94.78-1,.77-.68,2.08l-1.64,1.09a7.13,7.13,0,0,1,.18,1.49c0,.27-.35.51-.66.92Zm8.58-8.59c1.26-.59,1.77-1.39,1.53-2.22a1.41,1.41,0,0,0-1.75-.88,1,1,0,0,0-.53,1.41C184.69,198,184.94,198.5,185.24,199.15ZM81.55,279l-1.92,2.56a6.78,6.78,0,0,0,3.6-1.11Zm117.9-108.33c-1.43,1.14-1.08,2.5-1.19,3.79l1.7-2.18Zm-96,95.55.27.45a7.64,7.64,0,0,0,2.72-1.6c.08-.06,0-.39-.06-.49a.59.59,0,0,0-.53-.12C105,265,104.19,265.59,103.4,266.18Zm83.48-72.48c-2.13-.1-2.35.07-1.91,1.6C185.67,194.85,186.69,195,186.88,193.7Zm-40.8,43.76h1.6l.14-2.37h-.64C147.29,236,146.3,236.49,146.08,237.46ZM63.82,281.8c.06-1.41,0-1.45-2-1.15C62.33,281.33,63.11,281.44,63.82,281.8Zm-6.24.27c.8-.28,1.83-.07,2.43-1.13C59.08,281.3,58,280.78,57.58,282.07Zm38.05-9.36c.84-.14,1.65.11,2.06-.9C96.75,271.48,96.17,271.82,95.63,272.71Zm-10.42,6.2c-1.07-.3-1.2-.32-1.43,0a.44.44,0,0,0,0,.46c.44.34.84.11,1.21-.17C85.09,279.18,85.1,279.11,85.21,278.91Zm110.22-85.1c-1.33.48-1.33.48-1,1.6C194.78,194.86,195.11,194.34,195.43,193.81ZM77.69,276.12c-.65.27-1,.56-.58,1.08a.45.45,0,0,0,.37.07C78.2,277.06,77.94,276.63,77.69,276.12Zm111.92-90.33c.62,1,1.16.88,1.7.64.06,0,.06-.21.12-.44ZM80.4,275.35c-.61-.1-1.29-.37-1.75.68ZM63.28,285.56l0-.46c-.43,0-.85,0-1.27,0-.09,0-.16.24-.32.49ZM77,282c.12.12.22.26.29.25a2.56,2.56,0,0,0,.5-.19c-.11-.1-.21-.29-.31-.28S77.14,282,77,282Zm-7.35-2.3c0-.23.16-.43.1-.55s-.32-.13-.49-.18l-.2.6Zm100.51-64.67-.1.48,1,0c0-.12,0-.34,0-.35C170.72,215.14,170.42,215.1,170.13,215.06Zm-39.6,34.83.3-.46c-.11,0-.24-.06-.32,0s-.18.17-.27.26Z"/><path d="M148.42,241c.29-1.28.65-2,1.74-2.37C150.05,239.66,150.05,239.66,148.42,241Z"/><path d="M153.21,239.22c0-.42-.12-.87.63-1,.27.64.22,1-.67,1Z"/><path d="M110.7,268.61a1.24,1.24,0,0,1-1.65-.12,1,1,0,0,1,1.64.16Z"/><path d="M118.37,265.08a2.39,2.39,0,0,1,.44-.24s.14.15.22.23a2.63,2.63,0,0,1-.4.28S118.49,265.2,118.37,265.08Z"/><path class="cls-1" d="M50,34.68l.82-2.43c.6.1,1.34-.83,2.21-2.82.18-.44.39-.89.63-1.37.49-1,.77-1.54.86-1.73a35.44,35.44,0,0,1,2.91-4.57,88,88,0,0,1,6.49-12c.29-.46.59-1,.92-1.47s.56-.91.71-1.17.3-.51.45-.74a.92.92,0,0,0,0-.94c-.42-.28-.47-1-.15-2A4.17,4.17,0,0,1,67.7,1Q70-.89,76.56.81c.6.16,2.21.47,4.84.93q.42.31,1.47,1c1.66,1,2.47,1.56,2.43,1.76-.07.41.2.69.83.85S87.65,6.36,88.83,8q4.11,5.49,2.43,10.2c-.56,2-1.09,3.2-1.58,3.63-.92.47-1.42.94-1.5,1.42S87.12,25,85.24,27a28.62,28.62,0,0,1-10.17,7.6,46.58,46.58,0,0,1-7.6,1.24,23,23,0,0,1-6.21-.07c-.1,0-.65,0-1.67-.06a2.63,2.63,0,0,0-2,.51,16,16,0,0,0-2.21,4.14,46.94,46.94,0,0,0-2.76,4.76q-2.15,4-3.08,6.18a2.75,2.75,0,0,1-1.48,1.34,3.38,3.38,0,0,1-1.85.26A1.74,1.74,0,0,1,45,51.7a4.63,4.63,0,0,1-.86-1.59,8.46,8.46,0,0,1,.43-3.33,27.43,27.43,0,0,1,2.7-6.25c.44-1,.9-2,1.37-2.88A18.69,18.69,0,0,0,50,34.68Zm11.8-7.07-.35,1.5a1.29,1.29,0,0,0,.08.48c.06.22.72.34,2,.35a28.29,28.29,0,0,0,10.8-2.32,20,20,0,0,0,4.65-3.33q5.49-6.3,5.28-9.55a6.56,6.56,0,0,0-3.48-6A17.19,17.19,0,0,0,75.6,7.6a3.37,3.37,0,0,0-1.88.73A14.48,14.48,0,0,0,71.8,11a69.47,69.47,0,0,0-4.36,6.11q-2.7,5.55-4.18,8C62.27,26.72,61.78,27.56,61.77,27.61Z"/><path class="cls-1" d="M100.34,27c3,.52,5,1.63,6.15,3.31a6.27,6.27,0,0,1,1.33,4.42l-.11.6c-.18,1.06-1.2,2.68-3,4.86a10.09,10.09,0,0,1-3.85,2.8,8.56,8.56,0,0,1-4.67.79,21.55,21.55,0,0,1-4.17-1,22.4,22.4,0,0,0-2.4-.77,1.05,1.05,0,0,0-.93.38,6.45,6.45,0,0,0-1.08,3,4.54,4.54,0,0,0,.66,3.16,3.41,3.41,0,0,0,2.17,1.24,6.31,6.31,0,0,0,2.67-.08,12.62,12.62,0,0,0,3.18-1.39A4.73,4.73,0,0,1,99,47.37a2.63,2.63,0,0,1,1.66,1.23,3,3,0,0,1,.68,1.92c-.36,1.13-1.8,2.45-4.34,4a11.35,11.35,0,0,1-8,1.54,9.89,9.89,0,0,1-6.4-3.63A9.06,9.06,0,0,1,81.22,45c.21-1.16.49-2.39.84-3.68a19,19,0,0,1,2.19-4.62A27.43,27.43,0,0,1,89,31.14a14.75,14.75,0,0,1,6.2-3.72A12.52,12.52,0,0,1,100.34,27Zm-1.5,5.44c-.66-.11-1.7.27-3.13,1.13a18.17,18.17,0,0,0-3.88,3.19q0,.95,2.34,1.35a8.1,8.1,0,0,0,3.06.19,13.36,13.36,0,0,0,2.53-1.51c1.22-.86,1.89-1.48,2-1.88.19-1.11-.5-1.88-2.09-2.32Z"/><path class="cls-1" d="M119.86,30.23a3.28,3.28,0,0,1,2.17,1q1.41,1.74-4,8.84c-1.16,1.57-1.59,2.38-1.28,2.43a17.1,17.1,0,0,1,4.75-3.23,38.24,38.24,0,0,1,4.57-2.21q.9-.27,1.92-.48l1.18-.26a7.08,7.08,0,0,1,3.9,0c1.4.38,2.18,1,2.35,1.78a1.37,1.37,0,0,0,.7,1.37l.29.53c-.07.4-.51.86-1.33,1.36a3.67,3.67,0,0,1-2.38.64,8.21,8.21,0,0,0-2.83.32c-1.12.3-2.21.63-3.26,1l-2.38.84-2,.77a18.93,18.93,0,0,0-4.39,2.75A15.87,15.87,0,0,0,115,49.94a7.05,7.05,0,0,0-1.58,2.57,16.52,16.52,0,0,0-1.06,2.67,6.61,6.61,0,0,1-1.54,2.12,3.53,3.53,0,0,1-1.87,1c-.56,0-1.2-.37-1.92-1.28-1.37-1.44-1.84-2.81-1.43-4.12s1.37-3.71,2.87-7.2a46.2,46.2,0,0,1,3.81-7.66,41.35,41.35,0,0,1,5-7.51A3.38,3.38,0,0,1,119.86,30.23Z"/><path class="cls-1" d="M160.78,37a7.79,7.79,0,0,1,1.39,3,7.62,7.62,0,0,1,.42,3c-.12.66-1,1.82-2.49,3.47-.89,1.2-1.35,1.86-1.4,2a1.51,1.51,0,0,1-.23.4,1.44,1.44,0,0,1-.2.23l-.18.17a.34.34,0,0,1-.22.12.32.32,0,0,0-.2,0,.2.2,0,0,1-.23,0,2.31,2.31,0,0,0-.86-.19c-.51-.07-1.06-.54-1.63-1.42a3.47,3.47,0,0,1-.66-2.46,4.05,4.05,0,0,1,1.07-2.08,4.94,4.94,0,0,0,.9-1.13c0-.13-.19-.24-.65-.31q-1.81-.33-5.43,1.31t-4.08,4.32a9.24,9.24,0,0,0,.5,5.14,13.29,13.29,0,0,1,1.15,3.91,14.85,14.85,0,0,1,.27,5.4A4.2,4.2,0,0,1,145.38,65a9.88,9.88,0,0,1-5.78.4A9.5,9.5,0,0,1,133.79,62c-1.53-1.83-2.16-3.56-1.87-5.18.15-.86.58-1.23,1.29-1.1a16.22,16.22,0,0,1,1.91,1.55A6.47,6.47,0,0,0,138,58.9q3,.54,3.63-1.08a8.14,8.14,0,0,0-.5-3.37q-2-4.41-1.12-11c.31-1.77,2.44-3.61,6.37-5.52s7.08-2.8,9.45-2.64C158.57,35.79,160.24,36.34,160.78,37Z"/><path class="cls-1" d="M185.16,47a2.9,2.9,0,0,1,1.86.33c.8.35,1.17.68,1.12,1a2.73,2.73,0,0,0,.07,1.11q.16.64.39.69c.5.14.48.55-.06,1.24a5.57,5.57,0,0,1-2,1.6,7.56,7.56,0,0,0-2.23,1.14,1.46,1.46,0,0,0-.07.81c.38,1.68-.42,3.67-2.42,6a25.62,25.62,0,0,1-7.52,5.87,15.3,15.3,0,0,1-7.93,2.2c-1.23.21-2.49-.51-3.77-2.14a7.78,7.78,0,0,1-2.54-3.34,5.19,5.19,0,0,1-.59-3.31,31.16,31.16,0,0,1,6.19-11.38q4.64-5.71,9.55-7a6.14,6.14,0,0,1,3.34.12,2.86,2.86,0,0,1,2.09,1.86c.5,1.6.16,2.5-1,2.71-.56-.1-.87.08-1,.54a8.82,8.82,0,0,0,3.13.39C183.56,47.5,184.68,47.36,185.16,47Zm-8,5.09-1.35.15a1.65,1.65,0,0,1-.77-.53L174.08,50l-1.51,1.07a13.8,13.8,0,0,0-3.75,4.18,18.12,18.12,0,0,0-2.15,4.47c-.31,1.15-.35,1.88-.12,2.21a1.6,1.6,0,0,0,1,.64,6.38,6.38,0,0,0,2.62-.44,5,5,0,0,1,1.56-.86,1.18,1.18,0,0,0,.49-.11,2.1,2.1,0,0,0,.29-.3,4.58,4.58,0,0,0,.41-.59,14.33,14.33,0,0,1,2.49-2.61,10.51,10.51,0,0,0,2.41-2.35,3,3,0,0,0,.57-1.66,1.43,1.43,0,0,0-.2-.86,3.13,3.13,0,0,0-.5-.32A2.77,2.77,0,0,1,177.15,52.11Z"/><path class="cls-1" d="M196.58,61.7s1.32-.87,3.82-2.62q7-4.94,10.33-4.51a3.73,3.73,0,0,1,2.65,2.26,6.93,6.93,0,0,1,.56,4.4c-.06.3-.26,1.15-.61,2.55l-.76,4.32c.8-.07,1.59-.16,2.4-.28a20.23,20.23,0,0,1,4.49-.23q-.6,2.09-3.72,4.94T210.27,75q-2.58-.45-3.61-3.92a14.92,14.92,0,0,1,0-5.16l.58-3.34c.1-.56.1-.84,0-.86q-.61-.11-7.39,4.91c-4.53,3.35-7.49,4.9-8.91,4.65a4.84,4.84,0,0,1-1.34-.82,7.06,7.06,0,0,1-1.29-1.12c-.46-.66-.46-2.27,0-4.85s2.67-6.73,6.65-12.44a27.5,27.5,0,0,0,1.75-2.43,19,19,0,0,1,4.13-4.82,9.54,9.54,0,0,1,1.2.29,5.84,5.84,0,0,1,1.78,1.25A3.49,3.49,0,0,1,205,48.79a9.78,9.78,0,0,1-3.14,5.39,23.26,23.26,0,0,0-3.06,4.55,9.17,9.17,0,0,0-1.24,1.5A9.05,9.05,0,0,0,196.58,61.7Z"/><path class="cls-1" d="M241.56,53.5a7.33,7.33,0,0,1,1.9,1.19,7.27,7.27,0,0,1,3.7,3,17.05,17.05,0,0,1,.59,5.11c.2,1.81,0,2.92-.59,3.34a4.26,4.26,0,0,0-.51.46s0,.12.08.24a2.57,2.57,0,0,1-.57,1c-1.31,2.38-1.89,4.25-1.77,5.63.39,2.52,1.79,3,4.21,1.37a3.28,3.28,0,0,1,2.24-.47c.57.15.83.35.79.6a1.14,1.14,0,0,0,.69.52c.19.08.25.35.17.81A6.34,6.34,0,0,1,251,79.24c-.89.62-1.36,1.06-1.4,1.32l-1.32.86a6.73,6.73,0,0,1-3.6.23,5.57,5.57,0,0,1-3.08-1.4c-1.77-1.78-2.73-3.43-2.88-5l-.24-.82-2.46,1.05-2.24,1.64c-.49.43-.89.63-1.19.57l-.76-.13c-.07.35-.85.66-2.35.92a11.13,11.13,0,0,1-3.47.17c-.9,0-1.85-.59-2.87-1.91a6.41,6.41,0,0,1-1.58-3.49c0-1.83.73-4.1,2.33-6.82a31.36,31.36,0,0,1,6.68-7.74A21.24,21.24,0,0,1,239.37,54,7.45,7.45,0,0,1,241.56,53.5Zm-.08,8c-.1-.59-.3-.94-.6-1a4.68,4.68,0,0,0-2,.2c-1.62.65-3.71,2.34-6.25,5.08s-3.92,4.73-4.14,6l.25.83c.55.09,1.82-.35,3.79-1.33a23.1,23.1,0,0,0,3.6-2c.43-.36.88-.79,1.36-1.28a20.94,20.94,0,0,1,2-1.73,7.15,7.15,0,0,0,1.89-2A3.17,3.17,0,0,0,241.48,61.53Z"/><path class="cls-1" d="M262.42,60.29l1.26-2.75q1.62-2.15,6.11-9.83t4.61-8.46a2,2,0,0,1,.68-1.21,1.4,1.4,0,0,1,1.16-.34,3.43,3.43,0,0,1,2.28-.07l1,1.43a4.35,4.35,0,0,1,1.24,3.19,7.63,7.63,0,0,1-.95,2.52c-.48.83-1.8,2.75-3.94,5.76a20,20,0,0,1-1.18,1.79l-1.14,1.6a2.94,2.94,0,0,0-.44.74,2.11,2.11,0,0,1-.2.47c-.12.22-.28.5-.5.85s-.51.79-.86,1.3c-2.8,4.09-4.25,6.38-4.33,6.86a1.48,1.48,0,0,1-.57,1c-.25,0-.42.14-.49.54l0,.23a18.51,18.51,0,0,1-1.92,3.81Q259,80.18,258.51,82.94c-.32,1.84-1.11,2.94-2.37,3.29q-2.31.22-3.17-2.9a11,11,0,0,1,.79-7.13,10.79,10.79,0,0,0,1.39-3,36,36,0,0,1,2.47-4.92q2-3.52,2.5-4.21c.5.09.85-.43,1.05-1.54A2.88,2.88,0,0,1,262.42,60.29Z"/><path class="cls-1" d="M313.21,63.74a7.74,7.74,0,0,1,1.39,3,7.47,7.47,0,0,1,.42,3c-.12.65-.94,1.81-2.49,3.47-.89,1.2-1.35,1.86-1.4,2a1.64,1.64,0,0,1-.23.39,1.42,1.42,0,0,1-.19.24,1.28,1.28,0,0,0-.19.16c-.09.09-.17.13-.22.12a.43.43,0,0,0-.2,0,.17.17,0,0,1-.22,0,2.75,2.75,0,0,0-.87-.19c-.51-.06-1.05-.53-1.63-1.42a3.45,3.45,0,0,1-.66-2.46,4.05,4.05,0,0,1,1.07-2.08,4.72,4.72,0,0,0,.9-1.13c0-.13-.19-.23-.65-.31q-1.82-.31-5.43,1.31c-2.4,1.09-3.77,2.53-4.08,4.33a9.12,9.12,0,0,0,.51,5.13,13.86,13.86,0,0,1,1.14,3.92,14.62,14.62,0,0,1,.27,5.4,4.23,4.23,0,0,1-2.64,3.21,9.94,9.94,0,0,1-5.77.39,9.4,9.4,0,0,1-5.82-3.37q-2.3-2.75-1.87-5.17.22-1.29,1.29-1.11a18.18,18.18,0,0,1,1.92,1.55,6.4,6.4,0,0,0,2.84,1.64c2,.35,3.23,0,3.63-1.09a8.39,8.39,0,0,0-.51-3.37q-1.95-4.41-1.12-11,.48-2.66,6.37-5.53t9.45-2.64C311,62.57,312.67,63.12,313.21,63.74Z"/><path class="cls-1" d="M328.3,91.1l.2-1.14a6,6,0,0,1-2.12,2.28,13.07,13.07,0,0,1-3.94,2q-5.56,2.31-7.73-1.83a6,6,0,0,1-1.2-6.54,33.23,33.23,0,0,1,5.37-11.41c3-4.06,4.57-6.15,4.7-6.29a4.44,4.44,0,0,1,2.83.54c1,.52,1.54,1.12,1.53,1.79a4.54,4.54,0,0,1-.55,2.91,20.39,20.39,0,0,1-2.61,4.36c-2.89,4.59-4.47,7.46-4.75,8.58s-.1,1.85.52,2.16a2.14,2.14,0,0,0,2,.43,9.54,9.54,0,0,0,3.67-2.44,26.52,26.52,0,0,0,4.52-5.5,21.58,21.58,0,0,0,2.82-6,2.56,2.56,0,0,1,.77-1.74,4.84,4.84,0,0,1,1.87-1.32,2.36,2.36,0,0,1,.93-.58c.36-.12.59-.06.71.17l1.23.14c.1,0,.28.29.55.84a4.16,4.16,0,0,0,.61,1q1.8,2.19-2.7,9.14-5.92,8.34-3,11.9c.71.7.81,2.07.29,4.12-.33.67-1.14.92-2.44.74a4.79,4.79,0,0,1-2.93-1.3c-.6-.78-1-2.62-1.22-5.53A4.74,4.74,0,0,1,328.3,91.1Z"/><path class="cls-1" d="M330.72,115.33c-1-1.4-1.41-2.4-1.3-3a61.21,61.21,0,0,1,2.79-7q2.63-6.07,3.7-7.95c.71-1.26,1.29-2.24,1.73-2.94,1.24-2,2.3-3.92,3.19-5.7s2.34-4.28,4.37-7.52,3.25-5.24,3.67-6l1.43-2.56c1.17-1.93,1.89-3.05,2.15-3.37.31-.57,1.53-1,3.65-1.16.95-.09,1.67.42,2.15,1.55q.47,1.33-1.38,4.29l-.8,1.43,2.84-.13c3.5.82,5.45,1.32,5.83,1.49a4.57,4.57,0,0,1,2.29,1,6.12,6.12,0,0,1,1.11,1.91,4.87,4.87,0,0,1,1.11,2.55q.18,2.53-2.72,6.16a15.73,15.73,0,0,1-5.61,4.8l-2.15.64c-.22.38-1.45.92-3.68,1.62a16.62,16.62,0,0,1-5.64.93,5.4,5.4,0,0,1-2.82-.62c-.93-.37-1.42-.4-1.47-.1-.36.56-.7,1.06-1,1.5s-.65,1-1,1.58q-8.11,15.47-8.82,16.83a15.85,15.85,0,0,1-1.26,2.28A9,9,0,0,1,330.72,115.33ZM361.38,83a2.36,2.36,0,0,0-2.22-1.56,14.48,14.48,0,0,0-5.19,1c-1.45.27-2.33.66-2.63,1.18-.65,1-1.35,2.11-2.09,3.23a5.16,5.16,0,0,0-1.1,2.47,3.64,3.64,0,0,0,2.53.52,14.92,14.92,0,0,0,4.58-1c1.73-.61,2.76-1.33,3.12-2.15a17.92,17.92,0,0,0,3.19-2.84A.83.83,0,0,0,361.38,83Z"/><path class="cls-1" d="M365.18,105l1-2.63a102,102,0,0,1,4.66-9.19q3.93-7.2,6.57-11.59,3-4.56,3.27-6.15c.05-.25.4-.63,1.06-1.14a2.69,2.69,0,0,1,2.11-.22,4.15,4.15,0,0,1,1.95,1.17,6,6,0,0,1,.09,4.39,7.86,7.86,0,0,1-2.36,3.65c-.13.13-.17.18-.11.14,3.3-1.25,6-1.53,8.09-.85A7.41,7.41,0,0,1,396,86.15a8.4,8.4,0,0,1,.82,5.57,10.17,10.17,0,0,1-1.89,3.62,12,12,0,0,1-2.53,2.88q-.46-.09-1.5,1.38a10.62,10.62,0,0,1-3.89,1.93c-1.86.59-3.06.73-3.64.42a.74.74,0,0,0-.49.61c-.07.36-1,.6-2.75.73a17.08,17.08,0,0,1-4,0,3.05,3.05,0,0,1-1.94-1,1.6,1.6,0,0,0-.73,1,6.91,6.91,0,0,1-1.15,2.1c-.7,1-1.2,1.47-1.5,1.42-.35.2-.4.48-.15.83a4.87,4.87,0,0,1-.87,2.28,8.8,8.8,0,0,1-1.4,3.5,6,6,0,0,1-.58,1.74c-.28.55-.52.81-.72.77s-.6.71-.86,2a5.68,5.68,0,0,1-1.73,3.17,3,3,0,0,1-2.34,1.08c-1-.07-1.55-.38-1.71-.93a5.88,5.88,0,0,1-.34-4.75,21.06,21.06,0,0,0,1.61-4.25l.8-2.36a6.84,6.84,0,0,0,1.47-3.42A2.19,2.19,0,0,1,365.18,105Zm11.34-7.62a13.49,13.49,0,0,0,4.19-.47,16.47,16.47,0,0,0,4.57-1.51A25.17,25.17,0,0,0,387.52,94a8.7,8.7,0,0,0,1.5-1.42,3.32,3.32,0,0,0,.52-3.82q-1.74-3-8.65,1.61a12.59,12.59,0,0,0-4,4.54C376.14,96.45,376,97.29,376.52,97.38Z"/><path class="cls-1" d="M423,88.81a2.9,2.9,0,0,1,1.86.33c.8.35,1.17.68,1.12,1a2.76,2.76,0,0,0,.08,1.11q.15.64.39.69c.49.14.47.55-.07,1.24a5.4,5.4,0,0,1-2,1.6,7.73,7.73,0,0,0-2.23,1.14,1.6,1.6,0,0,0-.06.81q.57,2.52-2.42,6a25.88,25.88,0,0,1-7.52,5.87,15.33,15.33,0,0,1-7.94,2.2c-1.23.21-2.49-.51-3.76-2.14a7.65,7.65,0,0,1-2.54-3.34,5.12,5.12,0,0,1-.59-3.31,31.36,31.36,0,0,1,6.18-11.38q4.63-5.72,9.55-7a6,6,0,0,1,3.34.11,2.88,2.88,0,0,1,2.1,1.86c.5,1.6.16,2.5-1,2.71-.55-.1-.87.08-.95.54a8.9,8.9,0,0,0,3.14.39C421.39,89.29,422.51,89.15,423,88.81Zm-8,5.09-1.36.15a1.7,1.7,0,0,1-.77-.53l-.94-1.73-1.52,1.07A13.92,13.92,0,0,0,406.64,97a18.5,18.5,0,0,0-2.15,4.47c-.31,1.15-.34,1.89-.11,2.21a1.54,1.54,0,0,0,1,.64,6.4,6.4,0,0,0,2.62-.44,5,5,0,0,1,1.56-.86,1.46,1.46,0,0,0,.48-.1,2.38,2.38,0,0,0,.29-.31,5.78,5.78,0,0,0,.42-.59,14.33,14.33,0,0,1,2.49-2.61,10.51,10.51,0,0,0,2.41-2.35,3.08,3.08,0,0,0,.56-1.66,1.43,1.43,0,0,0-.2-.86,3,3,0,0,0-.49-.32A2.24,2.24,0,0,1,415,93.9Z"/><path class="cls-1" d="M451.12,89.77A4.22,4.22,0,0,1,453,90.88a4.57,4.57,0,0,1,1.33,1.72c.92,2.5.82,4.26-.29,5.26q-3.13,2.65-6,1.53c-.25-.09-.49-.5-.72-1.22a4.92,4.92,0,0,1-.34-1.63c0-.25-.63.14-2,1.18l-2.43,1.8a39.42,39.42,0,0,0-5.35,6.21q-3.24,4.39-4.11,5.81a20.45,20.45,0,0,1-1.42,2.09,1.93,1.93,0,0,1-1,.77,3.47,3.47,0,0,1-1.67-.49c-.85-.38-1.33-.68-1.44-.91q-2.44-3,1-6.55c.48-.65,1.48-2.36,3-5.14s2.4-4.33,2.61-4.66a3.41,3.41,0,0,0,.18-1.89,1.51,1.51,0,0,0-1.18-.87c-1.06-.18-1.45-1.09-1.16-2.7a4.1,4.1,0,0,1,2.3-2.88,7,7,0,0,1,3.22-.1,4.81,4.81,0,0,1,2.77,1.15q.8.84.73,5.21c.4-.24,1.12-.75,2.15-1.54s1.74-1.32,2.16-1.61Q449.44,89.48,451.12,89.77Z"/><path class="cls-1" d="M478.34,89.24c-.09.5.24.82,1,1a32.69,32.69,0,0,0,3.32.27,5.5,5.5,0,0,1,1,0,2.21,2.21,0,0,1,1.34.39,3.47,3.47,0,0,1-.11,2.64c-.4,1.18-.86,1.83-1.4,1.94-.05,0-.61.05-1.67.18q-1.27.09-7.05-.38c-1.76,2.3-2.8,3.66-3.11,4.1a3.23,3.23,0,0,0-.49.82l-4.36,6.11c-.2,0-.33.1-.38.4.09.64,0,1-.29,1.2a6,6,0,0,0-1.28,1c.21.3,0,.86-.68,1.68a11.63,11.63,0,0,1-1.74,3.68,16.14,16.14,0,0,0-.16,1.77c0,.26.11.38.33.37a11.12,11.12,0,0,0,2.06.28q1.23-.33-2,5.12a22.25,22.25,0,0,1-2.93,2.66c-1,.73-1.61,1.08-1.86,1q-6.36-1.2-4.06-8.06a10.12,10.12,0,0,0,.68-1.61,5.76,5.76,0,0,1,1.26-2.28.47.47,0,0,0,.12-.68,17.23,17.23,0,0,1,2.15-4.23c-.23-.46,0-.88.61-1.26s.89-.72.76-1,0-.75.52-1.4,1-1.38,1.68-2.21a15.47,15.47,0,0,0,1.19-1.66,15.08,15.08,0,0,1,1.8-2.89c1.22-1.77,2-2.86,2.33-3.27.44-.13.3-.32-.4-.58a33.56,33.56,0,0,0-4.33-1,10,10,0,0,1-4.56-1.66,2.16,2.16,0,0,1,.21-2.54,2.63,2.63,0,0,1,2.71-1.17l9.86.87.45-1.25.72-.77c.23-.25.37-.41.44-.47a1.76,1.76,0,0,0,.21-.32,5.94,5.94,0,0,0,.55-1.38,9.78,9.78,0,0,0,2.2-3.6,25.94,25.94,0,0,0,2.38-2.87q3.11-4.31,6-1.61c1.34,1.28,1.85,2.36,1.54,3.25a4.16,4.16,0,0,1-.8,1.46,14.55,14.55,0,0,0-1.52,2.43,9.08,9.08,0,0,0-2.7,3.75A7.48,7.48,0,0,1,478.34,89.24Z"/></g></g></svg>