<svg xmlns="http://www.w3.org/2000/svg" viewBox="0 0 17 24"><defs><style>.cls-1{fill:#e41419;}</style></defs><title>Datový zdroj 1</title><g id="Vrstva_2" data-name="Vrstva 2"><g id="Map_Pin_4" data-name="Map Pin 4"><g id="_Skupina_" data-name="&lt;Skupina&gt;"><g id="_Skupina_2" data-name="&lt;Skupina&gt;"><g id="_Skupina_3" data-name="&lt;Skupina&gt;"><path id="_Složená_cesta_" data-name="&lt;Složená cesta&gt;" class="cls-1" d="M8.5,14A5.5,5.5,0,1,1,14,8.5,5.51,5.51,0,0,1,8.5,14Zm0-10A4.5,4.5,0,1,0,13,8.5,4.5,4.5,0,0,0,8.5,4Z"/></g></g><g id="_Skupina_4" data-name="&lt;Skupina&gt;"><g id="_Skupina_5" data-name="&lt;Skupina&gt;"><path id="_Složená_cesta_2" data-name="&lt;Složená cesta&gt;" class="cls-1" d="M8.5,14A5.5,5.5,0,1,1,14,8.5,5.51,5.51,0,0,1,8.5,14Zm0-10A4.5,4.5,0,1,0,13,8.5,4.5,4.5,0,0,0,8.5,4Z"/></g></g><g id="_Skupina_6" data-name="&lt;Skupina&gt;"><path id="_Složená_cesta_3" data-name="&lt;Složená cesta&gt;" class="cls-1" d="M8.5,24a.5.5,0,0,1-.33-.12C7.84,23.59,0,16.72,0,8.5a8.5,8.5,0,0,1,17,0c0,8.22-7.84,15.09-8.17,15.38A.5.5,0,0,1,8.5,24Zm0-23A7.51,7.51,0,0,0,1,8.5c0,6.84,6,12.93,7.5,14.32C10,21.42,16,15.33,16,8.5A7.51,7.51,0,0,0,8.5,1Z"/></g></g></g></g></svg>