<svg xmlns="http://www.w3.org/2000/svg" xmlns:xlink="http://www.w3.org/1999/xlink" viewBox="0 0 22.88 22.88"><defs><style>.cls-1{fill:none;}.cls-2{clip-path:url(#clip-path);}.cls-3{fill:#0f7b8d;}.cls-4{fill:#fff;}</style><clipPath id="clip-path" transform="translate(0 0)"><rect class="cls-1" width="22.88" height="22.88"/></clipPath></defs><title>Datový zdroj 8</title><g id="Vrstva_2" data-name="Vrstva 2"><g id="Vrstva_1-2" data-name="Vrstva 1"><g class="cls-2"><path class="cls-3" d="M22.88,11.44A11.44,11.44,0,1,1,11.44,0,11.44,11.44,0,0,1,22.88,11.44" transform="translate(0 0)"/><path class="cls-4" d="M7.11,11.63l1.1,1.31q.27.33,0,.57L7.65,14c-.19.15-.37.12-.55-.09l-1.63-2a.41.41,0,0,1,0-.6L7.1,9.39c.18-.22.36-.25.55-.1l.56.46c.18.16.18.35,0,.56Z" transform="translate(0 0)"/><path class="cls-4" d="M11.45,15.53c0,.2-.11.29-.28.28l-1-.09a.27.27,0,0,1-.28-.33l.74-8.45A.27.27,0,0,1,11,6.67l1,.09c.16,0,.24.12.22.32Z" transform="translate(0 0)"/><path class="cls-4" d="M13.84,10.38c-.19-.2-.2-.39,0-.56l.53-.49c.18-.16.36-.14.55.07l1.73,1.85a.6.6,0,0,1,.15.3.58.58,0,0,1-.12.31l-1.53,2c-.16.22-.34.26-.53.13L14,13.57c-.19-.15-.2-.33,0-.56l1-1.37Z" transform="translate(0 0)"/></g></g></g></svg>
