<svg xmlns="http://www.w3.org/2000/svg" viewBox="0 0 16 24"><defs><style>.cls-1{fill:#e3151c;}</style></defs><title>secure-by-design</title><g id="Vrstva_2" data-name="Vrstva 2"><g id="Tools"><g id="_Skupina_" data-name="&lt;Skupina&gt;"><g id="_Skupina_2" data-name="&lt;Skupina&gt;"><path id="_Cesta_" data-name="&lt;Cesta&gt;" class="cls-1" d="M3.5,12a.5.5,0,0,1-.5-.5V7A5,5,0,0,1,13,7V9h1V7A6,6,0,0,0,2,7v4.5a.5.5,0,0,1-1,0V7A7,7,0,0,1,15,7V9.5a.5.5,0,0,1-.5.5h-2a.5.5,0,0,1-.5-.5V7A4,4,0,0,0,4,7v4.5A.5.5,0,0,1,3.5,12Z"/></g><g id="_Skupina_3" data-name="&lt;Skupina&gt;"><path id="_Složená_cesta_" data-name="&lt;Složená cesta&gt;" class="cls-1" d="M13.5,24H2.5A2.5,2.5,0,0,1,0,21.5v-9A1.5,1.5,0,0,1,1.5,11h13A1.5,1.5,0,0,1,16,12.5v9A2.5,2.5,0,0,1,13.5,24ZM1.5,12a.5.5,0,0,0-.5.5v9A1.5,1.5,0,0,0,2.5,23h11A1.5,1.5,0,0,0,15,21.5v-9a.5.5,0,0,0-.5-.5Z"/></g><g id="_Skupina_4" data-name="&lt;Skupina&gt;"><path id="_Složená_cesta_2" data-name="&lt;Složená cesta&gt;" class="cls-1" d="M9.5,20h-3A.5.5,0,0,1,6,19.34l.62-1.87A2,2,0,0,1,6,16a2,2,0,0,1,4,0,2,2,0,0,1-.65,1.47L10,19.34A.5.5,0,0,1,9.5,20ZM7.19,19H8.81l-.52-1.56a.5.5,0,0,1,.22-.59A1,1,0,0,0,9,16a1,1,0,0,0-2,0,1,1,0,0,0,.49.86.5.5,0,0,1,.22.59Z"/></g></g></g></g></svg>