<?xml version="1.0" encoding="utf-8"?>
<!-- Generator: Adobe Illustrator 19.0.0, SVG Export Plug-In . SVG Version: 6.00 Build 0)  -->
<svg version="1.1" id="Layer_1" xmlns="http://www.w3.org/2000/svg" xmlns:xlink="http://www.w3.org/1999/xlink" x="0px" y="0px"
	 viewBox="-239 289 24 24" style="enable-background:new -239 289 24 24;" xml:space="preserve">
<g>
	<path d="M-216.1,297.3l-4.2-3.5c-0.6-0.5-1.4-0.8-2.1-0.8h-10c-1.1,0-2.1,0.6-2.6,1.6l-0.2,0.4h-3.2c-0.3,0-0.5,0.2-0.5,0.5
		s0.2,0.5,0.5,0.5h2.7l-1,2h-1.7c-0.3,0-0.5,0.2-0.5,0.5s0.2,0.5,0.5,0.5h1.2l-1,2h-0.2c-0.3,0-0.5,0.2-0.5,0.5
		c0,0.2,0.1,0.3,0.3,0.4c-0.2,0.4-0.3,0.8-0.3,1.1c0,1.6,1.3,2.9,2.9,2.9h0.1c0.2,1.7,1.7,3,3.4,3c1.7,0,3.2-1.3,3.4-3h4.1
		c0.2,1.7,1.7,3,3.4,3c1.8,0,3.2-1.3,3.4-3c0.5,0,1-0.3,1.3-0.8l1-1.9c0.5-1.1,0.8-2.2,0.8-3.4C-214.9,298.8-215.3,298-216.1,297.3z
		 M-232.4,308c-1.4,0-2.5-1.1-2.5-2.5s1.1-2.5,2.5-2.5c1.4,0,2.5,1.1,2.5,2.5S-231,308-232.4,308z M-221.4,308
		c-1.4,0-2.5-1.1-2.5-2.5s1.1-2.5,2.5-2.5c1.4,0,2.5,1.1,2.5,2.5S-220,308-221.4,308z M-216.6,302.8l-1,1.9
		c-0.1,0.1-0.2,0.2-0.4,0.3c-0.3-1.7-1.7-3-3.4-3c-1.8,0-3.2,1.3-3.4,3h-4.1c-0.2-1.7-1.7-3-3.4-3c-1.7,0-3.2,1.3-3.4,3h-0.1
		c-1.1,0-1.9-0.9-1.9-1.9c0-0.3,0.1-0.6,0.2-0.9l0.1-0.2h2.2c0.3,0,0.5-0.2,0.5-0.5s-0.2-0.5-0.5-0.5h-1.7l1-2h2.7
		c0.3,0,0.5-0.2,0.5-0.5s-0.2-0.5-0.5-0.5h-2.2l1-2h3.2c0.3,0,0.5-0.2,0.5-0.5s-0.2-0.5-0.5-0.5h-2.7c0.3-0.6,1-1,1.7-1h10
		c0.5,0,1.1,0.2,1.5,0.5l4.2,3.5c0.5,0.4,0.8,1.1,0.8,1.8C-215.9,300.8-216.1,302-216.6,302.8z"/>
	<path d="M-222.1,295.1c-0.1-0.1-0.3-0.1-0.5-0.1c-0.2,0.1-0.3,0.2-0.3,0.4l-1,4c0,0.1,0,0.3,0.1,0.4c0.1,0.1,0.2,0.2,0.4,0.2h6
		c0.2,0,0.4-0.1,0.5-0.3c0.1-0.2,0-0.4-0.2-0.6L-222.1,295.1z M-222.8,299l0.7-2.6l3.3,2.6H-222.8z"/>
</g>
</svg>
