<svg xmlns="http://www.w3.org/2000/svg" xmlns:xlink="http://www.w3.org/1999/xlink" viewBox="0 0 28.85 27.27"><defs><style>.cls-1{fill:none;}.cls-2{clip-path:url(#clip-path);}.cls-3{fill:#e7323c;}.cls-4{fill:#fff;}</style><clipPath id="clip-path" transform="translate(0 0)"><rect class="cls-1" width="28.85" height="27.27"/></clipPath></defs><title>Datový zdroj 13</title><g id="Vrstva_2" data-name="Vrstva 2"><g id="Vrstva_1-2" data-name="Vrstva 1"><g class="cls-2"><path class="cls-3" d="M28.85,13.64c0,7.53-6.46,13.63-14.42,13.63S0,21.17,0,13.64,6.46,0,14.43,0,28.85,6.11,28.85,13.64" transform="translate(0 0)"/><path class="cls-4" d="M7.37,15.13c0-.59,0-1.48.41-1.83A1.56,1.56,0,0,1,8.66,13,3.48,3.48,0,0,0,8.37,14a10.25,10.25,0,0,0,0,2.48A4.49,4.49,0,0,0,8.7,18h0c-.39,0-.67,0-.82-.23a4.3,4.3,0,0,1-.47-2.37Zm2.12,2a7.15,7.15,0,0,1-.16-1.89v-.14a4,4,0,0,1,.3-1.77c.15-.25.43-.3.77-.36a2.49,2.49,0,0,0,1.15-.49.22.22,0,0,0,.14-.12A2.32,2.32,0,0,0,12,12a17.63,17.63,0,0,0,1.43-1.77l.28-.4a5.88,5.88,0,0,0,1-2,5.48,5.48,0,0,0,.09-1.62V6.14c0-.34,0-.72.16-.75h.05c.32,0,.72.4,1,.77a3,3,0,0,1,.37,1.43A4.35,4.35,0,0,1,16.08,9a4.51,4.51,0,0,0-.34,1.75,2.16,2.16,0,0,0,1.68,1.83c.27.07.56.11.84.16a6.32,6.32,0,0,1,1.78.36c.29.14.39.39.33.79a.75.75,0,0,1-.52.67.51.51,0,0,0-.35.3.68.68,0,0,0,.07.58.85.85,0,0,1,.07.7,1,1,0,0,1-.67.64.5.5,0,0,0-.3.78.82.82,0,0,1-.06.72.52.52,0,0,1-.41.33h-.11a.67.67,0,0,0-.54.26.44.44,0,0,0,0,.4.66.66,0,0,1,0,.57.44.44,0,0,1-.31.19,3.12,3.12,0,0,1-.74.06c-.72-.06-1.48-.13-2.21-.26l-.35-.08-.52-.12a5.43,5.43,0,0,1-.84-.57l-.28-.21c-.06-.05-.14-.11-.21-.18a1.66,1.66,0,0,0-.66-.45,1.29,1.29,0,0,0-.72-.15,1.13,1.13,0,0,1-1.17-.91m-.39-5.2a2.86,2.86,0,0,0-2,.64c-.74.66-.73,1.92-.72,2.75v0a4.75,4.75,0,0,0,.73,3c.44.53,1.06.3,1.59.3h1.4c.16,0,.81.34,1,.37a6,6,0,0,1,1,.86c.72.74,5.13.85,5.34.8.76-.21,1.24-.53,1.24-1.24a1.9,1.9,0,0,0,.95-.89c.2-.37-.15-1,.19-1.12a1.62,1.62,0,0,0,.92-2.16A2.69,2.69,0,0,0,21.54,14,1.36,1.36,0,0,0,21,12.59a4.22,4.22,0,0,0-2.16-.79l-.3-.05-.27-.06c-.88-.21-1.5-.41-1.5-1.13a4,4,0,0,1,.31-1.38,5.23,5.23,0,0,0,.42-1.92,3.13,3.13,0,0,0-1.37-2.49,1.75,1.75,0,0,0-1.07-.38,1.17,1.17,0,0,0-1.16.84,2.63,2.63,0,0,0-.07,1.08c0,.09,0,.18,0,.28a3.3,3.3,0,0,1-.19,1.33,5.59,5.59,0,0,1-1,1.9l-.7.9a5.64,5.64,0,0,1-.95.88,1.61,1.61,0,0,1-.71.28l-.2,0" transform="translate(0 0)"/></g></g></g></svg>
