<?xml version="1.0" standalone="no"?>
<!DOCTYPE svg PUBLIC "-//W3C//DTD SVG 20010904//EN"
 "http://www.w3.org/TR/2001/REC-SVG-20010904/DTD/svg10.dtd">
<svg version="1.0" xmlns="http://www.w3.org/2000/svg"
 width="200.000000pt" height="200.000000pt" viewBox="0 0 200.000000 200.000000"
 preserveAspectRatio="xMidYMid meet">
<metadata>
Created by potrace 1.15, written by Peter Selinger 2001-2017
</metadata>
<g transform="translate(0.000000,200.000000) scale(0.100000,-0.100000)"
fill="#00788a" stroke="none">
<path d="M815 1865 c-171 -32 -314 -106 -444 -229 -267 -254 -343 -661 -186
-993 148 -315 444 -503 791 -503 340 0 647 196 789 504 124 267 100 600 -61
842 -195 293 -547 444 -889 379z m275 -495 c11 -6 24 -28 31 -49 10 -34 8 -45
-19 -107 l-31 -69 77 -3 c87 -3 115 -13 131 -49 9 -20 9 -30 -2 -47 -12 -18
-12 -24 1 -44 13 -20 13 -24 -2 -41 -12 -13 -15 -27 -10 -44 4 -19 0 -34 -15
-53 -12 -15 -21 -34 -21 -44 0 -50 -81 -67 -237 -50 -164 19 -153 8 -153 149
l0 119 26 6 c20 5 32 22 56 74 16 37 46 83 65 104 28 28 36 46 40 85 2 26 6
54 8 61 5 15 29 16 55 2z m-272 -322 c16 -16 17 -254 1 -264 -10 -6 -63 -8
-109 -5 -16 1 -13 268 3 274 24 10 93 7 105 -5z"/>
</g>
</svg>
