<svg xmlns="http://www.w3.org/2000/svg" width="850" height="21"><path fill-rule="evenodd" fill="#e41419" d="M839.875 20.72c-3.93 0-7.337-2.26-9.015-5.564H683.298c-1.675 3.303-5.077 5.563-9 5.563-3.925 0-7.327-2.26-9.003-5.564h-147.56c-1.68 3.303-5.086 5.563-9.016 5.563-3.932 0-7.34-2.26-9.017-5.564H350.296c-1.677 3.303-5.085 5.563-9.015 5.563-3.93 0-7.336-2.26-9.014-5.564H184.704c-1.675 3.303-5.077 5.563-9 5.563-3.925 0-7.327-2.26-9.002-5.564H19.14c-1.678 3.303-5.085 5.563-9.015 5.563-4.19 0-7.785-2.57-9.324-6.23-.492-.458-.8-1.11-.8-1.834V8.344C0 7.62.308 6.967.8 6.51 2.34 2.85 5.936.28 10.126.28c3.93 0 7.337 2.26 9.015 5.564h147.562c1.675-3.303 5.077-5.563 9-5.563 3.925 0 7.327 2.26 9.002 5.564h147.562C333.944 2.54 337.35.28 341.28.28c3.93 0 7.34 2.26 9.016 5.564h149.407C501.38 2.54 504.788.28 508.72.28c3.93 0 7.336 2.26 9.014 5.564h147.56c1.677-3.303 5.08-5.563 9.003-5.563 3.924 0 7.326 2.26 9 5.564H830.86C832.538 2.54 835.945.28 839.875.28 845.467.28 850 4.857 850 10.5c0 5.644-4.533 10.22-10.125 10.22z"/></svg>