<?xml version="1.0" encoding="iso-8859-1"?>
<!-- Generator: Adobe Illustrator 19.0.0, SVG Export Plug-In . SVG Version: 6.00 Build 0)  -->
<svg version="1.1" id="Layer_1" xmlns="http://www.w3.org/2000/svg" xmlns:xlink="http://www.w3.org/1999/xlink" x="0px" y="0px"
	 viewBox="0 0 30 30" style="enable-background:new 0 0 30 30;" xml:space="preserve">
<g>
	<g>
		<path d="M15,0C6.729,0,0,6.729,0,15s6.729,15,15,15s15-6.729,15-15S23.271,0,15,0z M15,29C7.28,29,1,22.72,1,15
			C1,7.28,7.28,1,15,1s14,6.28,14,14C29,22.72,22.72,29,15,29z M24.965,11.816c-0.069-0.177-0.234-0.298-0.423-0.314l-5.741-0.479
			l-3.369-5.775c-0.179-0.308-0.684-0.308-0.864,0l-3.369,5.775l-5.741,0.479c-0.189,0.016-0.353,0.137-0.423,0.314
			c-0.07,0.177-0.034,0.378,0.093,0.519l4.332,4.813l-1.451,7.254c-0.039,0.195,0.042,0.395,0.205,0.508
			c0.162,0.115,0.379,0.12,0.548,0.016L15,21.087l6.238,3.839C21.318,24.976,21.409,25,21.5,25c0.1,0,0.2-0.03,0.286-0.09
			c0.163-0.113,0.244-0.313,0.205-0.508l-1.451-7.254l4.332-4.813C24.999,12.193,25.035,11.992,24.965,11.816z M19.628,16.664
			c-0.106,0.118-0.15,0.278-0.119,0.433l1.275,6.375l-5.522-3.398C15.182,20.025,15.091,20,15,20s-0.182,0.025-0.263,0.076
			l-5.522,3.398l1.275-6.375c0.031-0.155-0.014-0.316-0.119-0.433l-3.826-4.251l4.996-0.417c0.163-0.013,0.308-0.105,0.391-0.246
			L15,6.492l3.067,5.258c0.083,0.141,0.228,0.233,0.391,0.246l4.996,0.417L19.628,16.664z"/>
	</g>
</g>
</svg>
