<svg xmlns="http://www.w3.org/2000/svg" viewBox="0 0 226.48 56.68"><defs><style>.cls-1{isolation:isolate;}.cls-2{fill:#2e343c;}</style></defs><title>THANK_you</title><g id="Thank_you_" data-name="Thank you!"><path class="cls-2" d="M856.93,804.71a19.67,19.67,0,0,1-2.34.18,17.45,17.45,0,0,1-1.2,2.94q-.18.66-.42,1.44a13.08,13.08,0,0,0-.6,2,43.19,43.19,0,0,0-2,5.67q-1.68,5.19-1.8,5.49l-2.88,7.86a27.23,27.23,0,0,0-2.07,5.43,29.24,29.24,0,0,1-1.41,4.26,3.28,3.28,0,0,1-.87,1.29,3.06,3.06,0,0,1-1.14.24,1.85,1.85,0,0,1-1.56-1,3.24,3.24,0,0,1-.69-2.13,22.75,22.75,0,0,1,1-4.23,41.19,41.19,0,0,1,1.71-4.86q.18-.84.45-1.71a7,7,0,0,0,.27-1,5.38,5.38,0,0,0,1-2.4q.33-1.62,4.35-14.16a12.43,12.43,0,0,0,1-2.28,1.38,1.38,0,0,0,.48-1.26l.42-.9a.23.23,0,0,1,.27-.06q.15.06.39-.18h-.06l-8.28.84a4.73,4.73,0,0,1-3.24-.57,1.71,1.71,0,0,1-.72-1.83q.36-1.5,3.42-2.1,1.2-.3,5.64-.84,3.9-.54,11.7-1.08.54,0,2.58.27a15.87,15.87,0,0,1,2.88.57,4,4,0,0,1,3.3,2.88,1.37,1.37,0,0,1-.66,1.74l-1.32.39-1.32.39a2.49,2.49,0,0,1-1.32-.12,5.59,5.59,0,0,0-.72-.54A13.55,13.55,0,0,0,856.93,804.71Z" transform="translate(-836.9 -794.39)"/><path class="cls-2" d="M878,831.29l.36-4.62q0-1.32-.66-1.32-1.2,0-4.17,2.19a39,39,0,0,0-6,5.67q-1.92,2.82-3.66,2.82a3.39,3.39,0,0,1-2-1.2,3.51,3.51,0,0,1-.9-2.4,38.75,38.75,0,0,1,1.8-7.32,11.85,11.85,0,0,1,.93-3.18,26.31,26.31,0,0,0,1.2-3.36q.45-1.62,2.19-6.45l2.46-6.81q.72-2,1-2.88.54-1.26.9-2.4,0-.48.69-.93a2.55,2.55,0,0,1,1.41-.45q.72,0,1.62,1.26a4,4,0,0,1,.54,4.32q-1,2.16-3.36,9a71.88,71.88,0,0,1-3.18,8.34l-.66,1.32-1,3.66c0,.12,0,.18.06.18a45.7,45.7,0,0,1,4.86-4.32,22.81,22.81,0,0,0,2.31-1.83,12.58,12.58,0,0,1,1.62-1.32,5.92,5.92,0,0,1,3.63-1.05,3.54,3.54,0,0,1,2.4,1.5,5.11,5.11,0,0,1,1.32,3.48v.9a43.79,43.79,0,0,1-1.2,6.72,5,5,0,0,0,.9-.12,2.85,2.85,0,0,1,1.83.51,4.1,4.1,0,0,0,.69.51.49.49,0,0,1,.12.36,2.9,2.9,0,0,1-1.5,2.4,6.11,6.11,0,0,1-2.88,1.14,3.3,3.3,0,0,1-2.7-1.26A4.7,4.7,0,0,1,878,831.29Z" transform="translate(-836.9 -794.39)"/><path class="cls-2" d="M889.57,835.37a2.81,2.81,0,0,0-.78-1.5q-.9-.9,3.72-9.36a7.9,7.9,0,0,0,.93-1.26,4.84,4.84,0,0,1,.75-1,.68.68,0,0,1,.18-.45.54.54,0,0,1,.42-.21l.48-1a14.53,14.53,0,0,1,2.34-2.58,22.12,22.12,0,0,1,3.36-2.82,4.46,4.46,0,0,1,2.58-.72,3.79,3.79,0,0,1,2.28.84,3.94,3.94,0,0,0,.78.66q1.14.9,5.1,4.44l-1,3a8.12,8.12,0,0,0,.72,7.32,2.59,2.59,0,0,0,2,1.5q1.44.24,1.44,1.32,0,2.46-1.62,2.82-4.68.66-7-3.84a6,6,0,0,1-1.08-2.64,12.85,12.85,0,0,1-1.38,1.56q-8.16,8.28-12.36,5.58a3.39,3.39,0,0,0-1-1Q889.57,835.49,889.57,835.37Zm14.1-15.66q-2.22,0-7.32,8.58a16.19,16.19,0,0,0-1.62,3.78q1,.12,3.72-2.16.54-.48,1.47-1.26l1.35-1.14,1.08-1a17.1,17.1,0,0,0,2-2.46l1.32-2.16Q904.69,819.71,903.67,819.71Z" transform="translate(-836.9 -794.39)"/><path class="cls-2" d="M933.49,832.61l.3-4.08v-1q-.18-1.2-.78-1.2-1.08,0-4,2.1a37.72,37.72,0,0,0-7.92,7.2,2.22,2.22,0,0,1-.87.69,2.84,2.84,0,0,1-1,0,3.38,3.38,0,0,1-1.71-1.2,6.87,6.87,0,0,1-1.44-2q0-2.4,2.4-7.08.3-1,1.65-4.17a19.13,19.13,0,0,0,1.53-4.95l-.06-.06a.53.53,0,0,1,.6-.6q.12-.18,1.2-.18a3.76,3.76,0,0,1,2.22.84,2.74,2.74,0,0,1,1.14,2.34,12,12,0,0,1-1.56,4.62q-1.56,3.12-1.56,3.24,1-.66,3.66-2.76,6.18-5,7.62-5a4.73,4.73,0,0,1,2.19.87,3.67,3.67,0,0,1,1.65,1.59l-.24,2.76.12,3.3a10.43,10.43,0,0,1-.24,2.7l.18.36q-.24.24.48,1.8a7.2,7.2,0,0,1,.72,2q0,.39-.87,1.2a3.25,3.25,0,0,1-1.65.93Q933.49,836.75,933.49,832.61Z" transform="translate(-836.9 -794.39)"/><path class="cls-2" d="M961.33,834.17l2.1-.42a2,2,0,0,1,1.5.6,1.9,1.9,0,0,1,.6,1.38q0,.78-2.16,2.1a7.28,7.28,0,0,1-3.24,1.32,4.2,4.2,0,0,1-2.46-1.08,28.31,28.31,0,0,1-4.08-4.62,5.34,5.34,0,0,0-.72-1.68,10.86,10.86,0,0,0-.9-1.5c0,.12,0,.1-.06-.06q-.48-1.44-1.08-1.5-.3,0-1,1.2a16.8,16.8,0,0,0-1.23,3,10.2,10.2,0,0,0-.57,2.94,3.15,3.15,0,0,1-.54,1.89,1.75,1.75,0,0,1-1.5.75q-.78-.18-2-1.83a4.94,4.94,0,0,1-1.26-2.61,8.89,8.89,0,0,0,.45-1.26q.27-.9.72-2.31l.81-2.55a17.44,17.44,0,0,0,1.26-3.18q.54-1,1.83-4.17t2.31-5.49q5-11.46,5.7-13.23a16.41,16.41,0,0,0,.9-2.67V799q0-1,2.46-1,.54,0,1.38,1a3.17,3.17,0,0,1,.84,1.89q0,2-4.23,10.95t-4.23,10.35c0,.12,0,.18.06.18a15.27,15.27,0,0,0,3.42-2.13,12.89,12.89,0,0,1,2.94-1.89q2.58-1.8,3.24-1.8a2,2,0,0,1,1.38.81,2.38,2.38,0,0,1,.72,1.53q0,2-6.66,5.58a28.11,28.11,0,0,0-2.58,1.5s.48.74,1.44,2.1q.54,1,1.11,2.16t.87,1.77a12.21,12.21,0,0,0,.66,1.11A2.14,2.14,0,0,0,961.33,834.17Z" transform="translate(-836.9 -794.39)"/><path class="cls-2" d="M971.68,846.14a2.22,2.22,0,0,1,1.65-.81,2.76,2.76,0,0,1,1.32.24,5.65,5.65,0,0,0,4.29,1.17q2-.39,4.23-3.45,2.52-4,3.84-6.42a7.5,7.5,0,0,1-2.4-2.43q-1.14-1.71-1-2.37v-.66q-.66,0-.87-3.72a34.86,34.86,0,0,1,0-5.25q.18-1.53.42-5.49a2.52,2.52,0,0,1,1.08-2.34,2.2,2.2,0,0,1,3.21,1q1,2,.75,6.33-.54,8.16,1.14,10.08a5.91,5.91,0,0,1,.9-1.8,14.59,14.59,0,0,0,.9-2.07,2.76,2.76,0,0,1,.3-.78q.24-.45,1.2-2.37,1.56-4.5,1.92-5.13t.57-1.08l.33-.69.3-.57c.12-.22.22-.39.3-.51a2.39,2.39,0,0,1,.3-.36,1.32,1.32,0,0,1,.54-.42,1.85,1.85,0,0,1,2.16-.06,10.57,10.57,0,0,1,1.26,1.44q.84,1.44-.72,4.32a13.84,13.84,0,0,1-1.92,4.14q-2,4.56-3.57,7.74t-2.31,5a87.53,87.53,0,0,1-5.4,8q-4,3.6-6,4a11.54,11.54,0,0,1-5.91-.21q-2.79-.87-3.21-2.43A1.94,1.94,0,0,1,971.68,846.14Z" transform="translate(-836.9 -794.39)"/><path class="cls-2" d="M1007.59,818.75a13.26,13.26,0,0,1,5.4-3.12q3.6-.84,5,.66,2.34,1,2.7,4.26.48,5-3.3,10.44a19.28,19.28,0,0,1-6.12,5.58q-1.56,1.08-5.52,1.32a3.82,3.82,0,0,1-2.34-1.14q-2.7-2.82-2.34-5l.12-1.38q-.3-.3-.15-.48l.21-.24q.36,0,.24-.57a5.21,5.21,0,0,1,.42-2.19,14.64,14.64,0,0,1,1.38-3A19.78,19.78,0,0,1,1007.59,818.75Zm6.81,7.83q.09-.21.33-.9a6.18,6.18,0,0,1,.45-1.05,4.9,4.9,0,0,0,.24-1.83q0-1.47-.45-1.77a1.62,1.62,0,0,0-1.08-.18,5.86,5.86,0,0,0-1.38.78q-4.56,3.84-5.46,8.22a3.3,3.3,0,0,0,.33,2.25q.51.75,1.71.39a5.24,5.24,0,0,0,2.16-1.29l1.26-1.23q.3-.3.51-.54a3,3,0,0,0,.42-.69c.14-.3.25-.52.33-.66a6.55,6.55,0,0,0,.33-.75Q1014.31,826.79,1014.4,826.58Z" transform="translate(-836.9 -794.39)"/><path class="cls-2" d="M1035.19,833v-.9a4.71,4.71,0,0,1-1.32,2,10.19,10.19,0,0,1-2.76,2q-4,2.52-6.18-.36a4.68,4.68,0,0,1-1.8-4.86,26,26,0,0,1,2.58-9.48q2.64-5.28,2.76-5.46a3.47,3.47,0,0,1,2.25,0q1.29.39,1.41,1.17a3.52,3.52,0,0,1,0,2.31,15.9,15.9,0,0,1-1.41,3.69q-2.4,5.88-2.49,7.23t.69,1.59a1.69,1.69,0,0,0,1.59.06,7.45,7.45,0,0,0,2.49-2.37,20.92,20.92,0,0,0,2.73-4.83,17,17,0,0,0,1.35-5,2,2,0,0,1,.36-1.44,3.81,3.81,0,0,1,1.26-1.26,1.73,1.73,0,0,1,.63-.57q.39-.21.57,0l1-.06q.12,0,.54.57a3.36,3.36,0,0,0,.6.69q1.68,1.44-.84,7.38-3.42,7.2-.72,9.54,1,.66.78,3.12-.24.84-1.77.9a3.77,3.77,0,0,1-2.43-.6q-.84-.78-1.68-4.08A3.89,3.89,0,0,1,1035.19,833Z" transform="translate(-836.9 -794.39)"/><path class="cls-2" d="M1045.15,832.79a4,4,0,0,1,1.74-.81,4.42,4.42,0,0,1,1.74.45q2,1.26,1.8,2.79t-2.64,2.73a3.83,3.83,0,0,1-4-.36Q1041.43,835.25,1045.15,832.79Zm7.62-22.32.78-2.1a58,58,0,0,0,3.12-6.78,49.29,49.29,0,0,0,2.13-5.67,2.25,2.25,0,0,1,.33-1,.71.71,0,0,1,.72-.27,2.7,2.7,0,0,1,1.44-.24,3.38,3.38,0,0,1,1.53.93,2.59,2.59,0,0,1,.57,1.8,6.26,6.26,0,0,1-.15,1.65q-.15.48-.27.81a8.91,8.91,0,0,1-.45,1q-.33.63-.45.93-.3.6-1.26,2.22-1.74,3.36-1.74,3.45t-.78,1.89a12.47,12.47,0,0,0-1,2.16,7.88,7.88,0,0,0-.51,1.68,3.33,3.33,0,0,1-.48,1q-.3,0-.3.48v.18a9.44,9.44,0,0,1-1.14,3.18,39.43,39.43,0,0,0-2.22,8,3.25,3.25,0,0,1-1.68,2.94,2.17,2.17,0,0,1-2.64-1.41q-.78-1.77.12-6a6.45,6.45,0,0,0,.84-2.52,24.73,24.73,0,0,1,2-5q.24,0,.51-.42a2.5,2.5,0,0,0,.27-1.32A1.76,1.76,0,0,1,1052.77,810.47Z" transform="translate(-836.9 -794.39)"/></g></svg>