<?xml version="1.0" encoding="utf-8"?>
<!-- Generator: Adobe Illustrator 19.0.0, SVG Export Plug-In . SVG Version: 6.00 Build 0)  -->
<svg version="1.1" id="Layer_1" xmlns="http://www.w3.org/2000/svg" xmlns:xlink="http://www.w3.org/1999/xlink" x="0px" y="0px"
	 viewBox="0 0 30 30" style="enable-background:new 0 0 30 30;" xml:space="preserve">
<g>
	<g>
		<path d="M9.5,29.5h-9C0.2,29.5,0,29.3,0,29V14c0-0.3,0.2-0.5,0.5-0.5h9c0.3,0,0.5,0.2,0.5,0.5v15C10,29.3,9.8,29.5,9.5,29.5z
			 M1,28.5h8v-14H1V28.5z"/>
	</g>
	<g>
		<path d="M24.2,28.5H13c-1.2,0-3-0.8-3.9-1.6C9.1,26.8,9,26.6,9,26.5v-12c0-0.2,0.1-0.4,0.3-0.4l0.9-0.4L14,5.9V1.5
			c0-0.2,0.1-0.3,0.3-0.4c0,0,1-0.6,2.2-0.6C18,0.5,20,3,20,5.5c0,1.8-0.5,3.9-0.8,5h7.3c0,0,0.1,0,0.1,0c0.1,0,0.2,0,0.4,0
			c1.7,0,3,1.3,3,3c0,0.8-0.3,1.5-0.8,2c0.5,0.5,0.8,1.2,0.8,2c0,1-0.5,2-1.4,2.5c0.3,0.4,0.4,1,0.4,1.5c0,1.4-0.9,2.6-2.2,2.9
			c0.1,0.4,0.2,0.7,0.2,1.1c0,1.5-1.1,2.8-2.6,3C24.3,28.5,24.2,28.5,24.2,28.5z M10,26.3c0.7,0.6,2.1,1.2,3,1.2h11.1
			c0,0,0.1,0,0.1,0c1-0.1,1.8-0.9,1.8-2c0-0.4-0.1-0.8-0.4-1.2c-0.1-0.2-0.1-0.4-0.1-0.5c0.1-0.2,0.3-0.3,0.4-0.3c0,0,0,0,0,0
			c1.1,0,2-0.9,2-2c0-0.5-0.2-1-0.5-1.3c-0.1-0.1-0.2-0.3-0.1-0.5c0-0.2,0.2-0.3,0.3-0.3c0.8-0.3,1.3-1,1.3-1.9
			c0-0.6-0.3-1.2-0.8-1.6c-0.1-0.1-0.2-0.2-0.2-0.4s0.1-0.3,0.2-0.4c0.5-0.4,0.8-1,0.8-1.6c0-1.1-0.9-2-2-2c-0.1,0-0.3,0-0.4,0
			c-0.1,0-0.2,0-0.3,0h-7.8c-0.2,0-0.3-0.1-0.4-0.2C18,11.2,18,11,18,10.8c0,0,1-3.1,1-5.3c0-2.2-1.8-4-2.5-4
			c-0.6,0-1.2,0.2-1.5,0.3V6c0,0.1,0,0.2-0.1,0.2l-4,8c0,0.1-0.1,0.2-0.2,0.2L10,14.8V26.3z"/>
	</g>
</g>
</svg>
