<svg xmlns="http://www.w3.org/2000/svg" viewBox="0 0 21 23"><defs><style>.cls-1{fill:#2e343c;}</style></defs><title>touch-and-move</title><g id="Vrstva_2" data-name="Vrstva 2"><g id="Slide_Left_Right" data-name="Slide Left &amp; Right"><g id="_Skupina_" data-name="&lt;Skupina&gt;"><g id="_Skupina_2" data-name="&lt;Skupina&gt;"><path id="_Cesta_" data-name="&lt;Cesta&gt;" class="cls-1" d="M19.5,3h-6a.5.5,0,0,1,0-1h6a.5.5,0,0,1,0,1Z"/></g><g id="_Skupina_3" data-name="&lt;Skupina&gt;"><path id="_Cesta_2" data-name="&lt;Cesta&gt;" class="cls-1" d="M17.5,5a.5.5,0,0,1-.35-.85L18.79,2.5,17.15.85a.5.5,0,0,1,.71-.71l2,2a.5.5,0,0,1,0,.71l-2,2A.5.5,0,0,1,17.5,5Z"/></g><g id="_Skupina_4" data-name="&lt;Skupina&gt;"><path id="_Cesta_3" data-name="&lt;Cesta&gt;" class="cls-1" d="M6.5,3H.5a.5.5,0,0,1,0-1h6a.5.5,0,0,1,0,1Z"/></g><g id="_Skupina_5" data-name="&lt;Skupina&gt;"><path id="_Cesta_4" data-name="&lt;Cesta&gt;" class="cls-1" d="M2.5,5a.5.5,0,0,1-.35-.15l-2-2a.5.5,0,0,1,0-.71l2-2a.5.5,0,0,1,.71.71L1.21,2.5,2.85,4.15A.5.5,0,0,1,2.5,5Z"/></g><g id="_Skupina_6" data-name="&lt;Skupina&gt;"><path id="_Složená_cesta_" data-name="&lt;Složená cesta&gt;" class="cls-1" d="M15.5,23H13.16A4.47,4.47,0,0,1,10,21.68L2.85,14.56a1.5,1.5,0,0,1,0-2.12,2.62,2.62,0,0,1,3.41-.24L8,13.5V5a2,2,0,1,1,4,0V8.27a2,2,0,0,1,2.89,1.07,2,2,0,0,1,3,1A2,2,0,0,1,21,12v5.5A5.51,5.51,0,0,1,15.5,23ZM4.7,12.68a1.61,1.61,0,0,0-1.14.47.5.5,0,0,0,0,.71L10.68,21a3.48,3.48,0,0,0,2.48,1H15.5A4.5,4.5,0,0,0,20,17.5V12a1,1,0,0,0-2,0v.5a.5.5,0,0,1-1,0V11a1,1,0,0,0-2,0v1.5a.5.5,0,0,1-1,0V10a1,1,0,0,0-2,0v2.5a.5.5,0,0,1-1,0V5A1,1,0,1,0,9,5v9.5a.5.5,0,0,1-.8.4L5.66,13A1.6,1.6,0,0,0,4.7,12.68Z"/></g></g></g></g></svg>