<svg xmlns="http://www.w3.org/2000/svg"  width="26px" height="20px" viewBox="0 0 420 341.32"><defs><style>.cls-1{fill:#fff;}</style></defs><title>twitter</title><g id="Vrstva_2" data-name="Vrstva 2"><g id="Twitter_alt" data-name="Twitter alt"><path class="cls-1" d="M377,85c.16,3.69.25,7.41.25,11.14,0,113.87-86.67,245.17-245.16,245.17A243.81,243.81,0,0,1,0,302.6a175.46,175.46,0,0,0,20.56,1.21,172.91,172.91,0,0,0,107-36.89,86.25,86.25,0,0,1-80.49-59.83A86.44,86.44,0,0,0,86,205.61a86.21,86.21,0,0,1-69.12-84.48V120a85.87,85.87,0,0,0,39,10.78,86.26,86.26,0,0,1-26.68-115,244.66,244.66,0,0,0,177.61,90A86.22,86.22,0,0,1,353.67,27.21,172.75,172.75,0,0,0,408.4,6.3,86.47,86.47,0,0,1,370.51,54,172,172,0,0,0,420,40.4,175.13,175.13,0,0,1,377,85Z"/></g></g></svg>