<?xml version="1.0" encoding="utf-8"?>
<!-- Generator: Adobe Illustrator 19.0.0, SVG Export Plug-In . SVG Version: 6.00 Build 0)  -->
<svg version="1.1" id="Layer_1" xmlns="http://www.w3.org/2000/svg" xmlns:xlink="http://www.w3.org/1999/xlink" x="0px" y="0px"
	 viewBox="0 0 30 30" style="enable-background:new 0 0 30 30;" xml:space="preserve">
<g>
	<g>
		<g>
			<path d="M12.1,10h-1c-0.3,0-0.5-0.2-0.5-0.5S10.8,9,11.1,9h1c0.3,0,0.5,0.2,0.5,0.5S12.4,10,12.1,10z"/>
		</g>
		<g>
			<path d="M18.9,10h-1c-0.3,0-0.5-0.2-0.5-0.5S17.6,9,17.9,9h1c0.3,0,0.5,0.2,0.5,0.5S19.2,10,18.9,10z"/>
		</g>
		<g>
			<path d="M11.1,6c-0.2,0-0.5-0.2-0.5-0.4l-0.5-3c0-0.3,0.1-0.5,0.4-0.6c0.3,0,0.5,0.1,0.6,0.4l0.5,3C11.6,5.7,11.5,5.9,11.1,6
				C11.2,6,11.1,6,11.1,6z"/>
		</g>
		<g>
			<path d="M9.1,9C9,9,8.8,9,8.8,8.9c-0.2-0.2-0.2-0.5,0-0.7c0.9-0.9,2.9-2.9,4.7-1c0.2,0.2,0.2,0.5,0,0.7s-0.5,0.2-0.7,0
				c-0.9-0.9-1.7-0.6-3.3,1C9.4,9,9.2,9,9.1,9z"/>
		</g>
		<g>
			<path d="M15.1,18c-1.7,0-2.6-0.8-3.5-1.5c-0.2-0.2-0.5-0.4-0.7-0.6c-1.2-0.9-1.9-3.2-2.1-4.1c-1.6-0.8-4.1-2.1-4.1-3.2
				c0-0.3-0.9-1.1-1.3-1.6C2.1,5.9,1.5,5.2,1.7,4.6C1.8,4.3,2,4.1,2.6,4c1.2-0.1,2.8,0.6,4,1.2c0.4,0.2,0.8,0.4,1.1,0.5
				c0.2-1,1.2-2.6,2-3C10.1,1.5,12.1,0,13.2,0c0.8,0,1.4,0.2,1.8,0.4C15.3,0.2,15.9,0,16.6,0c1.1,0,3,1.5,3.5,2.6
				C21,3,22.1,4.7,22.4,5.7c0.3-0.1,0.9-0.3,1.3-0.5C24.8,4.6,26.2,4,27.4,4c0.6,0,0.9,0.3,1,0.5c0.3,0.6-0.4,1.4-1.6,2.7
				c-0.5,0.5-1.3,1.4-1.4,1.7c0,1.1-2.4,2.3-4,3c-0.2,0.8-0.7,3.2-1.9,4c-0.2,0.2-0.4,0.3-0.6,0.5C17.7,17.2,16.6,18,15.1,18z
				 M2.8,5C3,5.3,3.6,5.9,4,6.3c1,1,1.6,1.7,1.6,2.3C5.7,9,7.4,10.2,9.3,11c0.1,0.1,0.2,0.2,0.3,0.3c0.2,0.8,0.9,3,1.8,3.7
				c0.3,0.2,0.5,0.4,0.8,0.6c0.9,0.7,1.6,1.3,2.9,1.3c1.2,0,2.1-0.7,3.1-1.4c0.2-0.2,0.4-0.3,0.6-0.5c0.9-0.7,1.5-2.9,1.6-3.7
				c0-0.2,0.1-0.3,0.3-0.4c1.8-0.7,3.6-1.8,3.6-2.2c0-0.6,0.6-1.3,1.7-2.4c0.4-0.4,1-1.1,1.3-1.5c-0.9,0-2.2,0.6-3.2,1.1
				c-1.2,0.5-1.9,0.8-2.4,0.5c-0.2-0.1-0.3-0.3-0.3-0.6c0-0.7-1.4-2.4-1.8-2.5c-0.3,0-0.5-0.2-0.5-0.5c-0.1-0.5-1.8-2-2.5-2
				c-0.8,0-1.1,0.3-1.1,0.4c-0.2,0.2-0.4,0.2-0.6,0.1c0,0-0.8-0.4-1.6-0.4c-0.8,0-2.5,1.5-2.6,2c0,0.3-0.2,0.5-0.5,0.5
				C9.8,3.6,8.6,5.3,8.6,6c0,0.3-0.1,0.5-0.3,0.6c-0.4,0.3-1.1,0-2.2-0.5C5.1,5.6,3.7,5,2.8,5z"/>
		</g>
		<g>
			<path d="M18.9,6C18.9,6,18.8,6,18.9,6c-0.4-0.1-0.5-0.3-0.5-0.6l0.5-2.5c0.1-0.3,0.3-0.4,0.6-0.4c0.3,0.1,0.4,0.3,0.4,0.6
				l-0.5,2.5C19.3,5.8,19.1,6,18.9,6z"/>
		</g>
		<g>
			<path d="M20.9,9c-0.1,0-0.3,0-0.4-0.1c-1.6-1.6-2.4-1.9-3.3-1c-0.2,0.2-0.5,0.2-0.7,0s-0.2-0.5,0-0.7c1.9-1.9,3.8,0.1,4.7,1
				c0.2,0.2,0.2,0.5,0,0.7C21.1,9,21,9,20.9,9z"/>
		</g>
		<g>
			<path d="M15.1,7c-0.3,0-0.5-0.2-0.5-0.5V1c0-0.3,0.2-0.5,0.5-0.5s0.5,0.2,0.5,0.5v5.5C15.6,6.8,15.4,7,15.1,7z"/>
		</g>
		<g>
			<path d="M9.1,30c-0.2,0-0.4-0.1-0.5-0.3c0,0-2.1-4.3-3-6c-0.1-0.2-0.1-0.5,0.2-0.7c0.2-0.1,0.5-0.1,0.7,0.2c0.9,1.7,2.9,5.9,3,6
				c0.1,0.3,0,0.5-0.2,0.7C9.3,30,9.2,30,9.1,30z"/>
		</g>
		<g>
			<path d="M28.9,30H1.1c-0.2,0-0.3-0.1-0.4-0.2c-0.1-0.1-0.1-0.3-0.1-0.4l2.8-9c0-0.1,0.1-0.2,0.2-0.2l6.3-5
				c0.2-0.2,0.5-0.1,0.7,0.1c0.2,0.2,0.1,0.5-0.1,0.7l-6.1,4.9L1.8,29h26.4l-2.7-8.2l-6.1-4.9c-0.2-0.2-0.3-0.5-0.1-0.7
				c0.2-0.2,0.5-0.3,0.7-0.1l6.3,5c0.1,0.1,0.1,0.1,0.2,0.2l3,9c0.1,0.2,0,0.3-0.1,0.5C29.2,29.9,29.1,30,28.9,30z"/>
		</g>
		<g>
			<path d="M20.9,30c0,0-0.1,0-0.1,0c-0.3-0.1-0.4-0.3-0.4-0.6c0-0.2,1.1-4.4,2.1-6.1c0.1-0.2,0.4-0.3,0.7-0.2
				c0.2,0.1,0.3,0.4,0.2,0.7c-0.9,1.6-1.9,5.8-1.9,5.9C21.3,29.8,21.1,30,20.9,30z"/>
		</g>
		<g>
			<path d="M14.1,26C14.1,26,14.1,26,14.1,26c-0.2,0-0.3-0.1-0.4-0.2c-1.9-2.7-5.1-6.8-6.3-7.3c-2.6-1.1-2.9-2.3-2.8-3.2
				c0.3-1.6,2.9-2.8,4.2-2.8c0.3,0,0.5,0.2,0.5,0.5s-0.2,0.5-0.5,0.5c-1,0-3,1-3.2,2c-0.2,0.9,1.3,1.7,2.2,2.1
				c1.6,0.7,5.2,5.5,6.4,7.2c1.5-1.6,6.2-6.5,7.8-7.2c1.7-0.7,2.6-1.5,2.4-2.2c-0.2-1-2.5-1.9-3.5-1.9c-0.3,0-0.5-0.2-0.5-0.5
				s0.2-0.5,0.5-0.5c1.3,0,4.1,1,4.5,2.6c0.3,1.2-0.8,2.3-3,3.3c-1.4,0.6-6.2,5.5-7.9,7.4C14.4,25.9,14.2,26,14.1,26z"/>
		</g>
	</g>
	<g>
		<path d="M14.1,30c-0.3,0-0.5-0.2-0.5-0.5v-4c0-0.3,0.2-0.5,0.5-0.5s0.5,0.2,0.5,0.5v4C14.6,29.8,14.4,30,14.1,30z"/>
	</g>
	<g>
		<path d="M14.6,21c-1.8,0-6.7-2.3-7.2-2.5C7.1,18.3,7,18,7.2,17.8c0.1-0.3,0.4-0.4,0.7-0.2c1.4,0.7,5.5,2.5,6.8,2.5
			c1.3,0,5.7-1.8,7.3-2.5c0.3-0.1,0.5,0,0.7,0.3c0.1,0.3,0,0.5-0.3,0.7C21.7,18.7,16.4,21,14.6,21z"/>
	</g>
</g>
</svg>
