<svg xmlns="http://www.w3.org/2000/svg" viewBox="0 0 1504 1057.78"><defs><style>.cls-1{fill:#e42b26;}.cls-2{fill:#fffffe;}</style></defs><title>youtube</title><g id="Vrstva_2" data-name="Vrstva 2"><g id="Vrstva_1-2" data-name="Vrstva 1"><g id="Layer_1"><path class="cls-1" d="M1416,70.8A197.13,197.13,0,0,0,1305.11,20.5c-91.45-10.24-183.72-15.39-276.3-18C936.82,0,844.44,0,752.26,0S567.72,0,475.72,2.52c-92.59,2.58-184.9,7.74-276.39,18A196.89,196.89,0,0,0,88.49,70.82a205.78,205.78,0,0,0-62,106.53c-13.08,56.72-19.7,115.9-23,175.45C.08,412.6,0,471.64,0,529s0,116.2,3.28,176c3.26,59.52,9.8,118.7,22.89,175.43A206.29,206.29,0,0,0,88.24,987,196.74,196.74,0,0,0,199,1037.29c91.51,10.23,183.81,15.39,276.41,18,92,2.57,184.38,2.57,276.55,2.51s184.59.05,276.58-2.51c92.58-2.58,184.86-7.73,276.36-18A196.84,196.84,0,0,0,1415.66,987a206.77,206.77,0,0,0,62.18-106.57c13-56.73,19.57-115.91,22.85-175.43,3.23-58.69,3.26-118.23,3.25-176h.06v-2.9h-.06c0-114.85,0-236.49-25.78-348.7A206.12,206.12,0,0,0,1416,70.8Z"/><path class="cls-2" d="M1037.37,500.65q-128.53-67.12-255.8-133.52-106-55.31-212.07-110.68l-23.38-12.2V783.59l23.31-12.08q117.3-60.76,233.94-121.24L1037.31,529l27.23-14.12-27.17-14.19Z"/></g></g></g></svg>