<?xml version="1.0" standalone="no"?>
<!DOCTYPE svg PUBLIC "-//W3C//DTD SVG 20010904//EN"
 "http://www.w3.org/TR/2001/REC-SVG-20010904/DTD/svg10.dtd">
<svg version="1.0" xmlns="http://www.w3.org/2000/svg"
 width="175.000000pt" height="175.000000pt" viewBox="0 0 175.000000 175.000000"
 preserveAspectRatio="xMidYMid meet">
<metadata>
Created by potrace 1.11, written by Peter Selinger 2001-2013
</metadata>
<g transform="translate(0.000000,175.000000) scale(0.100000,-0.100000)"
fill="#000000" stroke="none">
<path d="M1055 1677 c-16 -34 -57 -122 -92 -196 -35 -73 -63 -135 -63 -137 0
-1 6 -9 13 -16 97 -103 129 -139 112 -131 -43 23 -153 45 -218 44 -130 -2
-204 -22 -273 -75 -79 -59 -161 -198 -173 -293 -5 -43 -15 -72 -35 -97 -53
-70 -55 -84 -53 -342 2 -238 2 -239 29 -294 22 -45 38 -62 85 -90 54 -33 63
-35 143 -35 80 0 90 2 129 30 59 41 75 50 161 88 74 33 77 34 124 20 45 -13
50 -13 70 6 12 11 45 33 74 49 l52 28 -47 23 c-34 16 -43 25 -35 33 9 9 25 8
64 -5 46 -14 53 -15 61 -2 11 20 85 107 103 121 13 10 11 15 -11 33 -15 11
-35 23 -46 26 -23 7 -24 15 -6 40 13 17 15 17 55 -5 23 -13 44 -21 47 -18 5 5
105 328 105 339 0 4 -14 9 -32 13 l-32 6 48 49 c50 51 56 71 43 137 -4 17 -9
46 -11 65 -9 69 -17 124 -21 144 -2 11 -4 23 -4 28 -1 4 -10 7 -21 7 -26 0
-25 9 5 61 14 24 25 51 25 59 0 8 -41 84 -90 169 -50 85 -90 158 -90 163 0 10
2 10 -90 13 l-76 3 -29 -61z"/>
</g>
</svg>
