<?xml version="1.0" standalone="no"?>
<!DOCTYPE svg PUBLIC "-//W3C//DTD SVG 20010904//EN"
 "http://www.w3.org/TR/2001/REC-SVG-20010904/DTD/svg10.dtd">
<svg version="1.0" xmlns="http://www.w3.org/2000/svg"
 width="540.000000pt" height="540.000000pt" viewBox="0 0 540.000000 540.000000"
 preserveAspectRatio="xMidYMid meet">
<metadata>
Created by potrace 1.11, written by Peter Selinger 2001-2013
</metadata>
<g transform="translate(0.000000,540.000000) scale(0.100000,-0.100000)"
fill="#000000" stroke="none">
<path d="M1908 5385 c-2 -1 -28 -5 -58 -9 -486 -53 -908 -281 -1215 -657 -162
-199 -324 -569 -360 -825 -3 -21 -10 -59 -15 -84 -27 -140 -30 -474 -6 -685 2
-16 7 -57 11 -90 6 -49 28 -173 50 -281 35 -165 143 -511 204 -649 5 -11 16
-36 24 -55 113 -271 288 -593 457 -845 75 -112 214 -312 233 -335 7 -8 21 -29
31 -45 68 -106 230 -307 327 -407 232 -237 431 -366 623 -403 447 -86 818 342
1147 1325 98 296 123 443 94 575 -20 96 -11 178 36 322 57 172 59 247 9 436
-30 114 -116 317 -223 525 -61 120 -196 277 -304 355 -46 33 -50 43 -11 28 74
-28 245 -32 381 -10 218 37 427 127 755 324 173 104 700 491 1012 743 l55 45
-40 -7 c-250 -42 -523 -21 -810 63 -150 43 -393 137 -605 234 -287 131 -488
210 -670 265 -270 81 -418 112 -670 141 -67 8 -454 13 -462 6z"/>
</g>
</svg>
