<?xml version="1.0" encoding="UTF-8" standalone="no"?>
<!DOCTYPE svg PUBLIC "-//W3C//DTD SVG 1.1//EN" "http://www.w3.org/Graphics/SVG/1.1/DTD/svg11.dtd">
<svg width="100%" height="100%" viewBox="0 0 28 40" version="1.1" xmlns="http://www.w3.org/2000/svg" xmlns:xlink="http://www.w3.org/1999/xlink" xml:space="preserve" style="fill-rule:evenodd;clip-rule:evenodd;stroke-linecap:round;stroke-linejoin:round;">
    <g transform="matrix(1,0,0,1,0.0100839,-0.232036)">
        <g transform="matrix(0.230386,0,0,0.230386,0,0.230884)">
            <g>
                <clipPath id="_clip1">
                    <path d="M0,0L119.47,0L119.47,173.31L0,173.31L0,0Z"/>
                </clipPath>
                <g clip-path="url(#_clip1)">
                    <g transform="matrix(1,0,0,1,0,-0.28)">
                        <path d="M97.32,101.85C96.492,109.324 94.125,116.545 90.37,123.06C89.66,124.37 88.9,125.66 88.13,126.93C86.75,129.07 85.29,131.17 83.77,133.24C79.6,137.66 71.84,149.4 45.58,159.61C42.83,160.85 40.7,162.7 38.06,164.23C35.063,165.889 31.772,166.949 28.37,167.35C22.412,168.361 16.284,167.391 10.93,164.59C-3.42,158.22 2.4,137.78 1.36,124.79C1.523,121.387 1.48,117.978 1.23,114.58C1,110 0.94,105.18 4.41,101.14C6.68,98.35 8.41,95.94 9.25,92.92C9.563,91.889 9.778,90.831 9.89,89.76C10.09,87.76 9.3,84.71 10.24,83.01C11.18,81.31 12,79.88 13,78.35C13.23,78.64 13.54,78.62 13.87,77.98C15.1,75.66 16.39,73.37 17.87,71.18C20.906,66.301 25.009,62.174 29.87,59.11C38.26,54.11 50.61,53.36 60.13,54.44C65.31,55.105 70.338,56.647 75,59C76.837,59.93 78.608,60.986 80.3,62.16C80.59,62.38 80.9,62.56 81.19,62.8C84.152,65.01 86.814,67.595 89.11,70.49C91.374,73.382 93.21,76.585 94.56,80C97.243,86.95 98.19,94.451 97.32,101.85" style="fill:white;fill-rule:nonzero;"/>
                    </g>
                    <g transform="matrix(1,0,0,1,0,-0.28)">
                        <path d="M92.78,126.77C92.45,126.77 78.09,144.48 78.78,144.2C81.21,143.2 87.78,145.8 89.78,147.2C89.97,147.34 90.13,147.2 90.22,147.01C92.85,141.74 98.27,136.57 102.29,132.3C103.12,131.41 94.68,126.57 92.79,126.79M74.37,145.38C73.85,145.43 64.37,153.31 63.57,154.12C62.96,154.76 61.95,156.73 62.77,157.06C65.08,157.96 69.39,159.33 71.9,160.32C72.04,160.32 72.1,160.24 72.19,160.13C74.19,157.29 82.41,151.88 86.54,150.79C86.97,150.67 75.73,145.29 74.37,145.39M8.42,128C6.76,127 8.11,131.12 8.21,131.27C9.066,132.546 10.127,133.671 11.35,134.6C14.332,136.912 17.834,138.464 21.55,139.12C29.64,140.74 41.98,139 48.45,133.55C48.88,133.18 48.93,130.55 48.24,130.72C44.53,131.77 41.13,133.72 37.34,134.79C33.273,135.835 29.075,136.276 24.88,136.1C21.159,136.008 17.509,135.064 14.21,133.34C12.33,132.34 8.32,129.93 8.45,128.05L8.45,127.99" style="fill:rgb(29,29,27);fill-rule:nonzero;"/>
                    </g>
                    <g transform="matrix(1,0,0,1,0,-0.28)">
                        <path d="M115.89,91.82L106.47,96.22L105.76,96.02L105.7,96.02L100.09,94.5L99.41,94.32C99.41,93.22 99.29,92.11 99.17,90.99L99.03,90.99L99.17,90.99L99.81,90.73L104.22,88.96L105.72,89.33L109.25,90.23L114.7,91.62L115.89,91.82Z" style="fill:rgb(228,4,40);fill-rule:nonzero;"/>
                    </g>
                </g>
            </g>
            <path d="M115.89,91.53L115.58,92.57L105.24,126.4L99.45,122.67L106.27,96.69L106.47,95.93L115.89,91.53L115.89,91.53Z" style="fill:rgb(228,4,40);fill-rule:nonzero;"/>
            <g transform="matrix(1,0,0,1,0,-0.28)">
                <clipPath id="_clip2">
                    <path d="M0,0L119.47,0L119.47,173.31L0,173.31L0,0Z"/>
                </clipPath>
                <g clip-path="url(#_clip2)">
                    <path d="M106.47,96.21L99.47,122.95L99.37,122.95L94,121.06L93.43,120.87C95.981,115.903 97.768,110.58 98.73,105.08C99.325,101.516 99.559,97.901 99.43,94.29L100.11,94.47L105.75,96L106.47,96.21Z" style="fill:rgb(228,4,40);fill-rule:nonzero;"/>
                </g>
            </g>
            <path d="M119.46,78.85L106.6,92.65L100.87,68.72L100.78,68.35L114.8,47.26L114.81,47.26L115.17,49.66L119.46,78.85Z" style="fill:rgb(0,75,116);fill-rule:nonzero;"/>
            <path d="M114.81,47.26L100.78,68.35L100.41,68.27L100.4,68.27L88.58,65.84L87.73,65.66L87.73,65.65L87.56,65.63L87.62,65.53L87.9,65.14L88.49,64.33L92.54,58.66L102.06,45.38L109.75,46.52L112.96,46.99L112.97,46.99L114.8,47.26L114.81,47.26Z" style="fill:rgb(0,75,116);fill-rule:nonzero;"/>
            <path d="M96.58,0.83L78.12,41.78L77.34,41.67L63.07,39.55L81.69,0.3L94.49,0.76L96.58,0.83Z" style="fill:rgb(254,199,0);fill-rule:nonzero;"/>
            <path d="M96.58,0.83L78.12,41.78L77.34,41.67L63.07,39.55L81.69,0.3L94.49,0.76L96.58,0.83Z" style="fill-rule:nonzero;stroke:rgb(243,147,0);stroke-width:0.59px;"/>
            <path d="M115.99,34.7L109.77,46.52L99.25,66.52L92.54,58.66L78.64,42.38L78.12,41.78L96.58,0.83L97.76,2.88L115.99,34.7Z" style="fill:rgb(254,199,0);fill-rule:nonzero;"/>
            <path d="M115.99,34.7L109.77,46.52L99.25,66.52L92.54,58.66L78.64,42.38L78.12,41.78L96.58,0.83L97.76,2.88L115.99,34.7Z" style="fill-rule:nonzero;stroke:rgb(243,147,0);stroke-width:0.59px;"/>
            <g>
                <clipPath id="_clip3">
                    <path d="M0,0L119.47,0L119.47,173.31L0,173.31L0,0Z"/>
                </clipPath>
                <g clip-path="url(#_clip3)">
                    <g transform="matrix(1,0,0,1,0,-0.28)">
                        <path d="M115.89,91.82L115.58,92.82L106.81,96.91C106.702,96.955 106.587,96.979 106.47,96.98C106.404,96.99 106.336,96.99 106.27,96.98C105.917,96.89 105.668,96.569 105.668,96.205C105.668,96.129 105.679,96.053 105.7,95.98C105.762,95.752 105.924,95.565 106.14,95.47L114.68,91.47L115.89,91.82Z" style="fill:white;fill-rule:nonzero;"/>
                    </g>
                    <g transform="matrix(1,0,0,1,0,-0.28)">
                        <path d="M105.75,96L99.35,122.91C99.348,122.917 99.348,122.924 99.348,122.932C99.348,122.98 99.383,123.021 99.43,123.03C99.479,123.044 99.531,123.018 99.55,122.97L107.2,96.4C107.22,96.332 107.23,96.261 107.23,96.19C107.23,95.858 107.009,95.563 106.69,95.47C106.295,95.361 105.88,95.588 105.76,95.98" style="fill:white;fill-rule:nonzero;"/>
                    </g>
                    <g transform="matrix(1,0,0,1,0,-0.28)">
                        <path d="M106.61,92.94L99.86,91.15L99.16,91L99.02,91L99.15,90.95C98.325,81.554 94.295,72.722 87.74,65.94L88.58,66.11L100.4,68.54L100.79,68.62L100.89,69L105.72,89.21L106.61,92.94Z" style="fill:rgb(0,75,116);fill-rule:nonzero;"/>
                    </g>
                    <g transform="matrix(1,0,0,1,0,-0.28)">
                        <path d="M115.17,49.95L101.11,68.86C101.053,68.94 100.967,68.994 100.87,69.01C100.774,69.032 100.672,69.014 100.59,68.96C100.448,68.877 100.375,68.711 100.41,68.55C100.405,68.503 100.405,68.457 100.41,68.41L113,47.27L114.83,47.54L115.17,49.95Z" style="fill:white;fill-rule:nonzero;"/>
                    </g>
                </g>
            </g>
            <path d="M63.08,39.55L78.12,41.78L99.25,66.52L85.88,63.81L63.08,39.55Z" style="fill:rgb(243,146,0);fill-rule:nonzero;"/>
            <g>
                <clipPath id="_clip4">
                    <path d="M0,0L119.47,0L119.47,173.31L0,173.31L0,0Z"/>
                </clipPath>
                <g clip-path="url(#_clip4)">
                    <g transform="matrix(1,0,0,1,0,-0.28)">
                        <path d="M97.76,3.16L78.86,42.4C78.811,42.504 78.735,42.594 78.64,42.66C78.417,42.854 78.1,42.901 77.83,42.78C77.499,42.641 77.299,42.297 77.34,41.94C77.349,41.867 77.37,41.797 77.4,41.73L94.49,1L96.59,1.07L97.76,3.16Z" style="fill:white;fill-rule:nonzero;"/>
                    </g>
                    <g transform="matrix(1,0,0,1,0,-0.28)">
                        <path d="M35.61,78.57C35.395,77.564 35.087,76.579 34.69,75.63C33.24,71.04 28.45,68.63 24.43,68.63C22.258,68.853 20.174,69.605 18.36,70.82L17.84,71.17C16.39,73.36 15.1,75.64 13.84,77.97C13.5,78.61 13.2,78.62 12.97,78.34C12,79.88 11.1,81.45 10.24,83C9.38,84.55 10.09,87.74 9.89,89.74C9.775,90.811 9.561,91.869 9.25,92.9C9.25,93.08 9.32,93.27 9.35,93.44C10.209,98.449 14.301,102.316 19.35,102.89C20.941,103.081 22.554,102.982 24.11,102.6C33.29,100.3 37.66,87.8 35.64,78.55M67.2,86.71C58.6,79.28 41.13,83.79 39.27,96.17C38,103.39 44.27,116.26 54.38,115.69C65.86,115.04 74.68,103.69 71.11,92.69C70.385,90.368 69.031,88.291 67.2,86.69" style="fill:rgb(208,208,208);fill-rule:nonzero;"/>
                    </g>
                    <g transform="matrix(1,0,0,1,0,-0.28)">
                        <path d="M43.61,94.49C48.15,96.27 52.06,97.62 55.71,101.02C57.739,102.903 59.41,105.14 60.64,107.62C61.25,108.84 61.06,110.48 61.82,111.62C61.96,111.82 62.16,111.89 62.29,111.62C63.87,107.98 60.69,103.15 58.55,100.44C55.55,96.61 48.63,91.13 43.55,94.22C43.48,94.22 43.55,94.52 43.55,94.55M11.06,81.76C12.79,79.62 15.27,76.61 18.36,77.92C20.56,78.87 22,81.56 23.21,83.48C24.65,85.76 29.33,95.1 33.1,92.98C33.59,92.71 33.39,91.24 33.1,90.93C30.94,88.93 28.66,88.02 26.8,85.46C25.07,83.1 23.66,80.53 21.89,78.2C17.98,73.06 13.89,75.02 10.62,79.74C10.31,80.2 10.55,82.44 11.11,81.74M9,135.65C10,140.89 16.8,149.86 23,147.1C23.28,146.98 23.19,146 23,145.85C20.29,144.04 17.12,143.33 14.51,141.26C12.3,139.51 11.23,136.83 9.19,135.01C9.02,134.86 9.03,135.6 9.04,135.65M13.2,90.2L13.31,90.43C13.4,90.64 13.58,91.09 13.86,91.05C16.31,90.794 18.788,91.056 21.13,91.82C22.305,92.182 23.364,92.848 24.2,93.75C24.95,94.63 24.7,96.19 25.02,97.3C25.12,97.63 25.37,98.3 25.79,98.3L26,98.3C26.22,98.3 26.25,97.78 26.25,97.66C26.424,94.501 24.945,91.469 22.35,89.66C19.73,87.96 16.05,87.98 13.23,89.05C12.95,89.15 13.09,89.71 13.13,89.88C13.135,89.982 13.152,90.082 13.18,90.18" style="fill:rgb(29,29,27);fill-rule:nonzero;"/>
                    </g>
                    <g transform="matrix(1,0,0,1,0,-0.28)">
                        <path d="M24.77,96.9C23.85,99.53 21.86,101.22 20.3,100.68C18.74,100.14 18.23,97.58 19.14,94.95C20.05,92.32 22.04,90.64 23.6,91.18C25.16,91.72 25.67,94.28 24.76,96.9M57.58,110.42C56.993,111.482 55.871,112.144 54.657,112.144C52.825,112.144 51.317,110.636 51.317,108.804C51.317,108.625 51.331,108.447 51.36,108.27C51.947,107.208 53.069,106.546 54.283,106.546C56.115,106.546 57.623,108.054 57.623,109.886C57.623,110.065 57.609,110.243 57.58,110.42M41.3,127.36C43.7,128.11 46.14,129.36 47.46,131.59C49.39,134.84 47.51,137.77 46.01,140.65C45.89,140.87 45.32,142.87 46.19,142.27C52.58,137.89 51.82,122.6 41.76,126.27C41.56,126.34 40.98,127.27 41.3,127.36" style="fill:rgb(29,29,27);fill-rule:nonzero;"/>
                    </g>
                    <g transform="matrix(1,0,0,1,0,-0.28)">
                        <path d="M40.22,119.41C38.05,127.18 31.68,131.82 24.37,129.9C16.37,127.9 10.94,119.68 13.1,111.79C15.26,103.9 24.1,99.47 31.8,101.79C39.5,104.11 42.74,110.44 40.21,119.43" style="fill:rgb(228,4,40);fill-rule:nonzero;"/>
                    </g>
                    <g transform="matrix(1,0,0,1,0,-0.28)">
                        <path d="M47.42,103.24C48.346,103.892 49.355,104.416 50.42,104.8C51.484,105.384 52.489,106.07 53.42,106.85C55.308,108.498 56.93,110.427 58.23,112.57C58.95,113.62 59.05,110.26 58.88,109.79C57.913,107.647 56.437,105.772 54.58,104.33C53.05,102.99 49.46,100.2 47.41,101.71C47.09,101.95 47.18,103 47.41,103.24" style="fill:rgb(29,29,27);fill-rule:nonzero;"/>
                    </g>
                    <g transform="matrix(1,0,0,1,0,-0.28)">
                        <path d="M46.42,108.19C47.42,110.39 49.55,111.56 51.73,112.34C53.32,112.91 57.01,114.11 58.45,112.91C58.75,112.445 58.75,111.845 58.45,111.38C57.807,111.071 57.082,110.973 56.38,111.1C55.209,111.076 54.044,110.939 52.9,110.69C50.37,110.19 48.62,108.97 46.51,107.69C46.38,107.6 46.43,108.13 46.46,108.19" style="fill:rgb(29,29,27);fill-rule:nonzero;"/>
                    </g>
                    <g transform="matrix(1,0,0,1,0,-0.28)">
                        <path d="M97.6,101.8C96.772,109.266 94.416,116.483 90.68,123C89.96,124.31 89.21,125.59 88.42,126.87C87.06,129 85.58,131.11 84.07,133.18C79.91,137.61 72.14,149.35 45.87,159.55C43.13,160.8 41.01,162.64 38.37,164.18C35.364,165.834 32.067,166.893 28.66,167.3C22.702,168.314 16.574,167.344 11.22,164.54C-3.11,158.17 2.69,137.73 1.66,124.75C1.826,121.347 1.783,117.937 1.53,114.54C1.32,109.97 1.24,105.14 4.69,101.11C6.697,98.869 8.276,96.28 9.35,93.47C9.767,92.256 10.042,90.997 10.17,89.72C10.39,87.72 9.58,84.72 10.52,82.97C11.46,81.22 12.32,79.84 13.26,78.31C13.51,78.6 13.81,78.58 14.13,77.94C15.403,75.5 16.805,73.13 18.33,70.84C21.322,66.079 25.349,62.052 30.11,59.06C38.51,54.06 50.83,53.31 60.35,54.39C65.547,55.049 70.593,56.592 75.27,58.95C77.108,59.879 78.879,60.934 80.57,62.11C80.87,62.33 81.19,62.52 81.48,62.75C84.439,64.962 87.101,67.547 89.4,70.44C91.658,73.339 93.493,76.545 94.85,79.96C97.537,86.906 98.481,94.405 97.6,101.8M99.06,78.25C95.991,70.573 90.732,63.965 83.94,59.25C78.768,55.57 72.903,52.978 66.7,51.63C64.607,51.076 62.483,50.645 60.34,50.34C50.5,48.96 38.42,50.34 29.63,55.15C21.88,59.41 16.89,67.55 12.9,75.1C12.75,75.39 10.68,79.62 9.72,81.26C9.384,81.735 9.218,82.309 9.25,82.89C9.3,83.68 9.32,84.49 9.34,85.26C9.378,86.906 9.247,88.551 8.95,90.17C8.879,90.595 8.785,91.015 8.67,91.43C7.39,96.12 2.84,98.65 1.38,103.62C0.271,106.962 -0.197,110.484 0,114C0.54,120.52 0.27,126.5 0.19,132.6C0.59,145.16 -1.91,161.8 10.85,168.6C21.07,176.16 36.6,174.4 43.85,165C65.031,158.473 82.983,144.18 94.09,125C96.101,121.523 97.801,117.876 99.17,114.1C100.56,110.277 101.509,106.308 102,102.27C102.986,94.151 101.981,85.913 99.07,78.27" style="fill:rgb(29,29,27);fill-rule:nonzero;"/>
                    </g>
                </g>
            </g>
        </g>
    </g>
</svg>
